<svg width="9" height="5" viewBox="0 0 12 5" fill="none" xmlns="http://www.w3.org/2000/svg">
<path d="M11.5327 1.27796C11.8243 0.983762 11.8222 0.508893 11.528 0.217309C11.2338 -0.0742744 10.7589 -0.0721557 10.4673 0.222041L8.72 1.98501C8.01086 2.7005 7.52282 3.19131 7.1093 3.52341C6.7076 3.846 6.44958 3.95668 6.2185 3.98613C6.07341 4.00462 5.92659 4.00462 5.7815 3.98613C5.55042 3.95668 5.2924 3.84601 4.89071 3.52341C4.47718 3.19131 3.98914 2.70051 3.28 1.98501L1.53269 0.222042C1.24111 -0.072155 0.766238 -0.0742736 0.472041 0.21731C0.177844 0.508894 0.175726 0.983763 0.467309 1.27796L2.24609 3.07269C2.91604 3.74866 3.46359 4.30114 3.95146 4.69294C4.45879 5.10037 4.97373 5.39531 5.59184 5.47409C5.86287 5.50864 6.13714 5.50864 6.40816 5.47409C7.02628 5.39531 7.54122 5.10037 8.04854 4.69294C8.53641 4.30114 9.08396 3.74867 9.7539 3.07269L11.5327 1.27796Z" fill="#1D1D1B"/>
</svg>

