<svg width="24" height="24" viewBox="0 0 24 24" fill="none" xmlns="http://www.w3.org/2000/svg">
<path d="M17.5327 10.278C17.8243 9.98376 17.8222 9.50889 17.528 9.21731C17.2338 8.92573 16.7589 8.92784 16.4673 9.22204L14.72 10.985C14.0109 11.7005 13.5228 12.1913 13.1093 12.5234C12.7076 12.846 12.4496 12.9567 12.2185 12.9861C12.0734 13.0046 11.9266 13.0046 11.7815 12.9861C11.5504 12.9567 11.2924 12.846 10.8907 12.5234C10.4772 12.1913 9.98914 11.7005 9.28 10.985L7.53269 9.22204C7.24111 8.92784 6.76624 8.92573 6.47204 9.21731C6.17784 9.50889 6.17573 9.98376 6.46731 10.278L8.24609 12.0727C8.91604 12.7487 9.46359 13.3011 9.95146 13.6929C10.4588 14.1004 10.9737 14.3953 11.5918 14.4741C11.8629 14.5086 12.1371 14.5086 12.4082 14.4741C13.0263 14.3953 13.5412 14.1004 14.0485 13.6929C14.5364 13.3011 15.084 12.7487 15.7539 12.0727L17.5327 10.278Z" fill="#E9E9E9"/>
</svg>