<svg width="9" height="5" viewBox="0 0 12 5" fill="none" xmlns="http://www.w3.org/2000/svg">
<path d="M11.5327 4.72204C11.8243 5.01624 11.8222 5.49111 11.528 5.78269C11.2338 6.07427 10.7589 6.07216 10.4673 5.77796L8.72 4.01499C8.01086 3.2995 7.52282 2.80869 7.1093 2.47659C6.7076 2.154 6.44958 2.04332 6.2185 2.01387C6.07341 1.99538 5.92659 1.99538 5.7815 2.01387C5.55042 2.04332 5.2924 2.15399 4.89071 2.47659C4.47718 2.80869 3.98914 3.29949 3.28 4.01499L1.53269 5.77796C1.24111 6.07216 0.766238 6.07427 0.472041 5.78269C0.177844 5.49111 0.175726 5.01624 0.467309 4.72204L2.24609 2.92731C2.91604 2.25134 3.46359 1.69886 3.95146 1.30706C4.45879 0.899627 4.97373 0.604694 5.59184 0.525908C5.86287 0.491363 6.13714 0.491364 6.40816 0.525908C7.02628 0.604694 7.54122 0.899628 8.04854 1.30706C8.53641 1.69886 9.08396 2.25133 9.7539 2.92731L11.5327 4.72204Z" fill="#1D1D1B"/>
</svg>
