<svg width="68" height="64" viewBox="0 0 68 64" fill="none" xmlns="http://www.w3.org/2000/svg">
<path d="M7 32.5407C7 29.2269 9.68629 26.5406 13 26.5406H56C59.3137 26.5406 62 29.2269 62 32.5406V41.2783C62 44.5921 59.3137 47.2783 56 47.2783H13C9.68629 47.2783 7 44.5921 7 41.2783V32.5407Z" fill="url(#paint0_linear_1_678)"/>
<path d="M16.9182 32.4014C16.9182 22.6912 24.7899 14.8195 34.5001 14.8195C44.2104 14.8195 52.0821 22.6912 52.0821 32.4014V41.4178C52.0821 51.1281 44.2104 58.9998 34.5001 58.9998C24.7899 58.9998 16.9182 51.1281 16.9182 41.4178V32.4014Z" fill="url(#paint1_linear_1_678)"/>
<path d="M56.5902 46.377L56.5899 31.6214C56.6166 26.7587 55.038 22.023 52.099 18.1489C49.16 14.2748 45.0247 11.4787 40.3346 10.1943C35.6445 8.90991 30.6616 9.20901 26.1588 11.0452C21.656 12.8814 17.8849 16.1521 15.4304 20.3499C14.6764 21.6395 13.0197 22.0737 11.7301 21.3197C10.4404 20.5656 10.0063 18.9089 10.7603 17.6193C13.8159 12.3934 18.5106 8.32172 24.1161 6.03586C29.7216 3.74999 35.9248 3.37764 41.7635 4.97657C47.6022 6.5755 52.7502 10.0563 56.409 14.8792C60.0678 19.7021 62.0329 25.5976 61.9996 31.6512L62.0001 46.377C62.0001 53.3485 56.3486 59 49.3771 59H37.205C35.7111 59 34.5001 57.789 34.5001 56.2951C34.5001 54.8012 35.7111 53.5902 37.205 53.5902H49.3771C53.3608 53.5902 56.5902 50.3607 56.5902 46.377Z" fill="url(#paint2_linear_1_678)"/>
<defs>
<linearGradient id="paint0_linear_1_678" x1="34.5" y1="26.5406" x2="34.5" y2="47.2783" gradientUnits="userSpaceOnUse">
<stop stop-color="#8DDDD8"/>
<stop offset="1" stop-color="#3AC2BA"/>
</linearGradient>
<linearGradient id="paint1_linear_1_678" x1="34.4998" y1="17.5731" x2="34.4998" y2="56.2453" gradientUnits="userSpaceOnUse">
<stop stop-color="#EBF9F8"/>
<stop offset="1" stop-color="#A4F2EE"/>
</linearGradient>
<linearGradient id="paint2_linear_1_678" x1="36.195" y1="4" x2="36.195" y2="59" gradientUnits="userSpaceOnUse">
<stop stop-color="#8DDDD8"/>
<stop offset="1" stop-color="#3AC2BA"/>
</linearGradient>
</defs>
</svg>
