<svg width="68" height="64" viewBox="0 0 68 64" fill="none" xmlns="http://www.w3.org/2000/svg">
<path d="M62 14C62 12.8954 61.1046 12 60 12H8C6.89543 12 6 12.8954 6 14V19C6 20.1046 6.89543 21 8 21H60C61.1046 21 62 20.1046 62 19V14ZM10.8019 19.7587C8.90821 19.7587 7.35278 18.3312 7.35278 16.5933C7.35278 14.8553 8.90821 13.4278 10.8019 13.4278C12.6957 13.4278 14.2511 14.8553 14.2511 16.5933C14.2511 18.3308 12.6957 19.7587 10.8019 19.7587ZM20.2029 19.7587C18.3092 19.7587 16.7537 18.3312 16.7537 16.5933C16.7537 14.8553 18.3092 13.4278 20.2029 13.4278C22.0966 13.4278 23.6521 14.8553 23.6521 16.5933C23.6521 18.3308 22.0966 19.7587 20.2029 19.7587ZM29.6039 19.7587C27.7101 19.7587 26.1547 18.3312 26.1547 16.5933C26.1547 14.8553 27.7101 13.4278 29.6039 13.4278C31.4976 13.4278 33.053 14.8553 33.053 16.5933C33.053 18.3308 31.4976 19.7587 29.6039 19.7587Z" fill="black"/>
<path d="M6 14C6 12.8954 6.89543 12 8 12H60C61.1046 12 62 12.8954 62 14V19C62 20.1046 61.1046 21 60 21H8C6.89543 21 6 20.1046 6 19V14Z" fill="url(#paint0_linear_1_688)"/>
<path d="M6 26C6 24.8954 6.89543 24 8 24H60C61.1046 24 62 24.8954 62 26V51C62 52.1046 61.1046 53 60 53H8C6.89543 53 6 52.1046 6 51V26Z" fill="url(#paint1_linear_1_688)"/>
<path fill-rule="evenodd" clip-rule="evenodd" d="M25.0725 47.7156C25.6136 47.1999 25.6136 46.4268 25.0725 45.9112L18.8819 40.0121C18.0548 39.224 18.0548 37.9044 18.8819 37.1163L25.0725 31.2175C25.6137 30.7019 25.6137 29.9287 25.0725 29.4131C24.5314 28.8975 23.7199 28.8975 23.1788 29.4131L14.5218 37.7266C14.2515 37.9842 14.1161 38.3065 14.1161 38.6288C14.1161 38.9511 14.2515 39.2735 14.5218 39.531L23.1788 47.7156C23.4491 47.9732 23.7874 48.1022 24.1257 48.1022C24.4639 48.1022 24.8022 47.9732 25.0725 47.7156ZM30.5509 47.4578L39.8165 30.96C40.2222 30.3155 39.9518 29.5422 39.3437 29.2842C38.6672 28.9619 37.8557 29.1552 37.5175 29.7998L28.184 46.2976C27.8458 46.9422 28.0486 47.7154 28.7251 48.0377C28.928 48.1025 29.1309 48.1667 29.3337 48.1667C29.8069 48.1667 30.2805 47.9091 30.5509 47.4578ZM44.8213 47.78L53.4783 39.5312C53.7486 39.2731 53.8841 38.9512 53.8841 38.6289C53.8841 38.3066 53.7487 37.9843 53.4783 37.7267L44.8213 29.4778C44.2801 28.9622 43.4687 28.9622 42.9276 29.4778C42.3865 29.9935 42.3865 30.7667 42.9276 31.2823L49.1182 37.181C49.9453 37.9691 49.9453 39.2888 49.1182 40.0769L42.9276 45.9756C42.3865 46.4913 42.3865 47.2644 42.9276 47.78C43.1979 48.0376 43.5362 48.1666 43.8744 48.1666C44.2127 48.1666 44.551 48.0376 44.8213 47.78Z" fill="url(#paint2_linear_1_688)"/>
<circle cx="11.5" cy="16.5" r="2.5" fill="url(#paint3_linear_1_688)"/>
<circle cx="18.5" cy="16.5" r="2.5" fill="url(#paint4_linear_1_688)"/>
<circle cx="25.5" cy="16.5" r="2.5" fill="url(#paint5_linear_1_688)"/>
<defs>
<linearGradient id="paint0_linear_1_688" x1="34" y1="12" x2="34" y2="21" gradientUnits="userSpaceOnUse">
<stop stop-color="#8DDDD8"/>
<stop offset="1" stop-color="#3AC2BA"/>
</linearGradient>
<linearGradient id="paint1_linear_1_688" x1="33.9994" y1="25.8075" x2="33.9994" y2="51.1919" gradientUnits="userSpaceOnUse">
<stop stop-color="#EBF9F8"/>
<stop offset="1" stop-color="#A4F2EE"/>
</linearGradient>
<linearGradient id="paint2_linear_1_688" x1="34.0001" y1="29.0264" x2="34.0001" y2="48.1667" gradientUnits="userSpaceOnUse">
<stop stop-color="#8DDDD8"/>
<stop offset="1" stop-color="#3AC2BA"/>
</linearGradient>
<linearGradient id="paint3_linear_1_688" x1="11.4999" y1="14.3116" x2="11.4999" y2="18.6883" gradientUnits="userSpaceOnUse">
<stop stop-color="#EBF9F8"/>
<stop offset="1" stop-color="#A4F2EE"/>
</linearGradient>
<linearGradient id="paint4_linear_1_688" x1="18.4999" y1="14.3116" x2="18.4999" y2="18.6883" gradientUnits="userSpaceOnUse">
<stop stop-color="#EBF9F8"/>
<stop offset="1" stop-color="#A4F2EE"/>
</linearGradient>
<linearGradient id="paint5_linear_1_688" x1="25.4999" y1="14.3116" x2="25.4999" y2="18.6883" gradientUnits="userSpaceOnUse">
<stop stop-color="#EBF9F8"/>
<stop offset="1" stop-color="#A4F2EE"/>
</linearGradient>
</defs>
</svg>
