<svg width="27" height="27" viewBox="0 0 27 27" fill="none" xmlns="http://www.w3.org/2000/svg">
<path fill-rule="evenodd" clip-rule="evenodd" d="M16.4981 2.62129C16.6982 2.52127 16.9298 2.50478 17.142 2.57545C17.3542 2.64612 17.5297 2.79816 17.6299 2.99817L20.106 7.95042C21.6281 8.06742 22.5833 8.36667 23.1998 9.12829C24.2123 10.3815 23.8084 12.267 23.0006 16.0392L22.518 18.2892C21.9701 20.8463 21.6968 22.1243 20.7686 22.8747C19.8405 23.625 18.5333 23.625 15.9188 23.625H11.0813C8.46675 23.625 7.1595 23.625 6.2325 22.8747C5.30325 22.1243 5.02875 20.8463 4.482 18.2892L3.99938 16.0392C3.19162 12.267 2.78662 10.3815 3.80025 9.12829C4.41675 8.36554 5.37188 8.06742 6.894 7.95042L9.37013 2.99817C9.47112 2.79975 9.64644 2.6493 9.85789 2.57959C10.0693 2.50988 10.2998 2.52657 10.499 2.62601C10.6982 2.72546 10.85 2.89961 10.9213 3.11051C10.9927 3.32141 10.9778 3.55196 10.8799 3.75192L8.8155 7.88067C9.35888 7.87504 9.95175 7.87504 10.5998 7.87504H16.4003C17.0483 7.87504 17.6411 7.87504 18.1845 7.88067L16.1201 3.75192C16.0202 3.55171 16.0039 3.32 16.0747 3.10776C16.1456 2.89552 16.2979 2.72125 16.4981 2.62129ZM8.15625 13.5C8.15625 13.2763 8.24515 13.0617 8.40338 12.9034C8.56161 12.7452 8.77622 12.6563 9 12.6563H18C18.2238 12.6563 18.4384 12.7452 18.5966 12.9034C18.7549 13.0617 18.8438 13.2763 18.8438 13.5C18.8438 13.7238 18.7549 13.9384 18.5966 14.0967C18.4384 14.2549 18.2238 14.3438 18 14.3438H9C8.77622 14.3438 8.56161 14.2549 8.40338 14.0967C8.24515 13.9384 8.15625 13.7238 8.15625 13.5ZM11.25 16.0313C11.0262 16.0313 10.8116 16.1202 10.6534 16.2784C10.4951 16.4367 10.4063 16.6513 10.4063 16.875C10.4063 17.0988 10.4951 17.3134 10.6534 17.4717C10.8116 17.6299 11.0262 17.7188 11.25 17.7188H15.75C15.9738 17.7188 16.1884 17.6299 16.3466 17.4717C16.5049 17.3134 16.5938 17.0988 16.5938 16.875C16.5938 16.6513 16.5049 16.4367 16.3466 16.2784C16.1884 16.1202 15.9738 16.0313 15.75 16.0313H11.25Z" fill="url(#paint0_linear_1_541)"/>
<defs>
<linearGradient id="paint0_linear_1_541" x1="13.4998" y1="2.53223" x2="13.4998" y2="23.625" gradientUnits="userSpaceOnUse">
<stop stop-color="#8F6DFF"/>
<stop offset="1" stop-color="#542CA7"/>
</linearGradient>
</defs>
</svg>
