<svg width="27" height="27" viewBox="0 0 27 27" fill="none" xmlns="http://www.w3.org/2000/svg">
<path d="M13.5 1.6875C6.97676 1.6875 1.6875 6.97676 1.6875 13.5C1.6875 20.0232 6.97676 25.3125 13.5 25.3125C20.0232 25.3125 25.3125 20.0232 25.3125 13.5C25.3125 6.97676 20.0232 1.6875 13.5 1.6875ZM14.088 19.227L14.0933 20.0628C14.0933 20.1788 13.9983 20.2764 13.8823 20.2764H13.1335C13.0175 20.2764 12.9226 20.1814 12.9226 20.0654V19.2375C10.5812 19.0635 9.479 17.7293 9.36035 16.2791C9.3498 16.1552 9.44736 16.0497 9.57129 16.0497H10.7895C10.8923 16.0497 10.9819 16.1235 10.9978 16.2237C11.1322 17.0596 11.7835 17.6845 12.9516 17.84V14.0774L12.3003 13.9113C10.9213 13.5817 9.6082 12.7222 9.6082 10.9397C9.6082 9.01758 11.0689 7.98398 12.9357 7.80205V6.93193C12.9357 6.81592 13.0307 6.721 13.1467 6.721H13.8876C14.0036 6.721 14.0985 6.81592 14.0985 6.93193V7.79414C15.9047 7.97607 17.26 9.03076 17.4182 10.6734C17.4313 10.7974 17.3338 10.9055 17.2072 10.9055H16.0233C15.9179 10.9055 15.8282 10.8264 15.815 10.7235C15.7096 9.95361 15.0926 9.32607 14.088 9.18896V12.7301L14.7577 12.8856C16.4663 13.3075 17.6291 14.1249 17.6291 15.9548C17.6291 17.9402 16.1525 19.0477 14.088 19.227ZM11.2482 10.8185C11.2482 11.4882 11.6622 12.0076 12.5534 12.3293C12.6773 12.3794 12.8013 12.4189 12.9489 12.4611V9.1916C11.976 9.31553 11.2482 9.86133 11.2482 10.8185ZM14.32 14.3833C14.2462 14.3675 14.1724 14.349 14.088 14.3253V17.8506C15.2112 17.7504 15.9864 17.1334 15.9864 16.0998C15.9864 15.2903 15.5672 14.763 14.32 14.3833Z" fill="url(#paint0_linear_1_533)"/>
<defs>
<linearGradient id="paint0_linear_1_533" x1="13.5" y1="1.6875" x2="13.5" y2="25.3125" gradientUnits="userSpaceOnUse">
<stop stop-color="#8F6DFF"/>
<stop offset="1" stop-color="#542CA7"/>
</linearGradient>
</defs>
</svg>
