<svg width="27" height="27" viewBox="0 0 27 27" fill="none" xmlns="http://www.w3.org/2000/svg">
<path d="M21.5298 7.42496H21.5973C22.1218 7.42509 22.6391 7.54749 23.1081 7.78244C23.5771 8.01739 23.9849 8.35842 24.2991 8.77847C24.6133 9.19852 24.8252 9.68602 24.9181 10.2023C25.011 10.7185 24.9823 11.2493 24.8342 11.7526C24.6862 12.2558 24.4228 12.7176 24.0652 13.1013C23.7075 13.485 23.2653 13.78 22.7737 13.963C22.2821 14.1459 21.7546 14.2118 21.2331 14.1553C20.7116 14.0989 20.2104 13.9216 19.7694 13.6377L20.3769 16.1406C20.437 16.3888 20.4399 16.6474 20.3855 16.8969C20.3311 17.1464 20.2208 17.3803 20.0629 17.581C19.9049 17.7817 19.7035 17.9439 19.4738 18.0555C19.2441 18.167 18.992 18.225 18.7366 18.225H17.7066C17.4512 18.2248 17.1991 18.1667 16.9695 18.055C16.7398 17.9433 16.5385 17.7809 16.3807 17.5801C16.2228 17.3792 16.1127 17.1452 16.0585 16.8956C16.0043 16.646 16.0074 16.3874 16.0677 16.1392L16.6752 13.6377C16.1064 14.0055 15.4394 14.1924 14.7622 14.1736C14.6137 13.6017 14.2817 13.0943 13.8172 12.7291C14.0536 12.1134 14.1749 11.4595 14.175 10.8C14.175 9.69565 13.8429 8.66966 13.2745 7.81376C13.7803 7.54667 14.3457 7.41285 14.9175 7.42496C14.8269 6.97952 14.8269 6.52039 14.9175 6.07496C15.0965 5.19775 15.6167 4.42759 16.3635 3.9339C17.1104 3.44021 18.0228 3.26343 18.9 3.44246C19.7772 3.62148 20.5474 4.14163 21.0411 4.8885C21.5347 5.63536 21.7115 6.54775 21.5325 7.42496H21.5298ZM8.775 6.74996C7.99319 6.74997 7.22809 6.97628 6.57206 7.40155C5.91603 7.82683 5.39711 8.43289 5.07795 9.14659C4.75878 9.86029 4.65301 10.6511 4.7734 11.4236C4.89379 12.1961 5.23519 12.9172 5.7564 13.5H5.4C5.04196 13.5 4.69858 13.6422 4.44541 13.8954C4.19223 14.1485 4.05 14.4919 4.05 14.85C4.05 15.208 4.19223 15.5514 4.44541 15.8045C4.69858 16.0577 5.04196 16.2 5.4 16.2H6.102C5.5998 18.6273 4.27545 20.0286 3.537 20.6455C3.0699 21.037 2.7 21.6391 2.7 22.3411C2.7 23.4225 3.5775 24.3 4.65885 24.3H12.8925C13.9725 24.3 14.85 23.4225 14.85 22.3411C14.85 21.6391 14.4801 21.037 14.013 20.6455C13.2745 20.0286 11.9502 18.6273 11.448 16.2H12.15C12.508 16.2 12.8514 16.0577 13.1046 15.8045C13.3578 15.5514 13.5 15.208 13.5 14.85C13.5 14.4919 13.3578 14.1485 13.1046 13.8954C12.8514 13.6422 12.508 13.5 12.15 13.5H11.7936C12.3148 12.9172 12.6562 12.1961 12.7766 11.4236C12.897 10.6511 12.7912 9.86029 12.4721 9.14659C12.1529 8.43289 11.634 7.82683 10.9779 7.40155C10.3219 6.97628 9.55681 6.74997 8.775 6.74996Z" fill="url(#paint0_linear_1_529)"/>
<defs>
<linearGradient id="paint0_linear_1_529" x1="13.8357" y1="3.37427" x2="13.8357" y2="24.3" gradientUnits="userSpaceOnUse">
<stop stop-color="#8F6DFF"/>
<stop offset="1" stop-color="#542CA7"/>
</linearGradient>
</defs>
</svg>
