<svg width="27" height="27" viewBox="0 0 27 27" fill="none" xmlns="http://www.w3.org/2000/svg">
<path d="M17.7188 2.10938H21.9375C22.2732 2.10938 22.5951 2.24272 22.8324 2.48007C23.0698 2.71742 23.2031 3.03934 23.2031 3.375V7.59375C23.2031 7.92941 23.0698 8.25133 22.8324 8.48868C22.5951 8.72603 22.2732 8.85938 21.9375 8.85938C21.6018 8.85938 21.2799 8.72603 21.0426 8.48868C20.8052 8.25133 20.6719 7.92941 20.6719 7.59375V6.43359L18.8684 8.235C19.4437 9.23142 19.7705 10.3517 19.8213 11.5012C19.8721 12.6506 19.6452 13.7954 19.16 14.8387C18.6748 15.8819 17.9455 16.793 17.0337 17.4948C16.122 18.1966 15.0546 18.6684 13.9219 18.8705V19.8281H16.0313C16.3669 19.8281 16.6888 19.9615 16.9262 20.1988C17.1635 20.4362 17.2969 20.7581 17.2969 21.0938C17.2969 21.4294 17.1635 21.7513 16.9262 21.9887C16.6888 22.226 16.3669 22.3594 16.0313 22.3594H13.9219V24.4688C13.9219 24.8044 13.7885 25.1263 13.5512 25.3637C13.3138 25.601 12.9919 25.7344 12.6563 25.7344C12.3206 25.7344 11.9987 25.601 11.7613 25.3637C11.524 25.1263 11.3906 24.8044 11.3906 24.4688V22.3594H9.28126C8.9456 22.3594 8.62368 22.226 8.38633 21.9887C8.14898 21.7513 8.01564 21.4294 8.01564 21.0938C8.01564 20.7581 8.14898 20.4362 8.38633 20.1988C8.62368 19.9615 8.9456 19.8281 9.28126 19.8281H11.3906V18.8705C10.3094 18.6783 9.28668 18.2403 8.40142 17.5904C7.51616 16.9405 6.79198 16.096 6.28472 15.1219C5.77746 14.1479 5.50067 13.0704 5.47568 11.9724C5.4507 10.8745 5.67819 9.78549 6.14062 8.78938C6.60305 7.79327 7.28806 6.91666 8.14284 6.22715C8.99762 5.53763 9.99933 5.05363 11.0707 4.81246C12.1421 4.57129 13.2546 4.57939 14.3224 4.83614C15.3902 5.09289 16.3847 5.59143 17.2294 6.29332L18.8789 4.64062H17.7188C17.3831 4.64062 17.0612 4.50728 16.8238 4.26993C16.5865 4.03258 16.4531 3.71066 16.4531 3.375C16.4531 3.03934 16.5865 2.71742 16.8238 2.48007C17.0612 2.24272 17.3831 2.10938 17.7188 2.10938Z" fill="url(#paint0_linear_1_553)"/>
<defs>
<linearGradient id="paint0_linear_1_553" x1="14.3385" y1="2.10938" x2="14.3385" y2="25.7344" gradientUnits="userSpaceOnUse">
<stop stop-color="#8F6DFF"/>
<stop offset="1" stop-color="#542CA7"/>
</linearGradient>
</defs>
</svg>
