<svg width="27" height="27" viewBox="0 0 27 27" fill="none" xmlns="http://www.w3.org/2000/svg">
<path d="M9 1.125C8.25408 1.125 7.53871 1.42132 7.01126 1.94876C6.48382 2.47621 6.1875 3.19158 6.1875 3.9375C6.1875 4.68342 6.48382 5.39879 7.01126 5.92624C7.53871 6.45368 8.25408 6.75 9 6.75H18C18.3693 6.75 18.7351 6.67725 19.0763 6.53591C19.4175 6.39457 19.7276 6.1874 19.9887 5.92624C20.2499 5.66507 20.4571 5.35502 20.5984 5.0138C20.7397 4.67257 20.8125 4.30685 20.8125 3.9375C20.8125 3.56815 20.7397 3.20243 20.5984 2.8612C20.4571 2.51997 20.2499 2.20993 19.9887 1.94876C19.7276 1.6876 19.4175 1.48043 19.0763 1.33909C18.7351 1.19775 18.3693 1.125 18 1.125H9Z" fill="url(#paint0_linear_1_549)"/>
<path fill-rule="evenodd" clip-rule="evenodd" d="M8.68299 7.875C8.26254 7.87512 7.84746 7.96951 7.46829 8.15122C7.09414 8.33053 6.76436 8.59037 6.50254 8.91204L6.49129 8.92581L3.99469 12.0322C3.59344 12.5318 3.37482 13.1536 3.375 13.7944V23.0625C3.375 23.8084 3.67132 24.5238 4.19876 25.0512C4.72621 25.5787 5.44158 25.875 6.1875 25.875H20.8119C21.5579 25.875 22.2732 25.5787 22.8007 25.0512C23.3281 24.5238 23.6244 23.8084 23.6244 23.0625V13.7942C23.6246 13.1534 23.4058 12.5316 23.0046 12.032L20.5079 8.925C20.2443 8.5971 19.9104 8.33254 19.5309 8.15082C19.1515 7.96916 18.7358 7.8749 18.3151 7.875H8.68299ZM14.625 13.5C14.625 12.8787 14.1213 12.375 13.5 12.375C12.8787 12.375 12.375 12.8787 12.375 13.5V15.75H10.125C9.50368 15.75 9 16.2537 9 16.875C9 17.4963 9.50368 18 10.125 18H12.375V20.25C12.375 20.8713 12.8787 21.375 13.5 21.375C14.1213 21.375 14.625 20.8713 14.625 20.25V18H16.875C17.4963 18 18 17.4963 18 16.875C18 16.2537 17.4963 15.75 16.875 15.75H14.625V13.5Z" fill="url(#paint1_linear_1_549)"/>
<defs>
<linearGradient id="paint0_linear_1_549" x1="13.4997" y1="1.125" x2="13.4997" y2="25.875" gradientUnits="userSpaceOnUse">
<stop stop-color="#8F6DFF"/>
<stop offset="1" stop-color="#542CA7"/>
</linearGradient>
<linearGradient id="paint1_linear_1_549" x1="13.4997" y1="1.125" x2="13.4997" y2="25.875" gradientUnits="userSpaceOnUse">
<stop stop-color="#8F6DFF"/>
<stop offset="1" stop-color="#542CA7"/>
</linearGradient>
</defs>
</svg>
