<svg width="27" height="27" viewBox="0 0 27 27" fill="none" xmlns="http://www.w3.org/2000/svg">
<path d="M16.8727 5.625C18.9386 5.62399 20.9221 6.43481 22.3957 7.88265C23.8694 9.3305 24.715 11.2994 24.7504 13.365C24.7859 15.4305 24.0082 17.4273 22.5851 18.9248C21.162 20.4223 19.2074 21.3007 17.1427 21.3705L16.8727 21.375H10.1272C8.06139 21.376 6.07786 20.5652 4.60425 19.1173C3.13065 17.6695 2.28498 15.7006 2.24956 13.635C2.21415 11.5695 2.99181 9.5727 4.41491 8.07518C5.83801 6.57767 7.79257 5.69932 9.85725 5.6295L10.1261 5.625H16.8716H16.8727ZM16.5937 14.0625C16.2208 14.0625 15.8631 14.2107 15.5994 14.4744C15.3357 14.7381 15.1875 15.0958 15.1875 15.4688C15.1875 15.8417 15.3357 16.1994 15.5994 16.4631C15.8631 16.7268 16.2208 16.875 16.5937 16.875C16.9667 16.875 17.3244 16.7268 17.5881 16.4631C17.8518 16.1994 18 15.8417 18 15.4688C18 15.0958 17.8518 14.7381 17.5881 14.4744C17.3244 14.2107 16.9667 14.0625 16.5937 14.0625ZM9 10.125C8.79611 10.125 8.59912 10.1988 8.44545 10.3329C8.29179 10.4669 8.19185 10.652 8.16412 10.854L8.15625 10.9688V12.654H6.46875C6.25345 12.6518 6.04546 12.732 5.88737 12.8782C5.72928 13.0243 5.63304 13.2254 5.61838 13.4402C5.60371 13.655 5.67172 13.8673 5.80848 14.0336C5.94524 14.1999 6.1404 14.3077 6.354 14.3348L6.46875 14.3426L8.15625 14.3415V16.0313C8.15632 16.245 8.23752 16.4508 8.38347 16.607C8.52941 16.7632 8.72921 16.8582 8.94249 16.8728C9.15577 16.8874 9.36663 16.8204 9.53246 16.6855C9.69829 16.5506 9.80674 16.3578 9.83587 16.146L9.84375 16.0313V14.3415H11.5312C11.7437 14.3395 11.9476 14.2575 12.1021 14.1117C12.2567 13.966 12.3506 13.7673 12.3651 13.5553C12.3796 13.3434 12.3136 13.1338 12.1803 12.9683C12.047 12.8029 11.8562 12.6939 11.646 12.663L11.5312 12.6551L9.84375 12.654V10.9688C9.84375 10.745 9.75485 10.5304 9.59662 10.3721C9.43839 10.2139 9.22378 10.125 9 10.125ZM18.8437 10.125C18.4708 10.125 18.1131 10.2732 17.8494 10.5369C17.5857 10.8006 17.4375 11.1583 17.4375 11.5313C17.4375 11.9042 17.5857 12.2619 17.8494 12.5256C18.1131 12.7893 18.4708 12.9375 18.8437 12.9375C19.2167 12.9375 19.5744 12.7893 19.8381 12.5256C20.1018 12.2619 20.25 11.9042 20.25 11.5313C20.25 11.1583 20.1018 10.8006 19.8381 10.5369C19.5744 10.2732 19.2167 10.125 18.8437 10.125Z" fill="url(#paint0_linear_1_545)"/>
<defs>
<linearGradient id="paint0_linear_1_545" x1="13.5" y1="5.625" x2="13.5" y2="21.375" gradientUnits="userSpaceOnUse">
<stop stop-color="#8F6DFF"/>
<stop offset="1" stop-color="#542CA7"/>
</linearGradient>
</defs>
</svg>
