<svg width="12" height="8" viewBox="0 0 12 8" fill="none" xmlns="http://www.w3.org/2000/svg">
<path fill-rule="evenodd" clip-rule="evenodd" d="M11.6673 0.161255C11.8887 0.345723 11.9186 0.674713 11.7341 0.896075L8.1136 5.24071C7.42428 6.06792 6.87073 6.7322 6.37001 7.18435C5.8521 7.65202 5.31958 7.95971 4.66665 7.95971C4.01372 7.95971 3.4812 7.65202 2.96329 7.18435C2.46256 6.73219 1.90901 6.06791 1.21969 5.2407L0.265839 4.09608C0.0813704 3.87471 0.111279 3.54572 0.33264 3.36126C0.554002 3.17679 0.882992 3.2067 1.06746 3.42806L1.99458 4.5406C2.7169 5.40738 3.22358 6.01344 3.66263 6.4099C4.09096 6.79668 4.38283 6.91623 4.66665 6.91623C4.95047 6.91623 5.24234 6.79668 5.67067 6.4099C6.10972 6.01344 6.6164 5.40738 7.33872 4.5406L10.9325 0.228057C11.117 0.00669483 11.446 -0.0232134 11.6673 0.161255Z" fill="#713EE6"/>
</svg>
