<svg width="16" height="16" viewBox="0 0 16 16" fill="none" xmlns="http://www.w3.org/2000/svg">
<path d="M13.3738 2.62621C12.9833 2.23568 12.3501 2.23568 11.9596 2.62621L8.00005 6.58578L4.04048 2.62621C3.64996 2.23568 3.01679 2.23568 2.62627 2.62621C2.23574 3.01673 2.23574 3.6499 2.62627 4.04042L6.58583 7.99999L2.62629 11.9595C2.23576 12.3501 2.23576 12.9832 2.62629 13.3738C3.01681 13.7643 3.64997 13.7643 4.0405 13.3738L8.00005 9.4142L11.9596 13.3738C12.3501 13.7643 12.9833 13.7643 13.3738 13.3738C13.7643 12.9832 13.7643 12.3501 13.3738 11.9595L9.41426 7.99999L13.3738 4.04042C13.7644 3.6499 13.7644 3.01673 13.3738 2.62621Z" fill="white"/>
</svg>
