<svg width="75" height="75" viewBox="0 0 75 75" fill="none" xmlns="http://www.w3.org/2000/svg">
<rect x="35" y="11" width="3" height="12" rx="1.5" fill="#D9D9D9"/>
<rect x="35" y="11" width="3" height="12" rx="1.5" fill="url(#paint0_linear_1_653)"/>
<circle cx="37" cy="41" r="23" fill="#D9D9D9"/>
<circle cx="37" cy="41" r="23" fill="url(#paint1_linear_1_653)"/>
<path opacity="0.7" fill-rule="evenodd" clip-rule="evenodd" d="M37 25C33.8355 25 30.7421 25.9384 28.1109 27.6965C25.4797 29.4546 23.4289 31.9534 22.2179 34.8771C21.0069 37.8007 20.6901 41.0177 21.3074 44.1214C21.9248 47.2251 23.4487 50.0761 25.6863 52.3137C27.9239 54.5513 30.7749 56.0752 33.8786 56.6926C36.9823 57.3099 40.1993 56.9931 43.1229 55.7821C46.0466 54.5711 48.5454 52.5203 50.3035 49.8891C52.0616 47.2579 53 44.1645 53 41C53 40.1716 53.6716 39.5 54.5 39.5C55.3284 39.5 56 40.1716 56 41C56 44.7578 54.8857 48.4313 52.7979 51.5558C50.7102 54.6804 47.7428 57.1156 44.271 58.5537C40.7992 59.9918 36.9789 60.368 33.2933 59.6349C29.6077 58.9018 26.2222 57.0922 23.565 54.435C20.9078 51.7778 19.0982 48.3924 18.3651 44.7067C17.632 41.0211 18.0082 37.2008 19.4463 33.729C20.8844 30.2572 23.3196 27.2898 26.4442 25.2021C29.5687 23.1143 33.2422 22 37 22C37.8284 22 38.5 22.6716 38.5 23.5C38.5 24.3284 37.8284 25 37 25Z" fill="url(#paint2_linear_1_653)"/>
<path d="M45.7191 40.7421L40.0316 46.8358L34.3441 52.9296C34.2236 53.0582 34.0645 53.1441 33.8908 53.1744C33.7171 53.2047 33.5383 53.1777 33.3814 53.0974C33.2244 53.0172 33.0978 52.888 33.0207 52.7295C32.9435 52.571 32.92 52.3917 32.9537 52.2186L34.4427 44.771L28.5896 42.5732C28.4639 42.5262 28.3518 42.4488 28.2633 42.3479C28.1749 42.247 28.1128 42.1257 28.0826 41.9949C28.0524 41.8642 28.0551 41.7279 28.0904 41.5985C28.1257 41.469 28.1925 41.3503 28.2849 41.2529L39.6599 29.0654C39.7805 28.9368 39.9396 28.8508 40.1133 28.8205C40.2869 28.7903 40.4657 28.8173 40.6227 28.8976C40.7797 28.9778 40.9063 29.107 40.9834 29.2655C41.0605 29.424 41.084 29.6033 41.0503 29.7764L39.5573 37.2321L45.4104 39.4268C45.5352 39.4742 45.6464 39.5515 45.7341 39.652C45.8219 39.7525 45.8836 39.8731 45.9137 40.0031C45.9439 40.1331 45.9415 40.2686 45.9068 40.3974C45.8722 40.5263 45.8104 40.6447 45.7191 40.7421Z" fill="url(#paint3_linear_1_653)"/>
<rect x="27" y="9" width="19" height="5" rx="2.5" fill="#D9D9D9"/>
<rect x="27" y="9" width="19" height="5" rx="2.5" fill="url(#paint4_linear_1_653)"/>
<defs>
<linearGradient id="paint0_linear_1_653" x1="36.5" y1="11" x2="36.5" y2="23" gradientUnits="userSpaceOnUse">
<stop stop-color="#EBF9F8"/>
<stop offset="1" stop-color="#A4F2EE"/>
</linearGradient>
<linearGradient id="paint1_linear_1_653" x1="37" y1="18" x2="37" y2="64" gradientUnits="userSpaceOnUse">
<stop stop-color="#8DDDD8"/>
<stop offset="1" stop-color="#3AC2BA"/>
</linearGradient>
<linearGradient id="paint2_linear_1_653" x1="37" y1="22" x2="37" y2="60" gradientUnits="userSpaceOnUse">
<stop stop-color="#EBF9F8"/>
<stop offset="1" stop-color="#A4F2EE"/>
</linearGradient>
<linearGradient id="paint3_linear_1_653" x1="36.9982" y1="28.8085" x2="36.9982" y2="53.1865" gradientUnits="userSpaceOnUse">
<stop stop-color="#EBF9F8"/>
<stop offset="1" stop-color="#A4F2EE"/>
</linearGradient>
<linearGradient id="paint4_linear_1_653" x1="36.5" y1="9" x2="36.5" y2="14" gradientUnits="userSpaceOnUse">
<stop stop-color="#8DDDD8"/>
<stop offset="1" stop-color="#3AC2BA"/>
</linearGradient>
</defs>
</svg>
