<svg width="75" height="75" viewBox="0 0 75 75" fill="none" xmlns="http://www.w3.org/2000/svg">
<path d="M54.5041 41.0001H22.3333C21.4541 41.0001 21.0028 42.0531 21.6092 42.6898L29.7241 51.2105C29.9012 51.3964 30 51.6433 30 51.9001V66.5571C30 67.2553 30.6973 67.7386 31.3511 67.4935L45.3511 62.2435C45.7414 62.0971 46 61.724 46 61.3071V51.928C46 51.6547 46.1118 51.3934 46.3095 51.2047L55.1945 42.7235C55.8471 42.1006 55.4062 41.0001 54.5041 41.0001Z" fill="url(#paint0_linear_1_641)"/>
<path d="M13 30.0001C13 28.8956 13.8954 28.0001 15 28.0001H61C62.1046 28.0001 63 28.8956 63 30.0001V36.0001C63 37.1047 62.1046 38.0001 61 38.0001H15C13.8954 38.0001 13 37.1047 13 36.0001V30.0001Z" fill="url(#paint1_linear_1_641)"/>
<path d="M34.1328 22.0505L31.4979 22.3636L30.4894 20.1732L25.5885 20.7557L25.1215 23.1215L22.5041 23.4325L25.3037 10.265L28.3074 9.90802L34.1328 22.0505ZM27.156 12.9602L26.0842 18.3315L29.4569 17.9307L27.156 12.9602Z" fill="url(#paint2_linear_1_641)"/>
<path d="M33.8226 9.25256L38.7059 8.67219C40.3922 8.47177 41.8699 8.91345 43.1388 9.99723C44.4179 11.0676 45.1643 12.5007 45.3777 14.2967C45.5912 16.0926 45.2015 17.6608 44.2089 19.0011C43.2293 20.3521 41.8964 21.1278 40.2101 21.3282L35.3267 21.9086L33.8226 9.25256ZM37.4672 19.2339L39.9264 18.9417C40.9921 18.815 41.8157 18.3504 42.3972 17.5479C42.9759 16.7212 43.1965 15.7294 43.059 14.5722C42.92 13.4031 42.4738 12.4965 41.7204 11.8527C40.9655 11.1967 40.0552 10.9321 38.9896 11.0588L36.5303 11.351L37.4672 19.2339Z" fill="url(#paint3_linear_1_641)"/>
<path d="M48.9792 13.7219C49.0251 14.1077 49.5973 14.3758 50.6959 14.5264C51.0807 14.5662 51.4325 14.6283 51.7513 14.7126C52.0686 14.7849 52.3925 14.9115 52.7227 15.0922C53.0633 15.2596 53.3421 15.5076 53.5593 15.8362C53.7765 16.1649 53.9123 16.5583 53.9668 17.0163C54.0771 17.9444 53.8227 18.7019 53.2037 19.2889C52.5832 19.8638 51.7752 20.2104 50.7798 20.3287C48.9764 20.5431 47.6615 19.972 46.8353 18.6156L48.6673 17.2427C49.0298 17.9942 49.6501 18.3177 50.5284 18.2134C51.3365 18.1173 51.7097 17.8102 51.6481 17.2919C51.6022 16.9062 51.03 16.638 49.9314 16.4874C49.5203 16.4263 49.1678 16.3582 48.8739 16.2831C48.5799 16.208 48.2569 16.0875 47.9046 15.9216C47.5509 15.7436 47.2669 15.5023 47.0526 15.1977C46.8485 14.8797 46.72 14.4977 46.667 14.0518C46.561 13.1598 46.7941 12.4231 47.3663 11.8417C47.9488 11.2469 48.7143 10.8931 49.6629 10.7804C50.3772 10.6955 51.0472 10.787 51.6728 11.0549C52.297 11.3107 52.8155 11.7258 53.2281 12.3002L51.4248 13.6146C51.0707 13.0333 50.5658 12.7816 49.91 12.8596C49.6172 12.8944 49.3799 12.9959 49.198 13.1642C49.0264 13.3191 48.9535 13.505 48.9792 13.7219Z" fill="url(#paint4_linear_1_641)"/>
<path fill-rule="evenodd" clip-rule="evenodd" d="M34.337 45.349C34.8038 45.3507 35.1807 45.7305 35.179 46.1973L35.1554 52.4793C35.1536 52.9461 34.7738 53.323 34.307 53.3213C33.8403 53.3195 33.4633 52.9397 33.4651 52.473L33.4887 46.1909C33.4904 45.7242 33.8702 45.3472 34.337 45.349Z" fill="url(#paint5_linear_1_641)"/>
<path fill-rule="evenodd" clip-rule="evenodd" d="M37.7176 48.7298C38.1844 48.7316 38.5613 49.1114 38.5596 49.5781L38.536 55.8602C38.5342 56.3269 38.1544 56.7039 37.6876 56.7021C37.2209 56.7004 36.8439 56.3206 36.8457 55.8538L36.8693 49.5718C36.871 49.105 37.2509 48.7281 37.7176 48.7298Z" fill="url(#paint6_linear_1_641)"/>
<path fill-rule="evenodd" clip-rule="evenodd" d="M41.0983 46.1937C41.565 46.1955 41.942 46.5753 41.9402 47.042L41.9166 57.5498C41.9149 58.0166 41.5351 58.3936 41.0683 58.3918C40.6015 58.3901 40.2246 58.0102 40.2263 57.5435L40.2499 47.0357C40.2517 46.5689 40.6315 46.1919 41.0983 46.1937Z" fill="url(#paint7_linear_1_641)"/>
<defs>
<linearGradient id="paint0_linear_1_641" x1="38.4187" y1="41.0001" x2="38.4187" y2="67.558" gradientUnits="userSpaceOnUse">
<stop stop-color="#8DDDD8"/>
<stop offset="1" stop-color="#3AC2BA"/>
</linearGradient>
<linearGradient id="paint1_linear_1_641" x1="38" y1="28.0001" x2="38" y2="38.0001" gradientUnits="userSpaceOnUse">
<stop stop-color="#8DDDD8"/>
<stop offset="1" stop-color="#3AC2BA"/>
</linearGradient>
<linearGradient id="paint2_linear_1_641" x1="36.8882" y1="8.88822" x2="38.4224" y2="21.7974" gradientUnits="userSpaceOnUse">
<stop stop-color="#8DDDD8"/>
<stop offset="1" stop-color="#3AC2BA"/>
</linearGradient>
<linearGradient id="paint3_linear_1_641" x1="36.8882" y1="8.88822" x2="38.4224" y2="21.7974" gradientUnits="userSpaceOnUse">
<stop stop-color="#8DDDD8"/>
<stop offset="1" stop-color="#3AC2BA"/>
</linearGradient>
<linearGradient id="paint4_linear_1_641" x1="36.8882" y1="8.88822" x2="38.4224" y2="21.7974" gradientUnits="userSpaceOnUse">
<stop stop-color="#8DDDD8"/>
<stop offset="1" stop-color="#3AC2BA"/>
</linearGradient>
<linearGradient id="paint5_linear_1_641" x1="32.1407" y1="47.3371" x2="36.5033" y2="51.3331" gradientUnits="userSpaceOnUse">
<stop stop-color="#EBF9F8"/>
<stop offset="1" stop-color="#A4F2EE"/>
</linearGradient>
<linearGradient id="paint6_linear_1_641" x1="35.5213" y1="50.718" x2="39.8839" y2="54.714" gradientUnits="userSpaceOnUse">
<stop stop-color="#EBF9F8"/>
<stop offset="1" stop-color="#A4F2EE"/>
</linearGradient>
<linearGradient id="paint7_linear_1_641" x1="37.8496" y1="49.3308" x2="44.317" y2="55.2547" gradientUnits="userSpaceOnUse">
<stop stop-color="#EBF9F8"/>
<stop offset="1" stop-color="#A4F2EE"/>
</linearGradient>
</defs>
</svg>
