<svg width="317" height="345" viewBox="0 0 317 345" fill="none" xmlns="http://www.w3.org/2000/svg">
<mask id="mask0_1_7046" style="mask-type:alpha" maskUnits="userSpaceOnUse" x="28" y="0" width="289" height="345">
<path d="M43.9902 238.903C6.96916 272.9 34.8668 332.12 121.09 341.982C216.672 352.915 274.996 331.724 317 317.029V0C273.627 4.56998 269.31 50.7661 162.273 20.4121C-49.8999 -39.757 127.773 161.964 43.9902 238.903Z" fill="#D9D9D9"/>
</mask>
<g mask="url(#mask0_1_7046)">
<rect width="296.156" height="366.888" transform="matrix(-1 0 0 1 317.234 -20.3672)" fill="#713EE6"/>
</g>
<path d="M252.243 261.541C251.519 261.541 250.794 261.541 250.079 261.522C249.808 261.522 249.596 261.299 249.605 261.028C249.605 260.757 249.837 260.544 250.098 260.554C251.383 260.573 252.659 260.573 253.954 260.554C254.186 260.535 254.437 260.767 254.447 261.028C254.447 261.299 254.234 261.512 253.973 261.522C253.403 261.522 252.833 261.532 252.263 261.532L252.243 261.541ZM259.742 261.338C259.491 261.338 259.269 261.135 259.259 260.883C259.249 260.612 259.452 260.389 259.713 260.37C260.998 260.302 262.274 260.215 263.559 260.109C263.82 260.089 264.062 260.283 264.081 260.554C264.1 260.825 263.907 261.057 263.636 261.077C262.351 261.183 261.056 261.27 259.771 261.338C259.771 261.338 259.752 261.338 259.742 261.338ZM244.29 261.309C244.29 261.309 244.271 261.309 244.261 261.309C242.966 261.232 241.681 261.144 240.396 261.038C240.125 261.019 239.932 260.786 239.952 260.515C239.971 260.244 240.212 260.06 240.473 260.07C241.749 260.177 243.034 260.273 244.319 260.341C244.59 260.36 244.793 260.583 244.774 260.854C244.764 261.115 244.542 261.309 244.29 261.309ZM269.367 260.496C269.125 260.496 268.922 260.312 268.884 260.07C268.855 259.809 269.038 259.567 269.309 259.528C270.584 259.373 271.86 259.199 273.126 259.015C273.387 258.976 273.638 259.16 273.677 259.422C273.715 259.683 273.532 259.935 273.271 259.973C271.995 260.167 270.71 260.341 269.425 260.496C269.405 260.496 269.386 260.496 269.367 260.496ZM234.675 260.419C234.675 260.419 234.637 260.419 234.617 260.419C233.332 260.254 232.057 260.07 230.781 259.867C230.52 259.828 230.336 259.576 230.375 259.315C230.414 259.054 230.665 258.87 230.926 258.909C232.192 259.112 233.467 259.286 234.733 259.451C234.994 259.489 235.187 259.731 235.149 259.993C235.12 260.235 234.907 260.419 234.666 260.419H234.675ZM278.914 259.005C278.682 259.005 278.489 258.841 278.441 258.609C278.392 258.347 278.566 258.096 278.827 258.047C280.093 257.805 281.349 257.554 282.606 257.273C282.876 257.215 283.127 257.379 283.176 257.641C283.234 257.902 283.069 258.163 282.808 258.212C281.543 258.492 280.277 258.744 279.011 258.986C278.982 258.986 278.953 258.986 278.924 258.986L278.914 259.005ZM288.346 256.876C288.133 256.876 287.94 256.731 287.882 256.518C287.814 256.257 287.969 255.995 288.23 255.928C289.476 255.598 290.713 255.26 291.94 254.902C292.201 254.824 292.462 254.979 292.539 255.231C292.617 255.492 292.462 255.753 292.211 255.831C290.964 256.189 289.718 256.537 288.471 256.857C288.433 256.866 288.394 256.876 288.346 256.876ZM297.603 254.118C297.4 254.118 297.216 253.992 297.149 253.789C297.062 253.537 297.197 253.256 297.458 253.179C298.676 252.772 299.884 252.346 301.091 251.911C301.343 251.824 301.623 251.95 301.71 252.201C301.797 252.453 301.671 252.734 301.42 252.821C300.202 253.266 298.985 253.692 297.758 254.098C297.709 254.118 297.651 254.127 297.603 254.127V254.118ZM306.658 250.74C306.464 250.74 306.29 250.624 306.213 250.44C306.116 250.188 306.232 249.907 306.474 249.811C307.663 249.327 308.841 248.814 310.02 248.291C310.262 248.184 310.552 248.291 310.658 248.533C310.764 248.775 310.658 249.065 310.417 249.172C309.238 249.694 308.049 250.207 306.851 250.701C306.793 250.73 306.725 250.74 306.667 250.74H306.658ZM315.461 246.752C315.287 246.752 315.113 246.655 315.026 246.481C314.91 246.239 315.007 245.949 315.248 245.833C316.398 245.261 317.538 244.681 318.679 244.071C318.92 243.945 319.21 244.032 319.336 244.274C319.462 244.507 319.375 244.807 319.133 244.932C317.993 245.542 316.843 246.133 315.683 246.704C315.616 246.742 315.538 246.752 315.471 246.752H315.461ZM323.965 242.164C323.8 242.164 323.636 242.077 323.549 241.922C323.414 241.69 323.491 241.4 323.723 241.264C324.834 240.616 325.926 239.948 327.018 239.27C327.25 239.135 327.54 239.203 327.685 239.425C327.83 239.648 327.753 239.948 327.53 240.093C326.429 240.78 325.327 241.448 324.206 242.096C324.129 242.145 324.042 242.164 323.965 242.164ZM332.13 236.986C331.976 236.986 331.821 236.909 331.734 236.773C331.579 236.551 331.637 236.25 331.86 236.096C332.913 235.37 333.966 234.634 335 233.869C335.213 233.715 335.522 233.753 335.677 233.976C335.831 234.189 335.793 234.499 335.57 234.653C334.527 235.418 333.473 236.173 332.401 236.899C332.314 236.957 332.227 236.986 332.13 236.986ZM339.851 231.179C339.716 231.179 339.571 231.121 339.484 231.005C339.31 230.801 339.339 230.492 339.542 230.327C340.547 229.485 341.513 228.633 342.422 227.791C342.615 227.607 342.924 227.617 343.108 227.82C343.291 228.014 343.282 228.324 343.079 228.507C342.161 229.359 341.175 230.23 340.16 231.082C340.073 231.159 339.957 231.198 339.851 231.198V231.179ZM346.818 224.481C346.702 224.481 346.587 224.442 346.5 224.355C346.297 224.181 346.287 223.871 346.461 223.668C347.031 223.02 347.591 222.361 348.133 221.694C348.394 221.374 348.654 221.045 348.906 220.716C349.07 220.503 349.37 220.464 349.582 220.629C349.795 220.793 349.833 221.093 349.669 221.306C349.408 221.645 349.147 221.974 348.886 222.303C348.336 222.991 347.765 223.658 347.186 224.317C347.089 224.423 346.954 224.481 346.828 224.481H346.818ZM352.568 216.719C352.481 216.719 352.394 216.699 352.317 216.651C352.085 216.515 352.017 216.215 352.153 215.983C352.81 214.909 353.447 213.786 354.047 212.644C354.172 212.412 354.462 212.315 354.704 212.441C354.936 212.566 355.032 212.857 354.907 213.099C354.298 214.26 353.65 215.402 352.984 216.496C352.897 216.641 352.732 216.728 352.568 216.728V216.719ZM356.917 208.095C356.859 208.095 356.791 208.085 356.733 208.056C356.491 207.95 356.366 207.669 356.472 207.427C356.946 206.266 357.409 205.056 357.825 203.836C357.912 203.584 358.183 203.449 358.443 203.536C358.695 203.623 358.83 203.904 358.743 204.156C358.308 205.394 357.854 206.624 357.371 207.804C357.294 207.988 357.11 208.104 356.926 208.104L356.917 208.095ZM359.97 198.919C359.97 198.919 359.893 198.919 359.845 198.9C359.584 198.832 359.429 198.571 359.497 198.31C359.816 197.1 360.115 195.832 360.395 194.564C360.453 194.302 360.714 194.138 360.966 194.196C361.226 194.254 361.391 194.506 361.333 194.767C361.053 196.054 360.753 197.322 360.424 198.552C360.366 198.764 360.173 198.91 359.961 198.91L359.97 198.919ZM361.932 189.444C361.932 189.444 361.884 189.444 361.855 189.444C361.594 189.405 361.41 189.153 361.449 188.892C361.642 187.643 361.826 186.356 361.98 185.069C362.009 184.808 362.26 184.614 362.521 184.643C362.782 184.672 362.976 184.914 362.947 185.185C362.792 186.482 362.608 187.769 362.415 189.037C362.376 189.279 362.174 189.444 361.942 189.444H361.932ZM363.034 179.823C363.034 179.823 363.005 179.823 362.995 179.823C362.724 179.804 362.531 179.571 362.55 179.3C362.647 178.023 362.724 176.735 362.792 175.448C362.802 175.177 363.005 174.974 363.294 174.993C363.565 175.003 363.768 175.235 363.749 175.497C363.681 176.794 363.604 178.081 363.507 179.368C363.488 179.62 363.275 179.813 363.024 179.813L363.034 179.823ZM274.817 171.48C274.566 171.48 274.353 171.286 274.334 171.035C274.314 170.764 274.508 170.531 274.778 170.512C275.967 170.415 277.194 170.231 278.537 169.951C278.789 169.893 279.059 170.067 279.107 170.328C279.165 170.589 278.991 170.851 278.731 170.899C277.349 171.189 276.083 171.373 274.846 171.47C274.836 171.47 274.817 171.47 274.807 171.47L274.817 171.48ZM269.048 171.151C269.048 171.151 268.98 171.151 268.942 171.141C268.739 171.093 268.545 171.054 268.342 170.996C267.26 170.715 266.197 170.309 265.192 169.786C264.951 169.66 264.864 169.37 264.989 169.138C265.115 168.896 265.405 168.808 265.637 168.925C266.574 169.409 267.569 169.796 268.584 170.057C268.768 170.105 268.961 170.154 269.144 170.193C269.405 170.251 269.57 170.512 269.512 170.773C269.463 170.996 269.26 171.151 269.038 171.151H269.048ZM363.468 170.164C363.198 170.164 362.985 169.941 362.995 169.67C363.024 168.383 363.034 167.095 363.034 165.808C363.034 165.537 363.246 165.324 363.517 165.324C363.787 165.324 364 165.537 364 165.808C364 167.095 363.99 168.392 363.961 169.689C363.961 169.951 363.739 170.164 363.478 170.164H363.468ZM284.219 169.389C284.016 169.389 283.823 169.263 283.765 169.06C283.678 168.808 283.823 168.537 284.074 168.45C285.244 168.063 286.452 167.618 287.679 167.134C287.93 167.037 288.21 167.153 288.307 167.405C288.404 167.657 288.288 167.937 288.036 168.034C286.79 168.528 285.562 168.983 284.384 169.37C284.335 169.389 284.277 169.399 284.229 169.399L284.219 169.389ZM260.853 166.311C260.728 166.311 260.592 166.263 260.496 166.156C259.626 165.208 258.824 164.134 258.128 162.982C257.993 162.75 258.061 162.459 258.293 162.314C258.524 162.179 258.814 162.246 258.959 162.479C259.626 163.582 260.38 164.598 261.211 165.498C261.394 165.692 261.375 166.002 261.182 166.186C261.085 166.273 260.969 166.311 260.853 166.311ZM293.168 165.74C292.984 165.74 292.81 165.634 292.733 165.46C292.617 165.218 292.723 164.927 292.965 164.811C294.124 164.259 295.274 163.698 296.424 163.117C296.666 162.992 296.956 163.088 297.072 163.33C297.187 163.572 297.101 163.863 296.859 163.979C295.709 164.559 294.54 165.131 293.38 165.682C293.312 165.711 293.245 165.731 293.177 165.731L293.168 165.74ZM301.787 161.365C301.613 161.365 301.449 161.269 301.362 161.104C301.236 160.872 301.323 160.572 301.565 160.446C302.696 159.846 303.836 159.236 304.967 158.617C305.198 158.491 305.498 158.578 305.624 158.81C305.749 159.043 305.662 159.343 305.43 159.468C304.3 160.088 303.159 160.698 302.019 161.298C301.952 161.336 301.874 161.356 301.797 161.356L301.787 161.365ZM363.449 160.485C363.188 160.485 362.976 160.272 362.966 160.01C362.937 158.723 362.908 157.436 362.86 156.149C362.86 155.878 363.063 155.655 363.323 155.645C363.584 155.626 363.816 155.849 363.826 156.11C363.874 157.407 363.903 158.694 363.932 159.991C363.932 160.262 363.729 160.475 363.459 160.485H363.449ZM256.244 157.91C256.031 157.91 255.838 157.775 255.78 157.562C255.413 156.303 255.152 154.997 254.997 153.69C254.968 153.429 255.152 153.187 255.423 153.148C255.683 153.109 255.925 153.303 255.954 153.574C256.099 154.823 256.36 156.081 256.708 157.291C256.785 157.552 256.63 157.813 256.379 157.891C256.331 157.9 256.292 157.91 256.244 157.91ZM310.262 156.71C310.098 156.71 309.933 156.623 309.846 156.468C309.711 156.236 309.798 155.936 310.02 155.81C311.132 155.171 312.243 154.513 313.345 153.855C313.567 153.719 313.866 153.787 314.011 154.019C314.147 154.252 314.079 154.542 313.847 154.687C312.745 155.355 311.625 156.013 310.504 156.662C310.426 156.7 310.349 156.729 310.262 156.729V156.71ZM318.505 151.658C318.35 151.658 318.196 151.58 318.099 151.435C317.954 151.212 318.012 150.912 318.234 150.767C319.307 150.061 320.37 149.344 321.423 148.609C321.645 148.454 321.945 148.512 322.1 148.725C322.254 148.948 322.196 149.248 321.984 149.402C320.921 150.148 319.858 150.874 318.766 151.58C318.688 151.638 318.592 151.658 318.505 151.658ZM363.053 150.816C362.802 150.816 362.589 150.622 362.57 150.361C362.483 149.073 362.376 147.796 362.241 146.518C362.212 146.257 362.405 146.015 362.676 145.986C362.918 145.966 363.178 146.15 363.207 146.421C363.333 147.709 363.449 149.006 363.536 150.293C363.555 150.564 363.352 150.787 363.092 150.806C363.082 150.806 363.072 150.806 363.053 150.806V150.816ZM255.538 148.328C255.538 148.328 255.49 148.328 255.471 148.328C255.21 148.289 255.026 148.047 255.065 147.776C255.249 146.489 255.529 145.202 255.896 143.934C255.973 143.682 256.234 143.527 256.495 143.605C256.746 143.682 256.901 143.944 256.824 144.205C256.466 145.434 256.196 146.683 256.022 147.922C255.983 148.164 255.78 148.338 255.548 148.338L255.538 148.328ZM326.371 146.044C326.226 146.044 326.081 145.976 325.994 145.86C325.83 145.647 325.868 145.347 326.081 145.182C327.096 144.389 328.101 143.566 329.067 142.753C329.27 142.579 329.579 142.608 329.753 142.811C329.927 143.014 329.898 143.324 329.695 143.498C328.719 144.321 327.704 145.144 326.68 145.947C326.593 146.015 326.487 146.054 326.38 146.054L326.371 146.044ZM361.98 141.205C361.748 141.205 361.545 141.04 361.507 140.798C361.304 139.511 361.062 138.243 360.811 137.014C360.753 136.752 360.927 136.491 361.188 136.443C361.449 136.384 361.7 136.559 361.758 136.82C362.019 138.059 362.26 139.356 362.463 140.653C362.502 140.914 362.328 141.166 362.067 141.205C362.038 141.205 362.019 141.205 361.99 141.205H361.98ZM333.667 139.704C333.541 139.704 333.415 139.656 333.319 139.559C333.135 139.366 333.135 139.065 333.328 138.872C334.256 137.972 335.164 137.043 336.015 136.123C336.198 135.93 336.498 135.92 336.701 136.104C336.894 136.288 336.904 136.588 336.73 136.791C335.86 137.72 334.942 138.659 334.005 139.569C333.908 139.656 333.792 139.704 333.667 139.704ZM258.476 139.153C258.399 139.153 258.331 139.133 258.264 139.104C258.022 138.988 257.925 138.698 258.051 138.456C258.611 137.323 259.269 136.181 259.974 135.049C260.119 134.826 260.418 134.758 260.641 134.894C260.863 135.039 260.931 135.339 260.795 135.562C260.1 136.665 259.471 137.788 258.911 138.891C258.824 139.065 258.66 139.162 258.476 139.162V139.153ZM340.151 132.532C340.044 132.532 339.938 132.503 339.851 132.426C339.639 132.261 339.61 131.961 339.774 131.748L340.16 131.255C340.808 130.422 341.446 129.551 342.054 128.661C342.209 128.438 342.509 128.38 342.731 128.535C342.953 128.69 343.011 128.99 342.856 129.203C342.238 130.103 341.591 130.993 340.933 131.845L340.547 132.348C340.45 132.474 340.305 132.532 340.17 132.532H340.151ZM359.854 131.758C359.651 131.758 359.458 131.622 359.39 131.41C359.188 130.742 358.985 130.084 358.762 129.425C358.579 128.874 358.376 128.322 358.173 127.77C358.076 127.519 358.202 127.238 358.453 127.151C358.704 127.054 358.985 127.18 359.072 127.432C359.284 127.993 359.477 128.554 359.671 129.116C359.893 129.783 360.106 130.451 360.308 131.129C360.386 131.381 360.241 131.652 359.98 131.729C359.932 131.739 359.883 131.748 359.845 131.748L359.854 131.758ZM263.781 131.08C263.675 131.08 263.569 131.042 263.472 130.974C263.269 130.8 263.231 130.5 263.404 130.296C264.197 129.319 265.067 128.332 265.975 127.364C266.159 127.17 266.468 127.161 266.661 127.344C266.854 127.528 266.864 127.828 266.68 128.032C265.791 128.99 264.941 129.967 264.158 130.916C264.062 131.032 263.926 131.09 263.781 131.09V131.08ZM345.475 124.47C345.398 124.47 345.321 124.45 345.243 124.412C345.011 124.286 344.924 123.986 345.05 123.754C345.659 122.631 346.239 121.479 346.77 120.327C346.886 120.085 347.176 119.979 347.408 120.095C347.649 120.211 347.756 120.492 347.649 120.734C347.108 121.915 346.519 123.086 345.9 124.218C345.813 124.383 345.649 124.47 345.475 124.47ZM270.449 124.092C270.323 124.092 270.188 124.044 270.091 123.937C269.908 123.744 269.927 123.434 270.12 123.25C271.067 122.379 272.053 121.508 273.039 120.676C273.242 120.502 273.551 120.531 273.715 120.734C273.889 120.937 273.86 121.247 273.657 121.411C272.681 122.234 271.715 123.095 270.768 123.957C270.671 124.044 270.555 124.083 270.439 124.083L270.449 124.092ZM356.289 122.776C356.115 122.776 355.941 122.679 355.854 122.515C355.274 121.363 354.646 120.24 353.989 119.166C353.853 118.934 353.921 118.643 354.153 118.498C354.385 118.362 354.675 118.43 354.82 118.663C355.486 119.756 356.124 120.908 356.714 122.079C356.83 122.321 356.743 122.611 356.501 122.728C356.433 122.766 356.356 122.776 356.279 122.776H356.289ZM277.89 117.927C277.745 117.927 277.6 117.859 277.503 117.733C277.339 117.52 277.387 117.211 277.6 117.056C278.634 116.291 279.697 115.527 280.769 114.801C280.992 114.656 281.291 114.704 281.436 114.927C281.591 115.149 281.533 115.449 281.311 115.594C280.248 116.32 279.194 117.066 278.18 117.83C278.093 117.898 277.996 117.927 277.89 117.927ZM349.35 115.623C349.302 115.623 349.244 115.623 349.196 115.594C348.944 115.507 348.809 115.236 348.896 114.985C349.118 114.346 349.321 113.688 349.514 113.039C349.08 112.546 348.635 112.062 348.181 111.597C347.997 111.403 347.997 111.103 348.181 110.91C348.374 110.726 348.674 110.726 348.867 110.91C349.186 111.239 349.505 111.578 349.824 111.926C349.882 111.713 349.94 111.51 349.988 111.297C350.056 111.036 350.317 110.881 350.577 110.949C350.838 111.016 350.993 111.278 350.925 111.539C350.819 111.955 350.703 112.371 350.587 112.787C350.887 113.136 351.177 113.484 351.467 113.842C351.631 114.055 351.602 114.355 351.389 114.52C351.177 114.685 350.877 114.656 350.713 114.443C350.568 114.259 350.413 114.075 350.259 113.891C350.114 114.355 349.969 114.82 349.814 115.275C349.746 115.478 349.553 115.604 349.36 115.604L349.35 115.623ZM285.93 112.565C285.765 112.565 285.601 112.478 285.514 112.333C285.379 112.1 285.456 111.81 285.678 111.665C286.78 111.007 287.92 110.358 289.061 109.748C289.293 109.623 289.592 109.71 289.718 109.942C289.843 110.174 289.756 110.474 289.524 110.6C288.394 111.21 287.273 111.849 286.181 112.497C286.104 112.546 286.017 112.565 285.93 112.565ZM294.472 108.055C294.288 108.055 294.115 107.948 294.037 107.774C293.921 107.532 294.037 107.242 294.269 107.135C295.438 106.593 296.637 106.07 297.825 105.577C298.077 105.48 298.357 105.596 298.453 105.838C298.56 106.08 298.434 106.37 298.192 106.467C297.014 106.951 295.825 107.474 294.665 108.006C294.598 108.035 294.53 108.055 294.462 108.055H294.472ZM344.161 107.919C344.064 107.919 343.958 107.89 343.871 107.822C342.847 107.058 341.774 106.361 340.692 105.732C340.46 105.596 340.383 105.306 340.518 105.073C340.653 104.841 340.943 104.764 341.175 104.899C342.296 105.548 343.398 106.274 344.451 107.058C344.664 107.212 344.712 107.522 344.548 107.735C344.451 107.861 344.306 107.929 344.161 107.929V107.919ZM351.573 106.216C351.573 106.216 351.534 106.216 351.505 106.216C351.244 106.177 351.061 105.935 351.09 105.674C351.264 104.396 351.38 103.118 351.447 101.86C351.457 101.589 351.698 101.386 351.95 101.396C352.22 101.405 352.423 101.638 352.404 101.899C352.336 103.186 352.22 104.493 352.046 105.79C352.017 106.032 351.805 106.206 351.573 106.206V106.216ZM230.24 105.722C230.134 105.722 230.037 105.693 229.95 105.625C229.737 105.461 229.699 105.161 229.863 104.948C230.626 103.941 231.467 102.925 232.346 101.938C232.52 101.734 232.83 101.715 233.033 101.899C233.235 102.073 233.255 102.383 233.071 102.586C232.211 103.564 231.39 104.561 230.636 105.548C230.539 105.674 230.394 105.741 230.25 105.741L230.24 105.722ZM303.44 104.464C303.237 104.464 303.053 104.338 302.986 104.135C302.899 103.883 303.034 103.612 303.295 103.525C304.541 103.109 305.788 102.731 307.015 102.392C307.276 102.325 307.537 102.47 307.614 102.731C307.682 102.993 307.537 103.254 307.276 103.322C306.058 103.651 304.831 104.028 303.604 104.444C303.556 104.464 303.498 104.473 303.449 104.473L303.44 104.464ZM335.677 103.351C335.619 103.351 335.57 103.351 335.512 103.322C334.343 102.896 333.116 102.528 331.86 102.228C331.599 102.16 331.444 101.899 331.502 101.647C331.56 101.386 331.811 101.231 332.082 101.289C333.367 101.599 334.623 101.976 335.831 102.412C336.082 102.499 336.208 102.78 336.121 103.031C336.053 103.225 335.86 103.351 335.667 103.351H335.677ZM312.784 102.044C312.552 102.044 312.349 101.879 312.311 101.647C312.262 101.386 312.436 101.134 312.697 101.086C313.992 100.854 315.287 100.66 316.553 100.515C316.814 100.476 317.055 100.67 317.084 100.941C317.113 101.202 316.92 101.444 316.659 101.473C315.413 101.618 314.137 101.802 312.871 102.034C312.842 102.034 312.813 102.034 312.784 102.034V102.044ZM326.255 101.318C326.255 101.318 326.226 101.318 326.216 101.318C324.979 101.212 323.694 101.154 322.399 101.154C322.129 101.154 321.916 100.941 321.916 100.67C321.916 100.399 322.129 100.186 322.399 100.186C323.723 100.186 325.037 100.244 326.303 100.36C326.574 100.379 326.767 100.621 326.738 100.883C326.719 101.134 326.506 101.328 326.255 101.328V101.318ZM236.724 98.5693C236.598 98.5693 236.473 98.5209 236.376 98.4144C236.192 98.2209 236.202 97.9112 236.395 97.7273C237.294 96.8658 238.27 95.9947 239.285 95.114C239.488 94.9398 239.787 94.9591 239.971 95.1624C240.145 95.3656 240.125 95.6657 239.923 95.8496C238.918 96.711 237.961 97.5821 237.072 98.4241C236.975 98.5112 236.859 98.5596 236.743 98.5596L236.724 98.5693ZM351.805 96.5561C351.553 96.5561 351.351 96.3625 351.322 96.1109C351.206 94.8333 351.032 93.5654 350.79 92.3265C350.742 92.0651 350.916 91.8135 351.177 91.7554C351.438 91.707 351.689 91.8716 351.747 92.1426C351.988 93.4105 352.172 94.7171 352.288 96.0238C352.307 96.2851 352.114 96.5271 351.853 96.5464C351.834 96.5464 351.824 96.5464 351.805 96.5464V96.5561ZM244.078 92.2974C243.933 92.2974 243.788 92.2297 243.701 92.1135C243.537 91.9006 243.575 91.6006 243.788 91.436C244.803 90.6424 245.836 89.8584 246.87 89.0841C247.083 88.9292 247.383 88.9679 247.547 89.1809C247.702 89.3938 247.663 89.6938 247.45 89.8584C246.416 90.623 245.392 91.407 244.377 92.191C244.29 92.2587 244.184 92.2974 244.078 92.2974ZM349.727 87.129C349.534 87.129 349.341 87.0031 349.273 86.8095C348.944 85.8997 348.567 84.9899 348.162 84.1092C348.036 83.8382 347.91 83.5671 347.775 83.3058C347.659 83.0638 347.756 82.7735 347.988 82.6573C348.229 82.5412 348.519 82.638 348.635 82.8799C348.77 83.151 348.906 83.4316 349.031 83.7123C349.447 84.6125 349.833 85.5513 350.181 86.4902C350.268 86.7418 350.143 87.0225 349.891 87.1096C349.833 87.129 349.785 87.1386 349.727 87.1386V87.129ZM251.847 86.5289C251.692 86.5289 251.548 86.4611 251.451 86.3256C251.296 86.1127 251.345 85.803 251.557 85.6481L254.698 83.3832C254.91 83.2284 255.22 83.2768 255.374 83.4994C255.529 83.7123 255.481 84.022 255.258 84.1769L252.118 86.4418C252.031 86.4998 251.934 86.5289 251.837 86.5289H251.847ZM259.732 80.9345C259.578 80.9345 259.423 80.8571 259.336 80.7216C259.182 80.499 259.24 80.1989 259.462 80.0537C260.534 79.3278 261.607 78.6116 262.699 77.9147C262.921 77.7695 263.221 77.8373 263.366 78.0599C263.511 78.2825 263.443 78.5826 263.221 78.7277C262.139 79.4149 261.066 80.1312 260.003 80.8571C259.916 80.9151 259.829 80.9442 259.732 80.9442V80.9345ZM345.098 78.689C344.963 78.689 344.818 78.6309 344.721 78.5148C343.89 77.5082 343.001 76.6081 342.064 75.8531C341.861 75.6886 341.822 75.3789 341.996 75.1756C342.161 74.9627 342.47 74.9336 342.673 75.0982C343.659 75.9015 344.606 76.8404 345.475 77.8954C345.64 78.0986 345.611 78.4083 345.408 78.5729C345.321 78.6503 345.214 78.6793 345.098 78.6793V78.689ZM267.937 75.8338C267.763 75.8338 267.598 75.7467 267.511 75.5821C267.386 75.3498 267.463 75.0498 267.705 74.924C268.874 74.2755 270.034 73.6754 271.164 73.1334C271.406 73.0172 271.696 73.1237 271.812 73.356C271.928 73.598 271.831 73.8883 271.589 74.0045C270.478 74.5368 269.328 75.1369 268.178 75.766C268.101 75.8047 268.024 75.8241 267.946 75.8241L267.937 75.8338ZM337.368 73.056C337.31 73.056 337.242 73.0463 337.184 73.0172C336.121 72.572 334.942 72.1558 333.589 71.7493C333.338 71.6719 333.193 71.4009 333.27 71.1492C333.348 70.8976 333.618 70.7524 333.87 70.8298C335.261 71.246 336.459 71.6719 337.561 72.1365C337.803 72.2429 337.919 72.5236 337.822 72.7656C337.745 72.9495 337.561 73.0656 337.377 73.0656L337.368 73.056ZM276.701 71.788C276.508 71.788 276.324 71.6719 276.247 71.4686C276.15 71.217 276.286 70.9363 276.527 70.8492C277.726 70.404 278.972 69.9781 280.209 69.5909C280.47 69.5135 280.731 69.6587 280.808 69.9103C280.885 70.162 280.74 70.433 280.489 70.5104C279.262 70.8879 278.035 71.3041 276.856 71.7493C276.798 71.7687 276.74 71.7783 276.692 71.7783L276.701 71.788ZM328.12 70.2878C328.12 70.2878 328.043 70.2878 328.014 70.2781C326.767 69.9878 325.511 69.7071 324.255 69.4554C323.994 69.3974 323.82 69.1457 323.878 68.8844C323.926 68.6231 324.187 68.4585 324.448 68.5069C325.714 68.7682 326.98 69.0392 328.236 69.3393C328.497 69.3974 328.661 69.6587 328.593 69.92C328.545 70.1426 328.342 70.2975 328.12 70.2975V70.2878ZM285.968 69.0683C285.746 69.0683 285.543 68.9134 285.495 68.6908C285.437 68.4295 285.601 68.1681 285.862 68.1101C287.118 67.8391 288.404 67.5874 289.679 67.3745C289.94 67.3261 290.191 67.51 290.23 67.7713C290.269 68.0326 290.095 68.2843 289.834 68.323C288.568 68.5263 287.302 68.7779 286.065 69.0489C286.026 69.0489 285.997 69.0586 285.959 69.0586L285.968 69.0683ZM318.64 68.4488C318.64 68.4488 318.592 68.4488 318.563 68.4488C317.287 68.2553 316.002 68.081 314.746 67.9359C314.485 67.9068 314.292 67.6648 314.321 67.4035C314.35 67.1422 314.601 66.9389 314.852 66.9777C316.118 67.1228 317.413 67.2971 318.698 67.4906C318.959 67.5293 319.143 67.781 319.104 68.0423C319.065 68.2843 318.862 68.4585 318.63 68.4585L318.64 68.4488ZM295.516 67.6068C295.265 67.6068 295.062 67.4132 295.033 67.1616C295.013 66.9002 295.207 66.6583 295.467 66.6389C296.743 66.5227 298.048 66.4356 299.342 66.3776C299.632 66.3485 299.835 66.5711 299.845 66.8421C299.855 67.1132 299.652 67.3358 299.381 67.3454C298.096 67.4035 296.801 67.4906 295.545 67.6068C295.525 67.6068 295.516 67.6068 295.496 67.6068H295.516ZM309.035 67.4326C309.035 67.4326 309.015 67.4326 309.006 67.4326C307.721 67.3551 306.426 67.3067 305.16 67.2777C304.889 67.2777 304.677 67.0551 304.686 66.7841C304.686 66.5131 304.88 66.3195 305.179 66.3098C306.455 66.3389 307.769 66.3872 309.064 66.4647C309.334 66.484 309.537 66.7066 309.518 66.9777C309.499 67.239 309.286 67.4326 309.035 67.4326Z" fill="#C6C6C6"/>
<path opacity="0.2" d="M81.7059 41.5945C77.5669 34.7919 72.7568 28.0159 65.7946 24.1638C58.8324 20.3116 49.2014 20.2476 43.6881 25.9885C38.8087 31.0678 38.4625 39.2309 40.8862 45.8468C43.3152 52.4627 48.0242 57.9368 52.4987 63.3789C75.4681 91.3203 101.176 129.234 115.633 162.404C112.911 156.151 116.474 135.433 111.659 120.083C109.437 113.009 107.514 107.769 105.714 100.588C100.52 79.8759 92.823 59.8735 81.7006 41.6051L81.7059 41.5945Z" fill="#4A4A49"/>
<path d="M74.2222 39.7234C70.0833 32.9208 65.2731 26.1448 58.3109 22.2927C51.3487 18.4405 41.7178 18.3765 36.2045 24.1174C31.3251 29.1967 30.9788 37.3598 33.4025 43.9757C35.8263 50.5916 40.5405 56.0657 45.0151 61.5024C67.9845 89.4438 93.6919 127.357 108.149 160.527C105.427 154.274 108.991 133.557 104.175 118.207C101.954 111.132 100.031 105.893 98.2304 98.7114C93.0367 77.9995 85.3394 57.9971 74.2169 39.7287L74.2222 39.7234Z" fill="white"/>
<path fill-rule="evenodd" clip-rule="evenodd" d="M45.7304 30.7975C46.057 30.5389 46.531 30.5945 46.7891 30.9215C72.6838 63.7266 99.13 110.826 108.781 157.638C108.865 158.046 108.603 158.445 108.195 158.53C107.787 158.614 107.389 158.351 107.304 157.943C97.7147 111.428 71.4037 64.5394 45.6066 31.858C45.3484 31.5309 45.4038 31.0561 45.7304 30.7975Z" fill="#E8E8E8"/>
<path d="M38.697 32.9649C38.8303 32.9008 38.9421 32.7995 39.038 32.6874C39.3844 32.2766 39.4749 31.6417 39.1926 31.1881C38.697 30.3932 37.5355 30.6386 37.2371 31.4763C36.9601 32.2606 37.8552 33.3704 38.697 32.9649Z" fill="#713EE6"/>
<path d="M49.4263 48.9492C49.5595 48.8852 49.6714 48.7838 49.7673 48.6718C50.1136 48.261 50.2042 47.626 49.9218 47.1725C49.4263 46.3776 48.2648 46.623 47.9664 47.4606C47.6893 48.2449 48.5845 49.3547 49.4263 48.9492Z" fill="#713EE6"/>
<path d="M44.7168 25.1843C44.85 25.1203 44.9619 25.0189 45.0578 24.9069C45.4041 24.4961 45.4947 23.8612 45.2123 23.4076C44.7168 22.6127 43.5553 22.8581 43.2569 23.6957C42.9799 24.4801 43.875 25.5898 44.7168 25.1843Z" fill="#713EE6"/>
<path d="M39.9652 27.9165C40.0557 27.8738 40.1357 27.8044 40.2049 27.7244C40.45 27.4363 40.5086 26.9935 40.3115 26.6787C39.9652 26.1238 39.1553 26.2945 38.9475 26.8814C38.7557 27.431 39.3791 28.2046 39.9652 27.9218V27.9165Z" fill="#713EE6"/>
<path d="M43.4119 48.1372C43.4972 48.0945 43.5718 48.0305 43.6304 47.9612C43.8542 47.6997 43.9074 47.2942 43.7263 47.0061C43.4119 46.4993 42.6713 46.654 42.4795 47.1928C42.3037 47.6944 42.8738 48.404 43.4119 48.1426V48.1372Z" fill="#713EE6"/>
<path d="M43.7259 40.2119C43.8591 40.1479 43.9709 40.0465 44.0669 39.9345C44.4132 39.5237 44.5038 38.8887 44.2214 38.4352C43.7259 37.6402 42.5643 37.8857 42.266 38.7233C41.9889 39.5076 42.884 40.6174 43.7259 40.2119Z" fill="#713EE6"/>
<path d="M46.0855 55.6807C46.2187 55.6167 46.3306 55.5153 46.4265 55.4032C46.7728 54.9924 46.8634 54.3575 46.581 53.904C46.0855 53.109 44.9239 53.3544 44.6256 54.1921C44.3485 54.9764 45.2436 56.0862 46.0855 55.6807Z" fill="#713EE6"/>
<path d="M34.1481 37.3687C34.2174 37.4327 34.2973 37.4754 34.3826 37.5074C34.6969 37.6195 35.0806 37.5234 35.283 37.262C35.6294 36.7978 35.2297 36.1843 34.681 36.2003C34.1641 36.2163 33.7272 36.9846 34.1481 37.3741V37.3687Z" fill="#713EE6"/>
<path d="M39.2936 37.234C39.3629 37.298 39.4428 37.3407 39.5281 37.3727C39.8424 37.4847 40.2261 37.3887 40.4285 37.1272C40.7749 36.6631 40.3753 36.0495 39.8265 36.0655C39.3096 36.0815 38.8727 36.8498 39.2936 37.2393V37.234Z" fill="#713EE6"/>
<path d="M47.5659 41.3765C47.6351 41.4406 47.7151 41.4832 47.8003 41.5153C48.1147 41.6273 48.4983 41.5313 48.7008 41.2698C49.0471 40.8056 48.6475 40.1921 48.0987 40.2081C47.5818 40.2241 47.1449 40.9924 47.5659 41.3819V41.3765Z" fill="#713EE6"/>
<path d="M37.9995 44.3687C38.0687 44.4327 38.1486 44.4754 38.2339 44.5074C38.5483 44.6195 38.9319 44.5234 39.1343 44.262C39.4807 43.7978 39.0811 43.1843 38.5323 43.2003C38.0154 43.2163 37.5785 43.9846 37.9995 44.3741V44.3687Z" fill="#713EE6"/>
<path d="M43.1923 28.4374C43.235 28.416 43.2776 28.384 43.3095 28.3467C43.4268 28.2079 43.4587 27.9945 43.3628 27.8398C43.1976 27.573 42.8034 27.653 42.7021 27.9358C42.6062 28.2026 42.9099 28.5761 43.1977 28.4374H43.1923Z" fill="#713EE6"/>
<path d="M39.8745 49.7098C39.9171 49.6885 39.9597 49.6565 39.9917 49.6191C40.1089 49.4804 40.1409 49.267 40.045 49.1123C39.8798 48.8455 39.4855 48.9255 39.3843 49.2083C39.2884 49.4751 39.5921 49.8485 39.8798 49.7098H39.8745Z" fill="#713EE6"/>
<path d="M34.7282 31.1258C34.7708 31.1045 34.8135 31.0725 34.8454 31.0351C34.9627 30.8964 34.9946 30.683 34.8987 30.5283C34.7335 30.2615 34.3393 30.3415 34.238 30.6243C34.1421 30.8911 34.4458 31.2646 34.7335 31.1258H34.7282Z" fill="#713EE6"/>
<path d="M45.8402 43.7878C45.8402 43.7878 45.8882 43.7558 45.9042 43.7345C45.9681 43.6546 45.9894 43.5374 45.9308 43.4521C45.8349 43.3029 45.6165 43.3455 45.5632 43.5054C45.5099 43.6546 45.6804 43.8624 45.8402 43.7878Z" fill="#713EE6"/>
<path d="M35.3673 41.6921C35.3673 41.6921 35.4153 41.6601 35.4313 41.6388C35.4952 41.5589 35.5165 41.4417 35.4579 41.3564C35.362 41.2072 35.1436 41.2498 35.0903 41.4097C35.037 41.5589 35.2075 41.7666 35.3673 41.6921Z" fill="#713EE6"/>
<path d="M266.488 114.761C285.56 95.6592 285.56 64.6889 266.488 45.587C247.417 26.4851 216.496 26.4852 197.425 45.587C178.353 64.6889 178.353 95.6592 197.425 114.761C216.496 133.863 247.417 133.863 266.488 114.761Z" fill="#5E34BD"/>
<path d="M257.702 115.533C276.416 96.789 276.416 66.3986 257.702 47.6543C238.988 28.9101 208.646 28.9101 189.932 47.6543C171.217 66.3985 171.217 96.789 189.932 115.533C208.646 134.277 238.988 134.277 257.702 115.533Z" fill="#F6F6F6"/>
<path d="M236.299 124.993C256.336 119.681 269.955 101.736 270.461 81.7033L257.348 79.9875C259.769 98.1156 251.185 115.59 236.299 124.987V124.993Z" fill="#F7F9FF"/>
<path d="M245.078 54.2941L252.028 43.6395C241.658 35.8851 228.101 32.533 214.482 35.5859C209.197 36.7704 204.338 38.822 200.004 41.5574C200.583 41.4047 201.168 41.2582 201.766 41.1239C218.085 37.4665 234.319 43.0045 245.078 54.3002V54.2941Z" fill="#F7F9FF"/>
<path d="M252.027 43.6377L245.078 54.2923C250.649 60.1416 254.752 67.5297 256.642 75.9923C256.941 77.3233 257.172 78.6544 257.349 79.9855L270.461 81.7012C270.553 78.0011 270.199 74.2338 269.358 70.4604C266.865 59.2929 260.513 49.9938 252.027 43.6438V43.6377Z" fill="#F7F9FF"/>
<path d="M245.078 54.2948C234.318 42.9991 218.085 37.4611 201.766 41.1185C201.174 41.2528 200.589 41.3993 200.004 41.552C184.026 51.6388 175.309 71.0307 179.661 90.5509C185.203 115.359 209.77 130.971 234.538 125.427C235.129 125.293 235.714 125.146 236.299 124.994C251.186 115.597 259.775 98.1221 257.349 79.994C257.172 78.663 256.935 77.3319 256.642 76.0008C254.752 67.5382 250.65 60.1502 245.078 54.3009V54.2948Z" fill="#EEF2FF"/>
<path d="M265.633 56.5072L256.191 60.6592C257.672 62.7351 258.964 64.9943 260.025 67.4244C260.147 67.7052 260.269 67.9861 260.385 68.267L269.108 64.4264C270.516 63.8036 271.156 62.1551 270.541 60.7446L269.309 57.936C268.688 56.5255 267.042 55.8845 265.633 56.5011V56.5072Z" fill="#F6F6F6"/>
<path d="M256.191 60.6641L251.167 62.8744L254.642 70.7997L260.385 68.2719C260.269 67.991 260.153 67.7102 260.025 67.4293C258.958 64.9992 257.672 62.74 256.191 60.6641Z" fill="#F0ECE8"/>
<path d="M234.203 111.129C251.092 105.771 260.445 87.7148 255.093 70.7997C249.741 53.8846 231.711 44.516 214.822 49.8742C197.933 55.2325 188.581 73.2886 193.933 90.2036C199.285 107.119 217.315 116.487 234.203 111.129Z" fill="#F6F6F6"/>
<path d="M197.633 83.2939C200.931 98.0638 215.561 107.363 230.308 104.06C245.054 100.756 254.338 86.1026 251.04 71.3327C249.059 62.4488 242.975 55.5492 235.233 52.1727C229.887 50.1334 223.907 49.59 217.908 50.9332C215.36 51.5072 212.958 52.3803 210.733 53.516C200.589 59.3287 194.944 71.2716 197.627 83.2878L197.633 83.2939Z" fill="#DEC8B2"/>
<path d="M235.239 52.1777C242.981 55.5542 249.059 62.4538 251.046 71.3377C254.344 86.1076 245.06 100.761 230.313 104.065C215.567 107.368 200.937 98.0688 197.639 83.2989C194.956 71.2766 200.601 59.3398 210.745 53.5271C198.748 59.6634 191.927 73.3404 195.005 87.1151C198.651 103.442 214.817 113.718 231.118 110.067C247.419 106.415 257.678 90.2229 254.033 73.896C251.729 63.5772 244.426 55.6763 235.245 52.1838L235.239 52.1777Z" fill="#EDE0D3"/>
<path d="M203.234 83.9228C201.089 74.3184 204.954 64.775 212.33 59.2188C202.863 64.1828 197.498 75.0572 199.943 85.9987C202.863 99.0773 215.811 107.302 228.868 104.377C232.337 103.602 235.458 102.118 238.128 100.109C236.287 101.074 234.288 101.819 232.16 102.295C219.102 105.22 206.154 96.9891 203.234 83.9167V83.9228Z" fill="#362628"/>
<path d="M247.223 75.4181C244.303 62.3395 231.355 54.115 218.298 57.0397C216.17 57.5159 214.177 58.2608 212.33 59.2255C204.954 64.7757 201.095 74.3252 203.234 83.9296C206.154 97.0082 219.102 105.233 232.16 102.308C234.288 101.832 236.281 101.087 238.128 100.122C245.504 94.572 249.363 85.0225 247.223 75.4181Z" fill="#422E32"/>
<path d="M218.298 57.0321C216.17 57.5084 214.177 58.2533 212.33 59.218C202.863 64.182 197.498 75.0564 199.943 85.998C202.863 99.0766 215.811 107.301 228.868 104.376C232.337 103.601 235.458 102.117 238.128 100.108C245.504 94.5583 249.363 85.0088 247.223 75.4044C244.303 62.3258 231.355 54.1013 218.298 57.026V57.0321ZM238.396 98.7713C236.007 100.566 233.209 101.897 230.106 102.594C218.414 105.213 208.483 98.1607 205.856 89.3012C202.997 79.6724 218.261 79.361 217.079 68.2301C216.298 60.9032 218.627 59.8347 221.608 59.4012C233.465 57.6915 243.925 64.933 246.541 76.6439C248.461 85.247 244.998 93.7951 238.396 98.7652V98.7713Z" fill="#AD6E4E"/>
<path d="M214.811 66.0763C215.147 67.5658 214.208 69.0432 212.72 69.3789C211.233 69.7147 209.758 68.7746 209.423 67.285C209.087 65.7955 210.026 64.3181 211.513 63.9823C213.001 63.6466 214.476 64.5867 214.811 66.0763Z" fill="#DEC8B2"/>
<path d="M214.372 65.8794C214.696 67.3204 213.787 68.743 212.355 69.0666C210.916 69.3903 209.496 68.4805 209.173 67.0456C208.849 65.6046 209.758 64.182 211.19 63.8583C212.629 63.5347 214.049 64.4445 214.372 65.8794Z" fill="#422E32"/>
<path d="M210.471 65.8715C210.508 66.0239 210.41 66.1764 210.258 66.213C210.106 66.2495 209.953 66.152 209.917 65.9995C209.88 65.8471 209.977 65.6947 210.13 65.6581C210.282 65.6215 210.435 65.7191 210.471 65.8715Z" fill="#DEC8B2"/>
<path d="M210.873 64.7059C211.038 64.596 211.227 64.5288 211.41 64.4739C211.611 64.4128 211.818 64.364 212.032 64.3457C212.312 64.3274 212.593 64.3701 212.855 64.4739C212.959 64.5166 213.142 64.6021 213.081 64.6876C212.946 64.8769 212.623 64.6326 212.392 64.6204C212.245 64.6143 212.093 64.6449 211.953 64.6815C211.532 64.7914 211.129 64.9685 210.77 65.2005C210.568 65.3348 210.52 65.1944 210.575 65.0234C210.617 64.8952 210.77 64.7731 210.873 64.6998V64.7059Z" fill="#DEC8B2"/>
<path d="M204.742 78.8521C205.425 79.4444 205.492 80.4824 204.9 81.1602C204.309 81.844 203.272 81.9112 202.595 81.3189C201.919 80.7266 201.845 79.6886 202.437 79.0109C203.028 78.327 204.065 78.2599 204.742 78.8521Z" fill="#DEC8B2"/>
<path d="M204.467 78.9153C205.126 79.4892 205.193 80.4845 204.62 81.1439C204.047 81.8033 203.053 81.8705 202.394 81.2965C201.736 80.7226 201.669 79.7273 202.242 79.0679C202.815 78.4085 203.809 78.3413 204.467 78.9153Z" fill="#422E32"/>
<path d="M202.604 80.2801C202.677 80.3415 202.683 80.452 202.622 80.5195C202.561 80.5932 202.45 80.5993 202.383 80.5379C202.309 80.4766 202.303 80.3661 202.364 80.2985C202.426 80.2249 202.536 80.2188 202.604 80.2801Z" fill="#DEC8B2"/>
<path d="M202.388 79.5846C202.425 79.4747 202.492 79.377 202.565 79.2854C202.638 79.1877 202.724 79.09 202.815 79.0045C202.943 78.8946 203.089 78.8153 203.254 78.7786C203.315 78.7603 203.437 78.7359 203.437 78.8031C203.437 78.9374 203.199 78.9374 203.083 79.0107C203.01 79.0595 202.949 79.1267 202.894 79.1938C202.73 79.3953 202.602 79.6213 202.51 79.8594C202.461 79.9937 202.388 79.9448 202.358 79.8472C202.333 79.7739 202.358 79.6579 202.388 79.5846Z" fill="#DEC8B2"/>
<path d="M203.59 86.9488C203.266 87.6388 202.443 87.938 201.754 87.6144C201.065 87.2908 200.767 86.4665 201.09 85.7765C201.413 85.0866 202.236 84.7874 202.925 85.111C203.614 85.4346 203.913 86.2589 203.59 86.9488Z" fill="#DEC8B2"/>
<path d="M203.48 86.7316C203.169 87.3972 202.37 87.6841 201.706 87.3727C201.041 87.0613 200.755 86.2615 201.066 85.5959C201.377 84.9304 202.175 84.6434 202.84 84.9548C203.505 85.2662 203.791 86.0661 203.48 86.7316Z" fill="#422E32"/>
<path d="M201.937 85.5376C201.907 85.6111 201.821 85.6418 201.747 85.605C201.674 85.5744 201.643 85.4886 201.68 85.415C201.711 85.3415 201.796 85.3108 201.87 85.3476C201.944 85.3844 201.974 85.4641 201.937 85.5376Z" fill="#DEC8B2"/>
<path d="M202.449 85.2013C202.546 85.2074 202.644 85.2379 202.735 85.2744C202.833 85.311 202.93 85.3537 203.022 85.4147C203.138 85.494 203.235 85.5976 203.308 85.7196C203.339 85.7683 203.381 85.8598 203.333 85.872C203.223 85.9025 203.168 85.7135 203.083 85.6342C203.028 85.5854 202.961 85.5549 202.888 85.5244C202.686 85.4391 202.473 85.3842 202.26 85.3659C202.138 85.3537 202.162 85.2866 202.235 85.2379C202.29 85.2013 202.388 85.1952 202.455 85.2013H202.449Z" fill="#DEC8B2"/>
<path d="M207.295 94.0407C207.734 94.3887 207.807 95.0299 207.46 95.4695C207.112 95.9091 206.472 95.9824 206.033 95.6343C205.594 95.2863 205.521 94.6452 205.868 94.2056C206.216 93.7659 206.856 93.6927 207.295 94.0407Z" fill="#DEC8B2"/>
<path d="M207.125 94.0832C207.551 94.419 207.619 95.0418 207.283 95.4631C206.948 95.8905 206.326 95.9577 205.905 95.6219C205.478 95.2861 205.411 94.6633 205.747 94.242C206.082 93.8146 206.704 93.7474 207.125 94.0832Z" fill="#422E32"/>
<path d="M206.003 94.9876C206.046 95.0244 206.058 95.0918 206.021 95.1347C205.985 95.1776 205.917 95.1898 205.874 95.1531C205.831 95.1163 205.819 95.0489 205.856 95.006C205.893 94.9631 205.96 94.9508 206.003 94.9876Z" fill="#DEC8B2"/>
<path d="M205.85 94.5582C205.875 94.4911 205.911 94.4239 205.954 94.3689C205.996 94.3018 206.045 94.2407 206.1 94.1858C206.173 94.1125 206.265 94.0637 206.368 94.0331C206.405 94.0209 206.478 94.0026 206.484 94.0453C206.484 94.1308 206.338 94.1369 206.271 94.1858C206.228 94.2163 206.192 94.259 206.161 94.3079C206.064 94.4361 205.99 94.5826 205.942 94.7292C205.911 94.8147 205.868 94.7841 205.844 94.7292C205.826 94.6803 205.844 94.6132 205.856 94.5643L205.85 94.5582Z" fill="#DEC8B2"/>
<path d="M216.568 60.8547C216.452 61.4042 215.915 61.7583 215.366 61.6484C214.818 61.5385 214.464 60.9951 214.574 60.4456C214.69 59.8961 215.226 59.5419 215.775 59.6518C216.324 59.7678 216.677 60.3052 216.568 60.8547Z" fill="#DEC8B2"/>
<path d="M216.452 60.7197C216.342 61.2509 215.824 61.5929 215.294 61.483C214.763 61.373 214.422 60.8541 214.531 60.3228C214.641 59.7916 215.159 59.4497 215.69 59.5596C216.22 59.6695 216.562 60.1885 216.452 60.7197Z" fill="#422E32"/>
<path d="M215.142 60.126C215.13 60.1812 215.074 60.218 215.019 60.2057C214.964 60.1935 214.927 60.1383 214.939 60.0831C214.952 60.0279 215.007 59.9911 215.062 60.0033C215.117 60.0156 215.154 60.0708 215.142 60.126Z" fill="#DEC8B2"/>
<path d="M215.452 59.7961C215.525 59.7839 215.598 59.7961 215.665 59.7961C215.744 59.8083 215.818 59.8205 215.891 59.8449C215.988 59.8815 216.074 59.9364 216.147 60.0156C216.177 60.0461 216.226 60.101 216.19 60.1193C216.116 60.162 216.043 60.0339 215.97 59.9912C215.921 59.9669 215.866 59.9547 215.812 59.9425C215.653 59.9181 215.494 59.912 215.336 59.9425C215.251 59.9547 215.257 59.8998 215.299 59.851C215.33 59.8144 215.403 59.7961 215.452 59.79V59.7961Z" fill="#DEC8B2"/>
<path d="M212.398 73.8188C213.002 74.869 212.642 76.2062 211.593 76.8107C210.545 77.4152 209.21 77.0549 208.606 76.0047C208.003 74.9545 208.362 73.6173 209.411 73.0129C210.459 72.4084 211.794 72.7686 212.398 73.8188Z" fill="#DEC8B2"/>
<path d="M212.026 73.7751C212.611 74.7886 212.264 76.0831 211.252 76.6692C210.24 77.2554 208.947 76.9074 208.362 75.8938C207.777 74.8802 208.124 73.5858 209.136 72.9996C210.148 72.4134 211.441 72.7615 212.026 73.7751Z" fill="#422E32"/>
<path d="M209.069 74.6987C209.13 74.8085 209.093 74.9426 208.984 75.0097C208.874 75.0707 208.74 75.0341 208.673 74.9243C208.612 74.8146 208.648 74.6804 208.758 74.6134C208.868 74.5524 209.002 74.589 209.069 74.6987Z" fill="#DEC8B2"/>
<path d="M209.1 73.7202C209.197 73.5981 209.325 73.5065 209.453 73.4149C209.594 73.3233 209.74 73.2317 209.892 73.1707C210.1 73.0913 210.325 73.0547 210.545 73.073C210.63 73.0791 210.795 73.1035 210.764 73.1829C210.703 73.36 210.405 73.2501 210.228 73.2989C210.112 73.3294 210.008 73.3844 209.911 73.4454C209.618 73.6286 209.356 73.8545 209.136 74.1232C209.014 74.2697 208.947 74.1782 208.947 74.0377C208.947 73.9278 209.033 73.7996 209.1 73.7202Z" fill="#DEC8B2"/>
<path d="M208.54 68.1665C209.144 69.2167 208.784 70.5539 207.736 71.1584C206.687 71.7628 205.352 71.4026 204.749 70.3524C204.145 69.3022 204.505 67.965 205.553 67.3605C206.602 66.756 207.937 67.1163 208.54 68.1665Z" fill="#DEC8B2"/>
<path d="M208.168 68.1237C208.753 69.1373 208.405 70.4317 207.393 71.0179C206.381 71.604 205.089 71.256 204.504 70.2424C203.919 69.2288 204.266 67.9344 205.278 67.3482C206.29 66.7621 207.582 67.1101 208.168 68.1237Z" fill="#422E32"/>
<path d="M205.212 69.0452C205.273 69.1549 205.236 69.2891 205.126 69.3562C205.017 69.4171 204.882 69.3806 204.815 69.2708C204.754 69.161 204.791 69.0269 204.901 68.9598C205.011 68.8927 205.145 68.9354 205.212 69.0452Z" fill="#DEC8B2"/>
<path d="M205.242 68.0689C205.339 67.9467 205.468 67.8551 205.596 67.7636C205.736 67.672 205.882 67.5804 206.035 67.5193C206.242 67.4399 206.468 67.4033 206.687 67.4216C206.772 67.4277 206.937 67.4522 206.907 67.5315C206.846 67.7086 206.547 67.5987 206.37 67.6475C206.254 67.6781 206.15 67.733 206.053 67.7941C205.76 67.9773 205.498 68.2032 205.278 68.4718C205.157 68.6184 205.089 68.5268 205.089 68.3863C205.089 68.2764 205.175 68.1482 205.242 68.0689Z" fill="#DEC8B2"/>
<path d="M205.058 76.5358C204.138 77.0486 202.979 76.725 202.467 75.803C201.955 74.8811 202.278 73.7209 203.199 73.2081C204.119 72.6952 205.278 73.0188 205.79 73.9408C206.302 74.8627 205.979 76.0229 205.058 76.5358Z" fill="#DEC8B2"/>
<path d="M205.101 76.2102C204.217 76.7048 203.095 76.3934 202.595 75.5019C202.101 74.6166 202.412 73.4931 203.303 72.9924C204.187 72.4978 205.309 72.8092 205.809 73.7007C206.309 74.5922 205.992 75.7095 205.101 76.2102Z" fill="#422E32"/>
<path d="M204.333 73.6231C204.235 73.678 204.119 73.6414 204.064 73.5499C204.009 73.4524 204.046 73.3365 204.137 73.2816C204.235 73.2268 204.351 73.2633 204.406 73.3548C204.461 73.4524 204.424 73.5682 204.333 73.6231Z" fill="#DEC8B2"/>
<path d="M205.18 73.659C205.283 73.7445 205.363 73.8544 205.442 73.9704C205.521 74.0925 205.594 74.2207 205.649 74.3551C205.716 74.5382 205.747 74.7336 205.729 74.929C205.723 75.0023 205.704 75.1427 205.631 75.1183C205.479 75.0633 205.576 74.8069 205.54 74.6481C205.515 74.5504 205.466 74.4589 205.412 74.3673C205.259 74.1108 205.058 73.8788 204.832 73.6834C204.704 73.5735 204.79 73.5186 204.912 73.5186C205.003 73.5186 205.119 73.5979 205.186 73.6529L205.18 73.659Z" fill="#DEC8B2"/>
<path d="M118.438 293.694L3.89103 268.258C1.14958 267.584 -0.524394 264.814 0.148839 262.074L34.884 120.329C35.5573 117.583 38.323 115.906 41.0583 116.581L157.637 146.323L118.438 293.694Z" fill="#5E34BD"/>
<path d="M116.848 292.969L229.387 326.193C232.11 326.928 234.913 325.318 235.646 322.59L273.687 181.702C274.421 178.974 272.814 176.167 270.091 175.432L153.694 144.997L116.848 292.975V292.969Z" fill="#5E34BD"/>
<path d="M118.292 289.984L115.587 287.706C102.28 276.498 86.1104 269.239 68.8975 266.742L1.38013 265.952L44.7582 117.494L112.276 118.284C129.482 120.781 145.652 128.04 158.965 139.249L161.67 141.527L118.292 289.984Z" fill="#EEEEEE"/>
<path d="M118.292 289.981L115.587 287.703C102.28 276.495 86.1106 269.236 68.8976 266.739L8.03979 263.993L51.4178 115.535L112.276 118.281C129.483 120.778 145.652 128.037 158.965 139.246L161.67 141.524L118.292 289.981Z" fill="white"/>
<path d="M118.031 289.908L121.536 289.452C138.779 287.199 156.302 289.817 172.138 297.009L224.868 327.56L269.526 172.438L218.106 147.981C202.27 140.788 182.157 138.747 164.914 140.995L161.409 141.45L118.031 289.908Z" fill="#F8F8F8"/>
<path fill-rule="evenodd" clip-rule="evenodd" d="M106.626 139.577L60.802 133.52L61.1887 130.585L107.106 136.654L107.153 136.663C120.42 139.29 133.277 144.304 144.275 151.159L146.477 152.532L144.914 155.045L142.713 153.672C142.713 153.672 142.713 153.673 142.713 153.672C132.046 147.024 119.543 142.14 106.626 139.577Z" fill="#E8E8E8"/>
<path fill-rule="evenodd" clip-rule="evenodd" d="M103.509 148.126L57.6848 142.069L58.0715 139.134L103.989 145.203L104.036 145.212C117.303 147.839 130.16 152.853 141.157 159.708L143.359 161.081L141.797 163.594L139.596 162.221C128.929 155.573 116.426 150.689 103.509 148.126Z" fill="#E8E8E8"/>
<path fill-rule="evenodd" clip-rule="evenodd" d="M100.391 156.671L54.5669 150.615L54.9536 147.68L100.871 153.749L100.918 153.758C114.185 156.385 127.042 161.399 138.039 168.253L140.241 169.626L138.679 172.14L136.478 170.767C125.811 164.119 113.308 159.235 100.391 156.671Z" fill="#E8E8E8"/>
<path fill-rule="evenodd" clip-rule="evenodd" d="M106.626 139.574L60.802 133.517L61.1887 130.582L107.106 136.651L107.153 136.66C120.42 139.287 133.277 144.302 144.275 151.156L146.477 152.529L144.914 155.042L142.713 153.67C142.713 153.669 142.713 153.67 142.713 153.67C132.046 147.021 119.543 142.137 106.626 139.574Z" fill="#E8E8E8"/>
<path fill-rule="evenodd" clip-rule="evenodd" d="M103.509 148.122L57.6848 142.065L58.0715 139.13L103.989 145.199L104.036 145.208C117.303 147.835 130.16 152.849 141.157 159.704L143.359 161.077L141.797 163.59L139.596 162.217C128.929 155.569 116.426 150.685 103.509 148.122Z" fill="#E8E8E8"/>
<path fill-rule="evenodd" clip-rule="evenodd" d="M100.391 156.67L54.5669 150.614L54.9536 147.679L100.871 153.748L100.918 153.757C114.185 156.384 127.042 161.398 138.039 168.252L140.241 169.626L138.679 172.139L136.478 170.766C125.811 164.118 113.308 159.234 100.391 156.67Z" fill="#E8E8E8"/>
<path fill-rule="evenodd" clip-rule="evenodd" d="M97.1024 172.245L51.2786 166.188L51.6653 163.253L97.583 169.322L97.6294 169.331C110.897 171.958 123.754 176.972 134.751 183.827L136.953 185.2L135.391 187.713L133.189 186.34C133.189 186.34 133.189 186.34 133.189 186.34C122.523 179.692 110.02 174.808 97.1024 172.245Z" fill="#E8E8E8"/>
<path fill-rule="evenodd" clip-rule="evenodd" d="M93.9798 180.793L48.156 174.736L48.5427 171.801L94.4604 177.87L94.5068 177.879C107.774 180.506 120.631 185.52 131.629 192.375L133.831 193.748L132.268 196.261L130.067 194.888C130.067 194.888 130.067 194.888 130.067 194.888C119.4 188.24 106.897 183.356 93.9798 180.793Z" fill="#E8E8E8"/>
<path fill-rule="evenodd" clip-rule="evenodd" d="M90.8619 189.338L45.0381 183.282L45.4248 180.346L91.3425 186.415L91.3889 186.425C104.656 189.052 117.513 194.066 128.511 200.92L130.713 202.293L129.15 204.807L126.949 203.434C126.949 203.434 126.949 203.434 126.949 203.434C116.282 196.786 103.779 191.902 90.8619 189.338Z" fill="#E8E8E8"/>
<path fill-rule="evenodd" clip-rule="evenodd" d="M87.3084 207.095L41.4846 201.039L41.8713 198.104L87.789 204.172L87.8354 204.182C101.103 206.809 113.96 211.823 124.957 218.677L127.159 220.05L125.597 222.564L123.395 221.191C123.395 221.191 123.396 221.191 123.395 221.191C112.729 214.543 100.226 209.659 87.3084 207.095Z" fill="#E8E8E8"/>
<path fill-rule="evenodd" clip-rule="evenodd" d="M84.191 215.643L38.3674 209.587L38.7541 206.651L84.6719 212.72L84.7184 212.73C98.221 215.405 114.702 222.775 121.84 227.225L124.042 228.598L122.48 231.112L120.278 229.739C120.278 229.739 120.278 229.739 120.278 229.739C113.414 225.459 97.2941 218.249 84.191 215.643Z" fill="#E8E8E8"/>
<path fill-rule="evenodd" clip-rule="evenodd" d="M81.0728 224.188L35.249 218.132L35.6357 215.196L81.5532 221.265L81.5994 221.274C88.5119 222.641 96.99 225.771 104.085 228.775C111.168 231.774 117.035 234.718 118.722 235.77L120.924 237.143L119.361 239.657L117.16 238.284C115.681 237.361 109.993 234.491 102.934 231.502C95.9027 228.525 87.6719 225.499 81.0728 224.188Z" fill="#E8E8E8"/>
<path fill-rule="evenodd" clip-rule="evenodd" d="M77.356 237.474L31.5322 231.418L31.9189 228.482L77.8366 234.551L77.883 234.561C91.1505 237.187 104.008 242.202 115.005 249.056L117.207 250.429L115.644 252.943L113.443 251.57C113.443 251.57 113.443 251.57 113.443 251.57C102.776 244.922 90.2736 240.038 77.356 237.474Z" fill="#E8E8E8"/>
<path fill-rule="evenodd" clip-rule="evenodd" d="M75.2686 246.409L29.4448 240.353L29.8315 237.418L75.7492 243.487L75.7956 243.496C89.0631 246.123 101.92 251.137 112.917 257.991L115.119 259.365L113.557 261.878L111.356 260.505C111.356 260.505 111.356 260.505 111.356 260.505C100.689 253.857 88.1862 248.973 75.2686 246.409Z" fill="#E8E8E8"/>
<path fill-rule="evenodd" clip-rule="evenodd" d="M73.1766 255.339L27.3528 249.283L27.7395 246.348L73.6572 252.417L73.7036 252.426C86.971 255.053 99.8281 260.067 110.825 266.921L113.027 268.294L111.465 270.808L109.264 269.435C109.264 269.435 109.264 269.435 109.264 269.435C98.5967 262.787 86.0941 257.903 73.1766 255.339Z" fill="#E8E8E8"/>
<path fill-rule="evenodd" clip-rule="evenodd" d="M165.563 171.134C165.563 171.134 165.563 171.134 165.57 169.654C165.578 168.174 165.578 168.174 165.578 168.174L165.655 168.174C165.706 168.175 165.781 168.175 165.878 168.176C166.074 168.178 166.362 168.181 166.732 168.185C167.471 168.194 168.539 168.21 169.855 168.239C172.487 168.295 176.115 168.399 180.098 168.591C188.018 168.972 197.501 169.705 203.304 171.139C218.048 174.785 237.276 181.836 248.303 188.699L248.304 188.7L250.505 190.073L248.943 192.586L246.743 191.214C246.742 191.214 246.743 191.214 246.743 191.214C236.081 184.578 217.183 177.621 202.596 174.013C197.111 172.659 187.905 171.931 179.956 171.548C176.006 171.358 172.405 171.255 169.792 171.199C168.485 171.171 167.427 171.155 166.695 171.146C166.329 171.141 166.045 171.138 165.853 171.137C165.757 171.136 165.684 171.135 165.635 171.135L165.563 171.134Z" fill="#E8E8E8"/>
<path fill-rule="evenodd" clip-rule="evenodd" d="M167.67 161.641C167.67 161.641 167.67 161.641 167.678 160.16C167.685 158.68 167.685 158.68 167.686 158.68L167.763 158.68C167.813 158.681 167.888 158.681 167.986 158.682C168.182 158.684 168.469 158.687 168.839 158.691C169.578 158.7 170.646 158.717 171.962 158.745C174.594 158.801 178.222 158.905 182.206 159.097C190.125 159.478 199.608 160.211 205.411 161.645C220.155 165.291 239.383 172.342 250.41 179.205L250.411 179.206L252.613 180.579L251.051 183.092L248.85 181.72C248.85 181.72 248.85 181.72 248.85 181.72C238.188 175.084 219.29 168.127 204.703 164.52C199.219 163.165 190.012 162.437 182.064 162.054C178.113 161.864 174.513 161.761 171.899 161.705C170.593 161.677 169.534 161.661 168.803 161.652C168.437 161.647 168.153 161.644 167.961 161.643C167.865 161.642 167.792 161.641 167.743 161.641L167.67 161.641Z" fill="#E8E8E8"/>
<path fill-rule="evenodd" clip-rule="evenodd" d="M163.317 180.953C163.316 180.953 163.316 180.953 163.35 179.473C163.383 177.993 163.383 177.993 163.383 177.993L163.48 177.995C163.544 177.997 163.638 177.999 163.761 178.003C164.007 178.009 164.368 178.019 164.832 178.033C165.759 178.061 167.095 178.106 168.734 178.172C172.01 178.304 176.501 178.522 181.354 178.866C190.98 179.547 202.29 180.735 208.255 182.807C211.257 183.851 214.322 184.832 217.399 185.818C227.048 188.909 236.82 192.039 245.179 197.249L247.381 198.622L245.819 201.135L243.617 199.763C243.617 199.763 243.618 199.763 243.617 199.763C235.599 194.765 226.326 191.793 216.765 188.728C213.625 187.722 210.454 186.705 207.286 185.604C201.758 183.684 190.857 182.506 181.146 181.819C176.331 181.479 171.871 181.262 168.615 181.13C166.987 181.065 165.661 181.02 164.742 180.992C164.283 180.978 163.925 180.969 163.683 180.962C163.562 180.959 163.47 180.957 163.408 180.955L163.317 180.953Z" fill="#E8E8E8"/>
<path fill-rule="evenodd" clip-rule="evenodd" d="M204.243 201.244L158.419 195.187L158.806 192.252L204.724 198.321L204.77 198.33C218.038 200.957 230.895 205.972 241.892 212.826L244.094 214.199L242.532 216.712L240.33 215.34C240.33 215.34 240.33 215.34 240.33 215.34C229.663 208.691 217.161 203.807 204.243 201.244Z" fill="#E8E8E8"/>
<path fill-rule="evenodd" clip-rule="evenodd" d="M201.126 209.792L155.302 203.735L155.689 200.8L201.606 206.869L201.653 206.878C214.92 209.505 227.777 214.52 238.775 221.374L240.976 222.747L239.414 225.26L237.213 223.888C237.213 223.887 237.213 223.888 237.213 223.888C226.546 217.239 214.043 212.355 201.126 209.792Z" fill="#E8E8E8"/>
<path fill-rule="evenodd" clip-rule="evenodd" d="M198.008 218.337L152.184 212.28L152.571 209.345L198.489 215.414L198.535 215.423C211.803 218.05 224.66 223.064 235.657 229.919L237.859 231.292L236.297 233.805L234.095 232.432C234.095 232.432 234.095 232.432 234.095 232.432C223.428 225.784 210.926 220.9 198.008 218.337Z" fill="#E8E8E8"/>
<path fill-rule="evenodd" clip-rule="evenodd" d="M194.454 236.105L148.631 230.049L149.017 227.114L194.935 233.182L194.981 233.192C208.249 235.819 221.106 240.833 232.103 247.687L234.305 249.06L232.743 251.574L230.541 250.201C230.541 250.201 230.542 250.201 230.541 250.201C219.875 243.553 207.372 238.669 194.454 236.105Z" fill="#E8E8E8"/>
<path fill-rule="evenodd" clip-rule="evenodd" d="M191.337 244.653L145.513 238.597L145.9 235.661L191.818 241.73L191.864 241.74C205.367 244.415 221.848 251.785 228.986 256.235L231.188 257.608L229.626 260.122L227.424 258.749C227.424 258.749 227.424 258.749 227.424 258.749C220.56 254.469 204.44 247.259 191.337 244.653Z" fill="#E8E8E8"/>
<path fill-rule="evenodd" clip-rule="evenodd" d="M188.219 253.201L142.396 247.144L142.782 244.209L188.7 250.278L188.746 250.287C195.658 251.654 204.137 254.784 211.231 257.788C218.315 260.787 224.181 263.731 225.868 264.783L228.07 266.156L226.508 268.669L224.306 267.297C222.827 266.374 217.14 263.504 210.08 260.515C203.049 257.538 194.818 254.512 188.219 253.201Z" fill="#E8E8E8"/>
<path fill-rule="evenodd" clip-rule="evenodd" d="M184.502 266.475L138.678 260.419L139.064 257.484L184.982 263.553L185.029 263.562C198.296 266.189 211.153 271.203 222.15 278.057L224.352 279.43L222.79 281.944L220.589 280.571C220.588 280.571 220.589 280.571 220.589 280.571C209.922 273.923 197.419 269.039 184.502 266.475Z" fill="#E8E8E8"/>
<path fill-rule="evenodd" clip-rule="evenodd" d="M182.415 275.406L136.591 269.35L136.978 266.414L182.895 272.483L182.942 272.492C196.209 275.119 209.066 280.134 220.063 286.988L222.265 288.361L220.703 290.875L218.502 289.502C218.502 289.502 218.502 289.502 218.502 289.502C207.835 282.854 195.332 277.97 182.415 275.406Z" fill="#E8E8E8"/>
<path fill-rule="evenodd" clip-rule="evenodd" d="M180.323 284.344L134.499 278.287L134.886 275.352L180.803 281.421L180.85 281.43C194.117 284.057 206.974 289.071 217.972 295.926L220.174 297.299L218.611 299.812L216.41 298.439C205.743 291.791 193.24 286.907 180.323 284.344Z" fill="#E8E8E8"/>
<path d="M124.505 32.2366C123.413 38.1407 118.803 42.7574 112.909 43.8512C118.803 44.9449 123.413 49.5617 124.505 55.4657C125.597 49.5617 130.206 44.9449 136.101 43.8512C130.206 42.7574 125.597 38.1407 124.505 32.2366Z" fill="white"/>
<path d="M281.295 133.472C280.203 139.376 275.594 143.993 269.699 145.087C275.594 146.18 280.203 150.797 281.295 156.701C282.387 150.797 286.997 146.18 292.891 145.087C286.997 143.993 282.387 139.376 281.295 133.472Z" fill="white"/>
<path d="M100.085 315.204C99.3414 319.221 96.2104 322.357 92.2002 323.102C96.2104 323.847 99.3414 326.983 100.085 331C100.83 326.983 103.96 323.847 107.971 323.102C103.96 322.357 100.83 319.221 100.085 315.204Z" fill="white"/>
<path d="M144.218 309.279C143.683 312.168 141.431 314.423 138.548 314.958C141.431 315.494 143.683 317.749 144.218 320.638C144.753 317.749 147.004 315.494 149.888 314.958C147.004 314.423 144.753 312.168 144.218 309.279Z" fill="white"/>
<path d="M149.876 91.9893C149.132 96.006 146.001 99.1419 141.991 99.8872C146.001 100.632 149.132 103.768 149.876 107.785C150.62 103.768 153.751 100.632 157.761 99.8872C153.751 99.1419 150.62 96.006 149.876 91.9893Z" fill="white"/>
</svg>
