<svg width="12" height="6" viewBox="0 0 12 6" fill="none" xmlns="http://www.w3.org/2000/svg">
<path d="M11.5327 4.72174C11.8243 5.01593 11.8222 5.4908 11.528 5.78239C11.2338 6.07397 10.7589 6.07185 10.4673 5.77765L8.72 4.01468C8.01086 3.29919 7.52282 2.80839 7.1093 2.47629C6.7076 2.15369 6.44958 2.04302 6.2185 2.01357C6.07341 1.99507 5.92659 1.99507 5.7815 2.01357C5.55042 2.04302 5.2924 2.15369 4.89071 2.47629C4.47718 2.80839 3.98914 3.29919 3.28 4.01468L1.53269 5.77765C1.24111 6.07185 0.766238 6.07397 0.472041 5.78238C0.177844 5.4908 0.175726 5.01593 0.467309 4.72174L2.24609 2.92701C2.91604 2.25103 3.46359 1.69856 3.95146 1.30675C4.45879 0.899322 4.97373 0.604389 5.59184 0.525603C5.86287 0.491058 6.13714 0.491058 6.40816 0.525603C7.02628 0.604389 7.54122 0.899323 8.04854 1.30675C8.53641 1.69856 9.08396 2.25103 9.7539 2.927L11.5327 4.72174Z" fill="#4A4A49"/>
</svg>
