<svg width="32" height="33" viewBox="0 0 32 33" fill="none" xmlns="http://www.w3.org/2000/svg">
<path d="M16 3.60709C8.64 3.60709 2.66667 9.58042 2.66667 16.9404C2.66667 24.3004 8.64 30.2738 16 30.2738C23.36 30.2738 29.3333 24.3004 29.3333 16.9404C29.3333 9.58042 23.36 3.60709 16 3.60709ZM22.1867 12.6738C21.9867 14.7804 21.12 19.9004 20.68 22.2604C20.4933 23.2604 20.12 23.5938 19.7733 23.6338C19 23.7004 18.4133 23.1271 17.6667 22.6338C16.4933 21.8604 15.8267 21.3804 14.6933 20.6338C13.3733 19.7671 14.2267 19.2871 14.9867 18.5138C15.1867 18.3138 18.6 15.2071 18.6667 14.9271C18.6759 14.8847 18.6747 14.8406 18.6631 14.7988C18.6515 14.757 18.6298 14.7186 18.6 14.6871C18.52 14.6204 18.4133 14.6471 18.32 14.6604C18.2 14.6871 16.3333 15.9271 12.6933 18.3804C12.16 18.7404 11.68 18.9271 11.2533 18.9138C10.7733 18.9004 9.86667 18.6471 9.18667 18.4204C8.34667 18.1538 7.69333 18.0071 7.74667 17.5404C7.77333 17.3004 8.10667 17.0604 8.73333 16.8071C12.6267 15.1138 15.2133 13.9938 16.5067 13.4604C20.2133 11.9138 20.9733 11.6471 21.48 11.6471C21.5867 11.6471 21.84 11.6738 22 11.8071C22.1333 11.9138 22.1733 12.0604 22.1867 12.1671C22.1733 12.2471 22.2 12.4871 22.1867 12.6738Z" fill="white"/>
</svg>
