<svg width="32" height="33" viewBox="0 0 32 33" fill="none" xmlns="http://www.w3.org/2000/svg">
<path d="M25.3333 4.94043C26.0406 4.94043 26.7189 5.22138 27.219 5.72148C27.719 6.22158 28 6.89985 28 7.6071V26.2738C28 26.981 27.719 27.6593 27.219 28.1594C26.7189 28.6595 26.0406 28.9404 25.3333 28.9404H6.66667C5.95942 28.9404 5.28115 28.6595 4.78105 28.1594C4.28095 27.6593 4 26.981 4 26.2738V7.6071C4 6.89985 4.28095 6.22158 4.78105 5.72148C5.28115 5.22138 5.95942 4.94043 6.66667 4.94043H25.3333ZM24.6667 25.6071V18.5404C24.6667 17.3876 24.2087 16.282 23.3936 15.4669C22.5784 14.6517 21.4728 14.1938 20.32 14.1938C19.1867 14.1938 17.8667 14.8871 17.2267 15.9271V14.4471H13.5067V25.6071H17.2267V19.0338C17.2267 18.0071 18.0533 17.1671 19.08 17.1671C19.5751 17.1671 20.0499 17.3638 20.3999 17.7138C20.75 18.0639 20.9467 18.5387 20.9467 19.0338V25.6071H24.6667ZM9.17333 12.3538C9.76742 12.3538 10.3372 12.1178 10.7573 11.6977C11.1773 11.2776 11.4133 10.7078 11.4133 10.1138C11.4133 8.87376 10.4133 7.86043 9.17333 7.86043C8.57571 7.86043 8.00257 8.09783 7.57999 8.52042C7.1574 8.943 6.92 9.51614 6.92 10.1138C6.92 11.3538 7.93333 12.3538 9.17333 12.3538ZM11.0267 25.6071V14.4471H7.33333V25.6071H11.0267Z" fill="white"/>
</svg>
