<svg width="32" height="33" viewBox="0 0 32 33" fill="none" xmlns="http://www.w3.org/2000/svg">
<path fill-rule="evenodd" clip-rule="evenodd" d="M6.66667 27.6071C5.6058 27.6071 4.58839 27.1857 3.83824 26.4355C3.0881 25.6854 2.66667 24.668 2.66667 23.6071V10.2738C2.66667 9.21291 3.0881 8.19549 3.83824 7.44535C4.58839 6.6952 5.6058 6.27377 6.66667 6.27377H25.3333C26.3942 6.27377 27.4116 6.6952 28.1618 7.44535C28.9119 8.19549 29.3333 9.21291 29.3333 10.2738V23.6071C29.3333 24.668 28.9119 25.6854 28.1618 26.4355C27.4116 27.1857 26.3942 27.6071 25.3333 27.6071H6.66667ZM10.1667 11.9004C10.0308 11.7845 9.87311 11.697 9.70282 11.6431C9.53253 11.5893 9.35316 11.5702 9.17535 11.587C8.99754 11.6038 8.82492 11.6562 8.66774 11.741C8.51056 11.8258 8.37202 11.9413 8.26034 12.0807C8.14866 12.22 8.06612 12.3804 8.01762 12.5523C7.96912 12.7242 7.95564 12.9041 7.978 13.0813C8.00035 13.2585 8.05808 13.4294 8.14775 13.5838C8.23742 13.7383 8.35721 13.8732 8.5 13.9804L13.5 17.9818C14.2094 18.5498 15.0912 18.8593 16 18.8593C16.9088 18.8593 17.7906 18.5498 18.5 17.9818L23.5 13.9818C23.6367 13.8723 23.7506 13.737 23.8351 13.5836C23.9195 13.4302 23.9729 13.2616 23.9923 13.0875C24.0116 12.9134 23.9964 12.7373 23.9476 12.569C23.8989 12.4008 23.8174 12.2439 23.708 12.1071C23.5986 11.9704 23.4633 11.8565 23.3098 11.772C23.1564 11.6876 22.9878 11.6342 22.8137 11.6149C22.6397 11.5955 22.4635 11.6107 22.2953 11.6595C22.127 11.7082 21.9701 11.7897 21.8333 11.8991L16.8333 15.8991C16.5969 16.0884 16.3029 16.1916 16 16.1916C15.6971 16.1916 15.4032 16.0884 15.1667 15.8991L10.1667 11.8991V11.9004Z" fill="white"/>
</svg>
