<svg width="32" height="33" viewBox="0 0 32 33" fill="none" xmlns="http://www.w3.org/2000/svg">
<path d="M24 8.94043C26.76 11.6604 27.8 15.4604 27.1467 19.0071C27.6933 19.9671 28 21.0871 28 22.2738C28 24.0419 27.2976 25.7376 26.0474 26.9878C24.7971 28.2381 23.1014 28.9404 21.3333 28.9404C20.1467 28.9404 19.0267 28.6338 18.0667 28.0871C14.52 28.7404 10.72 27.7004 8 24.9404C5.24 22.2204 4.2 18.4204 4.85333 14.8738C4.30667 13.9138 4 12.7938 4 11.6071C4 9.83899 4.70238 8.14329 5.95262 6.89305C7.20286 5.64281 8.89856 4.94043 10.6667 4.94043C11.8533 4.94043 12.9733 5.2471 13.9333 5.79376C17.48 5.14043 21.28 6.18043 24 8.94043ZM16.0533 23.8204C19.88 23.8204 21.7867 21.9804 21.7867 19.5004C21.7867 17.9138 21.04 16.2204 18.1467 15.5671L15.4933 14.9804C14.48 14.7538 13.3333 14.4471 13.3333 13.5004C13.3333 12.5404 14.1333 11.8738 15.6 11.8738C18.5733 11.8738 18.2933 13.9138 19.7733 13.9138C20.5467 13.9138 21.2133 13.4604 21.2133 12.6738C21.2133 10.8471 18.2933 9.47376 15.8133 9.47376C13.1333 9.47376 10.2667 10.6204 10.2667 13.6604C10.2667 15.1271 10.7867 16.6871 13.6667 17.4071L17.2533 18.3138C18.3333 18.5804 18.6 19.1804 18.6 19.7404C18.6 20.6471 17.6933 21.5404 16.0533 21.5404C12.84 21.5404 13.28 19.0738 11.56 19.0738C10.7867 19.0738 10.2267 19.6071 10.2267 20.3671C10.2267 21.8471 12 23.8204 16.0533 23.8204Z" fill="white"/>
</svg>
