<svg width="32" height="33" viewBox="0 0 32 33" fill="none" xmlns="http://www.w3.org/2000/svg">
<path fill-rule="evenodd" clip-rule="evenodd" d="M6.66669 27.1364C5.60582 27.1364 4.58841 26.715 3.83826 25.9649C3.08811 25.2147 2.66669 24.1973 2.66669 23.1364V9.8031C2.66669 8.74223 3.08811 7.72482 3.83826 6.97467C4.58841 6.22453 5.60582 5.8031 6.66669 5.8031H25.3334C26.3942 5.8031 27.4116 6.22453 28.1618 6.97467C28.9119 7.72482 29.3334 8.74223 29.3334 9.8031V23.1364C29.3334 24.1973 28.9119 25.2147 28.1618 25.9649C27.4116 26.715 26.3942 27.1364 25.3334 27.1364H6.66669ZM10.1667 11.4298C10.0309 11.3138 9.87313 11.2263 9.70284 11.1724C9.53255 11.1186 9.35318 11.0995 9.17537 11.1163C8.99756 11.1331 8.82494 11.1855 8.66776 11.2703C8.51058 11.3551 8.37204 11.4706 8.26036 11.61C8.14868 11.7494 8.06614 11.9098 8.01764 12.0817C7.96913 12.2535 7.95566 12.4334 7.97801 12.6106C8.00037 12.7878 8.05809 12.9587 8.14777 13.1132C8.23744 13.2676 8.35722 13.4025 8.50002 13.5098L13.5 17.5111C14.2095 18.0791 15.0912 18.3886 16 18.3886C16.9088 18.3886 17.7906 18.0791 18.5 17.5111L23.5 13.5111C23.6368 13.4017 23.7506 13.2664 23.8351 13.1129C23.9195 12.9595 23.973 12.7909 23.9923 12.6168C24.0116 12.4428 23.9964 12.2666 23.9477 12.0984C23.8989 11.9301 23.8175 11.7732 23.708 11.6364C23.5986 11.4997 23.4633 11.3858 23.3098 11.3014C23.1564 11.2169 22.9878 11.1635 22.8138 11.1442C22.6397 11.1249 22.4635 11.14 22.2953 11.1888C22.1271 11.2376 21.9701 11.319 21.8334 11.4284L16.8334 15.4284C16.5969 15.6178 16.303 15.7209 16 15.7209C15.6971 15.7209 15.4032 15.6178 15.1667 15.4284L10.1667 11.4284V11.4298Z" fill="white"/>
</svg>
