<svg width="32" height="33" viewBox="0 0 32 33" fill="none" xmlns="http://www.w3.org/2000/svg">
<path d="M16 3.13635C8.63999 3.13635 2.66666 9.10969 2.66666 16.4697C2.66666 23.8297 8.63999 29.803 16 29.803C23.36 29.803 29.3333 23.8297 29.3333 16.4697C29.3333 9.10969 23.36 3.13635 16 3.13635ZM22.1867 12.203C21.9867 14.3097 21.12 19.4297 20.68 21.7897C20.4933 22.7897 20.12 23.123 19.7733 23.163C19 23.2297 18.4133 22.6564 17.6667 22.163C16.4933 21.3897 15.8267 20.9097 14.6933 20.163C13.3733 19.2964 14.2267 18.8164 14.9867 18.043C15.1867 17.843 18.6 14.7364 18.6667 14.4564C18.6759 14.4139 18.6747 14.3699 18.6631 14.3281C18.6514 14.2863 18.6298 14.2479 18.6 14.2164C18.52 14.1497 18.4133 14.1764 18.32 14.1897C18.2 14.2164 16.3333 15.4564 12.6933 17.9097C12.16 18.2697 11.68 18.4564 11.2533 18.443C10.7733 18.4297 9.86666 18.1764 9.18666 17.9497C8.34666 17.683 7.69332 17.5364 7.74666 17.0697C7.77332 16.8297 8.10666 16.5897 8.73332 16.3364C12.6267 14.643 15.2133 13.523 16.5067 12.9897C20.2133 11.443 20.9733 11.1764 21.48 11.1764C21.5867 11.1764 21.84 11.203 22 11.3364C22.1333 11.443 22.1733 11.5897 22.1867 11.6964C22.1733 11.7764 22.2 12.0164 22.1867 12.203Z" fill="white"/>
</svg>
