<svg width="24" height="25" viewBox="0 0 24 25" fill="none" xmlns="http://www.w3.org/2000/svg">
<path d="M21.3333 0.469727C22.0406 0.469727 22.7189 0.750678 23.219 1.25078C23.719 1.75087 24 2.42915 24 3.13639V21.8031C24 22.5103 23.719 23.1886 23.219 23.6887C22.7189 24.1888 22.0406 24.4697 21.3333 24.4697H2.66667C1.95942 24.4697 1.28115 24.1888 0.781048 23.6887C0.280951 23.1886 0 22.5103 0 21.8031V3.13639C0 2.42915 0.280951 1.75087 0.781048 1.25078C1.28115 0.750678 1.95942 0.469727 2.66667 0.469727H21.3333ZM20.6667 21.1364V14.0697C20.6667 12.9169 20.2087 11.8113 19.3936 10.9962C18.5784 10.181 17.4728 9.72306 16.32 9.72306C15.1867 9.72306 13.8667 10.4164 13.2267 11.4564V9.97639H9.50667V21.1364H13.2267V14.5631C13.2267 13.5364 14.0533 12.6964 15.08 12.6964C15.5751 12.6964 16.0499 12.8931 16.3999 13.2431C16.75 13.5932 16.9467 14.068 16.9467 14.5631V21.1364H20.6667ZM5.17333 7.88306C5.76742 7.88306 6.33717 7.64706 6.75725 7.22698C7.17733 6.8069 7.41333 6.23714 7.41333 5.64306C7.41333 4.40306 6.41333 3.38973 5.17333 3.38973C4.57571 3.38973 4.00257 3.62713 3.57999 4.04971C3.1574 4.47229 2.92 5.04544 2.92 5.64306C2.92 6.88306 3.93333 7.88306 5.17333 7.88306ZM7.02667 21.1364V9.97639H3.33333V21.1364H7.02667Z" fill="white"/>
</svg>
