<svg width="32" height="33" viewBox="0 0 32 33" fill="none" xmlns="http://www.w3.org/2000/svg">
<path d="M24 8.46973C26.76 11.1897 27.8 14.9897 27.1467 18.5364C27.6933 19.4964 28 20.6164 28 21.8031C28 23.5712 27.2976 25.2669 26.0474 26.5171C24.7971 27.7673 23.1014 28.4697 21.3333 28.4697C20.1467 28.4697 19.0267 28.1631 18.0667 27.6164C14.52 28.2697 10.72 27.2297 8 24.4697C5.24 21.7497 4.2 17.9497 4.85333 14.4031C4.30667 13.4431 4 12.3231 4 11.1364C4 9.36828 4.70238 7.67259 5.95262 6.42235C7.20286 5.17211 8.89856 4.46973 10.6667 4.46973C11.8533 4.46973 12.9733 4.77639 13.9333 5.32306C17.48 4.66973 21.28 5.70973 24 8.46973ZM16.0533 23.3497C19.88 23.3497 21.7867 21.5097 21.7867 19.0297C21.7867 17.4431 21.04 15.7497 18.1467 15.0964L15.4933 14.5097C14.48 14.2831 13.3333 13.9764 13.3333 13.0297C13.3333 12.0697 14.1333 11.4031 15.6 11.4031C18.5733 11.4031 18.2933 13.4431 19.7733 13.4431C20.5467 13.4431 21.2133 12.9897 21.2133 12.2031C21.2133 10.3764 18.2933 9.00306 15.8133 9.00306C13.1333 9.00306 10.2667 10.1497 10.2667 13.1897C10.2667 14.6564 10.7867 16.2164 13.6667 16.9364L17.2533 17.8431C18.3333 18.1097 18.6 18.7097 18.6 19.2697C18.6 20.1764 17.6933 21.0697 16.0533 21.0697C12.84 21.0697 13.28 18.6031 11.56 18.6031C10.7867 18.6031 10.2267 19.1364 10.2267 19.8964C10.2267 21.3764 12 23.3497 16.0533 23.3497Z" fill="white"/>
</svg>
