<svg width="128" height="41" viewBox="0 0 128 41" fill="none" xmlns="http://www.w3.org/2000/svg">
<g clip-path="url(#clip0_1_991)">
<path d="M28.8381 11.8422H24.6399L20.0073 25.3415L15.2058 11.8422H10.9834V29.098H13.8305V15.7926L18.7285 29.098H21.1896L25.9669 15.7926V29.098H28.8381V11.8422Z" fill="white"/>
<path d="M37.4816 20.47C37.4816 30.233 29.605 38.1297 19.9108 38.1297C10.2165 38.1297 2.34 30.233 2.34 20.47C2.34 10.707 10.2165 2.81034 19.9108 2.81034C29.605 2.81034 37.4816 10.707 37.4816 20.47Z" stroke="white" stroke-width="4.68"/>
<path d="M57.7384 13.1011H54.217L50.3313 24.424L46.304 13.1011H42.7623V27.5748H45.1504V16.4146L49.2587 27.5748H51.323L55.3301 16.4146V27.5748H57.7384V13.1011Z" fill="white"/>
<path d="M65.2805 16.7806C62.0424 16.7806 59.9579 18.9557 59.9579 22.3302C59.9579 25.7453 62.0222 27.9001 65.2805 27.9001C68.478 27.9001 70.5018 25.7453 70.5018 22.3302C70.5018 18.9353 68.478 16.7806 65.2805 16.7806ZM65.24 18.6101C67.0614 18.6101 68.1745 20.0127 68.1745 22.3098C68.1745 24.6679 67.0816 26.0909 65.2602 26.0909C63.3983 26.0909 62.2852 24.6882 62.2852 22.3302C62.2852 20.0331 63.4186 18.6101 65.24 18.6101Z" fill="white"/>
<path d="M74.7472 13.1011H72.4603V27.5748H74.6258V26.1519C75.3746 27.3716 76.6293 27.8594 78.046 27.8594C80.8995 27.8594 82.7816 25.6233 82.7816 22.2489C82.7816 18.976 80.9602 16.8212 78.1674 16.8212C76.8317 16.8212 75.5365 17.3294 74.7472 18.4475V13.1011ZM77.5805 18.6711C79.3412 18.6711 80.4543 20.0737 80.4543 22.2895C80.4543 24.5256 79.321 25.9892 77.5805 25.9892C75.7793 25.9892 74.6662 24.6069 74.6662 22.3505C74.6662 20.0534 75.7591 18.6508 77.5805 18.6711Z" fill="white"/>
<path d="M87.1799 13.0402H84.8728V15.3169H87.1799V13.0402ZM87.1799 17.0855H84.8728V27.5748H87.1799V17.0855Z" fill="white"/>
<path d="M88.6413 17.0855L92.446 27.5952H95.0365L98.7805 17.0855H96.3924L93.8222 25.1558L91.1508 17.0855H88.6413Z" fill="white"/>
<path d="M102.556 13.0402H100.249V15.3169H102.556V13.0402ZM102.556 17.0855H100.249V27.5748H102.556V17.0855Z" fill="white"/>
<path d="M109.907 16.7806C106.669 16.7806 104.584 18.9557 104.584 22.3302C104.584 25.7453 106.648 27.9001 109.907 27.9001C113.104 27.9001 115.128 25.7453 115.128 22.3302C115.128 18.9353 113.104 16.7806 109.907 16.7806ZM109.866 18.6101C111.687 18.6101 112.801 20.0127 112.801 22.3098C112.801 24.6679 111.708 26.0909 109.886 26.0909C108.024 26.0909 106.911 24.6882 106.911 22.3302C106.911 20.0331 108.045 18.6101 109.866 18.6101Z" fill="white"/>
<path d="M119.272 17.0855H117.086V27.5748H119.394V21.9236C119.394 19.5045 120.547 18.7321 121.944 18.7321C123.785 18.7321 123.967 20.0331 123.967 21.4764V27.5748H126.274V20.5819C126.274 18.2035 125.141 16.8009 122.733 16.8009C121.174 16.8009 120.142 17.3701 119.272 18.6304V17.0855Z" fill="white"/>
</g>
<defs>
<clipPath id="clip0_1_991">
<rect width="128" height="40" fill="white" transform="translate(0 0.469727)"/>
</clipPath>
</defs>
</svg>
