<svg width="390" height="281" viewBox="0 0 390 281" fill="none" xmlns="http://www.w3.org/2000/svg">
<mask id="mask0_71_4681" style="mask-type:alpha" maskUnits="userSpaceOnUse" x="0" y="0" width="390" height="281">
<path d="M0 13.9937C0 6.2652 6.26519 0 13.9937 0H376.006C383.735 0 390 6.26519 390 13.9937V267.006C390 274.735 383.735 281 376.006 281H13.9937C6.26522 281 0 274.735 0 267.006V13.9937Z" fill="#6D3CC7"/>
</mask>
<g mask="url(#mask0_71_4681)">
<path d="M0 13.9937C0 6.2652 6.26519 0 13.9937 0H376.006C383.735 0 390 6.26519 390 13.9937V267.006C390 274.735 383.735 281 376.006 281H13.9937C6.26522 281 0 274.735 0 267.006V13.9937Z" fill="#EEF0F6"/>
<path fill-rule="evenodd" clip-rule="evenodd" d="M376.006 4.94382H13.9937C8.99559 4.94382 4.94382 8.99559 4.94382 13.9937V267.006C4.94382 272.004 8.9956 276.056 13.9937 276.056H376.006C381.004 276.056 385.056 272.004 385.056 267.006V13.9937C385.056 8.9956 381.004 4.94382 376.006 4.94382ZM13.9937 0C6.26519 0 0 6.2652 0 13.9937V267.006C0 274.735 6.26522 281 13.9937 281H376.006C383.735 281 390 274.735 390 267.006V13.9937C390 6.26519 383.735 0 376.006 0H13.9937Z" fill="#EEF0F6"/>
<path d="M0 13.9937C0 6.26519 6.26519 0 13.9937 0H376.006C383.735 0 390 6.26519 390 13.9937V29H0V13.9937Z" fill="#E1DEF4"/>
<path d="M343 14.5C343 17.5376 340.538 20 337.5 20C334.462 20 332 17.5376 332 14.5C332 11.4624 334.462 9 337.5 9C340.538 9 343 11.4624 343 14.5Z" fill="white"/>
<path d="M360 14.5C360 17.5376 357.538 20 354.5 20C351.462 20 349 17.5376 349 14.5C349 11.4624 351.462 9 354.5 9C357.538 9 360 11.4624 360 14.5Z" fill="white"/>
<path d="M377 14.5C377 17.5376 374.538 20 371.5 20C368.462 20 366 17.5376 366 14.5C366 11.4624 368.462 9 371.5 9C374.538 9 377 11.4624 377 14.5Z" fill="white"/>
</g>
<path d="M16 61C16 55.4772 20.4772 51 26 51H364C369.523 51 374 55.4772 374 61V98C374 103.523 369.523 108 364 108H26C20.4771 108 16 103.523 16 98V61Z" fill="white"/>
<path d="M87 69C87 67.8954 87.8954 67 89 67H177C178.105 67 179 67.8954 179 69C179 70.1046 178.105 71 177 71H89C87.8954 71 87 70.1046 87 69Z" fill="#EEF0F6"/>
<path d="M87 80C87 78.8954 87.8954 78 89 78H315C316.105 78 317 78.8954 317 80C317 81.1046 316.105 82 315 82H89C87.8954 82 87 81.1046 87 80Z" fill="#EEF0F6"/>
<path d="M87 91C87 89.8954 87.8954 89 89 89H143C144.105 89 145 89.8954 145 91C145 92.1046 144.105 93 143 93H89C87.8954 93 87 92.1046 87 91Z" fill="#EEF0F6"/>
<path d="M150 91C150 89.8954 150.895 89 152 89H221C222.105 89 223 89.8954 223 91C223 92.1046 222.105 93 221 93H152C150.895 93 150 92.1046 150 91Z" fill="#EEF0F6"/>
<path d="M228 91C228 89.8954 228.895 89 230 89H280C281.105 89 282 89.8954 282 91C282 92.1046 281.105 93 280 93H230C228.895 93 228 92.1046 228 91Z" fill="#EEF0F6"/>
<path fill-rule="evenodd" clip-rule="evenodd" d="M50.1154 71.5385C48.0125 71.5385 46.3077 73.2432 46.3077 75.3462C46.3077 77.4491 48.0125 79.1538 50.1154 79.1538C52.2183 79.1538 53.9231 77.4491 53.9231 75.3462C53.9231 73.2432 52.2183 71.5385 50.1154 71.5385ZM48.3846 75.3462C48.3846 74.3903 49.1595 73.6154 50.1154 73.6154C51.0713 73.6154 51.8462 74.3903 51.8462 75.3462C51.8462 76.302 51.0713 77.0769 50.1154 77.0769C49.1595 77.0769 48.3846 76.302 48.3846 75.3462Z" fill="#EEF0F6"/>
<path fill-rule="evenodd" clip-rule="evenodd" d="M57.6803 66.1713C56.0988 66 54.1055 66 51.5627 66H51.4373C48.8945 66 46.9012 66 45.3197 66.1713C43.7059 66.3462 42.3983 66.7094 41.2819 67.5205C40.606 68.0116 40.0116 68.606 39.5205 69.2819C38.7094 70.3983 38.3462 71.7059 38.1713 73.3197C38 74.9012 38 76.8945 38 79.4373V79.5627C38 82.1055 38 84.0988 38.1713 85.6803C38.3462 87.2941 38.7094 88.6017 39.5205 89.7181C39.5383 89.7427 39.5563 89.7671 39.5744 89.7914C40.0548 90.437 40.6305 91.0062 41.2819 91.4795C42.3983 92.2906 43.7059 92.6538 45.3197 92.8287C46.9011 93 48.8944 93 51.4372 93H51.5627C54.1055 93 56.0989 93 57.6803 92.8287C59.2941 92.6538 60.6017 92.2906 61.7181 91.4795C62.394 90.9884 62.9884 90.394 63.4795 89.7181C64.6839 88.0603 64.9173 85.9448 64.979 82.9623C65 81.9483 65 80.8019 65 79.5083V79.4373C65 76.8945 65 74.9011 64.8287 73.3197C64.6538 71.7059 64.2906 70.3983 63.4795 69.2819C62.9884 68.606 62.394 68.0116 61.7181 67.5205C60.6017 66.7094 59.2941 66.3462 57.6803 66.1713ZM42.5026 69.2008C43.206 68.6897 44.1063 68.3919 45.5434 68.2362C47 68.0783 48.8809 68.0769 51.5 68.0769C54.1191 68.0769 56 68.0783 57.4566 68.2362C58.8937 68.3919 59.794 68.6897 60.4974 69.2008C60.9969 69.5637 61.4363 70.0031 61.7992 70.5026C62.3103 71.206 62.6081 72.1063 62.7638 73.5434C62.9217 75 62.9231 76.8809 62.9231 79.5C62.9231 79.8531 62.9231 80.1931 62.9227 80.5209C62.7761 80.3966 62.6371 80.2874 62.5005 80.1904C59.079 77.7611 54.3593 78.4044 51.7129 81.6608C51.4933 81.931 51.2829 82.2476 51.0446 82.6422L50.8716 82.6076C49.3498 82.3031 48.4179 82.1166 47.543 82.1351C45.2051 82.1848 43.0073 83.2597 41.5328 85.0747C41.1583 85.5355 40.8423 86.0751 40.461 86.8081C40.3657 86.4159 40.2918 85.9706 40.2362 85.4566C40.0783 84 40.0769 82.1191 40.0769 79.5C40.0769 76.8809 40.0783 75 40.2362 73.5434C40.3919 72.1063 40.6897 71.206 41.2008 70.5026C41.5637 70.0031 42.0031 69.5637 42.5026 69.2008ZM61.2981 81.8839C61.6408 82.1272 62.0375 82.5085 62.8916 83.3605C62.8124 86.0893 62.5381 87.4804 61.7992 88.4974C61.4363 88.9969 60.9969 89.4363 60.4974 89.7992C59.794 90.3103 58.8937 90.6081 57.4566 90.7638C56 90.9217 54.1191 90.9231 51.5 90.9231C50.4729 90.9231 49.5593 90.9229 48.7403 90.9131L51.9509 85.2329C52.1308 84.9145 52.2871 84.638 52.4267 84.3939C52.869 83.6203 53.1082 83.2371 53.3246 82.9707C55.2807 80.5638 58.7692 80.0883 61.2981 81.8839ZM46.4421 90.7582C46.4275 90.784 46.4142 90.8102 46.402 90.8367C46.0998 90.8171 45.8143 90.7932 45.5434 90.7638C44.1063 90.6081 43.206 90.3103 42.5026 89.7992C42.1964 89.5767 41.9128 89.3255 41.6556 89.0494C42.4334 87.4937 42.755 86.864 43.1447 86.3843C44.2346 85.0428 45.8591 84.2483 47.5871 84.2116C48.12 84.2003 48.7091 84.2973 49.9551 84.543L46.4421 90.7582Z" fill="#EEF0F6"/>
<path d="M16 132C16 126.477 20.4772 122 26 122H213C218.523 122 223 126.477 223 132V152C223 157.523 218.523 162 213 162H26C20.4772 162 16 157.523 16 152V132Z" fill="white"/>
<path d="M232 132C232 126.477 236.477 122 242 122H262C267.523 122 272 126.477 272 132V152C272 157.523 267.523 162 262 162H242C236.477 162 232 157.523 232 152V132Z" fill="white"/>
<path d="M16 177.5C16 175.567 17.567 174 19.5 174H47.5C49.433 174 51 175.567 51 177.5C51 179.433 49.433 181 47.5 181H19.5C17.567 181 16 179.433 16 177.5Z" fill="white"/>
<path d="M16 193.5C16 191.567 17.567 190 19.5 190H85.5C87.433 190 89 191.567 89 193.5C89 195.433 87.433 197 85.5 197H19.5C17.567 197 16 195.433 16 193.5Z" fill="white"/>
<path d="M16 209.5C16 207.567 17.567 206 19.5 206H31.5C33.433 206 35 207.567 35 209.5C35 211.433 33.433 213 31.5 213H19.5C17.567 213 16 211.433 16 209.5Z" fill="white"/>
<path d="M44 209.5C44 207.567 45.567 206 47.5 206H69.5C71.433 206 73 207.567 73 209.5C73 211.433 71.433 213 69.5 213H47.5C45.567 213 44 211.433 44 209.5Z" fill="white"/>
<path d="M293 132C293 126.477 297.477 122 303 122H364C369.523 122 374 126.477 374 132V246C374 251.523 369.523 256 364 256H303C297.477 256 293 251.523 293 246V132Z" fill="white"/>
<path d="M15 49C15 43.4771 19.4772 39 25 39H175C180.523 39 185 43.4772 185 49V142C185 147.523 180.523 152 175 152H25C19.4772 152 15 147.523 15 142V49Z" fill="#3AC2BA"/>
<path fill-rule="evenodd" clip-rule="evenodd" d="M42.1154 55.5385C40.0125 55.5385 38.3077 57.2432 38.3077 59.3462C38.3077 61.4491 40.0125 63.1538 42.1154 63.1538C44.2183 63.1538 45.9231 61.4491 45.9231 59.3462C45.9231 57.2432 44.2183 55.5385 42.1154 55.5385ZM40.3846 59.3462C40.3846 58.3903 41.1595 57.6154 42.1154 57.6154C43.0713 57.6154 43.8462 58.3903 43.8462 59.3462C43.8462 60.302 43.0713 61.0769 42.1154 61.0769C41.1595 61.0769 40.3846 60.302 40.3846 59.3462Z" fill="white"/>
<path fill-rule="evenodd" clip-rule="evenodd" d="M49.6803 50.1713C48.0988 50 46.1055 50 43.5627 50H43.4373C40.8945 50 38.9012 50 37.3197 50.1713C35.7059 50.3462 34.3983 50.7094 33.2819 51.5205C32.606 52.0116 32.0116 52.606 31.5205 53.2819C30.7094 54.3983 30.3462 55.7059 30.1713 57.3197C30 58.9012 30 60.8945 30 63.4373V63.5627C30 66.1055 30 68.0988 30.1713 69.6803C30.3462 71.2941 30.7094 72.6017 31.5205 73.7181C31.5383 73.7427 31.5563 73.7671 31.5744 73.7914C32.0548 74.437 32.6305 75.0062 33.2819 75.4795C34.3983 76.2906 35.7059 76.6538 37.3197 76.8287C38.9011 77 40.8944 77 43.4372 77H43.5627C46.1055 77 48.0989 77 49.6803 76.8287C51.2941 76.6538 52.6017 76.2906 53.7181 75.4795C54.394 74.9884 54.9884 74.394 55.4795 73.7181C56.6839 72.0603 56.9173 69.9448 56.979 66.9623C57 65.9483 57 64.8019 57 63.5083V63.4373C57 60.8945 57 58.9011 56.8287 57.3197C56.6538 55.7059 56.2906 54.3983 55.4795 53.2819C54.9884 52.606 54.394 52.0116 53.7181 51.5205C52.6017 50.7094 51.2941 50.3462 49.6803 50.1713ZM34.5026 53.2008C35.206 52.6897 36.1063 52.3919 37.5434 52.2362C39 52.0783 40.8809 52.0769 43.5 52.0769C46.1191 52.0769 48 52.0783 49.4566 52.2362C50.8937 52.3919 51.794 52.6897 52.4974 53.2008C52.9969 53.5637 53.4363 54.0031 53.7992 54.5026C54.3103 55.206 54.6081 56.1063 54.7638 57.5434C54.9217 59 54.9231 60.8809 54.9231 63.5C54.9231 63.8531 54.9231 64.1931 54.9227 64.5209C54.7761 64.3966 54.6371 64.2874 54.5005 64.1904C51.079 61.7611 46.3593 62.4044 43.7129 65.6608C43.4933 65.931 43.2829 66.2476 43.0446 66.6422L42.8716 66.6076C41.3498 66.3031 40.4179 66.1166 39.543 66.1351C37.2051 66.1848 35.0073 67.2597 33.5328 69.0747C33.1583 69.5355 32.8423 70.0751 32.461 70.8081C32.3657 70.4159 32.2918 69.9706 32.2362 69.4566C32.0783 68 32.0769 66.1191 32.0769 63.5C32.0769 60.8809 32.0783 59 32.2362 57.5434C32.3919 56.1063 32.6897 55.206 33.2008 54.5026C33.5637 54.0031 34.0031 53.5637 34.5026 53.2008ZM53.2981 65.8839C53.6408 66.1272 54.0375 66.5085 54.8916 67.3605C54.8124 70.0893 54.5381 71.4804 53.7992 72.4974C53.4363 72.9969 52.9969 73.4363 52.4974 73.7992C51.794 74.3103 50.8937 74.6081 49.4566 74.7638C48 74.9217 46.1191 74.9231 43.5 74.9231C42.4729 74.9231 41.5593 74.9229 40.7403 74.9131L43.9509 69.2329C44.1308 68.9145 44.2871 68.638 44.4267 68.3939C44.869 67.6203 45.1082 67.2371 45.3246 66.9707C47.2807 64.5638 50.7692 64.0883 53.2981 65.8839ZM38.4421 74.7582C38.4275 74.784 38.4142 74.8102 38.402 74.8367C38.0998 74.8171 37.8143 74.7932 37.5434 74.7638C36.1063 74.6081 35.206 74.3103 34.5026 73.7992C34.1964 73.5767 33.9128 73.3255 33.6556 73.0494C34.4334 71.4937 34.755 70.864 35.1447 70.3843C36.2346 69.0428 37.8591 68.2483 39.5871 68.2116C40.12 68.2003 40.7091 68.2973 41.9551 68.543L38.4421 74.7582Z" fill="white"/>
<path d="M30 101.5C30 100.119 31.1193 99 32.5 99H83.5C84.8807 99 86 100.119 86 101.5C86 102.881 84.8807 104 83.5 104H32.5C31.1193 104 30 102.881 30 101.5Z" fill="white"/>
<path d="M30 116.5C30 115.119 31.1193 114 32.5 114H163.5C164.881 114 166 115.119 166 116.5C166 117.881 164.881 119 163.5 119H32.5C31.1193 119 30 117.881 30 116.5Z" fill="white"/>
<path d="M30 131.5C30 130.119 31.1193 129 32.5 129H61.5C62.8807 129 64 130.119 64 131.5C64 132.881 62.8807 134 61.5 134H32.5C31.1193 134 30 132.881 30 131.5Z" fill="white"/>
<path d="M68 131.5C68 130.119 69.1193 129 70.5 129H108.5C109.881 129 111 130.119 111 131.5C111 132.881 109.881 134 108.5 134H70.5C69.1193 134 68 132.881 68 131.5Z" fill="white"/>
<path d="M115 131.5C115 130.119 116.119 129 117.5 129H144.5C145.881 129 147 130.119 147 131.5C147 132.881 145.881 134 144.5 134H117.5C116.119 134 115 132.881 115 131.5Z" fill="white"/>
<path d="M171.834 53.9176C172.041 53.7102 172.041 53.3738 171.834 53.1663C171.626 52.9589 171.29 52.9589 171.083 53.1663L166.5 57.749L161.917 53.1663C161.71 52.9589 161.373 52.9589 161.166 53.1663C160.958 53.3738 160.958 53.7102 161.166 53.9176L165.749 58.5003L161.166 63.083C160.958 63.2905 160.958 63.6268 161.166 63.8343C161.373 64.0418 161.71 64.0418 161.917 63.8343L166.5 59.2516L171.083 63.8343C171.29 64.0418 171.626 64.0418 171.834 63.8343C172.041 63.6268 172.041 63.2905 171.834 63.083L167.251 58.5003L171.834 53.9176Z" fill="white"/>
<path fill-rule="evenodd" clip-rule="evenodd" d="M170.375 52.4592C170.973 51.8612 171.943 51.8612 172.541 52.4592C173.139 53.0572 173.139 54.0268 172.541 54.6247L168.665 58.5003L172.541 62.3759C173.139 62.9739 173.139 63.9434 172.541 64.5414C171.943 65.1394 170.973 65.1394 170.375 64.5414L166.5 60.6659L162.624 64.5414C162.026 65.1394 161.057 65.1394 160.459 64.5414C159.861 63.9434 159.861 62.9739 160.459 62.3759L164.334 58.5003L160.459 54.6248C159.861 54.0268 159.861 53.0572 160.459 52.4592C161.057 51.8612 162.026 51.8612 162.624 52.4592L166.5 56.3348L170.375 52.4592Z" fill="white"/>
<path opacity="0.1" d="M16 235C16 229.477 20.4772 225 26 225H152C157.523 225 162 229.477 162 235V258C162 263.523 157.523 268 152 268H26C20.4771 268 16 263.523 16 258V235Z" fill="#713EE6"/>
<path d="M69 237C69 235.895 69.8954 235 71 235H102C103.105 235 104 235.895 104 237C104 238.105 103.105 239 102 239H71C69.8954 239 69 238.105 69 237Z" fill="white"/>
<path d="M69 247C69 245.895 69.8954 245 71 245H148C149.105 245 150 245.895 150 247C150 248.105 149.105 249 148 249H71C69.8954 249 69 248.105 69 247Z" fill="white"/>
<path d="M69 257C69 255.895 69.8954 255 71 255H87C88.1046 255 89 255.895 89 257C89 258.105 88.1046 259 87 259H71C69.8954 259 69 258.105 69 257Z" fill="white"/>
<path d="M94 257C94 255.895 94.8954 255 96 255H116C117.105 255 118 255.895 118 257C118 258.105 117.105 259 116 259H96C94.8954 259 94 258.105 94 257Z" fill="white"/>
<path d="M123 257C123 255.895 123.895 255 125 255H138C139.105 255 140 255.895 140 257C140 258.105 139.105 259 138 259H125C123.895 259 123 258.105 123 257Z" fill="white"/>
<path d="M59 246C59 254.284 52.2843 261 44 261C35.7157 261 29 254.284 29 246C29 237.716 35.7157 231 44 231C52.2843 231 59 237.716 59 246Z" fill="white"/>
<path d="M49.1259 244.557C50.0726 245.286 50.0726 246.714 49.1259 247.443L42.6813 252.404C41.4841 253.325 39.75 252.472 39.75 250.961L39.75 241.039C39.75 239.528 41.4841 238.675 42.6813 239.596L49.1259 244.557Z" fill="#EEF0F6"/>
</svg>
