<svg width="64" height="46" viewBox="0 0 64 46" fill="none" xmlns="http://www.w3.org/2000/svg">
<mask id="mask0_1_346" style="mask-type:alpha" maskUnits="userSpaceOnUse" x="0" y="0" width="64" height="46">
<path d="M-6.10352e-05 5C-6.10352e-05 2.23858 2.23852 0 4.99994 0H58.9999C61.7614 0 63.9999 2.23858 63.9999 5V41C63.9999 43.7614 61.7614 46 58.9999 46H4.99994C2.23852 46 -6.10352e-05 43.7614 -6.10352e-05 41V5Z" fill="#6D3CC7"/>
</mask>
<g mask="url(#mask0_1_346)">
<path d="M-6.10352e-05 5C-6.10352e-05 2.23858 2.23852 0 4.99994 0H58.9999C61.7614 0 63.9999 2.23858 63.9999 5V41C63.9999 43.7614 61.7614 46 58.9999 46H4.99994C2.23852 46 -6.10352e-05 43.7614 -6.10352e-05 41V5Z" fill="#EEF0F6"/>
<path fill-rule="evenodd" clip-rule="evenodd" d="M58.9999 2H4.99994C3.34308 2 1.99994 3.34315 1.99994 5V41C1.99994 42.6569 3.34308 44 4.99994 44H58.9999C60.6568 44 61.9999 42.6569 61.9999 41V5C61.9999 3.34315 60.6568 2 58.9999 2ZM4.99994 0C2.23852 0 -6.10352e-05 2.23858 -6.10352e-05 5V41C-6.10352e-05 43.7614 2.23852 46 4.99994 46H58.9999C61.7614 46 63.9999 43.7614 63.9999 41V5C63.9999 2.23858 61.7614 0 58.9999 0H4.99994Z" fill="#EEF0F6"/>
<path d="M-6.10352e-05 2.29073C-6.10352e-05 1.02559 1.02553 0 2.29067 0H61.7092C62.9743 0 63.9999 1.02559 63.9999 2.29073V8H-6.10352e-05V2.29073Z" fill="#E1DEF4"/>
<path d="M50.1918 3.97336C50.1918 4.92178 49.421 5.69063 48.4703 5.69063C47.5195 5.69063 46.7487 4.92178 46.7487 3.97336C46.7487 3.02495 47.5195 2.2561 48.4703 2.2561C49.421 2.2561 50.1918 3.02495 50.1918 3.97336Z" fill="white"/>
<path d="M55.2742 3.97336C55.2742 4.92178 54.5034 5.69063 53.5526 5.69063C52.6019 5.69063 51.8311 4.92178 51.8311 3.97336C51.8311 3.02495 52.6019 2.2561 53.5526 2.2561C54.5034 2.2561 55.2742 3.02495 55.2742 3.97336Z" fill="white"/>
<path d="M60.3568 3.97336C60.3568 4.92178 59.586 5.69063 58.6353 5.69063C57.6845 5.69063 56.9137 4.92178 56.9137 3.97336C56.9137 3.02495 57.6845 2.2561 58.6353 2.2561C59.586 2.2561 60.3568 3.02495 60.3568 3.97336Z" fill="white"/>
</g>
<path d="M4.99994 14C4.99994 12.3431 6.34308 11 7.99994 11H19.9999C21.6568 11 22.9999 12.3431 22.9999 14V26C22.9999 27.6569 21.6568 29 19.9999 29H7.99994C6.34309 29 4.99994 27.6569 4.99994 26V14Z" fill="#3AC2BA"/>
<path d="M10.9999 16C10.9999 14.3431 12.3431 13 13.9999 13C15.6568 13 16.9999 14.3431 16.9999 16C16.9999 17.6569 15.6568 19 13.9999 19C12.3431 19 10.9999 17.6569 10.9999 16Z" fill="white"/>
<path d="M7.99994 23C7.99994 22.4477 8.44765 22 8.99994 22H18.9999C19.5522 22 19.9999 22.4477 19.9999 23C19.9999 23.5523 19.5522 24 18.9999 24H8.99994C8.44765 24 7.99994 23.5523 7.99994 23Z" fill="white"/>
<path d="M7.99994 26C7.99994 25.4477 8.44765 25 8.99994 25H14.9999C15.5522 25 15.9999 25.4477 15.9999 26C15.9999 26.5523 15.5522 27 14.9999 27H8.99994C8.44765 27 7.99994 26.5523 7.99994 26Z" fill="white"/>
<path d="M26.9999 14C26.9999 12.3431 28.3431 11 29.9999 11H41.9999C43.6568 11 44.9999 12.3431 44.9999 14V26C44.9999 27.6569 43.6568 29 41.9999 29H29.9999C28.3431 29 26.9999 27.6569 26.9999 26V14Z" fill="#3AC2BA"/>
<path d="M32.9999 16C32.9999 14.3431 34.3431 13 35.9999 13C37.6568 13 38.9999 14.3431 38.9999 16C38.9999 17.6569 37.6568 19 35.9999 19C34.3431 19 32.9999 17.6569 32.9999 16Z" fill="white"/>
<path d="M29.9999 23C29.9999 22.4477 30.4477 22 30.9999 22H40.9999C41.5522 22 41.9999 22.4477 41.9999 23C41.9999 23.5523 41.5522 24 40.9999 24H30.9999C30.4477 24 29.9999 23.5523 29.9999 23Z" fill="white"/>
<path d="M29.9999 26C29.9999 25.4477 30.4477 25 30.9999 25H36.9999C37.5522 25 37.9999 25.4477 37.9999 26C37.9999 26.5523 37.5522 27 36.9999 27H30.9999C30.4477 27 29.9999 26.5523 29.9999 26Z" fill="white"/>
<path d="M47.9999 14C47.9999 12.3431 49.3431 11 50.9999 11H55.9999C57.6568 11 58.9999 12.3431 58.9999 14V38C58.9999 39.6569 57.6568 41 55.9999 41H50.9999C49.3431 41 47.9999 39.6569 47.9999 38V14Z" fill="white"/>
<path d="M4.99994 36.5C4.99994 35.1193 6.11923 34 7.49994 34C8.88065 34 9.99994 35.1193 9.99994 36.5V38.5C9.99994 39.8807 8.88065 41 7.49994 41C6.11923 41 4.99994 39.8807 4.99994 38.5V36.5Z" fill="white"/>
<path d="M12.9999 35C12.9999 35.5523 13.4477 36 13.9999 36H24.9999C25.5522 36 25.9999 35.5523 25.9999 35C25.9999 34.4477 25.5522 34 24.9999 34H13.9999C13.4477 34 12.9999 34.4477 12.9999 35Z" fill="white"/>
<path d="M12.9999 40C12.9999 40.5523 13.4477 41 13.9999 41H22.9999C23.5522 41 23.9999 40.5523 23.9999 40C23.9999 39.4477 23.5522 39 22.9999 39H13.9999C13.4477 39 12.9999 39.4477 12.9999 40Z" fill="white"/>
<path d="M26.9999 40C26.9999 40.5523 27.4477 41 27.9999 41H41.9999C42.5522 41 42.9999 40.5523 42.9999 40C42.9999 39.4477 42.5522 39 41.9999 39H27.9999C27.4477 39 26.9999 39.4477 26.9999 40Z" fill="white"/>
</svg>
