<svg width="390" height="281" viewBox="0 0 390 281" fill="none" xmlns="http://www.w3.org/2000/svg">
<mask id="mask0_71_4531" style="mask-type:alpha" maskUnits="userSpaceOnUse" x="0" y="0" width="390" height="281">
<path d="M0 13.9937C0 6.2652 6.26519 0 13.9937 0H376.006C383.735 0 390 6.26519 390 13.9937V267.006C390 274.735 383.735 281 376.006 281H13.9937C6.26522 281 0 274.735 0 267.006V13.9937Z" fill="#6D3CC7"/>
</mask>
<g mask="url(#mask0_71_4531)">
<path d="M0 13.9937C0 6.2652 6.26519 0 13.9937 0H376.006C383.735 0 390 6.26519 390 13.9937V267.006C390 274.735 383.735 281 376.006 281H13.9937C6.26522 281 0 274.735 0 267.006V13.9937Z" fill="#EEF0F6"/>
<path fill-rule="evenodd" clip-rule="evenodd" d="M376.006 4.94382H13.9937C8.99559 4.94382 4.94382 8.99559 4.94382 13.9937V267.006C4.94382 272.004 8.9956 276.056 13.9937 276.056H376.006C381.004 276.056 385.056 272.004 385.056 267.006V13.9937C385.056 8.9956 381.004 4.94382 376.006 4.94382ZM13.9937 0C6.26519 0 0 6.2652 0 13.9937V267.006C0 274.735 6.26522 281 13.9937 281H376.006C383.735 281 390 274.735 390 267.006V13.9937C390 6.26519 383.735 0 376.006 0H13.9937Z" fill="#EEF0F6"/>
<path d="M0 13.9937C0 6.26519 6.26519 0 13.9937 0H376.006C383.735 0 390 6.26519 390 13.9937V29H0V13.9937Z" fill="#E1DEF4"/>
<path d="M343 14.5C343 17.5376 340.538 20 337.5 20C334.462 20 332 17.5376 332 14.5C332 11.4624 334.462 9 337.5 9C340.538 9 343 11.4624 343 14.5Z" fill="white"/>
<path d="M360 14.5C360 17.5376 357.538 20 354.5 20C351.462 20 349 17.5376 349 14.5C349 11.4624 351.462 9 354.5 9C357.538 9 360 11.4624 360 14.5Z" fill="white"/>
<path d="M377 14.5C377 17.5376 374.538 20 371.5 20C368.462 20 366 17.5376 366 14.5C366 11.4624 368.462 9 371.5 9C374.538 9 377 11.4624 377 14.5Z" fill="white"/>
</g>
<path d="M20 61C20 55.4772 24.4772 51 30 51H91C96.5229 51 101 55.4772 101 61V150C101 155.523 96.5229 160 91 160H30C24.4772 160 20 155.523 20 150V61Z" fill="#3AC2BA"/>
<path d="M34 126C34 124.895 34.8954 124 36 124H53.2C54.3046 124 55.2 124.895 55.2 126C55.2 127.105 54.3046 128 53.2 128H36C34.8954 128 34 127.105 34 126Z" fill="white"/>
<path d="M34 135C34 133.895 34.8954 133 36 133H85C86.1046 133 87 133.895 87 135C87 136.105 86.1046 137 85 137H36C34.8954 137 34 136.105 34 135Z" fill="white"/>
<path d="M34 144C34 142.895 34.8954 142 36 142H66C67.1046 142 68 142.895 68 144C68 145.105 67.1046 146 66 146H36C34.8954 146 34 145.105 34 144Z" fill="white"/>
<path fill-rule="evenodd" clip-rule="evenodd" d="M59.1154 77.5385C57.0125 77.5385 55.3077 79.2432 55.3077 81.3462C55.3077 83.4491 57.0125 85.1538 59.1154 85.1538C61.2183 85.1538 62.9231 83.4491 62.9231 81.3462C62.9231 79.2432 61.2183 77.5385 59.1154 77.5385ZM57.3846 81.3462C57.3846 80.3903 58.1595 79.6154 59.1154 79.6154C60.0713 79.6154 60.8462 80.3903 60.8462 81.3462C60.8462 82.302 60.0713 83.0769 59.1154 83.0769C58.1595 83.0769 57.3846 82.302 57.3846 81.3462Z" fill="white"/>
<path fill-rule="evenodd" clip-rule="evenodd" d="M66.6803 72.1713C65.0988 72 63.1055 72 60.5627 72H60.4373C57.8945 72 55.9012 72 54.3197 72.1713C52.7059 72.3462 51.3983 72.7094 50.2819 73.5205C49.606 74.0116 49.0116 74.606 48.5205 75.2819C47.7094 76.3983 47.3462 77.7059 47.1713 79.3197C47 80.9012 47 82.8945 47 85.4373V85.5627C47 88.1055 47 90.0988 47.1713 91.6803C47.3462 93.2941 47.7094 94.6017 48.5205 95.7181C48.5383 95.7427 48.5563 95.7671 48.5744 95.7914C49.0548 96.437 49.6305 97.0062 50.2819 97.4795C51.3983 98.2906 52.7059 98.6538 54.3197 98.8287C55.9011 99 57.8944 99 60.4372 99H60.5627C63.1055 99 65.0989 99 66.6803 98.8287C68.2941 98.6538 69.6017 98.2906 70.7181 97.4795C71.394 96.9884 71.9884 96.394 72.4795 95.7181C73.6839 94.0603 73.9173 91.9448 73.979 88.9623C74 87.9483 74 86.8019 74 85.5083V85.4373C74 82.8945 74 80.9011 73.8287 79.3197C73.6538 77.7059 73.2906 76.3983 72.4795 75.2819C71.9884 74.606 71.394 74.0116 70.7181 73.5205C69.6017 72.7094 68.2941 72.3462 66.6803 72.1713ZM51.5026 75.2008C52.206 74.6897 53.1063 74.3919 54.5434 74.2362C56 74.0783 57.8809 74.0769 60.5 74.0769C63.1191 74.0769 65 74.0783 66.4566 74.2362C67.8937 74.3919 68.794 74.6897 69.4974 75.2008C69.9969 75.5637 70.4363 76.0031 70.7992 76.5026C71.3103 77.206 71.6081 78.1063 71.7638 79.5434C71.9217 81 71.9231 82.8809 71.9231 85.5C71.9231 85.8531 71.9231 86.1931 71.9227 86.5209C71.7761 86.3966 71.6371 86.2874 71.5005 86.1904C68.079 83.7611 63.3593 84.4044 60.7129 87.6608C60.4933 87.931 60.2829 88.2476 60.0446 88.6422L59.8716 88.6076C58.3498 88.3031 57.4179 88.1166 56.543 88.1351C54.2051 88.1848 52.0073 89.2597 50.5328 91.0747C50.1583 91.5355 49.8423 92.0751 49.461 92.8081C49.3657 92.4159 49.2918 91.9706 49.2362 91.4566C49.0783 90 49.0769 88.1191 49.0769 85.5C49.0769 82.8809 49.0783 81 49.2362 79.5434C49.3919 78.1063 49.6897 77.206 50.2008 76.5026C50.5637 76.0031 51.0031 75.5637 51.5026 75.2008ZM70.2981 87.8839C70.6408 88.1272 71.0375 88.5085 71.8916 89.3605C71.8124 92.0893 71.5381 93.4804 70.7992 94.4974C70.4363 94.9969 69.9969 95.4363 69.4974 95.7992C68.794 96.3103 67.8937 96.6081 66.4566 96.7638C65 96.9217 63.1191 96.9231 60.5 96.9231C59.4729 96.9231 58.5593 96.9229 57.7403 96.9131L60.9509 91.2329C61.1308 90.9145 61.2871 90.638 61.4267 90.3939C61.869 89.6203 62.1082 89.2371 62.3246 88.9707C64.2807 86.5638 67.7692 86.0883 70.2981 87.8839ZM55.4421 96.7582C55.4275 96.784 55.4142 96.8102 55.402 96.8367C55.0998 96.8171 54.8143 96.7932 54.5434 96.7638C53.1063 96.6081 52.206 96.3103 51.5026 95.7992C51.1964 95.5767 50.9128 95.3255 50.6556 95.0494C51.4334 93.4937 51.755 92.864 52.1447 92.3843C53.2346 91.0428 54.8591 90.2483 56.5871 90.2116C57.12 90.2003 57.7091 90.2973 58.9551 90.543L55.4421 96.7582Z" fill="white"/>
<path d="M109 61C109 55.4772 113.477 51 119 51H180C185.523 51 190 55.4772 190 61V150C190 155.523 185.523 160 180 160H119C113.477 160 109 155.523 109 150V61Z" fill="#3AC2BA"/>
<path d="M123 126C123 124.895 123.895 124 125 124H142.2C143.305 124 144.2 124.895 144.2 126C144.2 127.105 143.305 128 142.2 128H125C123.895 128 123 127.105 123 126Z" fill="white"/>
<path d="M123 135C123 133.895 123.895 133 125 133H174C175.105 133 176 133.895 176 135C176 136.105 175.105 137 174 137H125C123.895 137 123 136.105 123 135Z" fill="white"/>
<path d="M123 144C123 142.895 123.895 142 125 142H155C156.105 142 157 142.895 157 144C157 145.105 156.105 146 155 146H125C123.895 146 123 145.105 123 144Z" fill="white"/>
<path fill-rule="evenodd" clip-rule="evenodd" d="M148.115 77.5385C146.012 77.5385 144.308 79.2432 144.308 81.3462C144.308 83.4491 146.012 85.1538 148.115 85.1538C150.218 85.1538 151.923 83.4491 151.923 81.3462C151.923 79.2432 150.218 77.5385 148.115 77.5385ZM146.385 81.3462C146.385 80.3903 147.16 79.6154 148.115 79.6154C149.071 79.6154 149.846 80.3903 149.846 81.3462C149.846 82.302 149.071 83.0769 148.115 83.0769C147.16 83.0769 146.385 82.302 146.385 81.3462Z" fill="white"/>
<path fill-rule="evenodd" clip-rule="evenodd" d="M155.68 72.1713C154.099 72 152.106 72 149.563 72H149.437C146.894 72 144.901 72 143.32 72.1713C141.706 72.3462 140.398 72.7094 139.282 73.5205C138.606 74.0116 138.012 74.606 137.521 75.2819C136.709 76.3983 136.346 77.7059 136.171 79.3197C136 80.9012 136 82.8945 136 85.4373V85.5627C136 88.1055 136 90.0988 136.171 91.6803C136.346 93.2941 136.709 94.6017 137.521 95.7181C137.538 95.7427 137.556 95.7671 137.574 95.7914C138.055 96.437 138.63 97.0062 139.282 97.4795C140.398 98.2906 141.706 98.6538 143.32 98.8287C144.901 99 146.894 99 149.437 99H149.563C152.106 99 154.099 99 155.68 98.8287C157.294 98.6538 158.602 98.2906 159.718 97.4795C160.394 96.9884 160.988 96.394 161.479 95.7181C162.684 94.0603 162.917 91.9448 162.979 88.9623C163 87.9483 163 86.8019 163 85.5083V85.4373C163 82.8945 163 80.9011 162.829 79.3197C162.654 77.7059 162.291 76.3983 161.479 75.2819C160.988 74.606 160.394 74.0116 159.718 73.5205C158.602 72.7094 157.294 72.3462 155.68 72.1713ZM140.503 75.2008C141.206 74.6897 142.106 74.3919 143.543 74.2362C145 74.0783 146.881 74.0769 149.5 74.0769C152.119 74.0769 154 74.0783 155.457 74.2362C156.894 74.3919 157.794 74.6897 158.497 75.2008C158.997 75.5637 159.436 76.0031 159.799 76.5026C160.31 77.206 160.608 78.1063 160.764 79.5434C160.922 81 160.923 82.8809 160.923 85.5C160.923 85.8531 160.923 86.1931 160.923 86.5209C160.776 86.3966 160.637 86.2874 160.501 86.1904C157.079 83.7611 152.359 84.4044 149.713 87.6608C149.493 87.931 149.283 88.2476 149.045 88.6422L148.872 88.6076C147.35 88.3031 146.418 88.1166 145.543 88.1351C143.205 88.1848 141.007 89.2597 139.533 91.0747C139.158 91.5355 138.842 92.0751 138.461 92.8081C138.366 92.4159 138.292 91.9706 138.236 91.4566C138.078 90 138.077 88.1191 138.077 85.5C138.077 82.8809 138.078 81 138.236 79.5434C138.392 78.1063 138.69 77.206 139.201 76.5026C139.564 76.0031 140.003 75.5637 140.503 75.2008ZM159.298 87.8839C159.641 88.1272 160.037 88.5085 160.892 89.3605C160.812 92.0893 160.538 93.4804 159.799 94.4974C159.436 94.9969 158.997 95.4363 158.497 95.7992C157.794 96.3103 156.894 96.6081 155.457 96.7638C154 96.9217 152.119 96.9231 149.5 96.9231C148.473 96.9231 147.559 96.9229 146.74 96.9131L149.951 91.2329C150.131 90.9145 150.287 90.638 150.427 90.3939C150.869 89.6203 151.108 89.2371 151.325 88.9707C153.281 86.5638 156.769 86.0883 159.298 87.8839ZM144.442 96.7582C144.428 96.784 144.414 96.8102 144.402 96.8367C144.1 96.8171 143.814 96.7932 143.543 96.7638C142.106 96.6081 141.206 96.3103 140.503 95.7992C140.196 95.5767 139.913 95.3255 139.656 95.0494C140.433 93.4937 140.755 92.864 141.145 92.3843C142.235 91.0428 143.859 90.2483 145.587 90.2116C146.12 90.2003 146.709 90.2973 147.955 90.543L144.442 96.7582Z" fill="white"/>
<path d="M198 61C198 55.4772 202.477 51 208 51H269C274.523 51 279 55.4772 279 61V150C279 155.523 274.523 160 269 160H208C202.477 160 198 155.523 198 150V61Z" fill="#3AC2BA"/>
<path d="M212 126C212 124.895 212.895 124 214 124H231.2C232.305 124 233.2 124.895 233.2 126C233.2 127.105 232.305 128 231.2 128H214C212.895 128 212 127.105 212 126Z" fill="white"/>
<path d="M212 135C212 133.895 212.895 133 214 133H263C264.105 133 265 133.895 265 135C265 136.105 264.105 137 263 137H214C212.895 137 212 136.105 212 135Z" fill="white"/>
<path d="M212 144C212 142.895 212.895 142 214 142H244C245.105 142 246 142.895 246 144C246 145.105 245.105 146 244 146H214C212.895 146 212 145.105 212 144Z" fill="white"/>
<path fill-rule="evenodd" clip-rule="evenodd" d="M237.115 77.5385C235.012 77.5385 233.308 79.2432 233.308 81.3462C233.308 83.4491 235.012 85.1538 237.115 85.1538C239.218 85.1538 240.923 83.4491 240.923 81.3462C240.923 79.2432 239.218 77.5385 237.115 77.5385ZM235.385 81.3462C235.385 80.3903 236.16 79.6154 237.115 79.6154C238.071 79.6154 238.846 80.3903 238.846 81.3462C238.846 82.302 238.071 83.0769 237.115 83.0769C236.16 83.0769 235.385 82.302 235.385 81.3462Z" fill="white"/>
<path fill-rule="evenodd" clip-rule="evenodd" d="M244.68 72.1713C243.099 72 241.106 72 238.563 72H238.437C235.894 72 233.901 72 232.32 72.1713C230.706 72.3462 229.398 72.7094 228.282 73.5205C227.606 74.0116 227.012 74.606 226.521 75.2819C225.709 76.3983 225.346 77.7059 225.171 79.3197C225 80.9012 225 82.8945 225 85.4373V85.5627C225 88.1055 225 90.0988 225.171 91.6803C225.346 93.2941 225.709 94.6017 226.521 95.7181C226.538 95.7427 226.556 95.7671 226.574 95.7914C227.055 96.437 227.63 97.0062 228.282 97.4795C229.398 98.2906 230.706 98.6538 232.32 98.8287C233.901 99 235.894 99 238.437 99H238.563C241.106 99 243.099 99 244.68 98.8287C246.294 98.6538 247.602 98.2906 248.718 97.4795C249.394 96.9884 249.988 96.394 250.479 95.7181C251.684 94.0603 251.917 91.9448 251.979 88.9623C252 87.9483 252 86.8019 252 85.5083V85.4373C252 82.8945 252 80.9011 251.829 79.3197C251.654 77.7059 251.291 76.3983 250.479 75.2819C249.988 74.606 249.394 74.0116 248.718 73.5205C247.602 72.7094 246.294 72.3462 244.68 72.1713ZM229.503 75.2008C230.206 74.6897 231.106 74.3919 232.543 74.2362C234 74.0783 235.881 74.0769 238.5 74.0769C241.119 74.0769 243 74.0783 244.457 74.2362C245.894 74.3919 246.794 74.6897 247.497 75.2008C247.997 75.5637 248.436 76.0031 248.799 76.5026C249.31 77.206 249.608 78.1063 249.764 79.5434C249.922 81 249.923 82.8809 249.923 85.5C249.923 85.8531 249.923 86.1931 249.923 86.5209C249.776 86.3966 249.637 86.2874 249.501 86.1904C246.079 83.7611 241.359 84.4044 238.713 87.6608C238.493 87.931 238.283 88.2476 238.045 88.6422L237.872 88.6076C236.35 88.3031 235.418 88.1166 234.543 88.1351C232.205 88.1848 230.007 89.2597 228.533 91.0747C228.158 91.5355 227.842 92.0751 227.461 92.8081C227.366 92.4159 227.292 91.9706 227.236 91.4566C227.078 90 227.077 88.1191 227.077 85.5C227.077 82.8809 227.078 81 227.236 79.5434C227.392 78.1063 227.69 77.206 228.201 76.5026C228.564 76.0031 229.003 75.5637 229.503 75.2008ZM248.298 87.8839C248.641 88.1272 249.037 88.5085 249.892 89.3605C249.812 92.0893 249.538 93.4804 248.799 94.4974C248.436 94.9969 247.997 95.4363 247.497 95.7992C246.794 96.3103 245.894 96.6081 244.457 96.7638C243 96.9217 241.119 96.9231 238.5 96.9231C237.473 96.9231 236.559 96.9229 235.74 96.9131L238.951 91.2329C239.131 90.9145 239.287 90.638 239.427 90.3939C239.869 89.6203 240.108 89.2371 240.325 88.9707C242.281 86.5638 245.769 86.0883 248.298 87.8839ZM233.442 96.7582C233.428 96.784 233.414 96.8102 233.402 96.8367C233.1 96.8171 232.814 96.7932 232.543 96.7638C231.106 96.6081 230.206 96.3103 229.503 95.7992C229.196 95.5767 228.913 95.3255 228.656 95.0494C229.433 93.4937 229.755 92.864 230.145 92.3843C231.235 91.0428 232.859 90.2483 234.587 90.2116C235.12 90.2003 235.709 90.2973 236.955 90.543L233.442 96.7582Z" fill="white"/>
<path d="M110 182C110 176.477 114.477 172 120 172H269C274.523 172 279 176.477 279 182V202C279 207.523 274.523 212 269 212H120C114.477 212 110 207.523 110 202V182Z" fill="white"/>
<path d="M24 175.5C24 173.567 25.567 172 27.5 172H55.5C57.433 172 59 173.567 59 175.5C59 177.433 57.433 179 55.5 179H27.5C25.567 179 24 177.433 24 175.5Z" fill="white"/>
<path d="M24 191.5C24 189.567 25.567 188 27.5 188H93.5C95.433 188 97 189.567 97 191.5C97 193.433 95.433 195 93.5 195H27.5C25.567 195 24 193.433 24 191.5Z" fill="white"/>
<path d="M24 207.5C24 205.567 25.567 204 27.5 204H39.5C41.433 204 43 205.567 43 207.5C43 209.433 41.433 211 39.5 211H27.5C25.567 211 24 209.433 24 207.5Z" fill="white"/>
<path d="M52 207.5C52 205.567 53.567 204 55.5 204H77.5C79.433 204 81 205.567 81 207.5C81 209.433 79.433 211 77.5 211H55.5C53.567 211 52 209.433 52 207.5Z" fill="white"/>
<path d="M24 229.5C24 227.567 25.567 226 27.5 226H237.5C239.433 226 241 227.567 241 229.5C241 231.433 239.433 233 237.5 233H27.5C25.567 233 24 231.433 24 229.5Z" fill="white"/>
<path d="M24 245.5C24 243.567 25.567 242 27.5 242H191.5C193.433 242 195 243.567 195 245.5C195 247.433 193.433 249 191.5 249H27.5C25.567 249 24 247.433 24 245.5Z" fill="white"/>
<path d="M24 261.5C24 259.567 25.567 258 27.5 258H88.5C90.433 258 92 259.567 92 261.5C92 263.433 90.433 265 88.5 265H27.5C25.567 265 24 263.433 24 261.5Z" fill="white"/>
<path d="M109 261.5C109 259.567 110.567 258 112.5 258H157.5C159.433 258 161 259.567 161 261.5C161 263.433 159.433 265 157.5 265H112.5C110.567 265 109 263.433 109 261.5Z" fill="white"/>
<path d="M177 261.5C177 259.567 178.567 258 180.5 258H263.5C265.433 258 267 259.567 267 261.5C267 263.433 265.433 265 263.5 265H180.5C178.567 265 177 263.433 177 261.5Z" fill="white"/>
<path d="M289 61C289 55.4772 293.477 51 299 51H360C365.523 51 370 55.4772 370 61V173C370 178.523 365.523 183 360 183H299C293.477 183 289 178.523 289 173V61Z" fill="white"/>
<path d="M289 209C289 203.477 293.477 199 299 199H360C365.523 199 370 203.477 370 209V251C370 256.523 365.523 261 360 261H299C293.477 261 289 256.523 289 251V209Z" fill="white"/>
</svg>
