<svg width="64" height="46" viewBox="0 0 64 46" fill="none" xmlns="http://www.w3.org/2000/svg">
<mask id="mask0_71_4856" style="mask-type:alpha" maskUnits="userSpaceOnUse" x="0" y="0" width="64" height="46">
<path d="M0 5C0 2.23858 2.23858 0 5 0H59C61.7614 0 64 2.23858 64 5V41C64 43.7614 61.7614 46 59 46H5C2.23858 46 0 43.7614 0 41V5Z" fill="#6D3CC7"/>
</mask>
<g mask="url(#mask0_71_4856)">
<path d="M0 5C0 2.23858 2.23858 0 5 0H59C61.7614 0 64 2.23858 64 5V41C64 43.7614 61.7614 46 59 46H5C2.23858 46 0 43.7614 0 41V5Z" fill="#EEF0F6"/>
<path fill-rule="evenodd" clip-rule="evenodd" d="M59 2H5C3.34315 2 2 3.34315 2 5V41C2 42.6569 3.34315 44 5 44H59C60.6569 44 62 42.6569 62 41V5C62 3.34315 60.6569 2 59 2ZM5 0C2.23858 0 0 2.23858 0 5V41C0 43.7614 2.23858 46 5 46H59C61.7614 46 64 43.7614 64 41V5C64 2.23858 61.7614 0 59 0H5Z" fill="#EEF0F6"/>
<path d="M0 2.29073C0 1.02559 1.02559 0 2.29073 0H61.7093C62.9744 0 64 1.02559 64 2.29073V8H0V2.29073Z" fill="#E1DEF4"/>
<path d="M50.1921 3.97312C50.1921 4.92154 49.4213 5.69038 48.4705 5.69038C47.5198 5.69038 46.749 4.92154 46.749 3.97312C46.749 3.0247 47.5198 2.25586 48.4705 2.25586C49.4213 2.25586 50.1921 3.0247 50.1921 3.97312Z" fill="white"/>
<path d="M55.2746 3.97312C55.2746 4.92154 54.5038 5.69038 53.5531 5.69038C52.6023 5.69038 51.8315 4.92154 51.8315 3.97312C51.8315 3.0247 52.6023 2.25586 53.5531 2.25586C54.5038 2.25586 55.2746 3.0247 55.2746 3.97312Z" fill="white"/>
<path d="M60.3571 3.97312C60.3571 4.92154 59.5863 5.69038 58.6356 5.69038C57.6848 5.69038 56.9141 4.92154 56.9141 3.97312C56.9141 3.0247 57.6848 2.25586 58.6356 2.25586C59.5863 2.25586 60.3571 3.0247 60.3571 3.97312Z" fill="white"/>
<path fill-rule="evenodd" clip-rule="evenodd" d="M48.7361 26.8229C49.11 27.2294 49.0837 27.862 48.6772 28.2359L37.8392 38.2069C36.527 39.4141 34.5742 39.6071 33.0512 38.68L24.9919 33.7744C24.3701 33.3959 23.5918 33.3851 22.9598 33.7463L13.9963 38.8682C13.5168 39.1423 12.9059 38.9757 12.6319 38.4961C12.3579 38.0166 12.5245 37.4058 13.004 37.1318L21.9675 32.0098C23.2315 31.2875 24.7882 31.309 26.0318 32.066L34.0911 36.9716C34.8526 37.4351 35.829 37.3387 36.4851 36.7351L47.3231 26.7641C47.7296 26.3901 48.3622 26.4165 48.7361 26.8229Z" fill="#3AC2BA"/>
<g filter="url(#filter0_d_71_4856)">
<path d="M39.4336 37.7285C39.4336 39.9377 37.6427 41.7285 35.4336 41.7285C33.2245 41.7285 31.4336 39.9377 31.4336 37.7285C31.4336 35.5194 33.2245 33.7285 35.4336 33.7285C37.6427 33.7285 39.4336 35.5194 39.4336 37.7285Z" fill="#3AC2BA"/>
</g>
</g>
<path d="M20.9354 24.7458C19.6814 24.7458 18.6288 24.478 17.7774 23.9426C16.9376 23.4072 16.3451 22.6622 16 21.7077L18.6403 20.1538C19.089 21.2363 19.8828 21.7776 21.0217 21.7776C21.9651 21.7776 22.4368 21.504 22.4368 20.957C22.4368 20.6078 22.1664 20.3168 21.6257 20.084C21.4416 20.0141 20.9354 19.857 20.1071 19.6125C18.9336 19.275 18.042 18.8036 17.4323 18.1983C16.8226 17.593 16.5177 16.7898 16.5177 15.7888C16.5177 14.6597 16.9146 13.746 17.7084 13.0476C18.5252 12.3492 19.5261 12 20.7111 12C21.7235 12 22.6208 12.2444 23.4031 12.7333C24.1854 13.2106 24.7837 13.8973 25.1978 14.7936L22.6093 16.3301C22.2297 15.4222 21.6027 14.9682 20.7283 14.9682C20.3717 14.9682 20.0956 15.0439 19.9 15.1952C19.7044 15.3349 19.6067 15.5269 19.6067 15.7713C19.6067 16.0391 19.7447 16.266 20.0208 16.4523C20.3084 16.6385 20.8606 16.8539 21.6775 17.0983C22.2872 17.2845 22.7589 17.4475 23.0925 17.5872C23.4722 17.7501 23.8633 17.9713 24.266 18.2507C25.1058 18.8094 25.5257 19.6998 25.5257 20.922C25.5257 22.121 25.1058 23.058 24.266 23.7331C23.4261 24.4082 22.316 24.7458 20.9354 24.7458Z" fill="#3AC2BA"/>
<path d="M29.7377 19.7522V21.5506H34.4143V24.4839H26.6487V12.2619H34.328V15.1777H29.7377V16.8713H33.8966V19.7522H29.7377Z" fill="#3AC2BA"/>
<path d="M46.1535 22.9125C44.9226 24.1347 43.427 24.7458 41.6668 24.7458C39.8836 24.7458 38.3823 24.1347 37.1628 22.9125C35.9433 21.6786 35.3336 20.1654 35.3336 18.3729C35.3336 16.5803 35.9433 15.073 37.1628 13.8508C38.3823 12.6169 39.8836 12 41.6668 12C43.4385 12 44.9341 12.6169 46.1535 13.8508C47.3845 15.073 48 16.5803 48 18.3729C48 20.1538 47.3845 21.667 46.1535 22.9125ZM39.3371 20.7649C39.9699 21.3818 40.7464 21.6903 41.6668 21.6903C42.5871 21.6903 43.3637 21.3818 43.9964 20.7649C44.6177 20.1363 44.9283 19.339 44.9283 18.3729C44.9283 17.3951 44.6177 16.6036 43.9964 15.9983C43.3752 15.3698 42.5986 15.0555 41.6668 15.0555C40.7349 15.0555 39.9584 15.3698 39.3371 15.9983C38.7159 16.6036 38.4053 17.3951 38.4053 18.3729C38.4053 19.339 38.7159 20.1363 39.3371 20.7649Z" fill="#3AC2BA"/>
<defs>
<filter id="filter0_d_71_4856" x="27.3711" y="29.666" width="16.125" height="16.125" filterUnits="userSpaceOnUse" color-interpolation-filters="sRGB">
<feFlood flood-opacity="0" result="BackgroundImageFix"/>
<feColorMatrix in="SourceAlpha" type="matrix" values="0 0 0 0 0 0 0 0 0 0 0 0 0 0 0 0 0 0 127 0" result="hardAlpha"/>
<feOffset/>
<feGaussianBlur stdDeviation="2.03125"/>
<feComposite in2="hardAlpha" operator="out"/>
<feColorMatrix type="matrix" values="0 0 0 0 1 0 0 0 0 1 0 0 0 0 1 0 0 0 1 0"/>
<feBlend mode="normal" in2="BackgroundImageFix" result="effect1_dropShadow_71_4856"/>
<feBlend mode="normal" in="SourceGraphic" in2="effect1_dropShadow_71_4856" result="shape"/>
</filter>
</defs>
</svg>
