<svg width="390" height="281" viewBox="0 0 390 281" fill="none" xmlns="http://www.w3.org/2000/svg">
<mask id="mask0_71_4608" style="mask-type:alpha" maskUnits="userSpaceOnUse" x="0" y="0" width="390" height="281">
<path d="M0 13.9937C0 6.2652 6.26519 0 13.9937 0H376.006C383.735 0 390 6.26519 390 13.9937V267.006C390 274.735 383.735 281 376.006 281H13.9937C6.26522 281 0 274.735 0 267.006V13.9937Z" fill="#6D3CC7"/>
</mask>
<g mask="url(#mask0_71_4608)">
<path d="M0 13.9937C0 6.2652 6.26519 0 13.9937 0H376.006C383.735 0 390 6.26519 390 13.9937V267.006C390 274.735 383.735 281 376.006 281H13.9937C6.26522 281 0 274.735 0 267.006V13.9937Z" fill="#EEF0F6"/>
<path fill-rule="evenodd" clip-rule="evenodd" d="M376.006 4.94382H13.9937C8.99559 4.94382 4.94382 8.99559 4.94382 13.9937V267.006C4.94382 272.004 8.9956 276.056 13.9937 276.056H376.006C381.004 276.056 385.056 272.004 385.056 267.006V13.9937C385.056 8.9956 381.004 4.94382 376.006 4.94382ZM13.9937 0C6.26519 0 0 6.2652 0 13.9937V267.006C0 274.735 6.26522 281 13.9937 281H376.006C383.735 281 390 274.735 390 267.006V13.9937C390 6.26519 383.735 0 376.006 0H13.9937Z" fill="#EEF0F6"/>
<path d="M0 13.9937C0 6.26519 6.26519 0 13.9937 0H376.006C383.735 0 390 6.26519 390 13.9937V29H0V13.9937Z" fill="#E1DEF4"/>
<path d="M343 14.5C343 17.5376 340.538 20 337.5 20C334.462 20 332 17.5376 332 14.5C332 11.4624 334.462 9 337.5 9C340.538 9 343 11.4624 343 14.5Z" fill="white"/>
<path d="M360 14.5C360 17.5376 357.538 20 354.5 20C351.462 20 349 17.5376 349 14.5C349 11.4624 351.462 9 354.5 9C357.538 9 360 11.4624 360 14.5Z" fill="white"/>
<path d="M377 14.5C377 17.5376 374.538 20 371.5 20C368.462 20 366 17.5376 366 14.5C366 11.4624 368.462 9 371.5 9C374.538 9 377 11.4624 377 14.5Z" fill="white"/>
</g>
<mask id="mask1_71_4608" style="mask-type:alpha" maskUnits="userSpaceOnUse" x="43" y="111" width="288" height="165">
<path d="M67.5627 189.905L43 215V275.5H331V111L259.307 166.174C247.214 175.48 229.828 172.989 220.834 160.662C210.854 146.983 190.92 145.685 179.249 157.955L154.035 184.464C146.155 192.749 134.144 195.63 123.364 191.823L97.9456 182.845C87.307 179.088 75.4547 181.841 67.5627 189.905Z" fill="url(#paint0_linear_71_4608)"/>
</mask>
<g mask="url(#mask1_71_4608)">
<path opacity="0.5" d="M67.5627 189.905L43 215V275.5H331V111L259.307 166.174C247.214 175.48 229.828 172.989 220.834 160.662C210.854 146.983 190.92 145.685 179.249 157.955L154.035 184.464C146.155 192.749 134.144 195.63 123.364 191.823L97.9456 182.845C87.307 179.088 75.4547 181.841 67.5627 189.905Z" fill="url(#paint1_linear_71_4608)"/>
</g>
<path fill-rule="evenodd" clip-rule="evenodd" d="M331.61 111.792L259.917 166.966C247.379 176.615 229.352 174.033 220.027 161.251C210.414 148.076 191.214 146.825 179.974 158.643L154.759 185.153C146.608 193.723 134.183 196.704 123.031 192.765L97.6126 183.788C87.3408 180.16 75.8973 182.818 68.2773 190.604L43.7147 215.699C43.3283 216.094 42.6952 216.1 42.3005 215.714C41.9058 215.328 41.899 214.695 42.2853 214.3L66.848 189.205C75.0122 180.863 87.2732 178.015 98.2786 181.902L123.697 190.879C134.105 194.556 145.703 191.773 153.31 183.775L178.525 157.265C190.625 144.543 211.294 145.889 221.642 160.072C230.305 171.945 247.05 174.344 258.697 165.381L330.39 110.207L331.61 111.792Z" fill="#3AC2BA"/>
<path d="M86 182C86 184.209 84.2091 186 82 186C79.7909 186 78 184.209 78 182C78 179.791 79.7909 178 82 178C84.2091 178 86 179.791 86 182Z" fill="white"/>
<path fill-rule="evenodd" clip-rule="evenodd" d="M82 184C83.1046 184 84 183.105 84 182C84 180.895 83.1046 180 82 180C80.8954 180 80 180.895 80 182C80 183.105 80.8954 184 82 184ZM82 186C84.2091 186 86 184.209 86 182C86 179.791 84.2091 178 82 178C79.7909 178 78 179.791 78 182C78 184.209 79.7909 186 82 186Z" fill="#3AC2BA"/>
<path d="M142 193C142 195.209 140.209 197 138 197C135.791 197 134 195.209 134 193C134 190.791 135.791 189 138 189C140.209 189 142 190.791 142 193Z" fill="white"/>
<path fill-rule="evenodd" clip-rule="evenodd" d="M138 195C139.105 195 140 194.105 140 193C140 191.895 139.105 191 138 191C136.895 191 136 191.895 136 193C136 194.105 136.895 195 138 195ZM138 197C140.209 197 142 195.209 142 193C142 190.791 140.209 189 138 189C135.791 189 134 190.791 134 193C134 195.209 135.791 197 138 197Z" fill="#3AC2BA"/>
<g filter="url(#filter0_d_71_4608)">
<path d="M203 150C203 153.314 200.314 156 197 156C193.686 156 191 153.314 191 150C191 146.686 193.686 144 197 144C200.314 144 203 146.686 203 150Z" fill="#3AC2BA"/>
</g>
<path d="M246 172C246 174.209 244.209 176 242 176C239.791 176 238 174.209 238 172C238 169.791 239.791 168 242 168C244.209 168 246 169.791 246 172Z" fill="white"/>
<path fill-rule="evenodd" clip-rule="evenodd" d="M242 174C243.105 174 244 173.105 244 172C244 170.895 243.105 170 242 170C240.895 170 240 170.895 240 172C240 173.105 240.895 174 242 174ZM242 176C244.209 176 246 174.209 246 172C246 169.791 244.209 168 242 168C239.791 168 238 169.791 238 172C238 174.209 239.791 176 242 176Z" fill="#3AC2BA"/>
<path d="M156.199 115C151.575 115 147.694 114.013 144.554 112.038C141.457 110.064 139.273 107.317 138 103.797L147.736 98.0671C149.391 102.059 152.318 104.055 156.518 104.055C159.996 104.055 161.736 103.046 161.736 101.029C161.736 99.7411 160.739 98.668 158.745 97.8096C158.066 97.5521 156.199 96.9726 153.145 96.0712C148.818 94.8265 145.53 93.0881 143.282 90.8562C141.033 88.6242 139.909 85.6626 139.909 81.9712C139.909 77.8078 141.373 74.4384 144.3 71.863C147.312 69.2877 151.003 68 155.372 68C159.105 68 162.414 68.9014 165.299 70.7041C168.184 72.4639 170.39 74.9963 171.917 78.3014L162.372 83.9671C160.972 80.6192 158.66 78.9452 155.436 78.9452C154.121 78.9452 153.102 79.2242 152.381 79.7822C151.66 80.2973 151.3 81.0055 151.3 81.9069C151.3 82.8941 151.809 83.7311 152.827 84.4178C153.887 85.1046 155.924 85.8986 158.936 86.8C161.184 87.4868 162.923 88.0877 164.154 88.6027C165.554 89.2037 166.996 90.0192 168.481 91.0493C171.578 93.1096 173.126 96.3932 173.126 100.9C173.126 105.321 171.578 108.776 168.481 111.266C165.384 113.755 161.29 115 156.199 115Z" fill="#3AC2BA"/>
<path d="M188.658 96.5863V103.218H205.903V114.034H177.267V68.9658H205.584V79.7178H188.658V85.963H203.994V96.5863H188.658Z" fill="#3AC2BA"/>
<path d="M249.191 108.24C244.652 112.747 239.137 115 232.646 115C226.071 115 220.535 112.747 216.038 108.24C211.541 103.69 209.293 98.11 209.293 91.5C209.293 84.89 211.541 79.3315 216.038 74.8247C220.535 70.2749 226.071 68 232.646 68C239.179 68 244.694 70.2749 249.191 74.8247C253.73 79.3315 256 84.89 256 91.5C256 98.0671 253.73 103.647 249.191 108.24ZM224.056 100.321C226.389 102.595 229.252 103.733 232.646 103.733C236.04 103.733 238.904 102.595 241.237 100.321C243.528 98.0027 244.673 95.0626 244.673 91.5C244.673 87.8945 243.528 84.9758 241.237 82.7438C238.946 80.426 236.083 79.2671 232.646 79.2671C229.21 79.2671 226.347 80.426 224.056 82.7438C221.765 84.9758 220.619 87.8945 220.619 91.5C220.619 95.0626 221.765 98.0027 224.056 100.321Z" fill="#3AC2BA"/>
<path fill-rule="evenodd" clip-rule="evenodd" d="M197 253V155H198V253H197Z" fill="url(#paint2_linear_71_4608)"/>
<defs>
<filter id="filter0_d_71_4608" x="178" y="131" width="38" height="38" filterUnits="userSpaceOnUse" color-interpolation-filters="sRGB">
<feFlood flood-opacity="0" result="BackgroundImageFix"/>
<feColorMatrix in="SourceAlpha" type="matrix" values="0 0 0 0 0 0 0 0 0 0 0 0 0 0 0 0 0 0 127 0" result="hardAlpha"/>
<feOffset/>
<feGaussianBlur stdDeviation="6.5"/>
<feComposite in2="hardAlpha" operator="out"/>
<feColorMatrix type="matrix" values="0 0 0 0 1 0 0 0 0 1 0 0 0 0 1 0 0 0 1 0"/>
<feBlend mode="normal" in2="BackgroundImageFix" result="effect1_dropShadow_71_4608"/>
<feBlend mode="normal" in="SourceGraphic" in2="effect1_dropShadow_71_4608" result="shape"/>
</filter>
<linearGradient id="paint0_linear_71_4608" x1="43" y1="228.5" x2="331" y2="228.5" gradientUnits="userSpaceOnUse">
<stop stop-color="#3AC2BA" stop-opacity="0"/>
<stop offset="0.229167" stop-color="#91D9D7"/>
<stop offset="0.537328" stop-color="#D8EBEF"/>
<stop offset="0.537885" stop-color="#EEF0F6" stop-opacity="0"/>
</linearGradient>
<linearGradient id="paint1_linear_71_4608" x1="187" y1="111" x2="187" y2="275.5" gradientUnits="userSpaceOnUse">
<stop stop-color="#3AC2BA"/>
<stop offset="1" stop-color="#EEF0F6" stop-opacity="0"/>
</linearGradient>
<linearGradient id="paint2_linear_71_4608" x1="198" y1="155" x2="198" y2="253" gradientUnits="userSpaceOnUse">
<stop stop-color="#3AC2BA"/>
<stop offset="1" stop-color="#EEF0F6" stop-opacity="0"/>
</linearGradient>
</defs>
</svg>
