<svg width="390" height="281" viewBox="0 0 390 281" fill="none" xmlns="http://www.w3.org/2000/svg">
<mask id="mask0_71_4416" style="mask-type:alpha" maskUnits="userSpaceOnUse" x="0" y="0" width="390" height="281">
<path d="M0 13.9937C0 6.2652 6.26519 0 13.9937 0H376.006C383.735 0 390 6.26519 390 13.9937V267.006C390 274.735 383.735 281 376.006 281H13.9937C6.26522 281 0 274.735 0 267.006V13.9937Z" fill="#6D3CC7"/>
</mask>
<g mask="url(#mask0_71_4416)">
<path d="M0 13.9937C0 6.2652 6.26519 0 13.9937 0H376.006C383.735 0 390 6.26519 390 13.9937V267.006C390 274.735 383.735 281 376.006 281H13.9937C6.26522 281 0 274.735 0 267.006V13.9937Z" fill="#EEF0F6"/>
<path fill-rule="evenodd" clip-rule="evenodd" d="M376.006 4.94382H13.9937C8.99559 4.94382 4.94382 8.99559 4.94382 13.9937V267.006C4.94382 272.004 8.9956 276.056 13.9937 276.056H376.006C381.004 276.056 385.056 272.004 385.056 267.006V13.9937C385.056 8.9956 381.004 4.94382 376.006 4.94382ZM13.9937 0C6.26519 0 0 6.2652 0 13.9937V267.006C0 274.735 6.26522 281 13.9937 281H376.006C383.735 281 390 274.735 390 267.006V13.9937C390 6.26519 383.735 0 376.006 0H13.9937Z" fill="#EEF0F6"/>
<path d="M0 13.9937C0 6.26519 6.26519 0 13.9937 0H376.006C383.735 0 390 6.26519 390 13.9937V29H0V13.9937Z" fill="#E1DEF4"/>
<path d="M343 14.5C343 17.5376 340.538 20 337.5 20C334.462 20 332 17.5376 332 14.5C332 11.4624 334.462 9 337.5 9C340.538 9 343 11.4624 343 14.5Z" fill="white"/>
<path d="M360 14.5C360 17.5376 357.538 20 354.5 20C351.462 20 349 17.5376 349 14.5C349 11.4624 351.462 9 354.5 9C357.538 9 360 11.4624 360 14.5Z" fill="white"/>
<path d="M377 14.5C377 17.5376 374.538 20 371.5 20C368.462 20 366 17.5376 366 14.5C366 11.4624 368.462 9 371.5 9C374.538 9 377 11.4624 377 14.5Z" fill="white"/>
</g>
<path d="M16 61C16 55.4772 20.4772 51 26 51H364C369.523 51 374 55.4772 374 61V98C374 103.523 369.523 108 364 108H26C20.4771 108 16 103.523 16 98V61Z" fill="#3AC2BA"/>
<path d="M87 69C87 67.8954 87.8954 67 89 67H177C178.105 67 179 67.8954 179 69C179 70.1046 178.105 71 177 71H89C87.8954 71 87 70.1046 87 69Z" fill="white"/>
<path d="M87 80C87 78.8954 87.8954 78 89 78H315C316.105 78 317 78.8954 317 80C317 81.1046 316.105 82 315 82H89C87.8954 82 87 81.1046 87 80Z" fill="white"/>
<path d="M87 91C87 89.8954 87.8954 89 89 89H143C144.105 89 145 89.8954 145 91C145 92.1046 144.105 93 143 93H89C87.8954 93 87 92.1046 87 91Z" fill="white"/>
<path d="M150 91C150 89.8954 150.895 89 152 89H221C222.105 89 223 89.8954 223 91C223 92.1046 222.105 93 221 93H152C150.895 93 150 92.1046 150 91Z" fill="white"/>
<path d="M228 91C228 89.8954 228.895 89 230 89H280C281.105 89 282 89.8954 282 91C282 92.1046 281.105 93 280 93H230C228.895 93 228 92.1046 228 91Z" fill="white"/>
<path fill-rule="evenodd" clip-rule="evenodd" d="M50.1154 71.5385C48.0125 71.5385 46.3077 73.2432 46.3077 75.3462C46.3077 77.4491 48.0125 79.1538 50.1154 79.1538C52.2183 79.1538 53.9231 77.4491 53.9231 75.3462C53.9231 73.2432 52.2183 71.5385 50.1154 71.5385ZM48.3846 75.3462C48.3846 74.3903 49.1595 73.6154 50.1154 73.6154C51.0713 73.6154 51.8462 74.3903 51.8462 75.3462C51.8462 76.302 51.0713 77.0769 50.1154 77.0769C49.1595 77.0769 48.3846 76.302 48.3846 75.3462Z" fill="white"/>
<path fill-rule="evenodd" clip-rule="evenodd" d="M57.6803 66.1713C56.0988 66 54.1055 66 51.5627 66H51.4373C48.8945 66 46.9012 66 45.3197 66.1713C43.7059 66.3462 42.3983 66.7094 41.2819 67.5205C40.606 68.0116 40.0116 68.606 39.5205 69.2819C38.7094 70.3983 38.3462 71.7059 38.1713 73.3197C38 74.9012 38 76.8945 38 79.4373V79.5627C38 82.1055 38 84.0988 38.1713 85.6803C38.3462 87.2941 38.7094 88.6017 39.5205 89.7181C39.5383 89.7427 39.5563 89.7671 39.5744 89.7914C40.0548 90.437 40.6305 91.0062 41.2819 91.4795C42.3983 92.2906 43.7059 92.6538 45.3197 92.8287C46.9011 93 48.8944 93 51.4372 93H51.5627C54.1055 93 56.0989 93 57.6803 92.8287C59.2941 92.6538 60.6017 92.2906 61.7181 91.4795C62.394 90.9884 62.9884 90.394 63.4795 89.7181C64.6839 88.0603 64.9173 85.9448 64.979 82.9623C65 81.9483 65 80.8019 65 79.5083V79.4373C65 76.8945 65 74.9011 64.8287 73.3197C64.6538 71.7059 64.2906 70.3983 63.4795 69.2819C62.9884 68.606 62.394 68.0116 61.7181 67.5205C60.6017 66.7094 59.2941 66.3462 57.6803 66.1713ZM42.5026 69.2008C43.206 68.6897 44.1063 68.3919 45.5434 68.2362C47 68.0783 48.8809 68.0769 51.5 68.0769C54.1191 68.0769 56 68.0783 57.4566 68.2362C58.8937 68.3919 59.794 68.6897 60.4974 69.2008C60.9969 69.5637 61.4363 70.0031 61.7992 70.5026C62.3103 71.206 62.6081 72.1063 62.7638 73.5434C62.9217 75 62.9231 76.8809 62.9231 79.5C62.9231 79.8531 62.9231 80.1931 62.9227 80.5209C62.7761 80.3966 62.6371 80.2874 62.5005 80.1904C59.079 77.7611 54.3593 78.4044 51.7129 81.6608C51.4933 81.931 51.2829 82.2476 51.0446 82.6422L50.8716 82.6076C49.3498 82.3031 48.4179 82.1166 47.543 82.1351C45.2051 82.1848 43.0073 83.2597 41.5328 85.0747C41.1583 85.5355 40.8423 86.0751 40.461 86.8081C40.3657 86.4159 40.2918 85.9706 40.2362 85.4566C40.0783 84 40.0769 82.1191 40.0769 79.5C40.0769 76.8809 40.0783 75 40.2362 73.5434C40.3919 72.1063 40.6897 71.206 41.2008 70.5026C41.5637 70.0031 42.0031 69.5637 42.5026 69.2008ZM61.2981 81.8839C61.6408 82.1272 62.0375 82.5085 62.8916 83.3605C62.8124 86.0893 62.5381 87.4804 61.7992 88.4974C61.4363 88.9969 60.9969 89.4363 60.4974 89.7992C59.794 90.3103 58.8937 90.6081 57.4566 90.7638C56 90.9217 54.1191 90.9231 51.5 90.9231C50.4729 90.9231 49.5593 90.9229 48.7403 90.9131L51.9509 85.2329C52.1308 84.9145 52.2871 84.638 52.4267 84.3939C52.869 83.6203 53.1082 83.2371 53.3246 82.9707C55.2807 80.5638 58.7692 80.0883 61.2981 81.8839ZM46.4421 90.7582C46.4275 90.784 46.4142 90.8102 46.402 90.8367C46.0998 90.8171 45.8143 90.7932 45.5434 90.7638C44.1063 90.6081 43.206 90.3103 42.5026 89.7992C42.1964 89.5767 41.9128 89.3255 41.6556 89.0494C42.4334 87.4937 42.755 86.864 43.1447 86.3843C44.2346 85.0428 45.8591 84.2483 47.5871 84.2116C48.12 84.2003 48.7091 84.2973 49.9551 84.543L46.4421 90.7582Z" fill="white"/>
<path d="M16 132C16 126.477 20.4772 122 26 122H213C218.523 122 223 126.477 223 132V152C223 157.523 218.523 162 213 162H26C20.4772 162 16 157.523 16 152V132Z" fill="white"/>
<path d="M232 132C232 126.477 236.477 122 242 122H262C267.523 122 272 126.477 272 132V152C272 157.523 267.523 162 262 162H242C236.477 162 232 157.523 232 152V132Z" fill="white"/>
<path d="M16 177.5C16 175.567 17.567 174 19.5 174H215.5C217.433 174 219 175.567 219 177.5C219 179.433 217.433 181 215.5 181H19.5C17.567 181 16 179.433 16 177.5Z" fill="white"/>
<path d="M16 193.5C16 191.567 17.567 190 19.5 190H200.5C202.433 190 204 191.567 204 193.5C204 195.433 202.433 197 200.5 197H19.5C17.567 197 16 195.433 16 193.5Z" fill="white"/>
<path d="M16 209.5C16 207.567 17.567 206 19.5 206H61.4315C63.3645 206 64.9315 207.567 64.9315 209.5C64.9315 211.433 63.3645 213 61.4315 213H19.5C17.567 213 16 211.433 16 209.5Z" fill="white"/>
<path d="M88.1094 209.5C88.1094 207.567 89.6764 206 91.6094 206H159.294C161.227 206 162.794 207.567 162.794 209.5C162.794 211.433 161.227 213 159.294 213H91.6094C89.6764 213 88.1094 211.433 88.1094 209.5Z" fill="white"/>
<path d="M179 209.5C179 207.567 180.567 206 182.5 206H257.5C259.433 206 261 207.567 261 209.5C261 211.433 259.433 213 257.5 213H182.5C180.567 213 179 211.433 179 209.5Z" fill="white"/>
<path d="M293 132C293 126.477 297.477 122 303 122H364C369.523 122 374 126.477 374 132V246C374 251.523 369.523 256 364 256H303C297.477 256 293 251.523 293 246V132Z" fill="#3AC2BA"/>
<path fill-rule="evenodd" clip-rule="evenodd" d="M332.115 179.538C330.012 179.538 328.308 181.243 328.308 183.346C328.308 185.449 330.012 187.154 332.115 187.154C334.218 187.154 335.923 185.449 335.923 183.346C335.923 181.243 334.218 179.538 332.115 179.538ZM330.385 183.346C330.385 182.39 331.16 181.615 332.115 181.615C333.071 181.615 333.846 182.39 333.846 183.346C333.846 184.302 333.071 185.077 332.115 185.077C331.16 185.077 330.385 184.302 330.385 183.346Z" fill="white"/>
<path fill-rule="evenodd" clip-rule="evenodd" d="M339.68 174.171C338.099 174 336.106 174 333.563 174H333.437C330.894 174 328.901 174 327.32 174.171C325.706 174.346 324.398 174.709 323.282 175.521C322.606 176.012 322.012 176.606 321.521 177.282C320.709 178.398 320.346 179.706 320.171 181.32C320 182.901 320 184.894 320 187.437V187.563C320 190.106 320 192.099 320.171 193.68C320.346 195.294 320.709 196.602 321.521 197.718C321.538 197.743 321.556 197.767 321.574 197.791C322.055 198.437 322.63 199.006 323.282 199.479C324.398 200.291 325.706 200.654 327.32 200.829C328.901 201 330.894 201 333.437 201H333.563C336.106 201 338.099 201 339.68 200.829C341.294 200.654 342.602 200.291 343.718 199.479C344.394 198.988 344.988 198.394 345.479 197.718C346.684 196.06 346.917 193.945 346.979 190.962C347 189.948 347 188.802 347 187.508V187.437C347 184.894 347 182.901 346.829 181.32C346.654 179.706 346.291 178.398 345.479 177.282C344.988 176.606 344.394 176.012 343.718 175.521C342.602 174.709 341.294 174.346 339.68 174.171ZM324.503 177.201C325.206 176.69 326.106 176.392 327.543 176.236C329 176.078 330.881 176.077 333.5 176.077C336.119 176.077 338 176.078 339.457 176.236C340.894 176.392 341.794 176.69 342.497 177.201C342.997 177.564 343.436 178.003 343.799 178.503C344.31 179.206 344.608 180.106 344.764 181.543C344.922 183 344.923 184.881 344.923 187.5C344.923 187.853 344.923 188.193 344.923 188.521C344.776 188.397 344.637 188.287 344.501 188.19C341.079 185.761 336.359 186.404 333.713 189.661C333.493 189.931 333.283 190.248 333.045 190.642L332.872 190.608C331.35 190.303 330.418 190.117 329.543 190.135C327.205 190.185 325.007 191.26 323.533 193.075C323.158 193.536 322.842 194.075 322.461 194.808C322.366 194.416 322.292 193.971 322.236 193.457C322.078 192 322.077 190.119 322.077 187.5C322.077 184.881 322.078 183 322.236 181.543C322.392 180.106 322.69 179.206 323.201 178.503C323.564 178.003 324.003 177.564 324.503 177.201ZM343.298 189.884C343.641 190.127 344.037 190.508 344.892 191.361C344.812 194.089 344.538 195.48 343.799 196.497C343.436 196.997 342.997 197.436 342.497 197.799C341.794 198.31 340.894 198.608 339.457 198.764C338 198.922 336.119 198.923 333.5 198.923C332.473 198.923 331.559 198.923 330.74 198.913L333.951 193.233C334.131 192.915 334.287 192.638 334.427 192.394C334.869 191.62 335.108 191.237 335.325 190.971C337.281 188.564 340.769 188.088 343.298 189.884ZM328.442 198.758C328.428 198.784 328.414 198.81 328.402 198.837C328.1 198.817 327.814 198.793 327.543 198.764C326.106 198.608 325.206 198.31 324.503 197.799C324.196 197.577 323.913 197.326 323.656 197.049C324.433 195.494 324.755 194.864 325.145 194.384C326.235 193.043 327.859 192.248 329.587 192.212C330.12 192.2 330.709 192.297 331.955 192.543L328.442 198.758Z" fill="white"/>
<path opacity="0.1" d="M16 235C16 229.477 20.4772 225 26 225H152C157.523 225 162 229.477 162 235V258C162 263.523 157.523 268 152 268H26C20.4771 268 16 263.523 16 258V235Z" fill="#713EE6"/>
<path d="M69 237C69 235.895 69.8954 235 71 235H102C103.105 235 104 235.895 104 237C104 238.105 103.105 239 102 239H71C69.8954 239 69 238.105 69 237Z" fill="white"/>
<path d="M69 247C69 245.895 69.8954 245 71 245H148C149.105 245 150 245.895 150 247C150 248.105 149.105 249 148 249H71C69.8954 249 69 248.105 69 247Z" fill="white"/>
<path d="M69 257C69 255.895 69.8954 255 71 255H87C88.1046 255 89 255.895 89 257C89 258.105 88.1046 259 87 259H71C69.8954 259 69 258.105 69 257Z" fill="white"/>
<path d="M94 257C94 255.895 94.8954 255 96 255H116C117.105 255 118 255.895 118 257C118 258.105 117.105 259 116 259H96C94.8954 259 94 258.105 94 257Z" fill="white"/>
<path d="M123 257C123 255.895 123.895 255 125 255H138C139.105 255 140 255.895 140 257C140 258.105 139.105 259 138 259H125C123.895 259 123 258.105 123 257Z" fill="white"/>
<path d="M59 246C59 254.284 52.2843 261 44 261C35.7157 261 29 254.284 29 246C29 237.716 35.7157 231 44 231C52.2843 231 59 237.716 59 246Z" fill="white"/>
<path d="M49.1259 244.557C50.0726 245.286 50.0726 246.714 49.1259 247.443L42.6813 252.404C41.4841 253.325 39.75 252.472 39.75 250.961L39.75 241.039C39.75 239.528 41.4841 238.675 42.6813 239.596L49.1259 244.557Z" fill="#EEF0F6"/>
</svg>
