<svg width="390" height="281" viewBox="0 0 390 281" fill="none" xmlns="http://www.w3.org/2000/svg">
<mask id="mask0_71_4485" style="mask-type:alpha" maskUnits="userSpaceOnUse" x="0" y="0" width="390" height="281">
<path d="M0 13.9937C0 6.2652 6.26519 0 13.9937 0H376.006C383.735 0 390 6.26519 390 13.9937V267.006C390 274.735 383.735 281 376.006 281H13.9937C6.26522 281 0 274.735 0 267.006V13.9937Z" fill="#6D3CC7"/>
</mask>
<g mask="url(#mask0_71_4485)">
<path d="M0 13.9937C0 6.2652 6.26519 0 13.9937 0H376.006C383.735 0 390 6.26519 390 13.9937V267.006C390 274.735 383.735 281 376.006 281H13.9937C6.26522 281 0 274.735 0 267.006V13.9937Z" fill="#EEF0F6"/>
<path fill-rule="evenodd" clip-rule="evenodd" d="M376.006 4.94382H13.9937C8.99559 4.94382 4.94382 8.99559 4.94382 13.9937V267.006C4.94382 272.004 8.9956 276.056 13.9937 276.056H376.006C381.004 276.056 385.056 272.004 385.056 267.006V13.9937C385.056 8.9956 381.004 4.94382 376.006 4.94382ZM13.9937 0C6.26519 0 0 6.2652 0 13.9937V267.006C0 274.735 6.26522 281 13.9937 281H376.006C383.735 281 390 274.735 390 267.006V13.9937C390 6.26519 383.735 0 376.006 0H13.9937Z" fill="#EEF0F6"/>
<path d="M0 13.9937C0 6.26519 6.26519 0 13.9937 0H376.006C383.735 0 390 6.26519 390 13.9937V29H0V13.9937Z" fill="#E1DEF4"/>
<path d="M343 14.5C343 17.5376 340.538 20 337.5 20C334.462 20 332 17.5376 332 14.5C332 11.4624 334.462 9 337.5 9C340.538 9 343 11.4624 343 14.5Z" fill="white"/>
<path d="M360 14.5C360 17.5376 357.538 20 354.5 20C351.462 20 349 17.5376 349 14.5C349 11.4624 351.462 9 354.5 9C357.538 9 360 11.4624 360 14.5Z" fill="white"/>
<path d="M377 14.5C377 17.5376 374.538 20 371.5 20C368.462 20 366 17.5376 366 14.5C366 11.4624 368.462 9 371.5 9C374.538 9 377 11.4624 377 14.5Z" fill="white"/>
</g>
<path d="M20 61C20 55.4772 24.4772 51 30 51H111C116.523 51 121 55.4772 121 61V104C121 109.523 116.523 114 111 114H30C24.4771 114 20 109.523 20 104V61Z" fill="white"/>
<path d="M20 135C20 129.477 24.4772 125 30 125H111C116.523 125 121 129.477 121 135V178C121 183.523 116.523 188 111 188H30C24.4771 188 20 183.523 20 178V135Z" fill="#3AC2BA"/>
<path d="M20 209C20 203.477 24.4772 199 30 199H111C116.523 199 121 203.477 121 209V252C121 257.523 116.523 262 111 262H30C24.4771 262 20 257.523 20 252V209Z" fill="white"/>
<path d="M145 61C145 55.4772 149.477 51 155 51H236C241.523 51 246 55.4772 246 61V104C246 109.523 241.523 114 236 114H155C149.477 114 145 109.523 145 104V61Z" fill="white"/>
<path d="M145 135C145 129.477 149.477 125 155 125H236C241.523 125 246 129.477 246 135V178C246 183.523 241.523 188 236 188H155C149.477 188 145 183.523 145 178V135Z" fill="#3AC2BA"/>
<path d="M145 209C145 203.477 149.477 199 155 199H236C241.523 199 246 203.477 246 209V252C246 257.523 241.523 262 236 262H155C149.477 262 145 257.523 145 252V209Z" fill="white"/>
<path d="M270 61C270 55.4772 274.477 51 280 51H361C366.523 51 371 55.4772 371 61V104C371 109.523 366.523 114 361 114H280C274.477 114 270 109.523 270 104V61Z" fill="white"/>
<path d="M270 135C270 129.477 274.477 125 280 125H361C366.523 125 371 129.477 371 135V178C371 183.523 366.523 188 361 188H280C274.477 188 270 183.523 270 178V135Z" fill="#3AC2BA"/>
<path d="M270 209C270 203.477 274.477 199 280 199H361C366.523 199 371 203.477 371 209V252C371 257.523 366.523 262 361 262H280C274.477 262 270 257.523 270 252V209Z" fill="white"/>
<path d="M29 106C29 107.105 29.8954 108 31 108H80C81.1046 108 82 107.105 82 106V106C82 104.895 81.1046 104 80 104H31C29.8954 104 29 104.895 29 106V106Z" fill="#EEF0F6"/>
<path d="M29 97C29 98.1046 29.8954 99 31 99H61C62.1046 99 63 98.1046 63 97V97C63 95.8954 62.1046 95 61 95H31C29.8954 95 29 95.8954 29 97V97Z" fill="#EEF0F6"/>
<path d="M154 180C154 181.105 154.895 182 156 182H205C206.105 182 207 181.105 207 180V180C207 178.895 206.105 178 205 178H156C154.895 178 154 178.895 154 180V180Z" fill="white"/>
<path d="M154 171C154 172.105 154.895 173 156 173H186C187.105 173 188 172.105 188 171V171C188 169.895 187.105 169 186 169H156C154.895 169 154 169.895 154 171V171Z" fill="white"/>
<path d="M279 254C279 255.105 279.895 256 281 256H330C331.105 256 332 255.105 332 254V254C332 252.895 331.105 252 330 252H281C279.895 252 279 252.895 279 254V254Z" fill="#EEF0F6"/>
<path d="M279 245C279 246.105 279.895 247 281 247H311C312.105 247 313 246.105 313 245V245C313 243.895 312.105 243 311 243H281C279.895 243 279 243.895 279 245V245Z" fill="#EEF0F6"/>
<path fill-rule="evenodd" clip-rule="evenodd" d="M194.115 140.538C192.012 140.538 190.308 142.243 190.308 144.346C190.308 146.449 192.012 148.154 194.115 148.154C196.218 148.154 197.923 146.449 197.923 144.346C197.923 142.243 196.218 140.538 194.115 140.538ZM192.385 144.346C192.385 143.39 193.16 142.615 194.115 142.615C195.071 142.615 195.846 143.39 195.846 144.346C195.846 145.302 195.071 146.077 194.115 146.077C193.16 146.077 192.385 145.302 192.385 144.346Z" fill="white"/>
<path fill-rule="evenodd" clip-rule="evenodd" d="M201.68 135.171C200.099 135 198.106 135 195.563 135H195.437C192.894 135 190.901 135 189.32 135.171C187.706 135.346 186.398 135.709 185.282 136.521C184.606 137.012 184.012 137.606 183.521 138.282C182.709 139.398 182.346 140.706 182.171 142.32C182 143.901 182 145.894 182 148.437V148.563C182 151.106 182 153.099 182.171 154.68C182.346 156.294 182.709 157.602 183.521 158.718C183.538 158.743 183.556 158.767 183.574 158.791C184.055 159.437 184.63 160.006 185.282 160.479C186.398 161.291 187.706 161.654 189.32 161.829C190.901 162 192.894 162 195.437 162H195.563C198.106 162 200.099 162 201.68 161.829C203.294 161.654 204.602 161.291 205.718 160.479C206.394 159.988 206.988 159.394 207.479 158.718C208.684 157.06 208.917 154.945 208.979 151.962C209 150.948 209 149.802 209 148.508V148.437C209 145.894 209 143.901 208.829 142.32C208.654 140.706 208.291 139.398 207.479 138.282C206.988 137.606 206.394 137.012 205.718 136.521C204.602 135.709 203.294 135.346 201.68 135.171ZM186.503 138.201C187.206 137.69 188.106 137.392 189.543 137.236C191 137.078 192.881 137.077 195.5 137.077C198.119 137.077 200 137.078 201.457 137.236C202.894 137.392 203.794 137.69 204.497 138.201C204.997 138.564 205.436 139.003 205.799 139.503C206.31 140.206 206.608 141.106 206.764 142.543C206.922 144 206.923 145.881 206.923 148.5C206.923 148.853 206.923 149.193 206.923 149.521C206.776 149.397 206.637 149.287 206.501 149.19C203.079 146.761 198.359 147.404 195.713 150.661C195.493 150.931 195.283 151.248 195.045 151.642L194.872 151.608C193.35 151.303 192.418 151.117 191.543 151.135C189.205 151.185 187.007 152.26 185.533 154.075C185.158 154.536 184.842 155.075 184.461 155.808C184.366 155.416 184.292 154.971 184.236 154.457C184.078 153 184.077 151.119 184.077 148.5C184.077 145.881 184.078 144 184.236 142.543C184.392 141.106 184.69 140.206 185.201 139.503C185.564 139.003 186.003 138.564 186.503 138.201ZM205.298 150.884C205.641 151.127 206.037 151.508 206.892 152.361C206.812 155.089 206.538 156.48 205.799 157.497C205.436 157.997 204.997 158.436 204.497 158.799C203.794 159.31 202.894 159.608 201.457 159.764C200 159.922 198.119 159.923 195.5 159.923C194.473 159.923 193.559 159.923 192.74 159.913L195.951 154.233C196.131 153.915 196.287 153.638 196.427 153.394C196.869 152.62 197.108 152.237 197.325 151.971C199.281 149.564 202.769 149.088 205.298 150.884ZM190.442 159.758C190.428 159.784 190.414 159.81 190.402 159.837C190.1 159.817 189.814 159.793 189.543 159.764C188.106 159.608 187.206 159.31 186.503 158.799C186.196 158.577 185.913 158.326 185.656 158.049C186.433 156.494 186.755 155.864 187.145 155.384C188.235 154.043 189.859 153.248 191.587 153.212C192.12 153.2 192.709 153.297 193.955 153.543L190.442 159.758Z" fill="white"/>
<path fill-rule="evenodd" clip-rule="evenodd" d="M194.115 74.5385C192.012 74.5385 190.308 76.2432 190.308 78.3462C190.308 80.4491 192.012 82.1538 194.115 82.1538C196.218 82.1538 197.923 80.4491 197.923 78.3462C197.923 76.2432 196.218 74.5385 194.115 74.5385ZM192.385 78.3462C192.385 77.3903 193.16 76.6154 194.115 76.6154C195.071 76.6154 195.846 77.3903 195.846 78.3462C195.846 79.302 195.071 80.0769 194.115 80.0769C193.16 80.0769 192.385 79.302 192.385 78.3462Z" fill="#EEF0F6"/>
<path fill-rule="evenodd" clip-rule="evenodd" d="M201.68 69.1713C200.099 69 198.106 69 195.563 69H195.437C192.894 69 190.901 69 189.32 69.1713C187.706 69.3462 186.398 69.7094 185.282 70.5205C184.606 71.0116 184.012 71.606 183.521 72.2819C182.709 73.3983 182.346 74.7059 182.171 76.3197C182 77.9012 182 79.8945 182 82.4373V82.5627C182 85.1055 182 87.0988 182.171 88.6803C182.346 90.2941 182.709 91.6017 183.521 92.7181C183.538 92.7427 183.556 92.7671 183.574 92.7914C184.055 93.437 184.63 94.0062 185.282 94.4795C186.398 95.2906 187.706 95.6538 189.32 95.8287C190.901 96 192.894 96 195.437 96H195.563C198.106 96 200.099 96 201.68 95.8287C203.294 95.6538 204.602 95.2906 205.718 94.4795C206.394 93.9884 206.988 93.394 207.479 92.7181C208.684 91.0603 208.917 88.9448 208.979 85.9623C209 84.9483 209 83.8019 209 82.5083V82.4373C209 79.8945 209 77.9011 208.829 76.3197C208.654 74.7059 208.291 73.3983 207.479 72.2819C206.988 71.606 206.394 71.0116 205.718 70.5205C204.602 69.7094 203.294 69.3462 201.68 69.1713ZM186.503 72.2008C187.206 71.6897 188.106 71.3919 189.543 71.2362C191 71.0783 192.881 71.0769 195.5 71.0769C198.119 71.0769 200 71.0783 201.457 71.2362C202.894 71.3919 203.794 71.6897 204.497 72.2008C204.997 72.5637 205.436 73.0031 205.799 73.5026C206.31 74.206 206.608 75.1063 206.764 76.5434C206.922 78 206.923 79.8809 206.923 82.5C206.923 82.8531 206.923 83.1931 206.923 83.5209C206.776 83.3966 206.637 83.2874 206.501 83.1904C203.079 80.7611 198.359 81.4044 195.713 84.6608C195.493 84.931 195.283 85.2476 195.045 85.6422L194.872 85.6076C193.35 85.3031 192.418 85.1166 191.543 85.1351C189.205 85.1848 187.007 86.2597 185.533 88.0747C185.158 88.5355 184.842 89.0751 184.461 89.8081C184.366 89.4159 184.292 88.9706 184.236 88.4566C184.078 87 184.077 85.1191 184.077 82.5C184.077 79.8809 184.078 78 184.236 76.5434C184.392 75.1063 184.69 74.206 185.201 73.5026C185.564 73.0031 186.003 72.5637 186.503 72.2008ZM205.298 84.8839C205.641 85.1272 206.037 85.5085 206.892 86.3605C206.812 89.0893 206.538 90.4804 205.799 91.4974C205.436 91.9969 204.997 92.4363 204.497 92.7992C203.794 93.3103 202.894 93.6081 201.457 93.7638C200 93.9217 198.119 93.9231 195.5 93.9231C194.473 93.9231 193.559 93.9229 192.74 93.9131L195.951 88.2329C196.131 87.9145 196.287 87.638 196.427 87.3939C196.869 86.6203 197.108 86.2371 197.325 85.9707C199.281 83.5638 202.769 83.0883 205.298 84.8839ZM190.442 93.7582C190.428 93.784 190.414 93.8102 190.402 93.8367C190.1 93.8171 189.814 93.7932 189.543 93.7638C188.106 93.6081 187.206 93.3103 186.503 92.7992C186.196 92.5767 185.913 92.3255 185.656 92.0494C186.433 90.4937 186.755 89.864 187.145 89.3843C188.235 88.0428 189.859 87.2483 191.587 87.2116C192.12 87.2003 192.709 87.2973 193.955 87.543L190.442 93.7582Z" fill="#EEF0F6"/>
<path fill-rule="evenodd" clip-rule="evenodd" d="M194.115 222.538C192.012 222.538 190.308 224.243 190.308 226.346C190.308 228.449 192.012 230.154 194.115 230.154C196.218 230.154 197.923 228.449 197.923 226.346C197.923 224.243 196.218 222.538 194.115 222.538ZM192.385 226.346C192.385 225.39 193.16 224.615 194.115 224.615C195.071 224.615 195.846 225.39 195.846 226.346C195.846 227.302 195.071 228.077 194.115 228.077C193.16 228.077 192.385 227.302 192.385 226.346Z" fill="#EEF0F6"/>
<path fill-rule="evenodd" clip-rule="evenodd" d="M201.68 217.171C200.099 217 198.106 217 195.563 217H195.437C192.894 217 190.901 217 189.32 217.171C187.706 217.346 186.398 217.709 185.282 218.521C184.606 219.012 184.012 219.606 183.521 220.282C182.709 221.398 182.346 222.706 182.171 224.32C182 225.901 182 227.894 182 230.437V230.563C182 233.106 182 235.099 182.171 236.68C182.346 238.294 182.709 239.602 183.521 240.718C183.538 240.743 183.556 240.767 183.574 240.791C184.055 241.437 184.63 242.006 185.282 242.479C186.398 243.291 187.706 243.654 189.32 243.829C190.901 244 192.894 244 195.437 244H195.563C198.106 244 200.099 244 201.68 243.829C203.294 243.654 204.602 243.291 205.718 242.479C206.394 241.988 206.988 241.394 207.479 240.718C208.684 239.06 208.917 236.945 208.979 233.962C209 232.948 209 231.802 209 230.508V230.437C209 227.894 209 225.901 208.829 224.32C208.654 222.706 208.291 221.398 207.479 220.282C206.988 219.606 206.394 219.012 205.718 218.521C204.602 217.709 203.294 217.346 201.68 217.171ZM186.503 220.201C187.206 219.69 188.106 219.392 189.543 219.236C191 219.078 192.881 219.077 195.5 219.077C198.119 219.077 200 219.078 201.457 219.236C202.894 219.392 203.794 219.69 204.497 220.201C204.997 220.564 205.436 221.003 205.799 221.503C206.31 222.206 206.608 223.106 206.764 224.543C206.922 226 206.923 227.881 206.923 230.5C206.923 230.853 206.923 231.193 206.923 231.521C206.776 231.397 206.637 231.287 206.501 231.19C203.079 228.761 198.359 229.404 195.713 232.661C195.493 232.931 195.283 233.248 195.045 233.642L194.872 233.608C193.35 233.303 192.418 233.117 191.543 233.135C189.205 233.185 187.007 234.26 185.533 236.075C185.158 236.536 184.842 237.075 184.461 237.808C184.366 237.416 184.292 236.971 184.236 236.457C184.078 235 184.077 233.119 184.077 230.5C184.077 227.881 184.078 226 184.236 224.543C184.392 223.106 184.69 222.206 185.201 221.503C185.564 221.003 186.003 220.564 186.503 220.201ZM205.298 232.884C205.641 233.127 206.037 233.508 206.892 234.361C206.812 237.089 206.538 238.48 205.799 239.497C205.436 239.997 204.997 240.436 204.497 240.799C203.794 241.31 202.894 241.608 201.457 241.764C200 241.922 198.119 241.923 195.5 241.923C194.473 241.923 193.559 241.923 192.74 241.913L195.951 236.233C196.131 235.915 196.287 235.638 196.427 235.394C196.869 234.62 197.108 234.237 197.325 233.971C199.281 231.564 202.769 231.088 205.298 232.884ZM190.442 241.758C190.428 241.784 190.414 241.81 190.402 241.837C190.1 241.817 189.814 241.793 189.543 241.764C188.106 241.608 187.206 241.31 186.503 240.799C186.196 240.577 185.913 240.326 185.656 240.049C186.433 238.494 186.755 237.864 187.145 237.384C188.235 236.043 189.859 235.248 191.587 235.212C192.12 235.2 192.709 235.297 193.955 235.543L190.442 241.758Z" fill="#EEF0F6"/>
<path fill-rule="evenodd" clip-rule="evenodd" d="M319.115 148.538C317.012 148.538 315.308 150.243 315.308 152.346C315.308 154.449 317.012 156.154 319.115 156.154C321.218 156.154 322.923 154.449 322.923 152.346C322.923 150.243 321.218 148.538 319.115 148.538ZM317.385 152.346C317.385 151.39 318.16 150.615 319.115 150.615C320.071 150.615 320.846 151.39 320.846 152.346C320.846 153.302 320.071 154.077 319.115 154.077C318.16 154.077 317.385 153.302 317.385 152.346Z" fill="white"/>
<path fill-rule="evenodd" clip-rule="evenodd" d="M326.68 143.171C325.099 143 323.106 143 320.563 143H320.437C317.894 143 315.901 143 314.32 143.171C312.706 143.346 311.398 143.709 310.282 144.521C309.606 145.012 309.012 145.606 308.521 146.282C307.709 147.398 307.346 148.706 307.171 150.32C307 151.901 307 153.894 307 156.437V156.563C307 159.106 307 161.099 307.171 162.68C307.346 164.294 307.709 165.602 308.521 166.718C308.538 166.743 308.556 166.767 308.574 166.791C309.055 167.437 309.63 168.006 310.282 168.479C311.398 169.291 312.706 169.654 314.32 169.829C315.901 170 317.894 170 320.437 170H320.563C323.106 170 325.099 170 326.68 169.829C328.294 169.654 329.602 169.291 330.718 168.479C331.394 167.988 331.988 167.394 332.479 166.718C333.684 165.06 333.917 162.945 333.979 159.962C334 158.948 334 157.802 334 156.508V156.437C334 153.894 334 151.901 333.829 150.32C333.654 148.706 333.291 147.398 332.479 146.282C331.988 145.606 331.394 145.012 330.718 144.521C329.602 143.709 328.294 143.346 326.68 143.171ZM311.503 146.201C312.206 145.69 313.106 145.392 314.543 145.236C316 145.078 317.881 145.077 320.5 145.077C323.119 145.077 325 145.078 326.457 145.236C327.894 145.392 328.794 145.69 329.497 146.201C329.997 146.564 330.436 147.003 330.799 147.503C331.31 148.206 331.608 149.106 331.764 150.543C331.922 152 331.923 153.881 331.923 156.5C331.923 156.853 331.923 157.193 331.923 157.521C331.776 157.397 331.637 157.287 331.501 157.19C328.079 154.761 323.359 155.404 320.713 158.661C320.493 158.931 320.283 159.248 320.045 159.642L319.872 159.608C318.35 159.303 317.418 159.117 316.543 159.135C314.205 159.185 312.007 160.26 310.533 162.075C310.158 162.536 309.842 163.075 309.461 163.808C309.366 163.416 309.292 162.971 309.236 162.457C309.078 161 309.077 159.119 309.077 156.5C309.077 153.881 309.078 152 309.236 150.543C309.392 149.106 309.69 148.206 310.201 147.503C310.564 147.003 311.003 146.564 311.503 146.201ZM330.298 158.884C330.641 159.127 331.037 159.508 331.892 160.361C331.812 163.089 331.538 164.48 330.799 165.497C330.436 165.997 329.997 166.436 329.497 166.799C328.794 167.31 327.894 167.608 326.457 167.764C325 167.922 323.119 167.923 320.5 167.923C319.473 167.923 318.559 167.923 317.74 167.913L320.951 162.233C321.131 161.915 321.287 161.638 321.427 161.394C321.869 160.62 322.108 160.237 322.325 159.971C324.281 157.564 327.769 157.088 330.298 158.884ZM315.442 167.758C315.428 167.784 315.414 167.81 315.402 167.837C315.1 167.817 314.814 167.793 314.543 167.764C313.106 167.608 312.206 167.31 311.503 166.799C311.196 166.577 310.913 166.326 310.656 166.049C311.433 164.494 311.755 163.864 312.145 163.384C313.235 162.043 314.859 161.248 316.587 161.212C317.12 161.2 317.709 161.297 318.955 161.543L315.442 167.758Z" fill="white"/>
<path fill-rule="evenodd" clip-rule="evenodd" d="M319.115 74.5385C317.012 74.5385 315.308 76.2432 315.308 78.3462C315.308 80.4491 317.012 82.1538 319.115 82.1538C321.218 82.1538 322.923 80.4491 322.923 78.3462C322.923 76.2432 321.218 74.5385 319.115 74.5385ZM317.385 78.3462C317.385 77.3903 318.16 76.6154 319.115 76.6154C320.071 76.6154 320.846 77.3903 320.846 78.3462C320.846 79.302 320.071 80.0769 319.115 80.0769C318.16 80.0769 317.385 79.302 317.385 78.3462Z" fill="#EEF0F6"/>
<path fill-rule="evenodd" clip-rule="evenodd" d="M326.68 69.1713C325.099 69 323.106 69 320.563 69H320.437C317.894 69 315.901 69 314.32 69.1713C312.706 69.3462 311.398 69.7094 310.282 70.5205C309.606 71.0116 309.012 71.606 308.521 72.2819C307.709 73.3983 307.346 74.7059 307.171 76.3197C307 77.9012 307 79.8945 307 82.4373V82.5627C307 85.1055 307 87.0988 307.171 88.6803C307.346 90.2941 307.709 91.6017 308.521 92.7181C308.538 92.7427 308.556 92.7671 308.574 92.7914C309.055 93.437 309.63 94.0062 310.282 94.4795C311.398 95.2906 312.706 95.6538 314.32 95.8287C315.901 96 317.894 96 320.437 96H320.563C323.106 96 325.099 96 326.68 95.8287C328.294 95.6538 329.602 95.2906 330.718 94.4795C331.394 93.9884 331.988 93.394 332.479 92.7181C333.684 91.0603 333.917 88.9448 333.979 85.9623C334 84.9483 334 83.8019 334 82.5083V82.4373C334 79.8945 334 77.9011 333.829 76.3197C333.654 74.7059 333.291 73.3983 332.479 72.2819C331.988 71.606 331.394 71.0116 330.718 70.5205C329.602 69.7094 328.294 69.3462 326.68 69.1713ZM311.503 72.2008C312.206 71.6897 313.106 71.3919 314.543 71.2362C316 71.0783 317.881 71.0769 320.5 71.0769C323.119 71.0769 325 71.0783 326.457 71.2362C327.894 71.3919 328.794 71.6897 329.497 72.2008C329.997 72.5637 330.436 73.0031 330.799 73.5026C331.31 74.206 331.608 75.1063 331.764 76.5434C331.922 78 331.923 79.8809 331.923 82.5C331.923 82.8531 331.923 83.1931 331.923 83.5209C331.776 83.3966 331.637 83.2874 331.501 83.1904C328.079 80.7611 323.359 81.4044 320.713 84.6608C320.493 84.931 320.283 85.2476 320.045 85.6422L319.872 85.6076C318.35 85.3031 317.418 85.1166 316.543 85.1351C314.205 85.1848 312.007 86.2597 310.533 88.0747C310.158 88.5355 309.842 89.0751 309.461 89.8081C309.366 89.4159 309.292 88.9706 309.236 88.4566C309.078 87 309.077 85.1191 309.077 82.5C309.077 79.8809 309.078 78 309.236 76.5434C309.392 75.1063 309.69 74.206 310.201 73.5026C310.564 73.0031 311.003 72.5637 311.503 72.2008ZM330.298 84.8839C330.641 85.1272 331.037 85.5085 331.892 86.3605C331.812 89.0893 331.538 90.4804 330.799 91.4974C330.436 91.9969 329.997 92.4363 329.497 92.7992C328.794 93.3103 327.894 93.6081 326.457 93.7638C325 93.9217 323.119 93.9231 320.5 93.9231C319.473 93.9231 318.559 93.9229 317.74 93.9131L320.951 88.2329C321.131 87.9145 321.287 87.638 321.427 87.3939C321.869 86.6203 322.108 86.2371 322.325 85.9707C324.281 83.5638 327.769 83.0883 330.298 84.8839ZM315.442 93.7582C315.428 93.784 315.414 93.8102 315.402 93.8367C315.1 93.8171 314.814 93.7932 314.543 93.7638C313.106 93.6081 312.206 93.3103 311.503 92.7992C311.196 92.5767 310.913 92.3255 310.656 92.0494C311.433 90.4937 311.755 89.864 312.145 89.3843C313.235 88.0428 314.859 87.2483 316.587 87.2116C317.12 87.2003 317.709 87.2973 318.955 87.543L315.442 93.7582Z" fill="#EEF0F6"/>
<path fill-rule="evenodd" clip-rule="evenodd" d="M319.115 214.538C317.012 214.538 315.308 216.243 315.308 218.346C315.308 220.449 317.012 222.154 319.115 222.154C321.218 222.154 322.923 220.449 322.923 218.346C322.923 216.243 321.218 214.538 319.115 214.538ZM317.385 218.346C317.385 217.39 318.16 216.615 319.115 216.615C320.071 216.615 320.846 217.39 320.846 218.346C320.846 219.302 320.071 220.077 319.115 220.077C318.16 220.077 317.385 219.302 317.385 218.346Z" fill="#EEF0F6"/>
<path fill-rule="evenodd" clip-rule="evenodd" d="M326.68 209.171C325.099 209 323.106 209 320.563 209H320.437C317.894 209 315.901 209 314.32 209.171C312.706 209.346 311.398 209.709 310.282 210.521C309.606 211.012 309.012 211.606 308.521 212.282C307.709 213.398 307.346 214.706 307.171 216.32C307 217.901 307 219.894 307 222.437V222.563C307 225.106 307 227.099 307.171 228.68C307.346 230.294 307.709 231.602 308.521 232.718C308.538 232.743 308.556 232.767 308.574 232.791C309.055 233.437 309.63 234.006 310.282 234.479C311.398 235.291 312.706 235.654 314.32 235.829C315.901 236 317.894 236 320.437 236H320.563C323.106 236 325.099 236 326.68 235.829C328.294 235.654 329.602 235.291 330.718 234.479C331.394 233.988 331.988 233.394 332.479 232.718C333.684 231.06 333.917 228.945 333.979 225.962C334 224.948 334 223.802 334 222.508V222.437C334 219.894 334 217.901 333.829 216.32C333.654 214.706 333.291 213.398 332.479 212.282C331.988 211.606 331.394 211.012 330.718 210.521C329.602 209.709 328.294 209.346 326.68 209.171ZM311.503 212.201C312.206 211.69 313.106 211.392 314.543 211.236C316 211.078 317.881 211.077 320.5 211.077C323.119 211.077 325 211.078 326.457 211.236C327.894 211.392 328.794 211.69 329.497 212.201C329.997 212.564 330.436 213.003 330.799 213.503C331.31 214.206 331.608 215.106 331.764 216.543C331.922 218 331.923 219.881 331.923 222.5C331.923 222.853 331.923 223.193 331.923 223.521C331.776 223.397 331.637 223.287 331.501 223.19C328.079 220.761 323.359 221.404 320.713 224.661C320.493 224.931 320.283 225.248 320.045 225.642L319.872 225.608C318.35 225.303 317.418 225.117 316.543 225.135C314.205 225.185 312.007 226.26 310.533 228.075C310.158 228.536 309.842 229.075 309.461 229.808C309.366 229.416 309.292 228.971 309.236 228.457C309.078 227 309.077 225.119 309.077 222.5C309.077 219.881 309.078 218 309.236 216.543C309.392 215.106 309.69 214.206 310.201 213.503C310.564 213.003 311.003 212.564 311.503 212.201ZM330.298 224.884C330.641 225.127 331.037 225.508 331.892 226.361C331.812 229.089 331.538 230.48 330.799 231.497C330.436 231.997 329.997 232.436 329.497 232.799C328.794 233.31 327.894 233.608 326.457 233.764C325 233.922 323.119 233.923 320.5 233.923C319.473 233.923 318.559 233.923 317.74 233.913L320.951 228.233C321.131 227.915 321.287 227.638 321.427 227.394C321.869 226.62 322.108 226.237 322.325 225.971C324.281 223.564 327.769 223.088 330.298 224.884ZM315.442 233.758C315.428 233.784 315.414 233.81 315.402 233.837C315.1 233.817 314.814 233.793 314.543 233.764C313.106 233.608 312.206 233.31 311.503 232.799C311.196 232.577 310.913 232.326 310.656 232.049C311.433 230.494 311.755 229.864 312.145 229.384C313.235 228.043 314.859 227.248 316.587 227.212C317.12 227.2 317.709 227.297 318.955 227.543L315.442 233.758Z" fill="#EEF0F6"/>
<path fill-rule="evenodd" clip-rule="evenodd" d="M69.1154 148.538C67.0125 148.538 65.3077 150.243 65.3077 152.346C65.3077 154.449 67.0125 156.154 69.1154 156.154C71.2183 156.154 72.9231 154.449 72.9231 152.346C72.9231 150.243 71.2183 148.538 69.1154 148.538ZM67.3846 152.346C67.3846 151.39 68.1595 150.615 69.1154 150.615C70.0713 150.615 70.8462 151.39 70.8462 152.346C70.8462 153.302 70.0713 154.077 69.1154 154.077C68.1595 154.077 67.3846 153.302 67.3846 152.346Z" fill="white"/>
<path fill-rule="evenodd" clip-rule="evenodd" d="M76.6803 143.171C75.0988 143 73.1055 143 70.5627 143H70.4373C67.8945 143 65.9012 143 64.3197 143.171C62.7059 143.346 61.3983 143.709 60.2819 144.521C59.606 145.012 59.0116 145.606 58.5205 146.282C57.7094 147.398 57.3462 148.706 57.1713 150.32C57 151.901 57 153.894 57 156.437V156.563C57 159.106 57 161.099 57.1713 162.68C57.3462 164.294 57.7094 165.602 58.5205 166.718C58.5383 166.743 58.5563 166.767 58.5744 166.791C59.0548 167.437 59.6305 168.006 60.2819 168.479C61.3983 169.291 62.7059 169.654 64.3197 169.829C65.9011 170 67.8944 170 70.4372 170H70.5627C73.1055 170 75.0989 170 76.6803 169.829C78.2941 169.654 79.6017 169.291 80.7181 168.479C81.394 167.988 81.9884 167.394 82.4795 166.718C83.6839 165.06 83.9173 162.945 83.979 159.962C84 158.948 84 157.802 84 156.508V156.437C84 153.894 84 151.901 83.8287 150.32C83.6538 148.706 83.2906 147.398 82.4795 146.282C81.9884 145.606 81.394 145.012 80.7181 144.521C79.6017 143.709 78.2941 143.346 76.6803 143.171ZM61.5026 146.201C62.206 145.69 63.1063 145.392 64.5434 145.236C66 145.078 67.8809 145.077 70.5 145.077C73.1191 145.077 75 145.078 76.4566 145.236C77.8937 145.392 78.794 145.69 79.4974 146.201C79.9969 146.564 80.4363 147.003 80.7992 147.503C81.3103 148.206 81.6081 149.106 81.7638 150.543C81.9217 152 81.9231 153.881 81.9231 156.5C81.9231 156.853 81.9231 157.193 81.9227 157.521C81.7761 157.397 81.6371 157.287 81.5005 157.19C78.079 154.761 73.3593 155.404 70.7129 158.661C70.4933 158.931 70.2829 159.248 70.0446 159.642L69.8716 159.608C68.3498 159.303 67.4179 159.117 66.543 159.135C64.2051 159.185 62.0073 160.26 60.5328 162.075C60.1583 162.536 59.8423 163.075 59.461 163.808C59.3657 163.416 59.2918 162.971 59.2362 162.457C59.0783 161 59.0769 159.119 59.0769 156.5C59.0769 153.881 59.0783 152 59.2362 150.543C59.3919 149.106 59.6897 148.206 60.2008 147.503C60.5637 147.003 61.0031 146.564 61.5026 146.201ZM80.2981 158.884C80.6408 159.127 81.0375 159.508 81.8916 160.361C81.8124 163.089 81.5381 164.48 80.7992 165.497C80.4363 165.997 79.9969 166.436 79.4974 166.799C78.794 167.31 77.8937 167.608 76.4566 167.764C75 167.922 73.1191 167.923 70.5 167.923C69.4729 167.923 68.5593 167.923 67.7403 167.913L70.9509 162.233C71.1308 161.915 71.2871 161.638 71.4267 161.394C71.869 160.62 72.1082 160.237 72.3246 159.971C74.2807 157.564 77.7692 157.088 80.2981 158.884ZM65.4421 167.758C65.4275 167.784 65.4142 167.81 65.402 167.837C65.0998 167.817 64.8143 167.793 64.5434 167.764C63.1063 167.608 62.206 167.31 61.5026 166.799C61.1964 166.577 60.9128 166.326 60.6556 166.049C61.4334 164.494 61.755 163.864 62.1447 163.384C63.2346 162.043 64.8591 161.248 66.5871 161.212C67.12 161.2 67.7091 161.297 68.9551 161.543L65.4421 167.758Z" fill="white"/>
<path fill-rule="evenodd" clip-rule="evenodd" d="M69.1154 66.5385C67.0125 66.5385 65.3077 68.2432 65.3077 70.3462C65.3077 72.4491 67.0125 74.1538 69.1154 74.1538C71.2183 74.1538 72.9231 72.4491 72.9231 70.3462C72.9231 68.2432 71.2183 66.5385 69.1154 66.5385ZM67.3846 70.3462C67.3846 69.3903 68.1595 68.6154 69.1154 68.6154C70.0713 68.6154 70.8462 69.3903 70.8462 70.3462C70.8462 71.302 70.0713 72.0769 69.1154 72.0769C68.1595 72.0769 67.3846 71.302 67.3846 70.3462Z" fill="#EEF0F6"/>
<path fill-rule="evenodd" clip-rule="evenodd" d="M76.6803 61.1713C75.0988 61 73.1055 61 70.5627 61H70.4373C67.8945 61 65.9012 61 64.3197 61.1713C62.7059 61.3462 61.3983 61.7094 60.2819 62.5205C59.606 63.0116 59.0116 63.606 58.5205 64.2819C57.7094 65.3983 57.3462 66.7059 57.1713 68.3197C57 69.9012 57 71.8945 57 74.4373V74.5627C57 77.1055 57 79.0988 57.1713 80.6803C57.3462 82.2941 57.7094 83.6017 58.5205 84.7181C58.5383 84.7427 58.5563 84.7671 58.5744 84.7914C59.0548 85.437 59.6305 86.0062 60.2819 86.4795C61.3983 87.2906 62.7059 87.6538 64.3197 87.8287C65.9011 88 67.8944 88 70.4372 88H70.5627C73.1055 88 75.0989 88 76.6803 87.8287C78.2941 87.6538 79.6017 87.2906 80.7181 86.4795C81.394 85.9884 81.9884 85.394 82.4795 84.7181C83.6839 83.0603 83.9173 80.9448 83.979 77.9623C84 76.9483 84 75.8019 84 74.5083V74.4373C84 71.8945 84 69.9011 83.8287 68.3197C83.6538 66.7059 83.2906 65.3983 82.4795 64.2819C81.9884 63.606 81.394 63.0116 80.7181 62.5205C79.6017 61.7094 78.2941 61.3462 76.6803 61.1713ZM61.5026 64.2008C62.206 63.6897 63.1063 63.3919 64.5434 63.2362C66 63.0783 67.8809 63.0769 70.5 63.0769C73.1191 63.0769 75 63.0783 76.4566 63.2362C77.8937 63.3919 78.794 63.6897 79.4974 64.2008C79.9969 64.5637 80.4363 65.0031 80.7992 65.5026C81.3103 66.206 81.6081 67.1063 81.7638 68.5434C81.9217 70 81.9231 71.8809 81.9231 74.5C81.9231 74.8531 81.9231 75.1931 81.9227 75.5209C81.7761 75.3966 81.6371 75.2874 81.5005 75.1904C78.079 72.7611 73.3593 73.4044 70.7129 76.6608C70.4933 76.931 70.2829 77.2476 70.0446 77.6422L69.8716 77.6076C68.3498 77.3031 67.4179 77.1166 66.543 77.1351C64.2051 77.1848 62.0073 78.2597 60.5328 80.0747C60.1583 80.5355 59.8423 81.0751 59.461 81.8081C59.3657 81.4159 59.2918 80.9706 59.2362 80.4566C59.0783 79 59.0769 77.1191 59.0769 74.5C59.0769 71.8809 59.0783 70 59.2362 68.5434C59.3919 67.1063 59.6897 66.206 60.2008 65.5026C60.5637 65.0031 61.0031 64.5637 61.5026 64.2008ZM80.2981 76.8839C80.6408 77.1272 81.0375 77.5085 81.8916 78.3605C81.8124 81.0893 81.5381 82.4804 80.7992 83.4974C80.4363 83.9969 79.9969 84.4363 79.4974 84.7992C78.794 85.3103 77.8937 85.6081 76.4566 85.7638C75 85.9217 73.1191 85.9231 70.5 85.9231C69.4729 85.9231 68.5593 85.9229 67.7403 85.9131L70.9509 80.2329C71.1308 79.9145 71.2871 79.638 71.4267 79.3939C71.869 78.6203 72.1082 78.2371 72.3246 77.9707C74.2807 75.5638 77.7692 75.0883 80.2981 76.8839ZM65.4421 85.7582C65.4275 85.784 65.4142 85.8102 65.402 85.8367C65.0998 85.8171 64.8143 85.7932 64.5434 85.7638C63.1063 85.6081 62.206 85.3103 61.5026 84.7992C61.1964 84.5767 60.9128 84.3255 60.6556 84.0494C61.4334 82.4937 61.755 81.864 62.1447 81.3843C63.2346 80.0428 64.8591 79.2483 66.5871 79.2116C67.12 79.2003 67.7091 79.2973 68.9551 79.543L65.4421 85.7582Z" fill="#EEF0F6"/>
<path fill-rule="evenodd" clip-rule="evenodd" d="M69.1154 222.538C67.0125 222.538 65.3077 224.243 65.3077 226.346C65.3077 228.449 67.0125 230.154 69.1154 230.154C71.2183 230.154 72.9231 228.449 72.9231 226.346C72.9231 224.243 71.2183 222.538 69.1154 222.538ZM67.3846 226.346C67.3846 225.39 68.1595 224.615 69.1154 224.615C70.0713 224.615 70.8462 225.39 70.8462 226.346C70.8462 227.302 70.0713 228.077 69.1154 228.077C68.1595 228.077 67.3846 227.302 67.3846 226.346Z" fill="#EEF0F6"/>
<path fill-rule="evenodd" clip-rule="evenodd" d="M76.6803 217.171C75.0988 217 73.1055 217 70.5627 217H70.4373C67.8945 217 65.9012 217 64.3197 217.171C62.7059 217.346 61.3983 217.709 60.2819 218.521C59.606 219.012 59.0116 219.606 58.5205 220.282C57.7094 221.398 57.3462 222.706 57.1713 224.32C57 225.901 57 227.894 57 230.437V230.563C57 233.106 57 235.099 57.1713 236.68C57.3462 238.294 57.7094 239.602 58.5205 240.718C58.5383 240.743 58.5563 240.767 58.5744 240.791C59.0548 241.437 59.6305 242.006 60.2819 242.479C61.3983 243.291 62.7059 243.654 64.3197 243.829C65.9011 244 67.8944 244 70.4372 244H70.5627C73.1055 244 75.0989 244 76.6803 243.829C78.2941 243.654 79.6017 243.291 80.7181 242.479C81.394 241.988 81.9884 241.394 82.4795 240.718C83.6839 239.06 83.9173 236.945 83.979 233.962C84 232.948 84 231.802 84 230.508V230.437C84 227.894 84 225.901 83.8287 224.32C83.6538 222.706 83.2906 221.398 82.4795 220.282C81.9884 219.606 81.394 219.012 80.7181 218.521C79.6017 217.709 78.2941 217.346 76.6803 217.171ZM61.5026 220.201C62.206 219.69 63.1063 219.392 64.5434 219.236C66 219.078 67.8809 219.077 70.5 219.077C73.1191 219.077 75 219.078 76.4566 219.236C77.8937 219.392 78.794 219.69 79.4974 220.201C79.9969 220.564 80.4363 221.003 80.7992 221.503C81.3103 222.206 81.6081 223.106 81.7638 224.543C81.9217 226 81.9231 227.881 81.9231 230.5C81.9231 230.853 81.9231 231.193 81.9227 231.521C81.7761 231.397 81.6371 231.287 81.5005 231.19C78.079 228.761 73.3593 229.404 70.7129 232.661C70.4933 232.931 70.2829 233.248 70.0446 233.642L69.8716 233.608C68.3498 233.303 67.4179 233.117 66.543 233.135C64.2051 233.185 62.0073 234.26 60.5328 236.075C60.1583 236.536 59.8423 237.075 59.461 237.808C59.3657 237.416 59.2918 236.971 59.2362 236.457C59.0783 235 59.0769 233.119 59.0769 230.5C59.0769 227.881 59.0783 226 59.2362 224.543C59.3919 223.106 59.6897 222.206 60.2008 221.503C60.5637 221.003 61.0031 220.564 61.5026 220.201ZM80.2981 232.884C80.6408 233.127 81.0375 233.508 81.8916 234.361C81.8124 237.089 81.5381 238.48 80.7992 239.497C80.4363 239.997 79.9969 240.436 79.4974 240.799C78.794 241.31 77.8937 241.608 76.4566 241.764C75 241.922 73.1191 241.923 70.5 241.923C69.4729 241.923 68.5593 241.923 67.7403 241.913L70.9509 236.233C71.1308 235.915 71.2871 235.638 71.4267 235.394C71.869 234.62 72.1082 234.237 72.3246 233.971C74.2807 231.564 77.7692 231.088 80.2981 232.884ZM65.4421 241.758C65.4275 241.784 65.4142 241.81 65.402 241.837C65.0998 241.817 64.8143 241.793 64.5434 241.764C63.1063 241.608 62.206 241.31 61.5026 240.799C61.1964 240.577 60.9128 240.326 60.6556 240.049C61.4334 238.494 61.755 237.864 62.1447 237.384C63.2346 236.043 64.8591 235.248 66.5871 235.212C67.12 235.2 67.7091 235.297 68.9551 235.543L65.4421 241.758Z" fill="#EEF0F6"/>
</svg>
