<svg width="390" height="281" viewBox="0 0 390 281" fill="none" xmlns="http://www.w3.org/2000/svg">
<mask id="mask0_71_4583" style="mask-type:alpha" maskUnits="userSpaceOnUse" x="0" y="0" width="390" height="281">
<path d="M0 13.9937C0 6.2652 6.26519 0 13.9937 0H376.006C383.735 0 390 6.26519 390 13.9937V267.006C390 274.735 383.735 281 376.006 281H13.9937C6.26522 281 0 274.735 0 267.006V13.9937Z" fill="#6D3CC7"/>
</mask>
<g mask="url(#mask0_71_4583)">
<path d="M0 13.9937C0 6.2652 6.26519 0 13.9937 0H376.006C383.735 0 390 6.26519 390 13.9937V267.006C390 274.735 383.735 281 376.006 281H13.9937C6.26522 281 0 274.735 0 267.006V13.9937Z" fill="#EEF0F6"/>
<path fill-rule="evenodd" clip-rule="evenodd" d="M376.006 4.94382H13.9937C8.99559 4.94382 4.94382 8.99559 4.94382 13.9937V267.006C4.94382 272.004 8.9956 276.056 13.9937 276.056H376.006C381.004 276.056 385.056 272.004 385.056 267.006V13.9937C385.056 8.9956 381.004 4.94382 376.006 4.94382ZM13.9937 0C6.26519 0 0 6.2652 0 13.9937V267.006C0 274.735 6.26522 281 13.9937 281H376.006C383.735 281 390 274.735 390 267.006V13.9937C390 6.26519 383.735 0 376.006 0H13.9937Z" fill="#EEF0F6"/>
<path d="M0 13.9937C0 6.26519 6.26519 0 13.9937 0H376.006C383.735 0 390 6.26519 390 13.9937V29H0V13.9937Z" fill="#E1DEF4"/>
<path d="M343 14.5C343 17.5376 340.538 20 337.5 20C334.462 20 332 17.5376 332 14.5C332 11.4624 334.462 9 337.5 9C340.538 9 343 11.4624 343 14.5Z" fill="white"/>
<path d="M360 14.5C360 17.5376 357.538 20 354.5 20C351.462 20 349 17.5376 349 14.5C349 11.4624 351.462 9 354.5 9C357.538 9 360 11.4624 360 14.5Z" fill="white"/>
<path d="M377 14.5C377 17.5376 374.538 20 371.5 20C368.462 20 366 17.5376 366 14.5C366 11.4624 368.462 9 371.5 9C374.538 9 377 11.4624 377 14.5Z" fill="white"/>
</g>
<path d="M21 52C21 46.4772 25.4772 42 31 42H359C364.523 42 369 46.4772 369 52V253C369 258.523 364.523 263 359 263H31C25.4772 263 21 258.523 21 253V52Z" fill="#3AC2BA"/>
<path d="M349.53 62.5303C349.823 62.2374 349.823 61.7626 349.53 61.4697C349.237 61.1768 348.763 61.1768 348.47 61.4697L342 67.9394L335.53 61.4697C335.237 61.1768 334.763 61.1768 334.47 61.4697C334.177 61.7626 334.177 62.2374 334.47 62.5303L340.939 69L334.47 75.4697C334.177 75.7626 334.177 76.2374 334.47 76.5303C334.763 76.8232 335.237 76.8232 335.53 76.5303L342 70.0607L348.47 76.5303C348.763 76.8232 349.237 76.8232 349.53 76.5303C349.823 76.2374 349.823 75.7626 349.53 75.4697L343.061 69L349.53 62.5303Z" fill="white"/>
<path fill-rule="evenodd" clip-rule="evenodd" d="M349.177 61.8232C349.079 61.7256 348.921 61.7256 348.823 61.8232L342 68.6465L335.177 61.8232C335.079 61.7256 334.921 61.7256 334.823 61.8232C334.726 61.9209 334.726 62.0791 334.823 62.1768L341.646 69L334.823 75.8232C334.726 75.9209 334.726 76.0791 334.823 76.1768C334.921 76.2744 335.079 76.2744 335.177 76.1768L342 69.3536L348.823 76.1768C348.921 76.2744 349.079 76.2744 349.177 76.1768C349.274 76.0791 349.274 75.9209 349.177 75.8232L342.354 69L349.177 62.1768C349.274 62.0791 349.274 61.9209 349.177 61.8232ZM348.116 61.1161C348.604 60.628 349.396 60.628 349.884 61.1161C350.372 61.6043 350.372 62.3957 349.884 62.8839L343.768 69L349.884 75.1161C350.372 75.6043 350.372 76.3957 349.884 76.8839C349.396 77.372 348.604 77.372 348.116 76.8839L342 70.7678L335.884 76.8839C335.396 77.372 334.604 77.372 334.116 76.8839C333.628 76.3957 333.628 75.6043 334.116 75.1161L340.232 69L334.116 62.8839C333.628 62.3957 333.628 61.6043 334.116 61.1161C334.604 60.628 335.396 60.628 335.884 61.1161L342 67.2322L348.116 61.1161Z" fill="white"/>
<path d="M49 102.5C49 97.2533 53.2533 93 58.5 93H134.5C139.747 93 144 97.2533 144 102.5C144 107.747 139.747 112 134.5 112H58.5C53.2533 112 49 107.747 49 102.5Z" fill="white"/>
<path d="M49 185C49 182.239 51.2386 180 54 180H84C86.7614 180 89 182.239 89 185C89 187.761 86.7614 190 84 190H54C51.2386 190 49 187.761 49 185Z" fill="white"/>
<path d="M49 129.5C49 128.119 50.1193 127 51.5 127H111.5C112.881 127 114 128.119 114 129.5C114 130.881 112.881 132 111.5 132H51.5C50.1193 132 49 130.881 49 129.5Z" fill="white"/>
<path d="M49 138.5C49 137.119 50.1193 136 51.5 136H89.5C90.8807 136 92 137.119 92 138.5C92 139.881 90.8807 141 89.5 141H51.5C50.1193 141 49 139.881 49 138.5Z" fill="white"/>
<path fill-rule="evenodd" clip-rule="evenodd" d="M249.705 116.179C240.904 116.179 233.769 123.314 233.769 132.115C233.769 140.917 240.904 148.051 249.705 148.051C258.506 148.051 265.641 140.917 265.641 132.115C265.641 123.314 258.506 116.179 249.705 116.179ZM242.462 132.115C242.462 128.115 245.705 124.872 249.705 124.872C253.706 124.872 256.949 128.115 256.949 132.115C256.949 136.116 253.706 139.359 249.705 139.359C245.705 139.359 242.462 136.116 242.462 132.115Z" fill="white"/>
<path fill-rule="evenodd" clip-rule="evenodd" d="M281.366 93.717C274.747 92.9999 266.405 93 255.762 93H255.238C244.595 93 236.253 92.9999 229.634 93.717C222.88 94.4488 217.408 95.9689 212.735 99.3637C209.906 101.419 207.419 103.906 205.364 106.735C201.969 111.408 200.449 116.88 199.717 123.634C199 130.253 199 138.595 199 149.238V149.762C199 160.405 199 168.747 199.717 175.366C200.449 182.12 201.969 187.592 205.364 192.265C205.438 192.367 205.513 192.47 205.589 192.571C207.6 195.274 210.009 197.656 212.735 199.636C217.408 203.031 222.88 204.551 229.634 205.283C236.253 206 244.595 206 255.237 206H255.762C266.405 206 274.747 206 281.366 205.283C288.12 204.551 293.592 203.031 298.265 199.636C301.094 197.581 303.581 195.094 305.636 192.265C310.677 185.327 311.654 176.473 311.912 163.99C312 159.747 312 154.949 312 149.535V149.238C312 138.595 312 130.253 311.283 123.634C310.551 116.88 309.031 111.408 305.636 106.735C303.581 103.906 301.094 101.419 298.265 99.3637C293.592 95.9689 288.12 94.4488 281.366 93.717ZM217.844 106.396C220.788 104.257 224.556 103.01 230.571 102.359C236.667 101.698 244.539 101.692 255.5 101.692C266.461 101.692 274.333 101.698 280.429 102.359C286.444 103.01 290.212 104.257 293.156 106.396C295.246 107.915 297.085 109.754 298.604 111.844C300.743 114.788 301.99 118.556 302.641 124.571C303.302 130.667 303.308 138.539 303.308 149.5C303.308 150.978 303.308 152.401 303.306 153.773C302.692 153.252 302.111 152.795 301.539 152.389C287.22 142.222 267.467 144.915 256.391 158.543C255.472 159.674 254.591 160.999 253.594 162.651L252.87 162.506C246.501 161.231 242.601 160.451 238.939 160.529C229.155 160.736 219.956 165.235 213.785 172.831C212.218 174.76 210.896 177.018 209.3 180.086C208.901 178.444 208.592 176.58 208.359 174.429C207.698 168.333 207.692 160.461 207.692 149.5C207.692 138.539 207.698 130.667 208.359 124.571C209.01 118.556 210.257 114.788 212.396 111.844C213.915 109.754 215.754 107.915 217.844 106.396ZM296.507 159.477C297.941 160.495 299.601 162.091 303.176 165.657C302.845 177.077 301.696 182.899 298.604 187.156C297.085 189.246 295.246 191.085 293.156 192.604C290.212 194.743 286.444 195.99 280.429 196.641C274.333 197.302 266.461 197.308 255.5 197.308C251.201 197.308 247.378 197.307 243.95 197.266L257.387 173.493C258.14 172.161 258.794 171.003 259.378 169.982C261.23 166.744 262.23 165.14 263.136 164.026C271.323 153.952 285.923 151.962 296.507 159.477ZM234.332 196.618C234.271 196.726 234.215 196.835 234.164 196.946C232.899 196.864 231.704 196.764 230.571 196.641C224.556 195.99 220.788 194.743 217.844 192.604C216.563 191.673 215.376 190.622 214.299 189.466C217.555 182.955 218.901 180.32 220.532 178.312C225.093 172.698 231.892 169.373 239.124 169.219C241.354 169.172 243.82 169.578 249.034 170.606L234.332 196.618Z" fill="white"/>
</svg>
