<svg width="64" height="46" viewBox="0 0 64 46" fill="none" xmlns="http://www.w3.org/2000/svg">
<mask id="mask0_71_4816" style="mask-type:alpha" maskUnits="userSpaceOnUse" x="0" y="0" width="64" height="46">
<path d="M0 5C0 2.23858 2.23858 0 5 0H59C61.7614 0 64 2.23858 64 5V41C64 43.7614 61.7614 46 59 46H5C2.23858 46 0 43.7614 0 41V5Z" fill="#6D3CC7"/>
</mask>
<g mask="url(#mask0_71_4816)">
<path d="M0 5C0 2.23858 2.23858 0 5 0H59C61.7614 0 64 2.23858 64 5V41C64 43.7614 61.7614 46 59 46H5C2.23858 46 0 43.7614 0 41V5Z" fill="#EEF0F6"/>
<path fill-rule="evenodd" clip-rule="evenodd" d="M59 2H5C3.34315 2 2 3.34315 2 5V41C2 42.6569 3.34315 44 5 44H59C60.6569 44 62 42.6569 62 41V5C62 3.34315 60.6569 2 59 2ZM5 0C2.23858 0 0 2.23858 0 5V41C0 43.7614 2.23858 46 5 46H59C61.7614 46 64 43.7614 64 41V5C64 2.23858 61.7614 0 59 0H5Z" fill="#EEF0F6"/>
<path d="M0 2.29073C0 1.02559 1.02559 0 2.29073 0H61.7093C62.9744 0 64 1.02559 64 2.29073V8H0V2.29073Z" fill="#E1DEF4"/>
<path d="M50.1921 3.97312C50.1921 4.92154 49.4213 5.69038 48.4705 5.69038C47.5198 5.69038 46.749 4.92154 46.749 3.97312C46.749 3.0247 47.5198 2.25586 48.4705 2.25586C49.4213 2.25586 50.1921 3.0247 50.1921 3.97312Z" fill="white"/>
<path d="M55.2746 3.97312C55.2746 4.92154 54.5038 5.69038 53.5531 5.69038C52.6023 5.69038 51.8315 4.92154 51.8315 3.97312C51.8315 3.0247 52.6023 2.25586 53.5531 2.25586C54.5038 2.25586 55.2746 3.0247 55.2746 3.97312Z" fill="white"/>
<path d="M60.3571 3.97312C60.3571 4.92154 59.5863 5.69038 58.6356 5.69038C57.6848 5.69038 56.9141 4.92154 56.9141 3.97312C56.9141 3.0247 57.6848 2.25586 58.6356 2.25586C59.5863 2.25586 60.3571 3.0247 60.3571 3.97312Z" fill="white"/>
</g>
<path d="M5 14C5 12.3431 6.34315 11 8 11H56C57.6569 11 59 12.3431 59 14V16C59 17.6569 57.6569 19 56 19H8C6.34315 19 5 17.6569 5 16V14Z" fill="white"/>
<path d="M47 25C47 23.3431 48.3431 22 50 22H56C57.6569 22 59 23.3431 59 25V38C59 39.6569 57.6569 41 56 41H50C48.3431 41 47 39.6569 47 38V25Z" fill="white"/>
<path d="M5 23C5 22.4477 5.44772 22 6 22H39C39.5523 22 40 22.4477 40 23C40 23.5523 39.5523 24 39 24H6C5.44772 24 5 23.5523 5 23Z" fill="white"/>
<path d="M5 28C5 27.4477 5.44772 27 6 27H30C30.5523 27 31 27.4477 31 28C31 28.5523 30.5523 29 30 29H6C5.44772 29 5 28.5523 5 28Z" fill="white"/>
<path d="M5 38C5 37.4477 5.44772 37 6 37H17C17.5523 37 18 37.4477 18 38C18 38.5523 17.5523 39 17 39H6C5.44772 39 5 38.5523 5 38Z" fill="white"/>
<path d="M5 33C5 32.4477 5.44772 32 6 32H15C15.5523 32 16 32.4477 16 33C16 33.5523 15.5523 34 15 34H6C5.44771 34 5 33.5523 5 33Z" fill="white"/>
<path d="M18 33C18 32.4477 18.4477 32 19 32H34C34.5523 32 35 32.4477 35 33C35 33.5523 34.5523 34 34 34H19C18.4477 34 18 33.5523 18 33Z" fill="white"/>
<path d="M5 14C5 12.3431 6.34315 11 8 11H35C36.6569 11 38 12.3431 38 14V30C38 31.6569 36.6569 33 35 33H8C6.34314 33 5 31.6569 5 30V14Z" fill="#3AC2BA"/>
<g clip-path="url(#clip0_71_4816)">
<path d="M35.0687 14.1505C35.1297 14.0895 35.1297 13.9906 35.0687 13.9296C35.0076 13.8685 34.9087 13.8685 34.8477 13.9296L33.4998 15.2774L32.152 13.9296C32.091 13.8685 31.992 13.8685 31.931 13.9296C31.87 13.9906 31.87 14.0895 31.931 14.1505L33.2789 15.4984L31.931 16.8462C31.87 16.9072 31.87 17.0062 31.931 17.0672C31.992 17.1282 32.091 17.1282 32.152 17.0672L33.4998 15.7193L34.8477 17.0672C34.9087 17.1282 35.0076 17.1282 35.0687 17.0672C35.1297 17.0062 35.1297 16.9072 35.0687 16.8462L33.7208 15.4984L35.0687 14.1505Z" fill="white"/>
<path fill-rule="evenodd" clip-rule="evenodd" d="M34.4941 13.576C34.7504 13.3197 35.1659 13.3197 35.4222 13.576C35.6785 13.8323 35.6785 14.2478 35.4222 14.5041M33.4998 14.5703L32.5055 13.576C32.2493 13.3197 31.8337 13.3197 31.5775 13.576C31.3212 13.8323 31.3212 14.2478 31.5775 14.5041L32.5718 15.4984L31.5775 16.4927C31.3212 16.7489 31.3212 17.1645 31.5775 17.4207C31.8338 17.677 32.2493 17.677 32.5055 17.4207L33.4998 16.4265L34.4941 17.4207C34.7504 17.677 35.1659 17.677 35.4222 17.4207C35.6785 17.1645 35.6785 16.7489 35.4222 16.4927L34.4279 15.4984L35.4222 14.5041M32.0415 16.9567L32.2846 16.7136L32.0415 16.9567ZM34.4941 13.576L33.4998 14.5703L34.4941 13.576Z" fill="white"/>
</g>
<path d="M8 17C8 15.3431 9.34315 14 11 14C12.6569 14 14 15.3431 14 17C14 18.6569 12.6569 20 11 20C9.34315 20 8 18.6569 8 17Z" fill="white"/>
<path d="M8 29C8 28.4477 8.44772 28 9 28H20C20.5523 28 21 28.4477 21 29C21 29.5523 20.5523 30 20 30H9C8.44772 30 8 29.5523 8 29Z" fill="white"/>
<path d="M8 26C8 25.4477 8.44772 25 9 25H25C25.5523 25 26 25.4477 26 26C26 26.5523 25.5523 27 25 27H9C8.44772 27 8 26.5523 8 26Z" fill="white"/>
<defs>
<clipPath id="clip0_71_4816">
<rect width="5" height="5" fill="white" transform="translate(31 13)"/>
</clipPath>
</defs>
</svg>
