<svg width="390" height="281" viewBox="0 0 390 281" fill="none" xmlns="http://www.w3.org/2000/svg">
<mask id="mask0_71_4739" style="mask-type:alpha" maskUnits="userSpaceOnUse" x="0" y="0" width="390" height="281">
<path d="M0 13.9937C0 6.2652 6.26519 0 13.9937 0H376.006C383.735 0 390 6.26519 390 13.9937V267.006C390 274.735 383.735 281 376.006 281H13.9937C6.26522 281 0 274.735 0 267.006V13.9937Z" fill="#6D3CC7"/>
</mask>
<g mask="url(#mask0_71_4739)">
<path d="M0 13.9937C0 6.2652 6.26519 0 13.9937 0H376.006C383.735 0 390 6.26519 390 13.9937V267.006C390 274.735 383.735 281 376.006 281H13.9937C6.26522 281 0 274.735 0 267.006V13.9937Z" fill="#EEF0F6"/>
<path fill-rule="evenodd" clip-rule="evenodd" d="M376.006 4.94382H13.9937C8.99559 4.94382 4.94382 8.99559 4.94382 13.9937V267.006C4.94382 272.004 8.9956 276.056 13.9937 276.056H376.006C381.004 276.056 385.056 272.004 385.056 267.006V13.9937C385.056 8.9956 381.004 4.94382 376.006 4.94382ZM13.9937 0C6.26519 0 0 6.2652 0 13.9937V267.006C0 274.735 6.26522 281 13.9937 281H376.006C383.735 281 390 274.735 390 267.006V13.9937C390 6.26519 383.735 0 376.006 0H13.9937Z" fill="#EEF0F6"/>
<path d="M0 13.9937C0 6.26519 6.26519 0 13.9937 0H376.006C383.735 0 390 6.26519 390 13.9937V29H0V13.9937Z" fill="#E1DEF4"/>
<path d="M343 14.5C343 17.5376 340.538 20 337.5 20C334.462 20 332 17.5376 332 14.5C332 11.4624 334.462 9 337.5 9C340.538 9 343 11.4624 343 14.5Z" fill="white"/>
<path d="M360 14.5C360 17.5376 357.538 20 354.5 20C351.462 20 349 17.5376 349 14.5C349 11.4624 351.462 9 354.5 9C357.538 9 360 11.4624 360 14.5Z" fill="white"/>
<path d="M377 14.5C377 17.5376 374.538 20 371.5 20C368.462 20 366 17.5376 366 14.5C366 11.4624 368.462 9 371.5 9C374.538 9 377 11.4624 377 14.5Z" fill="white"/>
</g>
<path d="M16 61C16 55.4772 20.4772 51 26 51H364C369.523 51 374 55.4772 374 61V98C374 103.523 369.523 108 364 108H26C20.4771 108 16 103.523 16 98V61Z" fill="white"/>
<path d="M87 69C87 67.8954 87.8954 67 89 67H177C178.105 67 179 67.8954 179 69C179 70.1046 178.105 71 177 71H89C87.8954 71 87 70.1046 87 69Z" fill="#EEF0F6"/>
<path d="M87 80C87 78.8954 87.8954 78 89 78H315C316.105 78 317 78.8954 317 80C317 81.1046 316.105 82 315 82H89C87.8954 82 87 81.1046 87 80Z" fill="#EEF0F6"/>
<path d="M87 91C87 89.8954 87.8954 89 89 89H143C144.105 89 145 89.8954 145 91C145 92.1046 144.105 93 143 93H89C87.8954 93 87 92.1046 87 91Z" fill="#EEF0F6"/>
<path d="M150 91C150 89.8954 150.895 89 152 89H221C222.105 89 223 89.8954 223 91C223 92.1046 222.105 93 221 93H152C150.895 93 150 92.1046 150 91Z" fill="#EEF0F6"/>
<path d="M228 91C228 89.8954 228.895 89 230 89H280C281.105 89 282 89.8954 282 91C282 92.1046 281.105 93 280 93H230C228.895 93 228 92.1046 228 91Z" fill="#EEF0F6"/>
<path fill-rule="evenodd" clip-rule="evenodd" d="M50.1154 71.5385C48.0125 71.5385 46.3077 73.2432 46.3077 75.3462C46.3077 77.4491 48.0125 79.1538 50.1154 79.1538C52.2183 79.1538 53.9231 77.4491 53.9231 75.3462C53.9231 73.2432 52.2183 71.5385 50.1154 71.5385ZM48.3846 75.3462C48.3846 74.3903 49.1595 73.6154 50.1154 73.6154C51.0713 73.6154 51.8462 74.3903 51.8462 75.3462C51.8462 76.302 51.0713 77.0769 50.1154 77.0769C49.1595 77.0769 48.3846 76.302 48.3846 75.3462Z" fill="#EEF0F6"/>
<path fill-rule="evenodd" clip-rule="evenodd" d="M57.6803 66.1713C56.0988 66 54.1055 66 51.5627 66H51.4373C48.8945 66 46.9012 66 45.3197 66.1713C43.7059 66.3462 42.3983 66.7094 41.2819 67.5205C40.606 68.0116 40.0116 68.606 39.5205 69.2819C38.7094 70.3983 38.3462 71.7059 38.1713 73.3197C38 74.9012 38 76.8945 38 79.4373V79.5627C38 82.1055 38 84.0988 38.1713 85.6803C38.3462 87.2941 38.7094 88.6017 39.5205 89.7181C39.5383 89.7427 39.5563 89.7671 39.5744 89.7914C40.0548 90.437 40.6305 91.0062 41.2819 91.4795C42.3983 92.2906 43.7059 92.6538 45.3197 92.8287C46.9011 93 48.8944 93 51.4372 93H51.5627C54.1055 93 56.0989 93 57.6803 92.8287C59.2941 92.6538 60.6017 92.2906 61.7181 91.4795C62.394 90.9884 62.9884 90.394 63.4795 89.7181C64.6839 88.0603 64.9173 85.9448 64.979 82.9623C65 81.9483 65 80.8019 65 79.5083V79.4373C65 76.8945 65 74.9011 64.8287 73.3197C64.6538 71.7059 64.2906 70.3983 63.4795 69.2819C62.9884 68.606 62.394 68.0116 61.7181 67.5205C60.6017 66.7094 59.2941 66.3462 57.6803 66.1713ZM42.5026 69.2008C43.206 68.6897 44.1063 68.3919 45.5434 68.2362C47 68.0783 48.8809 68.0769 51.5 68.0769C54.1191 68.0769 56 68.0783 57.4566 68.2362C58.8937 68.3919 59.794 68.6897 60.4974 69.2008C60.9969 69.5637 61.4363 70.0031 61.7992 70.5026C62.3103 71.206 62.6081 72.1063 62.7638 73.5434C62.9217 75 62.9231 76.8809 62.9231 79.5C62.9231 79.8531 62.9231 80.1931 62.9227 80.5209C62.7761 80.3966 62.6371 80.2874 62.5005 80.1904C59.079 77.7611 54.3593 78.4044 51.7129 81.6608C51.4933 81.931 51.2829 82.2476 51.0446 82.6422L50.8716 82.6076C49.3498 82.3031 48.4179 82.1166 47.543 82.1351C45.2051 82.1848 43.0073 83.2597 41.5328 85.0747C41.1583 85.5355 40.8423 86.0751 40.461 86.8081C40.3657 86.4159 40.2918 85.9706 40.2362 85.4566C40.0783 84 40.0769 82.1191 40.0769 79.5C40.0769 76.8809 40.0783 75 40.2362 73.5434C40.3919 72.1063 40.6897 71.206 41.2008 70.5026C41.5637 70.0031 42.0031 69.5637 42.5026 69.2008ZM61.2981 81.8839C61.6408 82.1272 62.0375 82.5085 62.8916 83.3605C62.8124 86.0893 62.5381 87.4804 61.7992 88.4974C61.4363 88.9969 60.9969 89.4363 60.4974 89.7992C59.794 90.3103 58.8937 90.6081 57.4566 90.7638C56 90.9217 54.1191 90.9231 51.5 90.9231C50.4729 90.9231 49.5593 90.9229 48.7403 90.9131L51.9509 85.2329C52.1308 84.9145 52.2871 84.638 52.4267 84.3939C52.869 83.6203 53.1082 83.2371 53.3246 82.9707C55.2807 80.5638 58.7692 80.0883 61.2981 81.8839ZM46.4421 90.7582C46.4275 90.784 46.4142 90.8102 46.402 90.8367C46.0998 90.8171 45.8143 90.7932 45.5434 90.7638C44.1063 90.6081 43.206 90.3103 42.5026 89.7992C42.1964 89.5767 41.9128 89.3255 41.6556 89.0494C42.4334 87.4937 42.755 86.864 43.1447 86.3843C44.2346 85.0428 45.8591 84.2483 47.5871 84.2116C48.12 84.2003 48.7091 84.2973 49.9551 84.543L46.4421 90.7582Z" fill="#EEF0F6"/>
<path d="M16 132C16 126.477 20.4772 122 26 122H213C218.523 122 223 126.477 223 132V152C223 157.523 218.523 162 213 162H26C20.4772 162 16 157.523 16 152V132Z" fill="white"/>
<path d="M232 132C232 126.477 236.477 122 242 122H262C267.523 122 272 126.477 272 132V152C272 157.523 267.523 162 262 162H242C236.477 162 232 157.523 232 152V132Z" fill="white"/>
<path d="M16 177.5C16 175.567 17.567 174 19.5 174H47.5C49.433 174 51 175.567 51 177.5C51 179.433 49.433 181 47.5 181H19.5C17.567 181 16 179.433 16 177.5Z" fill="white"/>
<path d="M16 193.5C16 191.567 17.567 190 19.5 190H85.5C87.433 190 89 191.567 89 193.5C89 195.433 87.433 197 85.5 197H19.5C17.567 197 16 195.433 16 193.5Z" fill="white"/>
<path d="M16 209.5C16 207.567 17.567 206 19.5 206H31.5C33.433 206 35 207.567 35 209.5C35 211.433 33.433 213 31.5 213H19.5C17.567 213 16 211.433 16 209.5Z" fill="white"/>
<path d="M44 209.5C44 207.567 45.567 206 47.5 206H69.5C71.433 206 73 207.567 73 209.5C73 211.433 71.433 213 69.5 213H47.5C45.567 213 44 211.433 44 209.5Z" fill="white"/>
<path d="M293 132C293 126.477 297.477 122 303 122H364C369.523 122 374 126.477 374 132V246C374 251.523 369.523 256 364 256H303C297.477 256 293 251.523 293 246V132Z" fill="white"/>
<path d="M204 200C204 194.477 208.477 190 214 190H364C369.523 190 374 194.477 374 200V258C374 263.523 369.523 268 364 268H214C208.477 268 204 263.523 204 258V200Z" fill="#3AC2BA"/>
<path d="M261 238.333V226.666C261 219.503 257.173 213.506 250.5 211.92V210.333C250.5 208.396 248.913 206.833 246.976 206.833C245.04 206.833 243.5 208.396 243.5 210.333V211.92C236.803 213.506 233 219.48 233 226.666V238.333L229.966 241.343C228.496 242.813 229.523 245.333 231.6 245.333H262.33C264.406 245.333 265.456 242.813 263.986 241.343L261 238.333ZM246.976 252.333C249.543 252.333 251.643 250.233 251.643 247.666H242.31C242.31 248.904 242.801 250.091 243.677 250.966C244.552 251.841 245.739 252.333 246.976 252.333ZM234.796 212.036C235.776 211.15 235.8 209.633 234.866 208.7C234.437 208.273 233.859 208.029 233.254 208.021C232.649 208.012 232.064 208.239 231.623 208.653C227.551 212.366 224.861 217.351 223.993 222.793C223.783 224.216 224.88 225.5 226.326 225.5C227.446 225.5 228.426 224.683 228.613 223.563C229.301 219.129 231.482 215.062 234.796 212.036ZM262.4 208.653C261.466 207.79 260.02 207.813 259.133 208.7C258.2 209.633 258.246 211.126 259.203 212.013C262.423 214.976 264.686 219.013 265.386 223.54C265.55 224.66 266.53 225.476 267.673 225.476C269.096 225.476 270.216 224.193 269.983 222.77C269.096 217.24 266.366 212.316 262.4 208.653Z" fill="white"/>
<path d="M360.834 204.918C361.041 204.71 361.041 204.374 360.834 204.166C360.626 203.959 360.29 203.959 360.083 204.166L355.5 208.749L350.917 204.166C350.71 203.959 350.373 203.959 350.166 204.166C349.958 204.374 349.958 204.71 350.166 204.918L354.749 209.5L350.166 214.083C349.958 214.29 349.958 214.627 350.166 214.834C350.373 215.042 350.71 215.042 350.917 214.834L355.5 210.252L360.083 214.834C360.29 215.042 360.626 215.042 360.834 214.834C361.041 214.627 361.041 214.29 360.834 214.083L356.251 209.5L360.834 204.918Z" fill="white"/>
<path fill-rule="evenodd" clip-rule="evenodd" d="M359.375 203.459C359.973 202.861 360.943 202.861 361.541 203.459C362.139 204.057 362.139 205.027 361.541 205.625L357.665 209.5L361.541 213.376C362.139 213.974 362.139 214.943 361.541 215.541C360.943 216.139 359.973 216.139 359.375 215.541L355.5 211.666L351.624 215.541C351.026 216.139 350.057 216.139 349.459 215.541C348.861 214.943 348.861 213.974 349.459 213.376L353.334 209.5L349.459 205.625C348.861 205.027 348.861 204.057 349.459 203.459C350.057 202.861 351.026 202.861 351.624 203.459L355.5 207.335L359.375 203.459Z" fill="white"/>
<path opacity="0.1" d="M16 235C16 229.477 20.4772 225 26 225H152C157.523 225 162 229.477 162 235V258C162 263.523 157.523 268 152 268H26C20.4771 268 16 263.523 16 258V235Z" fill="#713EE6"/>
<path d="M69 237C69 235.895 69.8954 235 71 235H102C103.105 235 104 235.895 104 237C104 238.105 103.105 239 102 239H71C69.8954 239 69 238.105 69 237Z" fill="white"/>
<path d="M69 247C69 245.895 69.8954 245 71 245H148C149.105 245 150 245.895 150 247C150 248.105 149.105 249 148 249H71C69.8954 249 69 248.105 69 247Z" fill="white"/>
<path d="M69 257C69 255.895 69.8954 255 71 255H87C88.1046 255 89 255.895 89 257C89 258.105 88.1046 259 87 259H71C69.8954 259 69 258.105 69 257Z" fill="white"/>
<path d="M94 257C94 255.895 94.8954 255 96 255H116C117.105 255 118 255.895 118 257C118 258.105 117.105 259 116 259H96C94.8954 259 94 258.105 94 257Z" fill="white"/>
<path d="M123 257C123 255.895 123.895 255 125 255H138C139.105 255 140 255.895 140 257C140 258.105 139.105 259 138 259H125C123.895 259 123 258.105 123 257Z" fill="white"/>
<path d="M59 246C59 254.284 52.2843 261 44 261C35.7157 261 29 254.284 29 246C29 237.716 35.7157 231 44 231C52.2843 231 59 237.716 59 246Z" fill="white"/>
<path d="M49.1259 244.557C50.0726 245.286 50.0726 246.714 49.1259 247.443L42.6813 252.404C41.4841 253.325 39.75 252.472 39.75 250.961L39.75 241.039C39.75 239.528 41.4841 238.675 42.6813 239.596L49.1259 244.557Z" fill="#EEF0F6"/>
</svg>
