<svg width="64" height="46" viewBox="0 0 64 46" fill="none" xmlns="http://www.w3.org/2000/svg">
<mask id="mask0_1_323" style="mask-type:alpha" maskUnits="userSpaceOnUse" x="0" y="0" width="64" height="46">
<path d="M-6.10352e-05 5C-6.10352e-05 2.23858 2.23852 0 4.99994 0H58.9999C61.7614 0 63.9999 2.23858 63.9999 5V41C63.9999 43.7614 61.7614 46 58.9999 46H4.99994C2.23852 46 -6.10352e-05 43.7614 -6.10352e-05 41V5Z" fill="#6D3CC7"/>
</mask>
<g mask="url(#mask0_1_323)">
<path d="M-6.10352e-05 5C-6.10352e-05 2.23858 2.23852 0 4.99994 0H58.9999C61.7614 0 63.9999 2.23858 63.9999 5V41C63.9999 43.7614 61.7614 46 58.9999 46H4.99994C2.23852 46 -6.10352e-05 43.7614 -6.10352e-05 41V5Z" fill="#EEF0F6"/>
<path fill-rule="evenodd" clip-rule="evenodd" d="M58.9999 2H4.99994C3.34308 2 1.99994 3.34315 1.99994 5V41C1.99994 42.6569 3.34308 44 4.99994 44H58.9999C60.6568 44 61.9999 42.6569 61.9999 41V5C61.9999 3.34315 60.6568 2 58.9999 2ZM4.99994 0C2.23852 0 -6.10352e-05 2.23858 -6.10352e-05 5V41C-6.10352e-05 43.7614 2.23852 46 4.99994 46H58.9999C61.7614 46 63.9999 43.7614 63.9999 41V5C63.9999 2.23858 61.7614 0 58.9999 0H4.99994Z" fill="#EEF0F6"/>
<path d="M-6.10352e-05 2.29073C-6.10352e-05 1.02559 1.02553 0 2.29067 0H61.7092C62.9743 0 63.9999 1.02559 63.9999 2.29073V8H-6.10352e-05V2.29073Z" fill="#E1DEF4"/>
<path d="M50.1918 3.97336C50.1918 4.92178 49.421 5.69063 48.4703 5.69063C47.5195 5.69063 46.7487 4.92178 46.7487 3.97336C46.7487 3.02495 47.5195 2.2561 48.4703 2.2561C49.421 2.2561 50.1918 3.02495 50.1918 3.97336Z" fill="white"/>
<path d="M55.2742 3.97336C55.2742 4.92178 54.5034 5.69063 53.5526 5.69063C52.6019 5.69063 51.8311 4.92178 51.8311 3.97336C51.8311 3.02495 52.6019 2.2561 53.5526 2.2561C54.5034 2.2561 55.2742 3.02495 55.2742 3.97336Z" fill="white"/>
<path d="M60.3568 3.97336C60.3568 4.92178 59.586 5.69063 58.6353 5.69063C57.6845 5.69063 56.9137 4.92178 56.9137 3.97336C56.9137 3.02495 57.6845 2.2561 58.6353 2.2561C59.586 2.2561 60.3568 3.02495 60.3568 3.97336Z" fill="white"/>
</g>
<path d="M4.99994 14C4.99994 12.3431 6.34308 11 7.99994 11H17.9999C19.6568 11 20.9999 12.3431 20.9999 14V23C20.9999 24.6569 19.6568 26 17.9999 26H7.99994C6.34308 26 4.99994 24.6569 4.99994 23V14Z" fill="white"/>
<path d="M23.9999 14C23.9999 12.3431 25.3431 11 26.9999 11H36.9999C38.6568 11 39.9999 12.3431 39.9999 14V23C39.9999 24.6569 38.6568 26 36.9999 26H26.9999C25.3431 26 23.9999 24.6569 23.9999 23V14Z" fill="#3AC2BA"/>
<path d="M42.9999 14C42.9999 12.3431 44.3431 11 45.9999 11H55.9999C57.6568 11 58.9999 12.3431 58.9999 14V23C58.9999 24.6569 57.6568 26 55.9999 26H45.9999C44.3431 26 42.9999 24.6569 42.9999 23V14Z" fill="white"/>
<path d="M42.9999 33C42.9999 31.3431 44.3431 30 45.9999 30H55.9999C57.6568 30 58.9999 31.3431 58.9999 33V38C58.9999 39.6569 57.6568 41 55.9999 41H45.9999C44.3431 41 42.9999 39.6569 42.9999 38V33Z" fill="white"/>
<path d="M4.99994 38C4.99994 37.4477 5.44765 37 5.99994 37H16.9999C17.5522 37 17.9999 37.4477 17.9999 38C17.9999 38.5523 17.5522 39 16.9999 39H5.99994C5.44765 39 4.99994 38.5523 4.99994 38Z" fill="white"/>
<path d="M4.99994 33C4.99994 32.4477 5.44765 32 5.99994 32H14.9999C15.5522 32 15.9999 32.4477 15.9999 33C15.9999 33.5523 15.5522 34 14.9999 34H5.99994C5.44765 34 4.99994 33.5523 4.99994 33Z" fill="white"/>
<path d="M18.9999 33C18.9999 32.4477 19.4477 32 19.9999 32H33.9999C34.5522 32 34.9999 32.4477 34.9999 33C34.9999 33.5523 34.5522 34 33.9999 34H19.9999C19.4477 34 18.9999 33.5523 18.9999 33Z" fill="white"/>
</svg>
