<svg width="64" height="46" viewBox="0 0 64 46" fill="none" xmlns="http://www.w3.org/2000/svg">
<path d="M18 5C18 2.23858 20.2386 0 23 0H41C43.7614 0 46 2.23858 46 5V41C46 43.7614 43.7614 46 41 46H23C20.2386 46 18 43.7614 18 41V5Z" fill="#EEF0F6"/>
<path fill-rule="evenodd" clip-rule="evenodd" d="M41 2H23C21.3431 2 20 3.34315 20 5V41C20 42.6569 21.3431 44 23 44H41C42.6569 44 44 42.6569 44 41V5C44 3.34315 42.6569 2 41 2ZM23 0C20.2386 0 18 2.23858 18 5V41C18 43.7614 20.2386 46 23 46H41C43.7614 46 46 43.7614 46 41V5C46 2.23858 43.7614 0 41 0H23Z" fill="#EEF0F6"/>
<path d="M25 2.70927C25 3.97441 26.0256 5 27.2907 5H36.7093C37.9744 5 39 3.97441 39 2.70927V0H25V2.70927Z" fill="#E1DEF4"/>
<path d="M27 42C27 41.4477 27.4477 41 28 41H36C36.5523 41 37 41.4477 37 42C37 42.5523 36.5523 43 36 43H28C27.4477 43 27 42.5523 27 42Z" fill="white"/>
<path d="M22 12C22 10.3431 23.3431 9 25 9H39C40.6569 9 42 10.3431 42 12V36C42 37.6569 40.6569 39 39 39H25C23.3431 39 22 37.6569 22 36V12Z" fill="#3AC2BA"/>
<g clip-path="url(#clip0_71_4842)">
<path d="M27.2552 11.9204C27.304 11.8716 27.304 11.7925 27.2552 11.7436C27.2064 11.6948 27.1273 11.6948 27.0784 11.7436L26.0002 12.8219L24.9219 11.7436C24.8731 11.6948 24.7939 11.6948 24.7451 11.7436C24.6963 11.7925 24.6963 11.8716 24.7451 11.9204L25.8234 12.9987L24.7451 14.077C24.6963 14.1258 24.6963 14.2049 24.7451 14.2538C24.7939 14.3026 24.8731 14.3026 24.9219 14.2538L26.0002 13.1755L27.0784 14.2538C27.1273 14.3026 27.2064 14.3026 27.2552 14.2538C27.304 14.2049 27.304 14.1258 27.2552 14.077L26.1769 12.9987L27.2552 11.9204Z" fill="white"/>
<path fill-rule="evenodd" clip-rule="evenodd" d="M26.0002 12.1148L26.7249 11.3901C26.969 11.146 27.3647 11.146 27.6088 11.3901C27.8529 11.6342 27.8529 12.0299 27.6088 12.274M25.1163 12.9987L24.3916 12.274C24.1475 12.0299 24.1475 11.6342 24.3916 11.3901C24.6356 11.146 25.0314 11.146 25.2754 11.3901L26.0002 12.1148M25.1163 12.9987L24.3916 13.7234C24.1475 13.9675 24.1475 14.3632 24.3916 14.6073C24.6356 14.8514 25.0314 14.8514 25.2754 14.6073L26.0002 13.8826L26.7249 14.6073C26.969 14.8514 27.3647 14.8514 27.6088 14.6073C27.8528 14.3632 27.8528 13.9675 27.6088 13.7234L26.884 12.9987L27.6088 12.274M27.4317 12.0975L27.432 12.0972L27.4317 12.0975Z" fill="white"/>
</g>
<path d="M29 23C29 21.3431 30.3431 20 32 20C33.6569 20 35 21.3431 35 23C35 24.6569 33.6569 26 32 26C30.3431 26 29 24.6569 29 23Z" fill="white"/>
<path d="M24 35C24 34.4477 24.4477 34 25 34H35C35.5523 34 36 34.4477 36 35C36 35.5523 35.5523 36 35 36H25C24.4477 36 24 35.5523 24 35Z" fill="white"/>
<path d="M24 32C24 31.4477 24.4477 31 25 31H39C39.5523 31 40 31.4477 40 32C40 32.5523 39.5523 33 39 33H25C24.4477 33 24 32.5523 24 32Z" fill="white"/>
<defs>
<clipPath id="clip0_71_4842">
<rect width="4" height="4" fill="white" transform="translate(24 11)"/>
</clipPath>
</defs>
</svg>
