<svg width="64" height="46" viewBox="0 0 64 46" fill="none" xmlns="http://www.w3.org/2000/svg">
<mask id="mask0_71_4791" style="mask-type:alpha" maskUnits="userSpaceOnUse" x="0" y="0" width="64" height="46">
<path d="M0 5C0 2.23858 2.23858 0 5 0H59C61.7614 0 64 2.23858 64 5V41C64 43.7614 61.7614 46 59 46H5C2.23858 46 0 43.7614 0 41V5Z" fill="#6D3CC7"/>
</mask>
<g mask="url(#mask0_71_4791)">
<path d="M0 5C0 2.23858 2.23858 0 5 0H59C61.7614 0 64 2.23858 64 5V41C64 43.7614 61.7614 46 59 46H5C2.23858 46 0 43.7614 0 41V5Z" fill="#EEF0F6"/>
<path fill-rule="evenodd" clip-rule="evenodd" d="M59 2H5C3.34315 2 2 3.34315 2 5V41C2 42.6569 3.34315 44 5 44H59C60.6569 44 62 42.6569 62 41V5C62 3.34315 60.6569 2 59 2ZM5 0C2.23858 0 0 2.23858 0 5V41C0 43.7614 2.23858 46 5 46H59C61.7614 46 64 43.7614 64 41V5C64 2.23858 61.7614 0 59 0H5Z" fill="#EEF0F6"/>
<path d="M0 2.29073C0 1.02559 1.02559 0 2.29073 0H61.7093C62.9744 0 64 1.02559 64 2.29073V8H0V2.29073Z" fill="#E1DEF4"/>
<path d="M50.1921 3.97312C50.1921 4.92154 49.4213 5.69038 48.4705 5.69038C47.5198 5.69038 46.749 4.92154 46.749 3.97312C46.749 3.0247 47.5198 2.25586 48.4705 2.25586C49.4213 2.25586 50.1921 3.0247 50.1921 3.97312Z" fill="white"/>
<path d="M55.2746 3.97312C55.2746 4.92154 54.5038 5.69038 53.5531 5.69038C52.6023 5.69038 51.8315 4.92154 51.8315 3.97312C51.8315 3.0247 52.6023 2.25586 53.5531 2.25586C54.5038 2.25586 55.2746 3.0247 55.2746 3.97312Z" fill="white"/>
<path d="M60.3571 3.97312C60.3571 4.92154 59.5863 5.69038 58.6356 5.69038C57.6848 5.69038 56.9141 4.92154 56.9141 3.97312C56.9141 3.0247 57.6848 2.25586 58.6356 2.25586C59.5863 2.25586 60.3571 3.0247 60.3571 3.97312Z" fill="white"/>
</g>
<path d="M5 14C5 12.3431 6.34315 11 8 11H56C57.6569 11 59 12.3431 59 14V16C59 17.6569 57.6569 19 56 19H8C6.34315 19 5 17.6569 5 16V14Z" fill="white"/>
<path d="M47 25C47 23.3431 48.3431 22 50 22H56C57.6569 22 59 23.3431 59 25V38C59 39.6569 57.6569 41 56 41H50C48.3431 41 47 39.6569 47 38V25Z" fill="white"/>
<path d="M5 23C5 22.4477 5.44772 22 6 22H39C39.5523 22 40 22.4477 40 23C40 23.5523 39.5523 24 39 24H6C5.44772 24 5 23.5523 5 23Z" fill="white"/>
<path d="M5 28C5 27.4477 5.44772 27 6 27H30C30.5523 27 31 27.4477 31 28C31 28.5523 30.5523 29 30 29H6C5.44772 29 5 28.5523 5 28Z" fill="white"/>
<path d="M5 38C5 37.4477 5.44772 37 6 37H17C17.5523 37 18 37.4477 18 38C18 38.5523 17.5523 39 17 39H6C5.44772 39 5 38.5523 5 38Z" fill="white"/>
<path d="M5 33C5 32.4477 5.44772 32 6 32H15C15.5523 32 16 32.4477 16 33C16 33.5523 15.5523 34 15 34H6C5.44771 34 5 33.5523 5 33Z" fill="white"/>
<path d="M18 33C18 32.4477 18.4477 32 19 32H34C34.5523 32 35 32.4477 35 33C35 33.5523 34.5523 34 34 34H19C18.4477 34 18 33.5523 18 33Z" fill="white"/>
<path d="M13 22.6923C13 21.2054 14.2054 20 15.6923 20H56.3077C57.7946 20 59 21.2054 59 22.6923V38.3077C59 39.7946 57.7946 41 56.3077 41H15.6923C14.2054 41 13 39.7946 13 38.3077V22.6923Z" fill="#3AC2BA"/>
<g clip-path="url(#clip0_71_4791)">
<path d="M56.0687 23.1505C56.1297 23.0895 56.1297 22.9906 56.0687 22.9296C56.0076 22.8685 55.9087 22.8685 55.8477 22.9296L54.4998 24.2774L53.152 22.9296C53.091 22.8685 52.992 22.8685 52.931 22.9296C52.87 22.9906 52.87 23.0895 52.931 23.1505L54.2789 24.4984L52.931 25.8462C52.87 25.9072 52.87 26.0062 52.931 26.0672C52.992 26.1282 53.091 26.1282 53.152 26.0672L54.4998 24.7193L55.8477 26.0672C55.9087 26.1282 56.0076 26.1282 56.0687 26.0672C56.1297 26.0062 56.1297 25.9072 56.0687 25.8462L54.7208 24.4984L56.0687 23.1505Z" fill="white"/>
<path fill-rule="evenodd" clip-rule="evenodd" d="M55.4941 22.576C55.7504 22.3197 56.1659 22.3197 56.4222 22.576C56.6785 22.8323 56.6785 23.2478 56.4222 23.5041M54.4998 23.5703L53.5055 22.576C53.2493 22.3197 52.8337 22.3197 52.5775 22.576C52.3212 22.8323 52.3212 23.2478 52.5775 23.5041L53.5718 24.4984L52.5775 25.4927C52.3212 25.7489 52.3212 26.1645 52.5775 26.4207C52.8338 26.677 53.2493 26.677 53.5055 26.4207L54.4998 25.4265L55.4941 26.4207C55.7504 26.677 56.1659 26.677 56.4222 26.4207C56.6785 26.1645 56.6785 25.7489 56.4222 25.4927L55.4279 24.4984L56.4222 23.5041M53.0415 25.9567L53.2846 25.7136L53.0415 25.9567ZM55.4941 22.576L54.4998 23.5703L55.4941 22.576Z" fill="white"/>
</g>
<path d="M28.25 33V29.875C28.25 27.9563 27.225 26.35 25.4375 25.925V25.5C25.4375 24.9812 25.0125 24.5625 24.4937 24.5625C23.975 24.5625 23.5625 24.9812 23.5625 25.5V25.925C21.7687 26.35 20.75 27.95 20.75 29.875V33L19.9375 33.8063C19.5437 34.2 19.8187 34.875 20.375 34.875H28.6062C29.1625 34.875 29.4437 34.2 29.05 33.8063L28.25 33ZM24.4937 36.75C25.1812 36.75 25.7437 36.1875 25.7437 35.5H23.2437C23.2437 35.8315 23.3754 36.1495 23.6099 36.3839C23.8443 36.6183 24.1622 36.75 24.4937 36.75ZM21.2312 25.9562C21.4937 25.7188 21.5 25.3125 21.25 25.0625C21.1351 24.9482 20.9802 24.8829 20.8181 24.8806C20.656 24.8783 20.4994 24.939 20.3812 25.05C19.2906 26.0445 18.57 27.3799 18.3375 28.8375C18.2812 29.2188 18.575 29.5625 18.9625 29.5625C19.2625 29.5625 19.525 29.3438 19.575 29.0437C19.7592 27.8559 20.3435 26.7667 21.2312 25.9562ZM28.625 25.05C28.375 24.8187 27.9875 24.825 27.75 25.0625C27.5 25.3125 27.5125 25.7125 27.7687 25.95C28.6312 26.7437 29.2375 27.825 29.425 29.0375C29.4687 29.3375 29.7312 29.5562 30.0375 29.5562C30.4187 29.5562 30.7187 29.2125 30.6562 28.8313C30.4187 27.35 29.6875 26.0312 28.625 25.05Z" fill="white"/>
<defs>
<clipPath id="clip0_71_4791">
<rect width="5" height="5" fill="white" transform="translate(52 22)"/>
</clipPath>
</defs>
</svg>
