<svg width="64" height="46" viewBox="0 0 64 46" fill="none" xmlns="http://www.w3.org/2000/svg">
<mask id="mask0_1_301" style="mask-type:alpha" maskUnits="userSpaceOnUse" x="0" y="0" width="64" height="46">
<path d="M-6.10352e-05 5C-6.10352e-05 2.23858 2.23852 0 4.99994 0H58.9999C61.7614 0 63.9999 2.23858 63.9999 5V41C63.9999 43.7614 61.7614 46 58.9999 46H4.99994C2.23852 46 -6.10352e-05 43.7614 -6.10352e-05 41V5Z" fill="#6D3CC7"/>
</mask>
<g mask="url(#mask0_1_301)">
<path d="M-6.10352e-05 5C-6.10352e-05 2.23858 2.23852 0 4.99994 0H58.9999C61.7614 0 63.9999 2.23858 63.9999 5V41C63.9999 43.7614 61.7614 46 58.9999 46H4.99994C2.23852 46 -6.10352e-05 43.7614 -6.10352e-05 41V5Z" fill="#EEF0F6"/>
<path fill-rule="evenodd" clip-rule="evenodd" d="M58.9999 2H4.99994C3.34308 2 1.99994 3.34315 1.99994 5V41C1.99994 42.6569 3.34308 44 4.99994 44H58.9999C60.6568 44 61.9999 42.6569 61.9999 41V5C61.9999 3.34315 60.6568 2 58.9999 2ZM4.99994 0C2.23852 0 -6.10352e-05 2.23858 -6.10352e-05 5V41C-6.10352e-05 43.7614 2.23852 46 4.99994 46H58.9999C61.7614 46 63.9999 43.7614 63.9999 41V5C63.9999 2.23858 61.7614 0 58.9999 0H4.99994Z" fill="#EEF0F6"/>
<path d="M-6.10352e-05 2.29073C-6.10352e-05 1.02559 1.02553 0 2.29067 0H61.7092C62.9743 0 63.9999 1.02559 63.9999 2.29073V8H-6.10352e-05V2.29073Z" fill="#E1DEF4"/>
<path d="M50.1918 3.97336C50.1918 4.92178 49.421 5.69063 48.4703 5.69063C47.5195 5.69063 46.7487 4.92178 46.7487 3.97336C46.7487 3.02495 47.5195 2.2561 48.4703 2.2561C49.421 2.2561 50.1918 3.02495 50.1918 3.97336Z" fill="white"/>
<path d="M55.2742 3.97336C55.2742 4.92178 54.5034 5.69063 53.5526 5.69063C52.6019 5.69063 51.8311 4.92178 51.8311 3.97336C51.8311 3.02495 52.6019 2.2561 53.5526 2.2561C54.5034 2.2561 55.2742 3.02495 55.2742 3.97336Z" fill="white"/>
<path d="M60.3568 3.97336C60.3568 4.92178 59.586 5.69063 58.6353 5.69063C57.6845 5.69063 56.9137 4.92178 56.9137 3.97336C56.9137 3.02495 57.6845 2.2561 58.6353 2.2561C59.586 2.2561 60.3568 3.02495 60.3568 3.97336Z" fill="white"/>
</g>
<path d="M8.99994 35C8.99994 34.4477 9.44765 34 9.99994 34H53.9999C54.5522 34 54.9999 34.4477 54.9999 35V35C54.9999 35.5523 54.5522 36 53.9999 36H9.99994C9.44765 36 8.99994 35.5523 8.99994 35V35Z" fill="#3AC2BA"/>
<path d="M19.9999 35C19.9999 34.4477 20.4477 34 20.9999 34H53.9999C54.5522 34 54.9999 34.4477 54.9999 35V35C54.9999 35.5523 54.5522 36 53.9999 36H20.9999C20.4477 36 19.9999 35.5523 19.9999 35V35Z" fill="white"/>
<path d="M18.9999 33C18.9999 32.4477 19.4477 32 19.9999 32V32C20.5522 32 20.9999 32.4477 20.9999 33V37C20.9999 37.5523 20.5522 38 19.9999 38V38C19.4477 38 18.9999 37.5523 18.9999 37V33Z" fill="#3AC2BA"/>
<path d="M39.1856 23.5C39.1856 27.6421 35.8277 31 31.6856 31C27.5435 31 24.1856 27.6421 24.1856 23.5C24.1856 19.3579 27.5435 16 31.6856 16C35.8277 16 39.1856 19.3579 39.1856 23.5Z" fill="#3AC2BA"/>
<path d="M33.9754 22.5688C34.5867 23.0394 34.5867 23.9614 33.9754 24.432L31.4533 26.3735C30.6803 26.9686 29.5606 26.4175 29.5606 25.4419L29.5606 21.5589C29.5606 20.5833 30.6803 20.0322 31.4533 20.6273L33.9754 22.5688Z" fill="white"/>
</svg>
