<svg width="390" height="281" viewBox="0 0 390 281" fill="none" xmlns="http://www.w3.org/2000/svg">
<path d="M118 13.9937C118 6.2652 124.265 0 131.994 0H258.006C265.735 0 272 6.26519 272 13.9937V267.006C272 274.735 265.735 281 258.006 281H131.994C124.265 281 118 274.735 118 267.006V13.9937Z" fill="#EEF0F6"/>
<path fill-rule="evenodd" clip-rule="evenodd" d="M258.006 4.94382H131.994C126.996 4.94382 122.944 8.99559 122.944 13.9937V267.006C122.944 272.004 126.996 276.056 131.994 276.056H258.006C263.004 276.056 267.056 272.004 267.056 267.006V13.9937C267.056 8.99559 263.004 4.94382 258.006 4.94382ZM131.994 0C124.265 0 118 6.2652 118 13.9937V267.006C118 274.735 124.265 281 131.994 281H258.006C265.735 281 272 274.735 272 267.006V13.9937C272 6.26519 265.735 0 258.006 0H131.994Z" fill="#EEF0F6"/>
<path d="M162 268C162 266.895 162.895 266 164 266H222C223.105 266 224 266.895 224 268C224 269.105 223.105 270 222 270H164C162.895 270 162 269.105 162 268Z" fill="white"/>
<path d="M150 5.0063C150 12.7348 156.265 19 163.994 19H226.006C233.735 19 240 12.7348 240 5.0063V0H150V5.0063Z" fill="#E1DEF4"/>
<path d="M135 44C135 38.4772 139.477 34 145 34H241C246.523 34 251 38.4772 251 44V81C251 86.5228 246.523 91 241 91H145C139.477 91 135 86.5228 135 81V44Z" fill="white"/>
<path d="M188 52C188 50.8954 188.895 50 190 50H205.2C206.305 50 207.2 50.8954 207.2 52C207.2 53.1046 206.305 54 205.2 54H190C188.895 54 188 53.1046 188 52Z" fill="#EEF0F6"/>
<path d="M188 63C188 61.8954 188.895 61 190 61H234C235.105 61 236 61.8954 236 63C236 64.1046 235.105 65 234 65H190C188.895 65 188 64.1046 188 63Z" fill="#EEF0F6"/>
<path d="M188 74C188 72.8954 188.895 72 190 72H198.104C199.209 72 200.104 72.8954 200.104 74C200.104 75.1046 199.209 76 198.104 76H190C188.895 76 188 75.1046 188 74Z" fill="#EEF0F6"/>
<path d="M201.148 74C201.148 72.8954 202.043 72 203.148 72H214.383C215.487 72 216.383 72.8954 216.383 74C216.383 75.1046 215.487 76 214.383 76H203.148C202.043 76 201.148 75.1046 201.148 74Z" fill="#EEF0F6"/>
<path fill-rule="evenodd" clip-rule="evenodd" d="M161.115 54.5385C159.012 54.5385 157.308 56.2432 157.308 58.3462C157.308 60.4491 159.012 62.1538 161.115 62.1538C163.218 62.1538 164.923 60.4491 164.923 58.3462C164.923 56.2432 163.218 54.5385 161.115 54.5385ZM159.385 58.3462C159.385 57.3903 160.16 56.6154 161.115 56.6154C162.071 56.6154 162.846 57.3903 162.846 58.3462C162.846 59.302 162.071 60.0769 161.115 60.0769C160.16 60.0769 159.385 59.302 159.385 58.3462Z" fill="#EEF0F6"/>
<path fill-rule="evenodd" clip-rule="evenodd" d="M168.68 49.1713C167.099 49 165.106 49 162.563 49H162.437C159.894 49 157.901 49 156.32 49.1713C154.706 49.3462 153.398 49.7094 152.282 50.5205C151.606 51.0116 151.012 51.606 150.521 52.2819C149.709 53.3983 149.346 54.7059 149.171 56.3197C149 57.9012 149 59.8945 149 62.4373V62.5627C149 65.1055 149 67.0988 149.171 68.6803C149.346 70.2941 149.709 71.6017 150.521 72.7181C150.538 72.7427 150.556 72.7671 150.574 72.7914C151.055 73.437 151.63 74.0062 152.282 74.4795C153.398 75.2906 154.706 75.6538 156.32 75.8287C157.901 76 159.894 76 162.437 76H162.563C165.106 76 167.099 76 168.68 75.8287C170.294 75.6538 171.602 75.2906 172.718 74.4795C173.394 73.9884 173.988 73.394 174.479 72.7181C175.684 71.0603 175.917 68.9448 175.979 65.9623C176 64.9483 176 63.8019 176 62.5083V62.4373C176 59.8945 176 57.9011 175.829 56.3197C175.654 54.7059 175.291 53.3983 174.479 52.2819C173.988 51.606 173.394 51.0116 172.718 50.5205C171.602 49.7094 170.294 49.3462 168.68 49.1713ZM153.503 52.2008C154.206 51.6897 155.106 51.3919 156.543 51.2362C158 51.0783 159.881 51.0769 162.5 51.0769C165.119 51.0769 167 51.0783 168.457 51.2362C169.894 51.3919 170.794 51.6897 171.497 52.2008C171.997 52.5637 172.436 53.0031 172.799 53.5026C173.31 54.206 173.608 55.1063 173.764 56.5434C173.922 58 173.923 59.8809 173.923 62.5C173.923 62.8531 173.923 63.1931 173.923 63.5209C173.776 63.3966 173.637 63.2874 173.501 63.1904C170.079 60.7611 165.359 61.4044 162.713 64.6608C162.493 64.931 162.283 65.2476 162.045 65.6422L161.872 65.6076C160.35 65.3031 159.418 65.1166 158.543 65.1351C156.205 65.1848 154.007 66.2597 152.533 68.0747C152.158 68.5355 151.842 69.0751 151.461 69.8081C151.366 69.4159 151.292 68.9706 151.236 68.4566C151.078 67 151.077 65.1191 151.077 62.5C151.077 59.8809 151.078 58 151.236 56.5434C151.392 55.1063 151.69 54.206 152.201 53.5026C152.564 53.0031 153.003 52.5637 153.503 52.2008ZM172.298 64.8839C172.641 65.1272 173.037 65.5085 173.892 66.3605C173.812 69.0893 173.538 70.4804 172.799 71.4974C172.436 71.9969 171.997 72.4363 171.497 72.7992C170.794 73.3103 169.894 73.6081 168.457 73.7638C167 73.9217 165.119 73.9231 162.5 73.9231C161.473 73.9231 160.559 73.9229 159.74 73.9131L162.951 68.2329C163.131 67.9145 163.287 67.638 163.427 67.3939C163.869 66.6203 164.108 66.2371 164.325 65.9707C166.281 63.5638 169.769 63.0883 172.298 64.8839ZM157.442 73.7582C157.428 73.784 157.414 73.8102 157.402 73.8367C157.1 73.8171 156.814 73.7932 156.543 73.7638C155.106 73.6081 154.206 73.3103 153.503 72.7992C153.196 72.5767 152.913 72.3255 152.656 72.0494C153.433 70.4937 153.755 69.864 154.145 69.3843C155.235 68.0428 156.859 67.2483 158.587 67.2116C159.12 67.2003 159.709 67.2973 160.955 67.543L157.442 73.7582Z" fill="#EEF0F6"/>
<path d="M135 117C135 111.477 139.477 107 145 107H192C197.523 107 202 111.477 202 117V137C202 142.523 197.523 147 192 147H145C139.477 147 135 142.523 135 137V117Z" fill="white"/>
<path d="M211 117C211 111.477 215.477 107 221 107H241C246.523 107 251 111.477 251 117V137C251 142.523 246.523 147 241 147H221C215.477 147 211 142.523 211 137V117Z" fill="white"/>
<path d="M135 163.5C135 161.567 136.567 160 138.5 160H166.5C168.433 160 170 161.567 170 163.5C170 165.433 168.433 167 166.5 167H138.5C136.567 167 135 165.433 135 163.5Z" fill="white"/>
<path d="M135 179.5C135 177.567 136.567 176 138.5 176H204.5C206.433 176 208 177.567 208 179.5C208 181.433 206.433 183 204.5 183H138.5C136.567 183 135 181.433 135 179.5Z" fill="white"/>
<path d="M135 195.5C135 193.567 136.567 192 138.5 192H150.5C152.433 192 154 193.567 154 195.5C154 197.433 152.433 199 150.5 199H138.5C136.567 199 135 197.433 135 195.5Z" fill="white"/>
<path d="M163 195.5C163 193.567 164.567 192 166.5 192H188.5C190.433 192 192 193.567 192 195.5C192 197.433 190.433 199 188.5 199H166.5C164.567 199 163 197.433 163 195.5Z" fill="white"/>
<path opacity="0.1" d="M135 226C135 220.477 139.477 216 145 216H241C246.523 216 251 220.477 251 226V247C251 252.523 246.523 257 241 257H145C139.477 257 135 252.523 135 247V226Z" fill="#713EE6"/>
<path d="M183 226.083C183 224.933 183.933 224 185.083 224H205.114C206.265 224 207.198 224.933 207.198 226.083C207.198 227.234 206.265 228.167 205.114 228.167H185.083C183.933 228.167 183 227.234 183 226.083Z" fill="white"/>
<path d="M183 236.5C183 235.35 183.933 234.417 185.083 234.417H236.917C238.067 234.417 239 235.35 239 236.5C239 237.651 238.067 238.584 236.917 238.584H185.083C183.933 238.584 183 237.651 183 236.5Z" fill="white"/>
<path d="M183 246.917C183 245.767 183.933 244.834 185.083 244.834H194.744C195.894 244.834 196.827 245.767 196.827 246.917C196.827 248.068 195.894 249.001 194.744 249.001H185.083C183.933 249.001 183 248.068 183 246.917Z" fill="white"/>
<path d="M200.284 246.917C200.284 245.767 201.217 244.834 202.368 244.834H214.793C215.944 244.834 216.877 245.767 216.877 246.917C216.877 248.068 215.944 249.001 214.793 249.001H202.368C201.217 249.001 200.284 248.068 200.284 246.917Z" fill="white"/>
<path d="M220.333 246.917C220.333 245.767 221.266 244.834 222.417 244.834H230.003C231.154 244.834 232.087 245.767 232.087 246.917C232.087 248.068 231.154 249.001 230.003 249.001H222.417C221.266 249.001 220.333 248.068 220.333 246.917Z" fill="white"/>
<path d="M172 236.5C172 243.404 166.404 249 159.5 249C152.596 249 147 243.404 147 236.5C147 229.596 152.596 224 159.5 224C166.404 224 172 229.596 172 236.5Z" fill="white"/>
<path d="M163.459 235.057C164.406 235.786 164.406 237.214 163.459 237.943L158.89 241.46C157.693 242.382 155.958 241.528 155.958 240.018L155.958 232.982C155.958 231.471 157.693 230.618 158.89 231.54L163.459 235.057Z" fill="#EEF0F6"/>
<path d="M135 120C135 114.477 139.477 110 145 110H241C246.523 110 251 114.477 251 120V234C251 239.523 246.523 244 241 244H145C139.477 244 135 239.523 135 234V120Z" fill="#3AC2BA"/>
<path fill-rule="evenodd" clip-rule="evenodd" d="M190.641 140.436C187.058 140.436 184.154 143.34 184.154 146.923C184.154 150.506 187.058 153.41 190.641 153.41C194.224 153.41 197.128 150.506 197.128 146.923C197.128 143.34 194.224 140.436 190.641 140.436ZM187.692 146.923C187.692 145.295 189.012 143.974 190.641 143.974C192.27 143.974 193.59 145.295 193.59 146.923C193.59 148.552 192.27 149.872 190.641 149.872C189.012 149.872 187.692 148.552 187.692 146.923Z" fill="white"/>
<path fill-rule="evenodd" clip-rule="evenodd" d="M203.529 131.292C200.835 131 197.439 131 193.107 131H192.893C188.561 131 185.165 131 182.471 131.292C179.721 131.59 177.493 132.209 175.591 133.591C174.44 134.427 173.427 135.44 172.591 136.591C171.209 138.493 170.59 140.721 170.292 143.471C170 146.165 170 149.561 170 153.893V154.107C170 158.439 170 161.835 170.292 164.529C170.59 167.279 171.209 169.507 172.591 171.409C172.621 171.45 172.651 171.492 172.682 171.533C173.501 172.633 174.482 173.603 175.591 174.409C177.493 175.791 179.721 176.41 182.471 176.708C185.165 177 188.561 177 192.893 177H193.107C197.439 177 200.835 177 203.529 176.708C206.279 176.41 208.507 175.791 210.409 174.409C211.56 173.573 212.573 172.56 213.409 171.409C215.462 168.584 215.859 164.98 215.964 159.899C216 158.171 216 156.218 216 154.014V153.893C216 149.561 216 146.165 215.708 143.471C215.41 140.721 214.791 138.493 213.409 136.591C212.573 135.44 211.56 134.427 210.409 133.591C208.507 132.209 206.279 131.59 203.529 131.292ZM177.671 136.453C178.87 135.583 180.403 135.075 182.852 134.81C185.333 134.541 188.538 134.538 193 134.538C197.462 134.538 200.667 134.541 203.148 134.81C205.597 135.075 207.13 135.583 208.329 136.453C209.18 137.072 209.928 137.82 210.547 138.671C211.417 139.87 211.925 141.403 212.19 143.852C212.459 146.333 212.462 149.538 212.462 154C212.462 154.602 212.462 155.181 212.461 155.739C212.211 155.528 211.974 155.341 211.742 155.176C205.912 151.037 197.871 152.133 193.363 157.681C192.989 158.142 192.63 158.681 192.224 159.353L191.929 159.294C189.337 158.776 187.749 158.458 186.258 158.49C182.275 158.574 178.531 160.405 176.019 163.498C175.381 164.283 174.842 165.202 174.193 166.451C174.03 165.783 173.905 165.024 173.81 164.148C173.541 161.667 173.538 158.462 173.538 154C173.538 149.538 173.541 146.333 173.81 143.852C174.075 141.403 174.583 139.87 175.453 138.671C176.072 137.82 176.82 137.072 177.671 136.453ZM209.693 158.061C210.277 158.476 210.953 159.126 212.408 160.577C212.273 165.226 211.806 167.596 210.547 169.329C209.928 170.18 209.18 170.928 208.329 171.547C207.13 172.417 205.597 172.925 203.148 173.19C200.667 173.459 197.462 173.462 193 173.462C191.25 173.462 189.694 173.461 188.298 173.444L193.768 163.767C194.075 163.225 194.341 162.754 194.579 162.338C195.332 161.02 195.74 160.367 196.109 159.913C199.441 155.812 205.385 155.002 209.693 158.061ZM184.383 173.181C184.358 173.225 184.335 173.269 184.315 173.314C183.8 173.281 183.313 173.24 182.852 173.19C180.403 172.925 178.87 172.417 177.671 171.547C177.149 171.168 176.666 170.74 176.228 170.269C177.553 167.619 178.101 166.546 178.765 165.729C180.622 163.443 183.39 162.09 186.334 162.027C187.241 162.008 188.245 162.173 190.368 162.592L184.383 173.181Z" fill="white"/>
<path d="M150 196.5C150 195.119 151.119 194 152.5 194H182.912C184.292 194 185.412 195.119 185.412 196.5C185.412 197.881 184.292 199 182.912 199H152.5C151.119 199 150 197.881 150 196.5Z" fill="white"/>
<path d="M150 211.5C150 210.119 151.119 209 152.5 209H233.5C234.881 209 236 210.119 236 211.5C236 212.881 234.881 214 233.5 214H152.5C151.119 214 150 212.881 150 211.5Z" fill="white"/>
<path d="M150 226.5C150 225.119 151.119 224 152.5 224H169C170.381 224 171.5 225.119 171.5 226.5C171.5 227.881 170.381 229 169 229H152.5C151.119 229 150 227.881 150 226.5Z" fill="white"/>
<path d="M174.029 226.5C174.029 225.119 175.149 224 176.529 224H198.72C200.101 224 201.22 225.119 201.22 226.5C201.22 227.881 200.101 229 198.72 229H176.529C175.149 229 174.029 227.881 174.029 226.5Z" fill="white"/>
<path d="M203.75 226.5C203.75 225.119 204.869 224 206.25 224H221.485C222.866 224 223.985 225.119 223.985 226.5C223.985 227.881 222.866 229 221.485 229H206.25C204.869 229 203.75 227.881 203.75 226.5Z" fill="white"/>
<path d="M150.765 118.765C150.912 118.619 150.912 118.381 150.765 118.235C150.619 118.088 150.381 118.088 150.235 118.235L147 121.47L143.765 118.235C143.619 118.088 143.381 118.088 143.235 118.235C143.088 118.381 143.088 118.619 143.235 118.765L146.47 122L143.235 125.235C143.088 125.381 143.088 125.619 143.235 125.765C143.381 125.912 143.619 125.912 143.765 125.765L147 122.53L150.235 125.765C150.381 125.912 150.619 125.912 150.765 125.765C150.912 125.619 150.912 125.381 150.765 125.235L147.53 122L150.765 118.765Z" fill="white"/>
<path fill-rule="evenodd" clip-rule="evenodd" d="M147 120.055L149.528 117.528C150.065 116.991 150.935 116.991 151.472 117.528C152.009 118.065 152.009 118.935 151.472 119.472L148.945 122L151.472 124.528C152.009 125.065 152.009 125.935 151.472 126.472C150.935 127.009 150.065 127.009 149.528 126.472L147 123.945L144.472 126.472C143.935 127.009 143.065 127.009 142.528 126.472C141.991 125.935 141.991 125.065 142.528 124.528L145.055 122L142.528 119.472C141.991 118.935 141.991 118.065 142.528 117.528C143.065 116.991 143.935 116.991 144.472 117.528L147 120.055ZM150.058 125.942C150.058 125.942 150.058 125.942 150.058 125.941L150.058 125.942ZM150.941 118.942L150.942 118.942L150.941 118.942Z" fill="white"/>
</svg>
