<svg width="44" height="44" viewBox="0 0 44 44" fill="none" xmlns="http://www.w3.org/2000/svg">
<rect width="44" height="44" rx="12" fill="#3AC2BA"/>
<path fill-rule="evenodd" clip-rule="evenodd" d="M26.6648 13.8023C26.3492 13.7523 25.9577 13.75 25 13.75H24C23.0424 13.75 22.1607 14.0658 21.4504 14.5993C21.1192 14.8481 20.6491 14.7813 20.4003 14.4501C20.1516 14.1189 20.2184 13.6487 20.5496 13.4C21.5106 12.6781 22.7064 12.25 24 12.25L25.0808 12.25C25.9328 12.2499 26.4518 12.2499 26.8995 12.3208C29.3599 12.7105 31.2895 14.6401 31.6792 17.1005C31.7501 17.5482 31.7501 18.0672 31.75 18.9192V25.0808C31.7501 25.9328 31.7501 26.4518 31.6792 26.8995C31.2895 29.3599 29.3599 31.2895 26.8995 31.6792C26.4518 31.7501 25.9329 31.7501 25.0809 31.75L24 31.75C22.7064 31.75 21.5106 31.3219 20.5496 30.6C20.2184 30.3513 20.1516 29.8811 20.4003 29.5499C20.6491 29.2188 21.1192 29.1519 21.4504 29.4007C22.1607 29.9342 23.0424 30.25 24 30.25H25C25.9577 30.25 26.3492 30.2477 26.6648 30.1977C28.4834 29.9097 29.9096 28.4834 30.1977 26.6649C30.2477 26.3492 30.25 25.9577 30.25 25V19C30.25 18.0423 30.2477 17.6508 30.1977 17.3352C29.9096 15.5166 28.4834 14.0904 26.6648 13.8023ZM22.4123 17.534C22.6697 17.2095 23.1414 17.155 23.466 17.4123L25.2648 18.8386C25.9372 19.3718 26.4922 19.8117 26.8875 20.2055C27.2932 20.6096 27.6294 21.0582 27.7208 21.6313C27.7402 21.7534 27.75 21.8766 27.75 22C27.75 22.1234 27.7402 22.2466 27.7208 22.3687C27.6294 22.9418 27.2932 23.3904 26.8875 23.7945C26.4922 24.1883 25.9373 24.6282 25.2648 25.1614L23.466 26.5877C23.1414 26.845 22.6697 26.7905 22.4123 26.466C22.155 26.1414 22.2095 25.6697 22.534 25.4123L24.297 24.0145C25.001 23.4563 25.483 23.0727 25.8105 22.75L13 22.75C12.5858 22.75 12.25 22.4142 12.25 22C12.25 21.5858 12.5858 21.25 13 21.25L25.8105 21.25C25.483 20.9274 25.001 20.5438 24.297 19.9855L22.534 18.5877C22.2095 18.3303 22.155 17.8586 22.4123 17.534Z" fill="white"/>
</svg>
