<svg width="44" height="44" viewBox="0 0 44 44" fill="none" xmlns="http://www.w3.org/2000/svg">
<rect width="44" height="44" rx="12" fill="#713EE6"/>
<path fill-rule="evenodd" clip-rule="evenodd" d="M18.1454 13.2708C17.8408 13.25 17.4697 13.25 17.0253 13.25H16.9748C16.5303 13.25 16.1592 13.25 15.8546 13.2708C15.5375 13.2924 15.238 13.339 14.9476 13.4593C14.2738 13.7384 13.7384 14.2738 13.4593 14.9476C13.339 15.238 13.2924 15.5375 13.2708 15.8546C13.25 16.1592 13.25 16.5303 13.25 16.9747V17.0253C13.25 17.4697 13.25 17.8408 13.2708 18.1454C13.2924 18.4625 13.339 18.762 13.4593 19.0524C13.7384 19.7262 14.2738 20.2616 14.9476 20.5407C15.238 20.661 15.5375 20.7076 15.8546 20.7292C16.1592 20.75 16.5303 20.75 16.9747 20.75H17.0253C17.4697 20.75 17.8408 20.75 18.1454 20.7292C18.4625 20.7076 18.762 20.661 19.0524 20.5407C19.7262 20.2616 20.2616 19.7262 20.5407 19.0524C20.661 18.762 20.7076 18.4625 20.7292 18.1454C20.75 17.8408 20.75 17.4697 20.75 17.0253V16.9747C20.75 16.5303 20.75 16.1592 20.7292 15.8546C20.7076 15.5375 20.661 15.238 20.5407 14.9476C20.2616 14.2738 19.7262 13.7384 19.0524 13.4593C18.762 13.339 18.4625 13.2924 18.1454 13.2708ZM15.5216 14.8452C15.5988 14.8132 15.716 14.7837 15.9567 14.7673C16.2042 14.7504 16.5238 14.75 17 14.75C17.4762 14.75 17.7958 14.7504 18.0433 14.7673C18.284 14.7837 18.4012 14.8132 18.4784 14.8452C18.7846 14.972 19.028 15.2154 19.1549 15.5216C19.1868 15.5988 19.2163 15.716 19.2327 15.9567C19.2496 16.2042 19.25 16.5238 19.25 17C19.25 17.4762 19.2496 17.7958 19.2327 18.0433C19.2163 18.284 19.1868 18.4012 19.1549 18.4784C19.028 18.7846 18.7846 19.028 18.4784 19.1549C18.4012 19.1868 18.284 19.2163 18.0433 19.2327C17.7958 19.2496 17.4762 19.25 17 19.25C16.5238 19.25 16.2042 19.2496 15.9567 19.2327C15.716 19.2163 15.5988 19.1868 15.5216 19.1549C15.2154 19.028 14.972 18.7846 14.8452 18.4784C14.8132 18.4012 14.7837 18.284 14.7673 18.0433C14.7504 17.7958 14.75 17.4762 14.75 17C14.75 16.5238 14.7504 16.2042 14.7673 15.9567C14.7837 15.716 14.8132 15.5988 14.8452 15.5216C14.972 15.2154 15.2154 14.972 15.5216 14.8452Z" fill="white"/>
<path fill-rule="evenodd" clip-rule="evenodd" d="M28.1454 13.2708C27.8408 13.25 27.4697 13.25 27.0253 13.25H26.9748C26.5303 13.25 26.1592 13.25 25.8546 13.2708C25.5375 13.2924 25.238 13.339 24.9476 13.4593C24.2738 13.7384 23.7384 14.2738 23.4593 14.9476C23.339 15.238 23.2924 15.5375 23.2708 15.8546C23.25 16.1592 23.25 16.5303 23.25 16.9747V17.0253C23.25 17.4697 23.25 17.8408 23.2708 18.1454C23.2924 18.4625 23.339 18.762 23.4593 19.0524C23.7384 19.7262 24.2738 20.2616 24.9476 20.5407C25.238 20.661 25.5375 20.7076 25.8546 20.7292C26.1592 20.75 26.5303 20.75 26.9747 20.75H27.0253C27.4697 20.75 27.8408 20.75 28.1454 20.7292C28.4625 20.7076 28.762 20.661 29.0524 20.5407C29.7262 20.2616 30.2616 19.7262 30.5407 19.0524C30.661 18.762 30.7076 18.4625 30.7292 18.1454C30.75 17.8408 30.75 17.4697 30.75 17.0253V16.9747C30.75 16.5303 30.75 16.1592 30.7292 15.8546C30.7076 15.5375 30.661 15.238 30.5407 14.9476C30.2616 14.2738 29.7262 13.7384 29.0524 13.4593C28.762 13.339 28.4625 13.2924 28.1454 13.2708ZM25.5216 14.8452C25.5988 14.8132 25.716 14.7837 25.9567 14.7673C26.2042 14.7504 26.5238 14.75 27 14.75C27.4762 14.75 27.7958 14.7504 28.0433 14.7673C28.284 14.7837 28.4012 14.8132 28.4784 14.8452C28.7846 14.972 29.028 15.2154 29.1549 15.5216C29.1868 15.5988 29.2163 15.716 29.2327 15.9567C29.2496 16.2042 29.25 16.5238 29.25 17C29.25 17.4762 29.2496 17.7958 29.2327 18.0433C29.2163 18.284 29.1868 18.4012 29.1549 18.4784C29.028 18.7846 28.7846 19.028 28.4784 19.1549C28.4012 19.1868 28.284 19.2163 28.0433 19.2327C27.7958 19.2496 27.4762 19.25 27 19.25C26.5238 19.25 26.2042 19.2496 25.9567 19.2327C25.716 19.2163 25.5988 19.1868 25.5216 19.1549C25.2154 19.028 24.972 18.7846 24.8452 18.4784C24.8132 18.4012 24.7837 18.284 24.7673 18.0433C24.7504 17.7958 24.75 17.4762 24.75 17C24.75 16.5238 24.7504 16.2042 24.7673 15.9567C24.7837 15.716 24.8132 15.5988 24.8452 15.5216C24.972 15.2154 25.2154 14.972 25.5216 14.8452Z" fill="white"/>
<path fill-rule="evenodd" clip-rule="evenodd" d="M18.1454 23.2708C17.8408 23.25 17.4697 23.25 17.0253 23.25H16.9747C16.5303 23.25 16.1592 23.25 15.8546 23.2708C15.5375 23.2924 15.238 23.339 14.9476 23.4593C14.2738 23.7384 13.7384 24.2738 13.4593 24.9476C13.339 25.238 13.2924 25.5375 13.2708 25.8546C13.25 26.1592 13.25 26.5303 13.25 26.9747V27.0253C13.25 27.4697 13.25 27.8408 13.2708 28.1454C13.2924 28.4625 13.339 28.762 13.4593 29.0524C13.7384 29.7262 14.2738 30.2616 14.9476 30.5407C15.238 30.661 15.5375 30.7076 15.8546 30.7292C16.1592 30.75 16.5303 30.75 16.9747 30.75H17.0253C17.4697 30.75 17.8408 30.75 18.1454 30.7292C18.4625 30.7076 18.762 30.661 19.0524 30.5407C19.7262 30.2616 20.2616 29.7262 20.5407 29.0524C20.661 28.762 20.7076 28.4625 20.7292 28.1454C20.75 27.8408 20.75 27.4697 20.75 27.0253V26.9747C20.75 26.5303 20.75 26.1592 20.7292 25.8546C20.7076 25.5375 20.661 25.238 20.5407 24.9476C20.2616 24.2738 19.7262 23.7384 19.0524 23.4593C18.762 23.339 18.4625 23.2924 18.1454 23.2708ZM15.5216 24.8452C15.5988 24.8132 15.716 24.7837 15.9567 24.7673C16.2042 24.7504 16.5238 24.75 17 24.75C17.4762 24.75 17.7958 24.7504 18.0433 24.7673C18.284 24.7837 18.4012 24.8132 18.4784 24.8452C18.7846 24.972 19.028 25.2154 19.1549 25.5216C19.1868 25.5988 19.2163 25.716 19.2327 25.9567C19.2496 26.2042 19.25 26.5238 19.25 27C19.25 27.4762 19.2496 27.7958 19.2327 28.0433C19.2163 28.284 19.1868 28.4012 19.1549 28.4784C19.028 28.7846 18.7846 29.028 18.4784 29.1549C18.4012 29.1868 18.284 29.2163 18.0433 29.2327C17.7958 29.2496 17.4762 29.25 17 29.25C16.5238 29.25 16.2042 29.2496 15.9567 29.2327C15.716 29.2163 15.5988 29.1868 15.5216 29.1549C15.2154 29.028 14.972 28.7846 14.8452 28.4784C14.8132 28.4012 14.7837 28.284 14.7673 28.0433C14.7504 27.7958 14.75 27.4762 14.75 27C14.75 26.5238 14.7504 26.2042 14.7673 25.9567C14.7837 25.716 14.8132 25.5988 14.8452 25.5216C14.972 25.2154 15.2154 24.972 15.5216 24.8452Z" fill="white"/>
<path fill-rule="evenodd" clip-rule="evenodd" d="M28.1454 23.2708C27.8408 23.25 27.4697 23.25 27.0253 23.25H26.9747C26.5303 23.25 26.1592 23.25 25.8546 23.2708C25.5375 23.2924 25.238 23.339 24.9476 23.4593C24.2738 23.7384 23.7384 24.2738 23.4593 24.9476C23.339 25.238 23.2924 25.5375 23.2708 25.8546C23.25 26.1592 23.25 26.5303 23.25 26.9747V27.0253C23.25 27.4697 23.25 27.8408 23.2708 28.1454C23.2924 28.4625 23.339 28.762 23.4593 29.0524C23.7384 29.7262 24.2738 30.2616 24.9476 30.5407C25.238 30.661 25.5375 30.7076 25.8546 30.7292C26.1592 30.75 26.5303 30.75 26.9747 30.75H27.0253C27.4697 30.75 27.8408 30.75 28.1454 30.7292C28.4625 30.7076 28.762 30.661 29.0524 30.5407C29.7262 30.2616 30.2616 29.7262 30.5407 29.0524C30.661 28.762 30.7076 28.4625 30.7292 28.1454C30.75 27.8408 30.75 27.4697 30.75 27.0253V26.9747C30.75 26.5303 30.75 26.1592 30.7292 25.8546C30.7076 25.5375 30.661 25.238 30.5407 24.9476C30.2616 24.2738 29.7262 23.7384 29.0524 23.4593C28.762 23.339 28.4625 23.2924 28.1454 23.2708ZM25.5216 24.8452C25.5988 24.8132 25.716 24.7837 25.9567 24.7673C26.2042 24.7504 26.5238 24.75 27 24.75C27.4762 24.75 27.7958 24.7504 28.0433 24.7673C28.284 24.7837 28.4012 24.8132 28.4784 24.8452C28.7846 24.972 29.028 25.2154 29.1549 25.5216C29.1868 25.5988 29.2163 25.716 29.2327 25.9567C29.2496 26.2042 29.25 26.5238 29.25 27C29.25 27.4762 29.2496 27.7958 29.2327 28.0433C29.2163 28.284 29.1868 28.4012 29.1549 28.4784C29.028 28.7846 28.7846 29.028 28.4784 29.1549C28.4012 29.1868 28.284 29.2163 28.0433 29.2327C27.7958 29.2496 27.4762 29.25 27 29.25C26.5238 29.25 26.2042 29.2496 25.9567 29.2327C25.716 29.2163 25.5988 29.1868 25.5216 29.1549C25.2154 29.028 24.972 28.7846 24.8452 28.4784C24.8132 28.4012 24.7837 28.284 24.7673 28.0433C24.7504 27.7958 24.75 27.4762 24.75 27C24.75 26.5238 24.7504 26.2042 24.7673 25.9567C24.7837 25.716 24.8132 25.5988 24.8452 25.5216C24.972 25.2154 25.2154 24.972 25.5216 24.8452Z" fill="white"/>
</svg>
