<svg width="16" height="16" viewBox="0 0 16 16" fill="none" xmlns="http://www.w3.org/2000/svg">
<path d="M11.6883 6.85197C11.8827 6.65584 11.8813 6.33926 11.6851 6.14487C11.489 5.95048 11.1724 5.9519 10.978 6.14803L9.81317 7.32334C9.34041 7.80034 9.01505 8.12754 8.73937 8.34894C8.47157 8.564 8.29956 8.63778 8.14551 8.65742C8.04878 8.66975 7.9509 8.66975 7.85417 8.65742C7.70012 8.63778 7.5281 8.564 7.26031 8.34894C6.98462 8.12754 6.65926 7.80034 6.1865 7.32334L5.02163 6.14803C4.82724 5.9519 4.51066 5.95048 4.31453 6.14487C4.1184 6.33926 4.11699 6.65584 4.31138 6.85197L5.49723 8.04846C5.94386 8.49911 6.3089 8.86743 6.63414 9.12863C6.97236 9.40025 7.31565 9.59687 7.72773 9.64939C7.90841 9.67242 8.09126 9.67242 8.27195 9.64939C8.68402 9.59687 9.02732 9.40025 9.36553 9.12863C9.69078 8.86742 10.0558 8.49911 10.5024 8.04846L11.6883 6.85197Z" fill="#4A4A49"/>
</svg>
