<svg width="24" height="25" viewBox="0 0 24 25" fill="none" xmlns="http://www.w3.org/2000/svg">
<path d="M17.5327 14.1918C17.8243 14.486 17.8222 14.9608 17.528 15.2524C17.2338 15.544 16.7589 15.5419 16.4673 15.2477L14.72 13.4847C14.0109 12.7692 13.5228 12.2784 13.1093 11.9463C12.7076 11.6237 12.4496 11.5131 12.2185 11.4836C12.0734 11.4651 11.9266 11.4651 11.7815 11.4836C11.5504 11.5131 11.2924 11.6237 10.8907 11.9463C10.4772 12.2784 9.98914 12.7692 9.28 13.4847L7.53269 15.2477C7.24111 15.5419 6.76624 15.544 6.47204 15.2524C6.17784 14.9608 6.17573 14.486 6.46731 14.1918L8.24609 12.397C8.91604 11.7211 9.46359 11.1686 9.95146 10.7768C10.4588 10.3694 10.9737 10.0744 11.5918 9.99564C11.8629 9.96109 12.1371 9.96109 12.4082 9.99564C13.0263 10.0744 13.5412 10.3694 14.0485 10.7768C14.5364 11.1686 15.084 11.7211 15.7539 12.397L17.5327 14.1918Z" fill="#1D1D1B"/>
</svg>
