<svg width="4" height="8" viewBox="0 0 4 8" fill="none" xmlns="http://www.w3.org/2000/svg">
<path d="M3.14803 7.68842C3.34416 7.88281 3.66074 7.8814 3.85513 7.68526C4.04952 7.48913 4.0481 7.17255 3.85197 6.97816L2.67666 5.81329C2.19966 5.34053 1.87246 5.01517 1.65106 4.73949C1.436 4.47169 1.36222 4.29968 1.34258 4.14563C1.33025 4.0489 1.33025 3.95102 1.34258 3.85429C1.36222 3.70024 1.436 3.52823 1.65106 3.26043C1.87246 2.98474 2.19966 2.65938 2.67666 2.18663L3.85197 1.02175C4.0481 0.827364 4.04952 0.510785 3.85513 0.314653C3.66074 0.118522 3.34416 0.11711 3.14803 0.311499L1.95154 1.49736C1.50089 1.94399 1.13257 2.30902 0.87137 2.63427C0.599751 2.97248 0.403129 3.31578 0.350605 3.72785C0.327575 3.90854 0.327576 4.09138 0.350605 4.27207C0.403129 4.68414 0.599751 5.02744 0.871371 5.36565C1.13257 5.6909 1.50089 6.05593 1.95154 6.50256L3.14803 7.68842Z" fill="#1D1D1B"/>
</svg>
