<svg width="181" height="56" viewBox="0 0 181 56" fill="none" xmlns="http://www.w3.org/2000/svg">
<g clip-path="url(#clip0_1_1036)">
<path d="M40.5737 15.9214H34.6698L28.1553 34.8204L21.4032 15.9214H15.4654V40.0796H19.4692V21.452L26.357 40.0796H29.8178L36.536 21.452V40.0796H40.5737V15.9214Z" fill="#1D1D1B"/>
<path fill-rule="evenodd" clip-rule="evenodd" d="M28.0196 51.3201C40.8986 51.3201 51.3391 40.8795 51.3391 28.0005C51.3391 15.1215 40.8986 4.68098 28.0196 4.68098C15.1405 4.68098 4.70002 15.1215 4.70002 28.0005C4.70002 40.8795 15.1405 51.3201 28.0196 51.3201ZM28.0196 56.0001C43.4833 56.0001 56.0191 43.4642 56.0191 28.0005C56.0191 12.5368 43.4833 0.000976562 28.0196 0.000976562C12.5558 0.000976562 0.0200195 12.5368 0.0200195 28.0005C0.0200195 43.4642 12.5558 56.0001 28.0196 56.0001Z" fill="#713EE6"/>
<path d="M81.2146 17.684H76.2626L70.7984 33.536L65.135 17.684H60.1545V37.9472H63.5128V22.3229L69.29 37.9472H72.1929L77.8279 22.3229V37.9472H81.2146V17.684Z" fill="#1D1D1B"/>
<path d="M91.8207 22.8352C87.2671 22.8352 84.3358 25.8804 84.3358 30.6046C84.3358 35.3858 87.2387 38.4025 91.8207 38.4025C96.3173 38.4025 99.1632 35.3858 99.1632 30.6046C99.1632 25.8519 96.3173 22.8352 91.8207 22.8352ZM91.7637 25.3965C94.3251 25.3965 95.8904 27.3603 95.8904 30.5762C95.8904 33.8775 94.3536 35.8696 91.7922 35.8696C89.1739 35.8696 87.6086 33.9059 87.6086 30.6046C87.6086 27.3887 89.2024 25.3965 91.7637 25.3965Z" fill="#1D1D1B"/>
<path d="M105.133 17.684H101.917V37.9472H104.963V35.955C106.016 37.6626 107.78 38.3456 109.772 38.3456C113.785 38.3456 116.432 35.2151 116.432 30.4908C116.432 25.9088 113.87 22.8921 109.943 22.8921C108.065 22.8921 106.243 23.6036 105.133 25.1689V17.684ZM109.118 25.4819C111.594 25.4819 113.159 27.4456 113.159 30.5477C113.159 33.6783 111.565 35.7274 109.118 35.7274C106.585 35.7274 105.019 33.7921 105.019 30.6331C105.019 27.4172 106.556 25.4535 109.118 25.4819Z" fill="#1D1D1B"/>
<path d="M122.617 17.5986H119.372V20.7861H122.617V17.5986ZM122.617 23.2621H119.372V37.9472H122.617V23.2621Z" fill="#1D1D1B"/>
<path d="M124.672 23.2621L130.022 37.9757H133.665L138.93 23.2621H135.572L131.957 34.5605L128.201 23.2621H124.672Z" fill="#1D1D1B"/>
<path d="M144.239 17.5986H140.995V20.7861H144.239V17.5986ZM144.239 23.2621H140.995V37.9472H144.239V23.2621Z" fill="#1D1D1B"/>
<path d="M154.576 22.8352C150.023 22.8352 147.091 25.8804 147.091 30.6046C147.091 35.3858 149.994 38.4025 154.576 38.4025C159.073 38.4025 161.919 35.3858 161.919 30.6046C161.919 25.8519 159.073 22.8352 154.576 22.8352ZM154.519 25.3965C157.081 25.3965 158.646 27.3603 158.646 30.5762C158.646 33.8775 157.109 35.8696 154.548 35.8696C151.929 35.8696 150.364 33.9059 150.364 30.6046C150.364 27.3887 151.958 25.3965 154.519 25.3965Z" fill="#1D1D1B"/>
<path d="M167.746 23.2621H164.673V37.9472H167.917V30.0354C167.917 26.6488 169.539 25.5673 171.503 25.5673C174.093 25.5673 174.349 27.3887 174.349 29.4093V37.9472H177.593V28.1571C177.593 24.8274 176 22.8636 172.613 22.8636C170.422 22.8636 168.97 23.6605 167.746 25.425V23.2621Z" fill="#1D1D1B"/>
</g>
<defs>
<clipPath id="clip0_1_1036">
<rect width="180" height="56" fill="white" transform="translate(0.0200195)"/>
</clipPath>
</defs>
</svg>
