<svg width="180" height="56" viewBox="0 0 180 56" fill="none" xmlns="http://www.w3.org/2000/svg">
<path d="M40.5536 15.9214H34.6497L28.1352 34.8204L21.3831 15.9214H15.4453V40.0796H19.4491V21.452L26.3369 40.0796H29.7977L36.5159 21.452V40.0796H40.5536V15.9214Z" fill="#1D1D1B"/>
<path fill-rule="evenodd" clip-rule="evenodd" d="M27.9995 51.3201C40.8786 51.3201 51.3191 40.8795 51.3191 28.0005C51.3191 15.1215 40.8786 4.68098 27.9995 4.68098C15.1205 4.68098 4.68 15.1215 4.68 28.0005C4.68 40.8795 15.1205 51.3201 27.9995 51.3201ZM27.9995 56.0001C43.4633 56.0001 55.9991 43.4642 55.9991 28.0005C55.9991 12.5368 43.4633 0.000976562 27.9995 0.000976562C12.5358 0.000976562 0 12.5368 0 28.0005C0 43.4642 12.5358 56.0001 27.9995 56.0001Z" fill="#713EE6"/>
<path d="M81.1948 17.684H76.2429L70.7786 33.536L65.1152 17.684H60.1348V37.9472H63.493V22.3229L69.2703 37.9472H72.1731L77.8081 22.3229V37.9472H81.1948V17.684Z" fill="#1D1D1B"/>
<path d="M91.8009 22.8352C87.2474 22.8352 84.316 25.8804 84.316 30.6046C84.316 35.3858 87.2189 38.4025 91.8009 38.4025C96.2975 38.4025 99.1434 35.3858 99.1434 30.6046C99.1434 25.8519 96.2975 22.8352 91.8009 22.8352ZM91.744 25.3965C94.3053 25.3965 95.8706 27.3603 95.8706 30.5762C95.8706 33.8775 94.3338 35.8696 91.7724 35.8696C89.1541 35.8696 87.5889 33.9059 87.5889 30.6046C87.5889 27.3887 89.1826 25.3965 91.744 25.3965Z" fill="#1D1D1B"/>
<path d="M105.113 17.684H101.898V37.9472H104.943V35.955C105.996 37.6626 107.76 38.3456 109.752 38.3456C113.765 38.3456 116.412 35.2151 116.412 30.4908C116.412 25.9088 113.851 22.8921 109.923 22.8921C108.045 22.8921 106.223 23.6036 105.113 25.1689V17.684ZM109.098 25.4819C111.574 25.4819 113.139 27.4456 113.139 30.5477C113.139 33.6783 111.545 35.7274 109.098 35.7274C106.565 35.7274 105 33.7921 105 30.6331C105 27.4172 106.536 25.4535 109.098 25.4819Z" fill="#1D1D1B"/>
<path d="M122.597 17.5986H119.353V20.7861H122.597V17.5986ZM122.597 23.2621H119.353V37.9472H122.597V23.2621Z" fill="#1D1D1B"/>
<path d="M124.652 23.2621L130.002 37.9757H133.645L138.91 23.2621H135.552L131.938 34.5605L128.181 23.2621H124.652Z" fill="#1D1D1B"/>
<path d="M144.22 17.5986H140.975V20.7861H144.22V17.5986ZM144.22 23.2621H140.975V37.9472H144.22V23.2621Z" fill="#1D1D1B"/>
<path d="M154.556 22.8352C150.003 22.8352 147.072 25.8804 147.072 30.6046C147.072 35.3858 149.974 38.4025 154.556 38.4025C159.053 38.4025 161.899 35.3858 161.899 30.6046C161.899 25.8519 159.053 22.8352 154.556 22.8352ZM154.499 25.3965C157.061 25.3965 158.626 27.3603 158.626 30.5762C158.626 33.8775 157.089 35.8696 154.528 35.8696C151.91 35.8696 150.344 33.9059 150.344 30.6046C150.344 27.3887 151.938 25.3965 154.499 25.3965Z" fill="#1D1D1B"/>
<path d="M167.727 23.2621H164.653V37.9472H167.897V30.0354C167.897 26.6488 169.52 25.5673 171.483 25.5673C174.073 25.5673 174.329 27.3887 174.329 29.4093V37.9472H177.574V28.1571C177.574 24.8274 175.98 22.8636 172.593 22.8636C170.402 22.8636 168.95 23.6605 167.727 25.425V23.2621Z" fill="#1D1D1B"/>
</svg>
