<svg width="56" height="56" viewBox="0 0 56 56" fill="none" xmlns="http://www.w3.org/2000/svg">
<g clip-path="url(#clip0_1_1777)">
<path d="M40.5536 15.9214H34.6497L28.1352 34.8204L21.3831 15.9214H15.4453V40.0796H19.4491V21.452L26.3369 40.0796H29.7977L36.5159 21.452V40.0796H40.5536V15.9214Z" fill="#1D1D1B"/>
<path fill-rule="evenodd" clip-rule="evenodd" d="M27.9995 51.3201C40.8786 51.3201 51.3191 40.8795 51.3191 28.0005C51.3191 15.1215 40.8786 4.68098 27.9995 4.68098C15.1205 4.68098 4.68 15.1215 4.68 28.0005C4.68 40.8795 15.1205 51.3201 27.9995 51.3201ZM27.9995 56.0001C43.4633 56.0001 55.9991 43.4642 55.9991 28.0005C55.9991 12.5368 43.4633 0.000976562 27.9995 0.000976562C12.5358 0.000976562 0 12.5368 0 28.0005C0 43.4642 12.5358 56.0001 27.9995 56.0001Z" fill="#713EE6"/>
</g>
<defs>
<clipPath id="clip0_1_1777">
<rect width="56" height="56" fill="white"/>
</clipPath>
</defs>
</svg>
