<svg width="44" height="44" viewBox="0 0 44 44" fill="none" xmlns="http://www.w3.org/2000/svg">
<rect width="44" height="44" rx="12" fill="#4A4A49"/>
<path d="M29.5304 15.5303C29.8232 15.2374 29.8232 14.7626 29.5304 14.4697C29.2375 14.1768 28.7626 14.1768 28.4697 14.4697L22 20.9394L15.5303 14.4697C15.2374 14.1768 14.7626 14.1768 14.4697 14.4697C14.1768 14.7626 14.1768 15.2374 14.4697 15.5303L20.9394 22L14.4697 28.4697C14.1768 28.7626 14.1768 29.2374 14.4697 29.5303C14.7626 29.8232 15.2375 29.8232 15.5304 29.5303L22 23.0607L28.4697 29.5303C28.7626 29.8232 29.2374 29.8232 29.5303 29.5303C29.8232 29.2374 29.8232 28.7626 29.5303 28.4697L23.0607 22L29.5304 15.5303Z" fill="white"/>
</svg>
