<svg width="82" height="81" viewBox="0 0 82 81" fill="none" xmlns="http://www.w3.org/2000/svg">
<path fill-rule="evenodd" clip-rule="evenodd" d="M12.1381 9.66382C10.7974 9.66382 9.71051 10.7455 9.71051 12.0798C9.71051 13.4141 10.7974 14.4957 12.1381 14.4957H14.5658V79.2756C14.5658 80.4018 15.6975 81.1803 16.7561 80.7823L26.1966 77.2331C26.5158 77.1131 26.8732 77.1504 27.1604 77.3338L32.1042 80.49C33.1692 81.17 34.5347 81.17 35.5997 80.49L40.4174 77.4143C40.7724 77.1876 41.2276 77.1876 41.5826 77.4143L46.4003 80.49C47.4653 81.17 48.8307 81.17 49.8958 80.49L54.8395 77.3338C55.1267 77.1504 55.4842 77.1131 55.8034 77.2331L65.2438 80.7823C66.3025 81.1803 67.4342 80.4018 67.4342 79.2756V14.4957H69.8618C71.2026 14.4957 72.2895 13.4141 72.2895 12.0798C72.2895 10.7455 71.2026 9.66382 69.8618 9.66382H12.1381Z" fill="url(#paint0_linear_1_184)"/>
<path d="M7.55263 0C3.38142 0 0 3.3652 0 7.51633V16.6433C0 20.7944 3.38142 24.1596 7.55263 24.1596H9.98026V18.7227C7.16284 17.8168 5.125 15.1852 5.125 12.0798C5.125 8.22518 8.26491 5.10036 12.1382 5.10036H69.8618C73.7351 5.10036 76.875 8.22518 76.875 12.0798C76.875 15.1852 74.8372 17.8168 72.0197 18.7227V24.1596H74.4474C78.6186 24.1596 82 20.7944 82 16.6433V7.51633C82 3.3652 78.6186 0 74.4474 0H7.55263Z" fill="url(#paint1_linear_1_184)"/>
<path d="M39.8276 45.2988C39.0768 45.2753 38.2792 45.2049 37.4346 45.0876C36.59 44.9469 35.804 44.7357 35.0768 44.4542C34.3729 44.1726 33.7747 43.8325 33.282 43.4336C32.8128 43.0113 32.5782 42.5069 32.5782 41.9204C32.5782 41.6858 32.6251 41.4395 32.719 41.1814C32.8128 40.9233 32.9536 40.6887 33.1412 40.4776C33.3524 40.243 33.6105 40.0553 33.9155 39.9145C34.2439 39.7737 34.6193 39.7034 35.0416 39.7034C35.4169 39.7034 35.7689 39.762 36.0973 39.8793C36.4492 39.9732 36.8129 40.0905 37.1882 40.2312C37.5636 40.3485 37.9624 40.4776 38.3847 40.6183C38.807 40.7356 39.288 40.806 39.8276 40.8295V35.586C38.983 35.3045 38.1267 35.0112 37.2586 34.7062C36.3906 34.3778 35.6164 33.9672 34.936 33.4745C34.2556 32.9584 33.6926 32.3249 33.2468 31.5742C32.8245 30.8 32.6134 29.8264 32.6134 28.6533C32.6134 26.6357 33.2586 25.0521 34.5489 23.9025C35.8392 22.7529 37.5988 22.1195 39.8276 22.0022V20.2426C39.8276 19.9845 39.9097 19.7734 40.0739 19.6092C40.2616 19.4215 40.4845 19.3276 40.7426 19.3276C41.0006 19.3276 41.2118 19.4215 41.376 19.6092C41.5637 19.7734 41.6575 19.9845 41.6575 20.2426V22.0022C42.2675 22.0491 42.9244 22.1312 43.6282 22.2485C44.3555 22.3424 45.0242 22.5183 45.6341 22.7764C46.2676 23.011 46.7954 23.3277 47.2177 23.7265C47.64 24.1019 47.8512 24.5829 47.8512 25.1694C47.8512 25.7794 47.6166 26.2955 47.1474 26.7178C46.7016 27.1401 46.1268 27.3512 45.423 27.3512C45.0945 27.3512 44.8013 27.316 44.5432 27.2457C44.3086 27.1518 44.0623 27.058 43.8042 26.9641C43.5461 26.8703 43.2411 26.7764 42.8892 26.6826C42.5608 26.5888 42.1502 26.5184 41.6575 26.4715V31.3982C42.5725 31.7032 43.464 32.0199 44.3321 32.3484C45.2001 32.6534 45.9626 33.0522 46.6195 33.5449C47.2999 34.0141 47.8395 34.6124 48.2383 35.3396C48.6606 36.0669 48.8717 36.9936 48.8717 38.1198C48.8717 39.1755 48.684 40.1257 48.3087 40.9702C47.9568 41.7914 47.4523 42.5069 46.7954 43.1169C46.162 43.7034 45.3995 44.1844 44.508 44.5598C43.64 44.9117 42.6898 45.1345 41.6575 45.2284V47.0231C41.6575 47.2812 41.5637 47.4924 41.376 47.6566C41.2118 47.8443 41.0006 47.9381 40.7426 47.9381C40.4845 47.9381 40.2616 47.8443 40.0739 47.6566C39.9097 47.4924 39.8276 47.2812 39.8276 47.0231V45.2988ZM43.8042 38.4365C43.8042 37.803 43.64 37.3573 43.3115 37.0992C43.0065 36.8177 42.6898 36.6065 42.3614 36.4658L41.6575 36.1842V40.7239C42.3379 40.5831 42.8658 40.3251 43.2411 39.9497C43.6165 39.5509 43.8042 39.0465 43.8042 38.4365ZM39.8276 30.7296V26.5066C39.2176 26.6005 38.7015 26.7999 38.2792 27.1049C37.8569 27.3864 37.6457 27.8439 37.6457 28.4774C37.6457 29.0873 37.8099 29.5331 38.1384 29.8146C38.4669 30.0727 38.7953 30.2721 39.1238 30.4129L39.8276 30.7296Z" fill="url(#paint2_linear_1_184)"/>
<rect x="33.8896" y="52.5796" width="23.9056" height="4.83192" rx="2.41596" fill="url(#paint3_linear_1_184)"/>
<rect x="24.2513" y="52.5796" width="4.85526" height="4.83192" rx="2.41596" fill="url(#paint4_linear_1_184)"/>
<rect x="33.8896" y="62.2847" width="23.9056" height="4.83192" rx="2.41596" fill="url(#paint5_linear_1_184)"/>
<rect x="24.2513" y="62.2847" width="4.85526" height="4.83192" rx="2.41596" fill="url(#paint6_linear_1_184)"/>
<defs>
<linearGradient id="paint0_linear_1_184" x1="41" y1="9.66382" x2="41" y2="81" gradientUnits="userSpaceOnUse">
<stop stop-color="#EBF9F8"/>
<stop offset="1" stop-color="#A4F2EE"/>
</linearGradient>
<linearGradient id="paint1_linear_1_184" x1="41" y1="0" x2="41" y2="24.1596" gradientUnits="userSpaceOnUse">
<stop stop-color="#8DDDD8"/>
<stop offset="1" stop-color="#3AC2BA"/>
</linearGradient>
<linearGradient id="paint2_linear_1_184" x1="40.725" y1="19.3276" x2="40.725" y2="47.9381" gradientUnits="userSpaceOnUse">
<stop stop-color="#8DDDD8"/>
<stop offset="1" stop-color="#3AC2BA"/>
</linearGradient>
<linearGradient id="paint3_linear_1_184" x1="45.8424" y1="52.5796" x2="45.8424" y2="57.4115" gradientUnits="userSpaceOnUse">
<stop stop-color="#8DDDD8"/>
<stop offset="1" stop-color="#3AC2BA"/>
</linearGradient>
<linearGradient id="paint4_linear_1_184" x1="26.6789" y1="52.5796" x2="26.6789" y2="57.4115" gradientUnits="userSpaceOnUse">
<stop stop-color="#8DDDD8"/>
<stop offset="1" stop-color="#3AC2BA"/>
</linearGradient>
<linearGradient id="paint5_linear_1_184" x1="45.8424" y1="62.2847" x2="45.8424" y2="67.1166" gradientUnits="userSpaceOnUse">
<stop stop-color="#8DDDD8"/>
<stop offset="1" stop-color="#3AC2BA"/>
</linearGradient>
<linearGradient id="paint6_linear_1_184" x1="26.6789" y1="62.2847" x2="26.6789" y2="67.1166" gradientUnits="userSpaceOnUse">
<stop stop-color="#8DDDD8"/>
<stop offset="1" stop-color="#3AC2BA"/>
</linearGradient>
</defs>
</svg>
