<svg width="135" height="81" viewBox="0 0 135 81" fill="none" xmlns="http://www.w3.org/2000/svg">
<path fill-rule="evenodd" clip-rule="evenodd" d="M109.297 0C110.504 0 111.399 0.968797 111.588 2.13773C111.639 2.45397 111.713 2.77265 111.823 3.07998C112.433 4.78866 113.803 6.1321 115.546 6.72998C116.555 7.07599 117.634 7.06657 118.688 7.06382H119.826C120.882 7.06382 121.957 7.07696 122.968 6.72998C124.711 6.1321 126.081 4.78866 126.691 3.07998C126.801 2.77265 126.876 2.45397 126.927 2.13773C127.115 0.968797 128.01 0 129.217 0C132.199 0 134.616 2.36964 134.616 5.29278V51.3565C134.616 53.9977 132.432 56.1388 129.738 56.1388H108.776C106.082 56.1388 103.898 53.9977 103.898 51.3565V5.29278C103.898 2.36964 106.315 0 109.297 0ZM119.257 49.8185C120.2 49.8185 120.964 49.0695 120.964 48.1455C120.964 47.2215 120.2 46.4725 119.257 46.4725C118.315 46.4725 117.55 47.2215 117.55 48.1455C117.55 49.0695 118.315 49.8185 119.257 49.8185Z" fill="url(#paint0_linear_1_200)"/>
<path d="M114.896 0H123.618L121.785 2.99584C121.511 3.44368 121.017 3.7178 120.484 3.7178H118.03C117.497 3.7178 117.003 3.44368 116.729 2.99575L114.896 0Z" fill="url(#paint1_linear_1_200)"/>
<path fill-rule="evenodd" clip-rule="evenodd" d="M12.8145 9.61011C9.00359 9.61011 5.91425 12.675 5.91425 16.4557V60.6815H88.7174V16.4557C88.7174 12.675 85.628 9.61011 81.8171 9.61011H12.8145Z" fill="url(#paint2_linear_1_200)"/>
<path d="M28.5246 48.1448H23.0666L17.5808 28.6748H23.6761L26.3082 39.3833L29.4389 28.6748H33.7056L36.8364 39.3833L39.4684 28.6748H45.5637L40.078 48.1448H34.6199L31.5723 37.7423L28.5246 48.1448Z" fill="url(#paint3_linear_1_200)"/>
<path d="M52.4837 40.8575V43.027H59.6872V48.1448H46.9425V28.6748H59.5487V33.737H52.4837V35.8509H58.856V40.8575H52.4837Z" fill="url(#paint4_linear_1_200)"/>
<path d="M74.3724 38.1039C76.0347 39.0495 76.8659 40.4866 76.8659 42.4151C76.8659 44.2137 76.2841 45.623 75.1204 46.6428C73.9568 47.6442 72.2852 48.1448 70.1057 48.1448H61.9048V28.6748H69.607C71.7865 28.6748 73.4489 29.1476 74.594 30.0933C75.7392 31.039 76.3118 32.3926 76.3118 34.1542C76.3118 35.8416 75.6653 37.1582 74.3724 38.1039ZM69.2745 33.4589H67.4459V36.0734L69.5793 36.0456C70.3735 35.9343 70.7706 35.5079 70.7706 34.7661C70.7706 34.3582 70.6229 34.043 70.3273 33.8205C70.0503 33.5794 69.6993 33.4589 69.2745 33.4589ZM67.4459 43.3608H69.7732C70.2165 43.3608 70.5859 43.231 70.8815 42.9714C71.177 42.7118 71.3247 42.378 71.3247 41.97C71.3247 41.1912 70.9092 40.7369 70.078 40.6071L67.4459 40.5793V43.3608Z" fill="url(#paint5_linear_1_200)"/>
<path d="M0 68.2113C0 66.0924 1.71769 64.3748 3.83656 64.3748H34.1704C34.6981 64.3748 35.2044 64.5833 35.579 64.9549L37.8595 67.2174C38.2341 67.589 38.7404 67.7976 39.2681 67.7976H55.364C55.8917 67.7976 56.398 67.589 56.7726 67.2174L59.0531 64.9549C59.4277 64.5833 59.934 64.3748 60.4617 64.3748H90.7956C92.9144 64.3748 94.6321 66.0924 94.6321 68.2113C94.6321 75.2742 88.9065 80.9998 81.8436 80.9998H12.7885C5.72563 80.9998 0 75.2742 0 68.2113Z" fill="url(#paint6_linear_1_200)"/>
<defs>
<linearGradient id="paint0_linear_1_200" x1="119.257" y1="0" x2="119.257" y2="56.1388" gradientUnits="userSpaceOnUse">
<stop stop-color="#8DDDD8"/>
<stop offset="1" stop-color="#3AC2BA"/>
</linearGradient>
<linearGradient id="paint1_linear_1_200" x1="119.257" y1="0" x2="119.257" y2="56.1388" gradientUnits="userSpaceOnUse">
<stop stop-color="#8DDDD8"/>
<stop offset="1" stop-color="#3AC2BA"/>
</linearGradient>
<linearGradient id="paint2_linear_1_200" x1="47.3158" y1="9.61011" x2="47.3158" y2="72.6876" gradientUnits="userSpaceOnUse">
<stop stop-color="#EBF9F8"/>
<stop offset="1" stop-color="#A4F2EE"/>
</linearGradient>
<linearGradient id="paint3_linear_1_200" x1="47.2234" y1="28.6748" x2="47.2234" y2="48.1448" gradientUnits="userSpaceOnUse">
<stop stop-color="#8DDDD8"/>
<stop offset="1" stop-color="#3AC2BA"/>
</linearGradient>
<linearGradient id="paint4_linear_1_200" x1="47.2234" y1="28.6748" x2="47.2234" y2="48.1448" gradientUnits="userSpaceOnUse">
<stop stop-color="#8DDDD8"/>
<stop offset="1" stop-color="#3AC2BA"/>
</linearGradient>
<linearGradient id="paint5_linear_1_200" x1="47.2234" y1="28.6748" x2="47.2234" y2="48.1448" gradientUnits="userSpaceOnUse">
<stop stop-color="#8DDDD8"/>
<stop offset="1" stop-color="#3AC2BA"/>
</linearGradient>
<linearGradient id="paint6_linear_1_200" x1="47.3161" y1="64.3748" x2="47.3161" y2="80.9998" gradientUnits="userSpaceOnUse">
<stop stop-color="#8DDDD8"/>
<stop offset="1" stop-color="#3AC2BA"/>
</linearGradient>
</defs>
</svg>
