<svg width="4" height="8" viewBox="0 0 4 8" fill="none" xmlns="http://www.w3.org/2000/svg">
<path d="M0.851973 0.311581C0.655841 0.117192 0.339262 0.118604 0.144873 0.314735C-0.0495163 0.510867 -0.0481038 0.827446 0.148028 1.02184L1.32334 2.18671C1.80034 2.65947 2.12754 2.98483 2.34894 3.26051C2.564 3.52831 2.63778 3.70032 2.65742 3.85437C2.66975 3.9511 2.66975 4.04898 2.65742 4.14571C2.63778 4.29976 2.564 4.47177 2.34894 4.73957C2.12754 5.01526 1.80034 5.34062 1.32334 5.81337L0.148028 6.97825C-0.0481033 7.17264 -0.0495157 7.48922 0.144873 7.68535C0.339262 7.88148 0.655842 7.88289 0.851973 7.6885L2.04846 6.50264C2.49911 6.05601 2.86743 5.69098 3.12863 5.36573C3.40025 5.02752 3.59687 4.68422 3.64939 4.27215C3.67242 4.09146 3.67242 3.90862 3.64939 3.72793C3.59687 3.31586 3.40025 2.97256 3.12863 2.63435C2.86742 2.3091 2.49911 1.94407 2.04846 1.49744L0.851973 0.311581Z" fill="#1D1D1B"/>
</svg>
