<svg width="45" height="43" viewBox="0 0 45 43" fill="none" xmlns="http://www.w3.org/2000/svg">
<path d="M7.76807 30.3051C7.76807 29.5671 8.36379 28.9688 9.09866 28.9688H36.3758C37.1106 28.9688 37.7064 29.5671 37.7064 30.3051V41.664C37.7064 42.4021 37.1106 43.0004 36.3758 43.0004H9.09866C8.36379 43.0004 7.76807 42.4021 7.76807 41.664V30.3051Z" fill="url(#paint0_linear_124_1108)"/>
<path d="M7.76807 30.3051C7.76807 29.5671 8.36379 28.9688 9.09866 28.9688H36.3758C37.1106 28.9688 37.7064 29.5671 37.7064 30.3051V41.664C37.7064 42.4021 37.1106 43.0004 36.3758 43.0004H9.09866C8.36379 43.0004 7.76807 42.4021 7.76807 41.664V30.3051Z" fill="url(#paint1_linear_124_1108)"/>
<rect x="19.0781" y="28.9688" width="7.31825" height="14.0316" fill="url(#paint2_linear_124_1108)"/>
<path d="M20.409 19.6143C19.7966 19.6143 19.3002 20.1129 19.3002 20.7279V21.8415H18.1913C17.5789 21.8415 17.0825 22.3401 17.0825 22.9551C17.0825 23.5701 17.5789 24.0687 18.1913 24.0687H19.3002V25.1824C19.3002 25.7974 19.7966 26.296 20.409 26.296C21.0214 26.296 21.5178 25.7974 21.5178 25.1824V24.0687H22.6266C23.2391 24.0687 23.7355 23.5701 23.7355 22.9551C23.7355 22.3401 23.2391 21.8415 22.6266 21.8415H21.5178V20.7279C21.5178 20.1129 21.0214 19.6143 20.409 19.6143Z" fill="url(#paint3_linear_124_1108)"/>
<path d="M37.0413 7.58691C36.4289 7.58691 35.9325 8.08554 35.9325 8.70053V9.81415H34.8237C34.2113 9.81415 33.7148 10.3128 33.7148 10.9278C33.7148 11.5428 34.2113 12.0414 34.8237 12.0414H35.9325V13.155C35.9325 13.77 36.4289 14.2686 37.0413 14.2686C37.6537 14.2686 38.1501 13.77 38.1501 13.155V12.0414H39.259C39.8714 12.0414 40.3678 11.5428 40.3678 10.9278C40.3678 10.3128 39.8714 9.81415 39.259 9.81415H38.1501V8.70053C38.1501 8.08554 37.6537 7.58691 37.0413 7.58691Z" fill="url(#paint4_linear_124_1108)"/>
<path d="M32.7118 26.3834C32.3342 26.7154 31.7688 26.7154 31.3912 26.3834L31.2315 26.243C28.3192 23.6923 26.3965 22.0046 26.3965 19.9454C26.3965 18.2577 27.765 16.9414 29.5067 16.9414C30.4907 16.9414 31.4351 17.3838 32.0515 18.0775C32.6679 17.3838 33.6123 16.9414 34.5963 16.9414C36.338 16.9414 37.7065 18.2577 37.7065 19.9454C37.7065 22.0046 35.7838 23.6923 32.8715 26.243L32.7118 26.3834Z" fill="url(#paint5_linear_124_1108)"/>
<path fill-rule="evenodd" clip-rule="evenodd" d="M21.5018 3.09299C23.7899 4.02848 25.8078 6.28125 26.5764 9.12248C26.7691 9.83471 26.3504 10.5689 25.6412 10.7624C24.9321 10.9559 24.201 10.5354 24.0083 9.82319C23.4423 7.73071 21.9665 6.16865 20.4984 5.56843C19.7762 5.27316 19.1152 5.23163 18.5738 5.38947C18.0538 5.54107 17.5183 5.91175 17.0745 6.69006C15.4432 9.55067 16.8257 12.156 18.7203 15.0046C19.0088 15.4147 19.279 15.823 19.5322 16.2186C19.9274 16.836 19.7529 17.6579 19.1413 18.0597C18.5297 18.4614 17.7099 18.2926 17.3051 17.6815C17.1652 17.4703 17.0313 17.271 16.8928 17.0649C16.7763 16.8915 16.6566 16.7134 16.5274 16.5193C14.6322 13.8332 12.3192 11.7066 8.93543 12.128C8.04917 12.2384 7.50183 12.5912 7.16166 13.0143C6.80749 13.4549 6.59023 14.0831 6.58232 14.8662C6.56623 16.4581 7.4305 18.4287 9.13341 19.7616C9.71304 20.2153 9.81672 21.055 9.36499 21.6371C8.91326 22.2193 8.07718 22.3234 7.49755 21.8697C5.18529 20.0599 3.8962 17.3202 3.92127 14.8391C3.93394 13.5857 4.28589 12.3369 5.09116 11.3353C5.91042 10.3163 7.11274 9.66188 8.60793 9.47566C10.6037 9.2271 12.3055 9.61145 13.7579 10.3459C13.5482 8.7879 13.7684 7.10974 14.7652 5.36177C15.514 4.04871 16.5795 3.18786 17.832 2.82273C19.063 2.46385 20.3458 2.6204 21.5018 3.09299Z" fill="url(#paint6_linear_124_1108)"/>
<path d="M0.731619 23.5996C0.327556 22.9831 0.49759 22.1544 1.1114 21.7486L28.1774 3.85438C28.7912 3.44857 29.6163 3.61934 30.0204 4.2358L32.4024 7.87003C32.8065 8.48649 32.6365 9.3152 32.0227 9.72101L4.9567 27.6152C4.3429 28.0211 3.51775 27.8503 3.11369 27.2338L0.731619 23.5996Z" fill="url(#paint7_linear_124_1108)"/>
<path d="M0.731619 23.5996C0.327556 22.9831 0.49759 22.1544 1.1114 21.7486L28.1774 3.85438C28.7912 3.44857 29.6163 3.61934 30.0204 4.2358L32.4024 7.87003C32.8065 8.48649 32.6365 9.3152 32.0227 9.72101L4.9567 27.6152C4.3429 28.0211 3.51775 27.8503 3.11369 27.2338L0.731619 23.5996Z" fill="url(#paint8_linear_124_1108)"/>
<defs>
<linearGradient id="paint0_linear_124_1108" x1="22.7372" y1="28.9688" x2="22.7372" y2="43.0004" gradientUnits="userSpaceOnUse">
<stop stop-color="#8DDDD8"/>
<stop offset="1" stop-color="#3AC2BA"/>
</linearGradient>
<linearGradient id="paint1_linear_124_1108" x1="22.7372" y1="28.9688" x2="22.7372" y2="43.0004" gradientUnits="userSpaceOnUse">
<stop stop-color="#8F6DFF"/>
<stop offset="1" stop-color="#542CA7"/>
</linearGradient>
<linearGradient id="paint2_linear_124_1108" x1="22.7373" y1="28.9688" x2="22.7373" y2="43.0004" gradientUnits="userSpaceOnUse">
<stop stop-color="#D1C2FF"/>
<stop offset="1" stop-color="#9C7DFF"/>
</linearGradient>
<linearGradient id="paint3_linear_124_1108" x1="20.409" y1="19.6143" x2="20.409" y2="26.296" gradientUnits="userSpaceOnUse">
<stop stop-color="#D1C2FF"/>
<stop offset="1" stop-color="#9C7DFF"/>
</linearGradient>
<linearGradient id="paint4_linear_124_1108" x1="37.0413" y1="7.58691" x2="37.0413" y2="14.2686" gradientUnits="userSpaceOnUse">
<stop stop-color="#D1C2FF"/>
<stop offset="1" stop-color="#9C7DFF"/>
</linearGradient>
<linearGradient id="paint5_linear_124_1108" x1="32.0515" y1="16.9414" x2="32.0515" y2="26.964" gradientUnits="userSpaceOnUse">
<stop stop-color="#D1C2FF"/>
<stop offset="1" stop-color="#9C7DFF"/>
</linearGradient>
<linearGradient id="paint6_linear_124_1108" x1="17.2363" y1="2.11249" x2="12.9945" y2="23.1237" gradientUnits="userSpaceOnUse">
<stop stop-color="#D1C2FF"/>
<stop offset="1" stop-color="#9C7DFF"/>
</linearGradient>
<linearGradient id="paint7_linear_124_1108" x1="14.6444" y1="12.8015" x2="18.5129" y2="18.6528" gradientUnits="userSpaceOnUse">
<stop stop-color="#8DDDD8"/>
<stop offset="1" stop-color="#3AC2BA"/>
</linearGradient>
<linearGradient id="paint8_linear_124_1108" x1="14.6444" y1="12.8015" x2="18.5129" y2="18.6528" gradientUnits="userSpaceOnUse">
<stop stop-color="#8F6DFF"/>
<stop offset="1" stop-color="#542CA7"/>
</linearGradient>
</defs>
</svg>
