<svg width="45" height="43" viewBox="0 0 45 43" fill="none" xmlns="http://www.w3.org/2000/svg">
<path d="M4.63232 21.8633C4.63232 19.6369 6.41002 17.832 8.60291 17.832H37.0588C39.2517 17.832 41.0294 19.6369 41.0294 21.8633V27.7339C41.0294 29.9603 39.2517 31.7652 37.0588 31.7652H8.60291C6.41002 31.7652 4.63232 29.9603 4.63232 27.7339V21.8633Z" fill="url(#paint0_linear_124_1122)"/>
<path d="M4.63232 21.8633C4.63232 19.6369 6.41002 17.832 8.60291 17.832H37.0588C39.2517 17.832 41.0294 19.6369 41.0294 21.8633V27.7339C41.0294 29.9603 39.2517 31.7652 37.0588 31.7652H8.60291C6.41002 31.7652 4.63232 29.9603 4.63232 27.7339V21.8633Z" fill="url(#paint1_linear_124_1122)"/>
<path d="M11.1958 21.7699C11.1958 15.2458 16.405 9.95703 22.8309 9.95703C29.2568 9.95703 34.466 15.2458 34.466 21.7699V27.8278C34.466 34.3519 29.2568 39.6407 22.8309 39.6407C16.405 39.6407 11.1958 34.3519 11.1958 27.8278V21.7699Z" fill="url(#paint2_linear_124_1122)"/>
<path d="M37.4492 31.1596L37.4489 21.2456C37.4666 17.9785 36.422 14.7967 34.477 12.1938C32.5321 9.59086 29.7955 7.71224 26.6918 6.84929C23.588 5.98635 20.2905 6.1873 17.3107 7.42099C14.3309 8.65468 11.8354 10.8522 10.2111 13.6726C9.71206 14.5391 8.6157 14.8308 7.76228 14.3242C6.90886 13.8175 6.62154 12.7044 7.12054 11.838C9.14264 8.32679 12.2494 5.59116 15.9589 4.05534C19.6685 2.51952 23.7735 2.26935 27.6373 3.34363C31.5012 4.41791 34.9079 6.75661 37.3292 9.99699C39.7505 13.2374 41.0509 17.1984 41.0289 21.2656L41.0292 31.1596C41.0292 35.8435 37.2892 39.6406 32.6758 39.6406H24.6207C23.6321 39.6406 22.8307 38.827 22.8307 37.8232C22.8307 36.8195 23.6321 36.0059 24.6207 36.0059H32.6758C35.312 36.0059 37.4492 33.8361 37.4492 31.1596Z" fill="url(#paint3_linear_124_1122)"/>
<path d="M37.4492 31.1596L37.4489 21.2456C37.4666 17.9785 36.422 14.7967 34.477 12.1938C32.5321 9.59086 29.7955 7.71224 26.6918 6.84929C23.588 5.98635 20.2905 6.1873 17.3107 7.42099C14.3309 8.65468 11.8354 10.8522 10.2111 13.6726C9.71206 14.5391 8.6157 14.8308 7.76228 14.3242C6.90886 13.8175 6.62154 12.7044 7.12054 11.838C9.14264 8.32679 12.2494 5.59116 15.9589 4.05534C19.6685 2.51952 23.7735 2.26935 27.6373 3.34363C31.5012 4.41791 34.9079 6.75661 37.3292 9.99699C39.7505 13.2374 41.0509 17.1984 41.0289 21.2656L41.0292 31.1596C41.0292 35.8435 37.2892 39.6406 32.6758 39.6406H24.6207C23.6321 39.6406 22.8307 38.827 22.8307 37.8232C22.8307 36.8195 23.6321 36.0059 24.6207 36.0059H32.6758C35.312 36.0059 37.4492 33.8361 37.4492 31.1596Z" fill="url(#paint4_linear_124_1122)"/>
<defs>
<linearGradient id="paint0_linear_124_1122" x1="22.8308" y1="17.832" x2="22.8308" y2="31.7652" gradientUnits="userSpaceOnUse">
<stop stop-color="#8DDDD8"/>
<stop offset="1" stop-color="#3AC2BA"/>
</linearGradient>
<linearGradient id="paint1_linear_124_1122" x1="22.8308" y1="17.832" x2="22.8308" y2="31.7652" gradientUnits="userSpaceOnUse">
<stop stop-color="#8F6DFF"/>
<stop offset="1" stop-color="#542CA7"/>
</linearGradient>
<linearGradient id="paint2_linear_124_1122" x1="22.8309" y1="9.95703" x2="22.8309" y2="39.6407" gradientUnits="userSpaceOnUse">
<stop stop-color="#D1C2FF"/>
<stop offset="1" stop-color="#9C7DFF"/>
</linearGradient>
<linearGradient id="paint3_linear_124_1122" x1="23.9523" y1="2.6875" x2="23.9523" y2="39.6406" gradientUnits="userSpaceOnUse">
<stop stop-color="#8DDDD8"/>
<stop offset="1" stop-color="#3AC2BA"/>
</linearGradient>
<linearGradient id="paint4_linear_124_1122" x1="23.9523" y1="2.6875" x2="23.9523" y2="39.6406" gradientUnits="userSpaceOnUse">
<stop stop-color="#8F6DFF"/>
<stop offset="1" stop-color="#542CA7"/>
</linearGradient>
</defs>
</svg>
