<svg width="68" height="64" viewBox="0 0 68 64" fill="none" xmlns="http://www.w3.org/2000/svg">
<path d="M11.7386 45.1047C11.7386 44.0062 12.6388 43.1157 13.7493 43.1157H54.968C56.0785 43.1157 56.9787 44.0062 56.9787 45.1047V62.011C56.9787 63.1095 56.0785 64 54.968 64H13.7493C12.6388 64 11.7386 63.1095 11.7386 62.011V45.1047Z" fill="url(#paint0_linear_1_572)"/>
<path d="M11.7386 45.1047C11.7386 44.0062 12.6388 43.1157 13.7493 43.1157H54.968C56.0785 43.1157 56.9787 44.0062 56.9787 45.1047V62.011C56.9787 63.1095 56.0785 64 54.968 64H13.7493C12.6388 64 11.7386 63.1095 11.7386 62.011V45.1047Z" fill="url(#paint1_linear_1_572)"/>
<rect x="28.8293" y="43.1157" width="11.0587" height="20.8843" fill="url(#paint2_linear_1_572)"/>
<path d="M30.8399 29.1929C29.9145 29.1929 29.1644 29.935 29.1644 30.8504V32.5078H27.4888C26.5634 32.5078 25.8132 33.25 25.8132 34.1653C25.8132 35.0807 26.5634 35.8228 27.4888 35.8228H29.1644V37.4803C29.1644 38.3956 29.9145 39.1378 30.8399 39.1378C31.7653 39.1378 32.5155 38.3956 32.5155 37.4803V35.8228H34.191C35.1165 35.8228 35.8666 35.0807 35.8666 34.1653C35.8666 33.25 35.1165 32.5078 34.191 32.5078H32.5155V30.8504C32.5155 29.935 31.7653 29.1929 30.8399 29.1929Z" fill="url(#paint3_linear_1_572)"/>
<path d="M55.9733 11.292C55.0479 11.292 54.2978 12.0341 54.2978 12.9495V14.607H52.6222C51.6968 14.607 50.9467 15.3491 50.9467 16.2644C50.9467 17.1798 51.6968 17.9219 52.6222 17.9219H54.2978V19.5794C54.2978 20.4947 55.0479 21.2369 55.9733 21.2369C56.8988 21.2369 57.6489 20.4947 57.6489 19.5794V17.9219H59.3244C60.2499 17.9219 61 17.1798 61 16.2644C61 15.3491 60.2499 14.607 59.3244 14.607H57.6489V12.9495C57.6489 12.0341 56.8988 11.292 55.9733 11.292Z" fill="url(#paint4_linear_1_572)"/>
<path d="M49.0879 39.5652C48.7122 39.8907 48.1544 39.8907 47.7786 39.5652L47.1942 39.0591C42.7934 35.2627 39.8879 32.7507 39.8879 29.686C39.8879 27.174 41.9559 25.2148 44.5879 25.2148C46.0748 25.2148 47.5018 25.8733 48.4333 26.9057C49.3647 25.8733 50.7918 25.2148 52.2787 25.2148C54.9107 25.2148 56.9786 27.174 56.9786 29.686C56.9786 32.7507 54.0732 35.2627 49.6724 39.0591L49.0879 39.5652Z" fill="url(#paint5_linear_1_572)"/>
<path fill-rule="evenodd" clip-rule="evenodd" d="M32.4914 4.60352C35.9491 5.99588 38.9984 9.34884 40.1598 13.5776C40.4509 14.6377 39.8182 15.7305 38.7466 16.0185C37.675 16.3065 36.5703 15.6806 36.2791 14.6206C35.4238 11.5062 33.1937 9.18125 30.9753 8.28789C29.8839 7.84842 28.8851 7.78661 28.067 8.02154C27.2812 8.24718 26.472 8.79889 25.8013 9.9573C23.3363 14.215 25.4254 18.0926 28.2883 22.3325C28.7242 22.9429 29.1326 23.5506 29.5152 24.1393C30.1124 25.0582 29.8487 26.2816 28.9245 26.8795C28.0003 27.4774 26.7615 27.2261 26.1499 26.3166C25.9385 26.0023 25.7361 25.7056 25.5268 25.3989C25.3508 25.1409 25.1699 24.8757 24.9746 24.5869C22.1108 20.5889 18.6155 17.4238 13.5023 18.051C12.1631 18.2153 11.336 18.7404 10.8219 19.3702C10.2868 20.0258 9.95846 20.961 9.9465 22.1265C9.92219 24.4958 11.2282 27.4288 13.8015 29.4127C14.6774 30.0879 14.834 31.3377 14.1514 32.2041C13.4688 33.0705 12.2054 33.2255 11.3295 32.5503C7.83544 29.8566 5.88747 25.7789 5.92536 22.0861C5.94451 20.2206 6.47635 18.3619 7.69319 16.8711C8.93119 15.3544 10.748 14.3805 13.0074 14.1033C16.0233 13.7334 18.5949 14.3054 20.7895 15.3986C20.4728 13.0797 20.8055 10.5819 22.3118 7.98031C23.4433 6.02599 25.0534 4.74472 26.946 4.20128C28.8061 3.66713 30.7447 3.90013 32.4914 4.60352Z" fill="url(#paint6_linear_1_572)"/>
<path d="M1.10556 35.1245C0.494974 34.2069 0.751913 32.9735 1.67945 32.3695L42.5791 5.73622C43.5066 5.13223 44.7535 5.38639 45.3641 6.30392L48.9637 11.713C49.5743 12.6305 49.3173 13.864 48.3898 14.468L7.49013 41.1012C6.5626 41.7052 5.31571 41.4511 4.70513 40.5335L1.10556 35.1245Z" fill="url(#paint7_linear_1_572)"/>
<path d="M1.10556 35.1245C0.494974 34.2069 0.751913 32.9735 1.67945 32.3695L42.5791 5.73622C43.5066 5.13223 44.7535 5.38639 45.3641 6.30392L48.9637 11.713C49.5743 12.6305 49.3173 13.864 48.3898 14.468L7.49013 41.1012C6.5626 41.7052 5.31571 41.4511 4.70513 40.5335L1.10556 35.1245Z" fill="url(#paint8_linear_1_572)"/>
<defs>
<linearGradient id="paint0_linear_1_572" x1="34.3586" y1="43.1157" x2="34.3586" y2="64" gradientUnits="userSpaceOnUse">
<stop stop-color="#8DDDD8"/>
<stop offset="1" stop-color="#3AC2BA"/>
</linearGradient>
<linearGradient id="paint1_linear_1_572" x1="34.3586" y1="43.1157" x2="34.3586" y2="64" gradientUnits="userSpaceOnUse">
<stop stop-color="#8F6DFF"/>
<stop offset="1" stop-color="#542CA7"/>
</linearGradient>
<linearGradient id="paint2_linear_1_572" x1="34.3586" y1="43.1157" x2="34.3586" y2="64" gradientUnits="userSpaceOnUse">
<stop stop-color="#D1C2FF"/>
<stop offset="1" stop-color="#9C7DFF"/>
</linearGradient>
<linearGradient id="paint3_linear_1_572" x1="30.8399" y1="29.1929" x2="30.8399" y2="39.1378" gradientUnits="userSpaceOnUse">
<stop stop-color="#D1C2FF"/>
<stop offset="1" stop-color="#9C7DFF"/>
</linearGradient>
<linearGradient id="paint4_linear_1_572" x1="55.9733" y1="11.292" x2="55.9733" y2="21.2369" gradientUnits="userSpaceOnUse">
<stop stop-color="#D1C2FF"/>
<stop offset="1" stop-color="#9C7DFF"/>
</linearGradient>
<linearGradient id="paint5_linear_1_572" x1="48.4333" y1="25.2148" x2="48.4333" y2="40.1322" gradientUnits="userSpaceOnUse">
<stop stop-color="#D1C2FF"/>
<stop offset="1" stop-color="#9C7DFF"/>
</linearGradient>
<linearGradient id="paint6_linear_1_572" x1="26.0459" y1="3.14418" x2="19.8202" y2="34.4533" gradientUnits="userSpaceOnUse">
<stop stop-color="#D1C2FF"/>
<stop offset="1" stop-color="#9C7DFF"/>
</linearGradient>
<linearGradient id="paint7_linear_1_572" x1="22.1293" y1="19.0529" x2="27.8524" y2="27.8416" gradientUnits="userSpaceOnUse">
<stop stop-color="#8DDDD8"/>
<stop offset="1" stop-color="#3AC2BA"/>
</linearGradient>
<linearGradient id="paint8_linear_1_572" x1="22.1293" y1="19.0529" x2="27.8524" y2="27.8416" gradientUnits="userSpaceOnUse">
<stop stop-color="#8F6DFF"/>
<stop offset="1" stop-color="#542CA7"/>
</linearGradient>
</defs>
</svg>
