<svg width="45" height="43" viewBox="0 0 45 43" fill="none" xmlns="http://www.w3.org/2000/svg">
<path d="M3.9707 9.40625C3.9707 8.66412 4.56327 8.0625 5.29423 8.0625H39.706C40.437 8.0625 41.0295 8.66412 41.0295 9.40625V12.7656C41.0295 13.5078 40.437 14.1094 39.706 14.1094H5.29423C4.56327 14.1094 3.9707 13.5078 3.9707 12.7656V9.40625Z" fill="url(#paint0_linear_124_1132)"/>
<path d="M3.9707 9.40625C3.9707 8.66412 4.56327 8.0625 5.29423 8.0625H39.706C40.437 8.0625 41.0295 8.66412 41.0295 9.40625V12.7656C41.0295 13.5078 40.437 14.1094 39.706 14.1094H5.29423C4.56327 14.1094 3.9707 13.5078 3.9707 12.7656V9.40625Z" fill="url(#paint1_linear_124_1132)"/>
<path d="M3.9707 17.4687C3.9707 16.7266 4.56327 16.125 5.29423 16.125H39.706C40.437 16.125 41.0295 16.7266 41.0295 17.4688V34.2656C41.0295 35.0078 40.437 35.6094 39.706 35.6094H5.29423C4.56327 35.6094 3.9707 35.0078 3.9707 34.2656V17.4687Z" fill="url(#paint2_linear_124_1132)"/>
<path fill-rule="evenodd" clip-rule="evenodd" d="M16.5919 32.0588C16.95 31.7123 16.95 31.1928 16.5919 30.8464L12.4951 26.883C11.9478 26.3535 11.9478 25.4669 12.4952 24.9374L16.5919 20.9741C16.95 20.6277 16.95 20.1082 16.5919 19.7618C16.2338 19.4153 15.6968 19.4153 15.3387 19.7618L9.6098 25.3475C9.43091 25.5205 9.34131 25.7371 9.34131 25.9536C9.34131 26.1702 9.43091 26.3867 9.6098 26.5598L15.3387 32.0588C15.5176 32.2318 15.7414 32.3185 15.9653 32.3185C16.1891 32.3185 16.413 32.2318 16.5919 32.0588ZM20.2173 31.8856L26.3489 20.8011C26.6174 20.3681 26.4385 19.8486 26.036 19.6752C25.5883 19.4586 25.0514 19.5885 24.8275 20.0216L18.651 31.1061C18.4271 31.5392 18.5614 32.0587 19.0091 32.2752C19.1433 32.3187 19.2776 32.3619 19.4118 32.3619C19.7249 32.3619 20.0384 32.1888 20.2173 31.8856ZM29.6609 32.1021L35.3898 26.5599C35.5687 26.3865 35.6583 26.1702 35.6583 25.9537C35.6583 25.7371 35.5687 25.5206 35.3899 25.3475L29.661 19.8053C29.3028 19.4588 28.7659 19.4588 28.4078 19.8053C28.0497 20.1517 28.0497 20.6712 28.4078 21.0176L32.5045 24.9808C33.0518 25.5104 33.0518 26.397 32.5045 26.9265L28.4078 30.8897C28.0497 31.2362 28.0497 31.7557 28.4078 32.1021C28.5866 32.2751 28.8105 32.3618 29.0343 32.3618C29.2582 32.3618 29.482 32.2751 29.6609 32.1021Z" fill="url(#paint3_linear_124_1132)"/>
<path fill-rule="evenodd" clip-rule="evenodd" d="M16.5919 32.0588C16.95 31.7123 16.95 31.1928 16.5919 30.8464L12.4951 26.883C11.9478 26.3535 11.9478 25.4669 12.4952 24.9374L16.5919 20.9741C16.95 20.6277 16.95 20.1082 16.5919 19.7618C16.2338 19.4153 15.6968 19.4153 15.3387 19.7618L9.6098 25.3475C9.43091 25.5205 9.34131 25.7371 9.34131 25.9536C9.34131 26.1702 9.43091 26.3867 9.6098 26.5598L15.3387 32.0588C15.5176 32.2318 15.7414 32.3185 15.9653 32.3185C16.1891 32.3185 16.413 32.2318 16.5919 32.0588ZM20.2173 31.8856L26.3489 20.8011C26.6174 20.3681 26.4385 19.8486 26.036 19.6752C25.5883 19.4586 25.0514 19.5885 24.8275 20.0216L18.651 31.1061C18.4271 31.5392 18.5614 32.0587 19.0091 32.2752C19.1433 32.3187 19.2776 32.3619 19.4118 32.3619C19.7249 32.3619 20.0384 32.1888 20.2173 31.8856ZM29.6609 32.1021L35.3898 26.5599C35.5687 26.3865 35.6583 26.1702 35.6583 25.9537C35.6583 25.7371 35.5687 25.5206 35.3899 25.3475L29.661 19.8053C29.3028 19.4588 28.7659 19.4588 28.4078 19.8053C28.0497 20.1517 28.0497 20.6712 28.4078 21.0176L32.5045 24.9808C33.0518 25.5104 33.0518 26.397 32.5045 26.9265L28.4078 30.8897C28.0497 31.2362 28.0497 31.7557 28.4078 32.1021C28.5866 32.2751 28.8105 32.3618 29.0343 32.3618C29.2582 32.3618 29.482 32.2751 29.6609 32.1021Z" fill="url(#paint4_linear_124_1132)"/>
<path d="M9.26488 11.0859C9.26488 12.0136 8.52417 12.7656 7.61047 12.7656C6.69676 12.7656 5.95605 12.0136 5.95605 11.0859C5.95605 10.1583 6.69676 9.40625 7.61047 9.40625C8.52417 9.40625 9.26488 10.1583 9.26488 11.0859Z" fill="url(#paint5_linear_124_1132)"/>
<path d="M13.8972 11.0859C13.8972 12.0136 13.1565 12.7656 12.2428 12.7656C11.3291 12.7656 10.5884 12.0136 10.5884 11.0859C10.5884 10.1583 11.3291 9.40625 12.2428 9.40625C13.1565 9.40625 13.8972 10.1583 13.8972 11.0859Z" fill="url(#paint6_linear_124_1132)"/>
<path d="M18.5295 11.0859C18.5295 12.0136 17.7888 12.7656 16.8751 12.7656C15.9614 12.7656 15.2207 12.0136 15.2207 11.0859C15.2207 10.1583 15.9614 9.40625 16.8751 9.40625C17.7888 9.40625 18.5295 10.1583 18.5295 11.0859Z" fill="url(#paint7_linear_124_1132)"/>
<defs>
<linearGradient id="paint0_linear_124_1132" x1="22.5001" y1="8.0625" x2="22.5001" y2="14.1094" gradientUnits="userSpaceOnUse">
<stop stop-color="#8DDDD8"/>
<stop offset="1" stop-color="#3AC2BA"/>
</linearGradient>
<linearGradient id="paint1_linear_124_1132" x1="22.5001" y1="8.0625" x2="22.5001" y2="14.1094" gradientUnits="userSpaceOnUse">
<stop stop-color="#8F6DFF"/>
<stop offset="1" stop-color="#542CA7"/>
</linearGradient>
<linearGradient id="paint2_linear_124_1132" x1="22.5001" y1="16.125" x2="22.5001" y2="35.6094" gradientUnits="userSpaceOnUse">
<stop stop-color="#D1C2FF"/>
<stop offset="1" stop-color="#9C7DFF"/>
</linearGradient>
<linearGradient id="paint3_linear_124_1132" x1="22.4998" y1="19.502" x2="22.4998" y2="32.3619" gradientUnits="userSpaceOnUse">
<stop stop-color="#8DDDD8"/>
<stop offset="1" stop-color="#3AC2BA"/>
</linearGradient>
<linearGradient id="paint4_linear_124_1132" x1="22.4998" y1="19.502" x2="22.4998" y2="32.3619" gradientUnits="userSpaceOnUse">
<stop stop-color="#8F6DFF"/>
<stop offset="1" stop-color="#542CA7"/>
</linearGradient>
<linearGradient id="paint5_linear_124_1132" x1="7.61047" y1="9.40625" x2="7.61047" y2="12.7656" gradientUnits="userSpaceOnUse">
<stop stop-color="#D1C2FF"/>
<stop offset="1" stop-color="#9C7DFF"/>
</linearGradient>
<linearGradient id="paint6_linear_124_1132" x1="12.2428" y1="9.40625" x2="12.2428" y2="12.7656" gradientUnits="userSpaceOnUse">
<stop stop-color="#D1C2FF"/>
<stop offset="1" stop-color="#9C7DFF"/>
</linearGradient>
<linearGradient id="paint7_linear_124_1132" x1="16.8751" y1="9.40625" x2="16.8751" y2="12.7656" gradientUnits="userSpaceOnUse">
<stop stop-color="#D1C2FF"/>
<stop offset="1" stop-color="#9C7DFF"/>
</linearGradient>
</defs>
</svg>
