<svg width="68" height="64" viewBox="0 0 68 64" fill="none" xmlns="http://www.w3.org/2000/svg">
<path d="M6 14C6 12.8954 6.89543 12 8 12H60C61.1046 12 62 12.8954 62 14V19C62 20.1046 61.1046 21 60 21H8C6.89543 21 6 20.1046 6 19V14Z" fill="url(#paint0_linear_1_596)"/>
<path d="M6 14C6 12.8954 6.89543 12 8 12H60C61.1046 12 62 12.8954 62 14V19C62 20.1046 61.1046 21 60 21H8C6.89543 21 6 20.1046 6 19V14Z" fill="url(#paint1_linear_1_596)"/>
<path d="M6 26C6 24.8954 6.89543 24 8 24H60C61.1046 24 62 24.8954 62 26V51C62 52.1046 61.1046 53 60 53H8C6.89543 53 6 52.1046 6 51V26Z" fill="url(#paint2_linear_1_596)"/>
<path fill-rule="evenodd" clip-rule="evenodd" d="M25.0725 47.7156C25.6136 47.1999 25.6136 46.4268 25.0725 45.9112L18.8819 40.0121C18.0548 39.224 18.0548 37.9044 18.8819 37.1163L25.0725 31.2175C25.6137 30.7019 25.6137 29.9287 25.0725 29.4131C24.5314 28.8975 23.7199 28.8975 23.1788 29.4131L14.5218 37.7266C14.2515 37.9842 14.1161 38.3065 14.1161 38.6288C14.1161 38.9511 14.2515 39.2735 14.5218 39.531L23.1788 47.7156C23.4491 47.9732 23.7874 48.1022 24.1257 48.1022C24.4639 48.1022 24.8022 47.9732 25.0725 47.7156ZM30.5509 47.4578L39.8165 30.96C40.2222 30.3155 39.9518 29.5422 39.3437 29.2842C38.6672 28.9619 37.8557 29.1552 37.5175 29.7998L28.184 46.2976C27.8458 46.9422 28.0486 47.7154 28.7251 48.0377C28.928 48.1025 29.1309 48.1667 29.3337 48.1667C29.8069 48.1667 30.2805 47.9091 30.5509 47.4578ZM44.8213 47.78L53.4783 39.5312C53.7486 39.2731 53.8841 38.9512 53.8841 38.6289C53.8841 38.3066 53.7487 37.9843 53.4783 37.7267L44.8213 29.4778C44.2801 28.9622 43.4687 28.9622 42.9276 29.4778C42.3865 29.9935 42.3865 30.7667 42.9276 31.2823L49.1182 37.181C49.9453 37.9691 49.9453 39.2888 49.1182 40.0769L42.9276 45.9756C42.3865 46.4913 42.3865 47.2644 42.9276 47.78C43.1979 48.0376 43.5362 48.1666 43.8744 48.1666C44.2127 48.1666 44.551 48.0376 44.8213 47.78Z" fill="url(#paint3_linear_1_596)"/>
<path fill-rule="evenodd" clip-rule="evenodd" d="M25.0725 47.7156C25.6136 47.1999 25.6136 46.4268 25.0725 45.9112L18.8819 40.0121C18.0548 39.224 18.0548 37.9044 18.8819 37.1163L25.0725 31.2175C25.6137 30.7019 25.6137 29.9287 25.0725 29.4131C24.5314 28.8975 23.7199 28.8975 23.1788 29.4131L14.5218 37.7266C14.2515 37.9842 14.1161 38.3065 14.1161 38.6288C14.1161 38.9511 14.2515 39.2735 14.5218 39.531L23.1788 47.7156C23.4491 47.9732 23.7874 48.1022 24.1257 48.1022C24.4639 48.1022 24.8022 47.9732 25.0725 47.7156ZM30.5509 47.4578L39.8165 30.96C40.2222 30.3155 39.9518 29.5422 39.3437 29.2842C38.6672 28.9619 37.8557 29.1552 37.5175 29.7998L28.184 46.2976C27.8458 46.9422 28.0486 47.7154 28.7251 48.0377C28.928 48.1025 29.1309 48.1667 29.3337 48.1667C29.8069 48.1667 30.2805 47.9091 30.5509 47.4578ZM44.8213 47.78L53.4783 39.5312C53.7486 39.2731 53.8841 38.9512 53.8841 38.6289C53.8841 38.3066 53.7487 37.9843 53.4783 37.7267L44.8213 29.4778C44.2801 28.9622 43.4687 28.9622 42.9276 29.4778C42.3865 29.9935 42.3865 30.7667 42.9276 31.2823L49.1182 37.181C49.9453 37.9691 49.9453 39.2888 49.1182 40.0769L42.9276 45.9756C42.3865 46.4913 42.3865 47.2644 42.9276 47.78C43.1979 48.0376 43.5362 48.1666 43.8744 48.1666C44.2127 48.1666 44.551 48.0376 44.8213 47.78Z" fill="url(#paint4_linear_1_596)"/>
<path d="M14 16.5C14 17.8807 12.8807 19 11.5 19C10.1193 19 9 17.8807 9 16.5C9 15.1193 10.1193 14 11.5 14C12.8807 14 14 15.1193 14 16.5Z" fill="url(#paint5_linear_1_596)"/>
<path d="M21 16.5C21 17.8807 19.8807 19 18.5 19C17.1193 19 16 17.8807 16 16.5C16 15.1193 17.1193 14 18.5 14C19.8807 14 21 15.1193 21 16.5Z" fill="url(#paint6_linear_1_596)"/>
<path d="M28 16.5C28 17.8807 26.8807 19 25.5 19C24.1193 19 23 17.8807 23 16.5C23 15.1193 24.1193 14 25.5 14C26.8807 14 28 15.1193 28 16.5Z" fill="url(#paint7_linear_1_596)"/>
<defs>
<linearGradient id="paint0_linear_1_596" x1="34" y1="12" x2="34" y2="21" gradientUnits="userSpaceOnUse">
<stop stop-color="#8DDDD8"/>
<stop offset="1" stop-color="#3AC2BA"/>
</linearGradient>
<linearGradient id="paint1_linear_1_596" x1="34" y1="12" x2="34" y2="21" gradientUnits="userSpaceOnUse">
<stop stop-color="#8F6DFF"/>
<stop offset="1" stop-color="#542CA7"/>
</linearGradient>
<linearGradient id="paint2_linear_1_596" x1="34" y1="24" x2="34" y2="53" gradientUnits="userSpaceOnUse">
<stop stop-color="#D1C2FF"/>
<stop offset="1" stop-color="#9C7DFF"/>
</linearGradient>
<linearGradient id="paint3_linear_1_596" x1="34.0001" y1="29.0264" x2="34.0001" y2="48.1667" gradientUnits="userSpaceOnUse">
<stop stop-color="#8DDDD8"/>
<stop offset="1" stop-color="#3AC2BA"/>
</linearGradient>
<linearGradient id="paint4_linear_1_596" x1="34.0001" y1="29.0264" x2="34.0001" y2="48.1667" gradientUnits="userSpaceOnUse">
<stop stop-color="#8F6DFF"/>
<stop offset="1" stop-color="#542CA7"/>
</linearGradient>
<linearGradient id="paint5_linear_1_596" x1="11.5" y1="14" x2="11.5" y2="19" gradientUnits="userSpaceOnUse">
<stop stop-color="#D1C2FF"/>
<stop offset="1" stop-color="#9C7DFF"/>
</linearGradient>
<linearGradient id="paint6_linear_1_596" x1="18.5" y1="14" x2="18.5" y2="19" gradientUnits="userSpaceOnUse">
<stop stop-color="#D1C2FF"/>
<stop offset="1" stop-color="#9C7DFF"/>
</linearGradient>
<linearGradient id="paint7_linear_1_596" x1="25.5" y1="14" x2="25.5" y2="19" gradientUnits="userSpaceOnUse">
<stop stop-color="#D1C2FF"/>
<stop offset="1" stop-color="#9C7DFF"/>
</linearGradient>
</defs>
</svg>
